//Event file generated from Sappy .s format.
	#include "MPlayDef.event"

	#define	aai_crises_of_fate_grp  voicegroup000
	#define	aai_crises_of_fate_pri  0
	#define	aai_crises_of_fate_rev  0
	#define	aai_crises_of_fate_mvl  127
	#define	aai_crises_of_fate_key  0
	#define	aai_crises_of_fate_tbs  1
	#define	aai_crises_of_fate_exg  0
	#define	aai_crises_of_fate_cmp  1

	// .rodata
	//	aai_crises_of_fate
	ALIGN 4


//**************** Track 1 (Midi-Chn.0) ****************//

aai_crises_of_fate_001:
//  #01 //000   ----------------------------------------
 BYTE   KEYSH   aai_crises_of_fate_key+0
Label_0100E24A:
 BYTE   VOICE   124
 BYTE   VOL   90*aai_crises_of_fate_mvl/mxv
 BYTE   N05  Cn1  v120
 BYTE   W06
 BYTE   Dn1
 BYTE   W06
 BYTE   Dn1
 BYTE   W12
 BYTE   Cn1
 BYTE   N03  Dn1
 BYTE   W04
 BYTE   Dn1  v074
 BYTE   W04
 BYTE   Dn1  v102
 BYTE   W04
 BYTE   N05  Dn1  v120
 BYTE   W06
 BYTE   Dn1
 BYTE   W06
 BYTE   Cn1
 BYTE   N23  Cs2
 BYTE   W24
 BYTE   N05  Cn1
 BYTE   W24
//  #01 //001   ----------------------------------------
Label_0100E26D:
 BYTE   N05  Cn1  v120
 BYTE   W24
 BYTE   Cn1
 BYTE   W24
 BYTE   Cn1
 BYTE   W24
 BYTE   Cn1
 BYTE   W24
 BYTE   PEND 
//  #01 //002   ----------------------------------------
 BYTE   PATT
  POIN2 Label_0100E26D
//  #01 //003   ----------------------------------------
 BYTE   N05  Cn1  v120
 BYTE   W24
 BYTE   Cn1
 BYTE   W12
 BYTE   Dn1  v073
 BYTE   W06
 BYTE   Dn1  v105
 BYTE   W06
 BYTE   Cn1  v120
 BYTE   N05  Dn1  v127
 BYTE   W06
 BYTE   Dn1  v121
 BYTE   W06
 BYTE   Dn1  v122
 BYTE   W06
 BYTE   Dn1  v119
 BYTE   W06
 BYTE   Cn1  v120
 BYTE   N05  Dn1  v126
 BYTE   W24
//  #01 //004   ----------------------------------------
 BYTE   Cn1  v120
 BYTE   N05  Dn1  v124
 BYTE   W06
 BYTE   Dn1  v072
 BYTE   W06
 BYTE   Dn1  v091
 BYTE   W06
 BYTE   Dn1  v127
 BYTE   W06
 BYTE   Cn1  v120
 BYTE   N05  Dn1  v073
 BYTE   W06
 BYTE   Dn1  v087
 BYTE   W06
 BYTE   Dn1  v127
 BYTE   W06
 BYTE   Dn1  v091
 BYTE   W06
 BYTE   Cn1  v120
 BYTE   N23  Cs2
 BYTE   W06
 BYTE   N05  Fs1  v060
 BYTE   W06
 BYTE   Fs1  v082
 BYTE   W06
 BYTE   Fs1  v058
 BYTE   W06
 BYTE   Fs1  v100
 BYTE   N05  Dn1  v120
 BYTE   W06
 BYTE   Fs1  v058
 BYTE   W06
 BYTE   Fs1  v080
 BYTE   W06
 BYTE   Cn1  v120
 BYTE   N05  Fs1  v046
 BYTE   W06
//  #01 //005   ----------------------------------------
Label_0100E2DD:
 BYTE   N05  Fs1  v100
 BYTE   W06
 BYTE   Cn1  v120
 BYTE   N05  Fs1  v048
 BYTE   W06
 BYTE   Cn1  v120
 BYTE   N05  Fs1  v076
 BYTE   W06
 BYTE   Fs1  v056
 BYTE   W06
 BYTE   Fs1  v100
 BYTE   N05  Dn1  v120
 BYTE   W06
 BYTE   Fs1  v058
 BYTE   W06
 BYTE   Cn1  v120
 BYTE   N05  Fs1  v078
 BYTE   W06
 BYTE   Fs1  v060
 BYTE   W06
 BYTE   Cn1  v120
 BYTE   N05  Fs1  v100
 BYTE   W06
 BYTE   Fs1  v060
 BYTE   W06
 BYTE   Cn1  v120
 BYTE   N05  Fs1  v082
 BYTE   W06
 BYTE   Fs1  v058
 BYTE   W06
 BYTE   Fs1  v100
 BYTE   N05  Dn1  v120
 BYTE   W06
 BYTE   Fs1  v058
 BYTE   W06
 BYTE   Fs1  v080
 BYTE   W06
 BYTE   Cn1  v120
 BYTE   N05  Fs1  v046
 BYTE   W06
 BYTE   PEND 
//  #01 //006   ----------------------------------------
Label_0100E327:
 BYTE   N05  Cn1  v120
 BYTE   N05  Fs1  v100
 BYTE   W06
 BYTE   Fs1  v048
 BYTE   W06
 BYTE   Fs1  v076
 BYTE   W06
 BYTE   Cn1  v120
 BYTE   N05  Fs1  v056
 BYTE   W06
 BYTE   Fs1  v100
 BYTE   N05  Dn1  v120
 BYTE   W06
 BYTE   Fs1  v058
 BYTE   W06
 BYTE   Cn1  v120
 BYTE   N05  Fs1  v078
 BYTE   W06
 BYTE   Fs1  v060
 BYTE   W06
 BYTE   Cn1  v120
 BYTE   N05  Fs1  v100
 BYTE   W06
 BYTE   Fs1  v060
 BYTE   W06
 BYTE   Fs1  v082
 BYTE   W06
 BYTE   Fs1  v058
 BYTE   W06
 BYTE   Fs1  v100
 BYTE   N05  Dn1  v120
 BYTE   W06
 BYTE   Fs1  v058
 BYTE   W06
 BYTE   Fs1  v080
 BYTE   W06
 BYTE   Cn1  v120
 BYTE   N05  Fs1  v046
 BYTE   W06
 BYTE   PEND 
//  #01 //007   ----------------------------------------
 BYTE   PATT
  POIN2 Label_0100E2DD
//  #01 //008   ----------------------------------------
 BYTE   N05  Cn1  v120
 BYTE   N05  Fs1  v100
 BYTE   W06
 BYTE   Fs1  v048
 BYTE   W06
 BYTE   Fs1  v076
 BYTE   W06
 BYTE   Cn1  v120
 BYTE   N05  Fs1  v056
 BYTE   W06
 BYTE   Fs1  v100
 BYTE   N05  Dn1  v120
 BYTE   W06
 BYTE   Fs1  v058
 BYTE   W06
 BYTE   Cn1  v120
 BYTE   N05  Fs1  v078
 BYTE   W06
 BYTE   Fs1  v060
 BYTE   N05  Dn1  v120
 BYTE   W06
 BYTE   Cn1
 BYTE   N23  Cs2
 BYTE   W06
 BYTE   N05  Fs1  v060
 BYTE   W06
 BYTE   Fs1  v082
 BYTE   W06
 BYTE   Fs1  v058
 BYTE   W06
 BYTE   Fs1  v100
 BYTE   N05  Dn1  v120
 BYTE   W06
 BYTE   Fs1  v058
 BYTE   W06
 BYTE   Fs1  v080
 BYTE   W06
 BYTE   Cn1  v120
 BYTE   N05  Fs1  v046
 BYTE   W06
//  #01 //009   ----------------------------------------
 BYTE   PATT
  POIN2 Label_0100E2DD
//  #01 //010   ----------------------------------------
Label_0100E3C0:
 BYTE   N05  Cn1  v120
 BYTE   N05  Fs1  v100
 BYTE   W06
 BYTE   Fs1  v048
 BYTE   W06
 BYTE   Fs1  v076
 BYTE   W06
 BYTE   Cn1  v120
 BYTE   N05  Fs1  v056
 BYTE   W06
 BYTE   Fs1  v100
 BYTE   N05  Dn1  v120
 BYTE   W06
 BYTE   Fs1  v058
 BYTE   W06
 BYTE   Cn1  v120
 BYTE   N05  Fs1  v078
 BYTE   W06
 BYTE   Fs1  v060
 BYTE   W06
 BYTE   Cn1  v120
 BYTE   N05  Fs1  v100
 BYTE   W06
 BYTE   Fs1  v060
 BYTE   W06
 BYTE   Cn1  v120
 BYTE   N05  Fs1  v082
 BYTE   W06
 BYTE   Fs1  v058
 BYTE   W06
 BYTE   Fs1  v100
 BYTE   N05  Dn1  v120
 BYTE   W06
 BYTE   Fs1  v058
 BYTE   W06
 BYTE   Fs1  v080
 BYTE   W06
 BYTE   Cn1  v120
 BYTE   N05  Fs1  v046
 BYTE   W06
 BYTE   PEND 
//  #01 //011   ----------------------------------------
Label_0100E40A:
 BYTE   N05  Fs1  v100
 BYTE   W06
 BYTE   Cn1  v120
 BYTE   N05  Fs1  v048
 BYTE   W06
 BYTE   Cn1  v120
 BYTE   N05  Fs1  v076
 BYTE   W06
 BYTE   Fs1  v056
 BYTE   W06
 BYTE   Fs1  v100
 BYTE   N05  Dn1  v120
 BYTE   W06
 BYTE   Fs1  v058
 BYTE   W06
 BYTE   Fs1  v078
 BYTE   W06
 BYTE   Cn1  v120
 BYTE   N05  Fs1  v060
 BYTE   W06
 BYTE   Cn1  v120
 BYTE   N23  As1  v100
 BYTE   N05  Dn1  v030
 BYTE   W06
 BYTE   Dn1  v052
 BYTE   W06
 BYTE   Dn1  v068
 BYTE   W06
 BYTE   Dn1  v078
 BYTE   W06
 BYTE   Cn1  v120
 BYTE   N23  As1  v064
 BYTE   N05  Dn1  v087
 BYTE   W06
 BYTE   Dn1  v093
 BYTE   W06
 BYTE   Dn1  v098
 BYTE   W06
 BYTE   Dn1  v102
 BYTE   W06
 BYTE   PEND 
//  #01 //012   ----------------------------------------
 BYTE   Cn1  v120
 BYTE   N23  As1  v078
 BYTE   N05  Dn1  v106
 BYTE   W06
 BYTE   Dn1  v108
 BYTE   W06
 BYTE   Dn1  v111
 BYTE   W06
 BYTE   Dn1  v113
 BYTE   W06
 BYTE   Cn1  v120
 BYTE   N23  As1  v100
 BYTE   N05  Dn1  v115
 BYTE   W06
 BYTE   Dn1  v117
 BYTE   W06
 BYTE   Dn1  v118
 BYTE   W06
 BYTE   Dn1  v119
 BYTE   W06
 BYTE   Cn1  v120
 BYTE   N23  Cs2
 BYTE   W12
 BYTE   N12  As1  v100
 BYTE   W12
 BYTE   N05  Cn1  v120
 BYTE   N05  Fs1  v068
 BYTE   W06
 BYTE   Fs1  v078
 BYTE   W06
 BYTE   N12  As1  v100
 BYTE   W12
//  #01 //013   ----------------------------------------
Label_0100E48F:
 BYTE   N05  Cn1  v120
 BYTE   N05  Fs1  v068
 BYTE   W06
 BYTE   Fs1  v078
 BYTE   W06
 BYTE   N12  As1  v100
 BYTE   W12
 BYTE   N05  Cn1  v120
 BYTE   N05  Fs1  v068
 BYTE   W06
 BYTE   Fs1  v078
 BYTE   W06
 BYTE   N12  As1  v100
 BYTE   W12
 BYTE   N05  Cn1  v120
 BYTE   N05  Fs1  v068
 BYTE   W06
 BYTE   Fs1  v078
 BYTE   W06
 BYTE   N12  As1  v100
 BYTE   W12
 BYTE   N05  Cn1  v120
 BYTE   N05  Fs1  v068
 BYTE   W06
 BYTE   Fs1  v078
 BYTE   W06
 BYTE   N12  As1  v100
 BYTE   W12
 BYTE   PEND 
//  #01 //014   ----------------------------------------
 BYTE   PATT
  POIN2 Label_0100E48F
//  #01 //015   ----------------------------------------
 BYTE   N05  Cn1  v120
 BYTE   N05  Fs1  v068
 BYTE   W06
 BYTE   Fs1  v078
 BYTE   W06
 BYTE   N12  As1  v100
 BYTE   W12
 BYTE   N05  Cn1  v120
 BYTE   N05  Fs1  v068
 BYTE   W06
 BYTE   Fs1  v078
 BYTE   W06
 BYTE   N12  As1  v100
 BYTE   W12
 BYTE   N05  Cn1  v120
 BYTE   N05  Fs1  v068
 BYTE   W06
 BYTE   Cn1  v120
 BYTE   N05  Fs1  v078
 BYTE   W06
 BYTE   Cn1  v120
 BYTE   N12  As1  v100
 BYTE   W06
 BYTE   N05  Cn1  v120
 BYTE   W06
 BYTE   Cn1
 BYTE   N05  Fs1  v068
 BYTE   W06
 BYTE   Fs1  v078
 BYTE   W06
 BYTE   N12  As1  v100
 BYTE   W12
//  #01 //016   ----------------------------------------
 BYTE   N05  Cn1  v120
 BYTE   N05  Fs1  v068
 BYTE   W06
 BYTE   Fs1  v078
 BYTE   W06
 BYTE   N12  As1  v100
 BYTE   W06
 BYTE   N05  Cn1  v120
 BYTE   W06
 BYTE   Fs1  v068
 BYTE   W06
 BYTE   Fs1  v078
 BYTE   W06
 BYTE   Cn1  v120
 BYTE   N12  As1  v100
 BYTE   W12
 BYTE   N05  Cn1  v120
 BYTE   N05  Fs1  v068
 BYTE   W06
 BYTE   Fs1  v078
 BYTE   W06
 BYTE   N12  As1  v100
 BYTE   W12
 BYTE   N05  Cn1  v120
 BYTE   N05  Fs1  v068
 BYTE   W06
 BYTE   Fs1  v078
 BYTE   W06
 BYTE   N12  As1  v100
 BYTE   W12
//  #01 //017   ----------------------------------------
 BYTE   PATT
  POIN2 Label_0100E48F
//  #01 //018   ----------------------------------------
 BYTE   PATT
  POIN2 Label_0100E48F
//  #01 //019   ----------------------------------------
 BYTE   N05  Cn1  v120
 BYTE   N05  Fs1  v068
 BYTE   W06
 BYTE   Fs1  v078
 BYTE   W06
 BYTE   N12  As1  v100
 BYTE   W12
 BYTE   N05  Cn1  v120
 BYTE   N05  Fs1  v068
 BYTE   W06
 BYTE   Fs1  v078
 BYTE   W06
 BYTE   N12  As1  v100
 BYTE   W12
 BYTE   N05  Cn1  v120
 BYTE   N05  Fs1  v068
 BYTE   W06
 BYTE   Dn1  v120
 BYTE   W06
 BYTE   Dn1
 BYTE   W06
 BYTE   Dn1
 BYTE   W06
 BYTE   Dn1
 BYTE   W24
//  #01 //020   ----------------------------------------
 BYTE   Cn1
 BYTE   W18
 BYTE   Cn1
 BYTE   W18
 BYTE   Cn1
 BYTE   N12  As1  v100
 BYTE   W12
 BYTE   N05  Cn1  v120
 BYTE   N23  Cs2
 BYTE   W06
 BYTE   N05  Fs1  v060
 BYTE   W06
 BYTE   Fs1  v082
 BYTE   W06
 BYTE   Fs1  v058
 BYTE   W06
 BYTE   Fs1  v100
 BYTE   N05  Dn1  v120
 BYTE   W06
 BYTE   Fs1  v058
 BYTE   W06
 BYTE   Fs1  v080
 BYTE   W06
 BYTE   Cn1  v120
 BYTE   N05  Fs1  v046
 BYTE   W06
//  #01 //021   ----------------------------------------
 BYTE   PATT
  POIN2 Label_0100E2DD
//  #01 //022   ----------------------------------------
 BYTE   PATT
  POIN2 Label_0100E327
//  #01 //023   ----------------------------------------
 BYTE   PATT
  POIN2 Label_0100E2DD
//  #01 //024   ----------------------------------------
 BYTE   N05  Cn1  v120
 BYTE   N05  Fs1  v100
 BYTE   W06
 BYTE   Bn1  v120
 BYTE   W06
 BYTE   Bn1
 BYTE   N23  Gs1  v076
 BYTE   W06
 BYTE   N05  An1  v120
 BYTE   W06
 BYTE   Cn1
 BYTE   N05  An1
 BYTE   W06
 BYTE   Fn1
 BYTE   W06
 BYTE   Fn1
 BYTE   N23  Gs1  v078
 BYTE   W06
 BYTE   N05  Cn1  v120
 BYTE   W06
 BYTE   Dn1
 BYTE   W06
 BYTE   Cn1
 BYTE   W06
 BYTE   Cn1
 BYTE   N11  Gs1  v082
 BYTE   W06
 BYTE   N05  Cn1  v120
 BYTE   W06
 BYTE   N23  Cs2
 BYTE   N05  Dn1
 BYTE   W06
 BYTE   Fs1  v058
 BYTE   W06
 BYTE   Fs1  v080
 BYTE   W06
 BYTE   Cn1  v120
 BYTE   N05  Fs1  v046
 BYTE   W06
//  #01 //025   ----------------------------------------
 BYTE   PATT
  POIN2 Label_0100E2DD
//  #01 //026   ----------------------------------------
 BYTE   PATT
  POIN2 Label_0100E3C0
//  #01 //027   ----------------------------------------
 BYTE   PATT
  POIN2 Label_0100E40A
//  #01 //028   ----------------------------------------
 BYTE   N05  Cn1  v120
 BYTE   N23  As1  v078
 BYTE   N05  Dn1  v106
 BYTE   W06
 BYTE   Dn1  v108
 BYTE   W06
 BYTE   Dn1  v111
 BYTE   W06
 BYTE   Dn1  v113
 BYTE   W06
 BYTE   Cn1  v120
 BYTE   N23  As1  v100
 BYTE   N05  Dn1  v115
 BYTE   W06
 BYTE   Dn1  v117
 BYTE   W06
 BYTE   Dn1  v118
 BYTE   W06
 BYTE   Dn1  v119
 BYTE   W06
 BYTE   Cn1  v120
 BYTE   N23  Cs2
 BYTE   W12
 BYTE   N12  As1  v100
 BYTE   W12
 BYTE   N05  Cn1  v120
 BYTE   N05  Fs1  v056
 BYTE   W06
 BYTE   Fs1  v070
 BYTE   W06
 BYTE   N12  As1  v100
 BYTE   W12
//  #01 //029   ----------------------------------------
 BYTE   PATT
  POIN2 Label_0100E48F
//  #01 //030   ----------------------------------------
 BYTE   PATT
  POIN2 Label_0100E48F
//  #01 //031   ----------------------------------------
 BYTE   N05  Cn1  v120
 BYTE   N05  Fs1  v068
 BYTE   W06
 BYTE   Fs1  v078
 BYTE   W06
 BYTE   N12  As1  v100
 BYTE   W12
 BYTE   N05  Cn1  v120
 BYTE   N05  Fs1  v068
 BYTE   W06
 BYTE   Fs1  v078
 BYTE   W06
 BYTE   N12  As1  v100
 BYTE   W12
 BYTE   N05  Cn1  v120
 BYTE   W06
 BYTE   Dn1
 BYTE   W06
 BYTE   Dn1
 BYTE   W06
 BYTE   Dn1
 BYTE   W06
 BYTE   Dn1
 BYTE   W12
 BYTE   Cn1
 BYTE   W12
//  #01 //032   ----------------------------------------
 BYTE   Cn1
 BYTE   N05  Cn2
 BYTE   W06
 BYTE   Dn1  v088
 BYTE   W06
 BYTE   Dn1
 BYTE   W06
 BYTE   Cn1  v120
 BYTE   N05  An1
 BYTE   W06
 BYTE   Dn1  v088
 BYTE   W06
 BYTE   Dn1
 BYTE   W06
 BYTE   Cn1  v120
 BYTE   N05  Fn1
 BYTE   W06
 BYTE   Dn1
 BYTE   W06
 BYTE   Cn1
 BYTE   N23  Cs2
 BYTE   W12
 BYTE   N12  As1  v100
 BYTE   W12
 BYTE   N05  Cn1  v120
 BYTE   N05  Fs1  v062
 BYTE   W06
 BYTE   Fs1  v072
 BYTE   W06
 BYTE   N12  As1  v100
 BYTE   W12
//  #01 //033   ----------------------------------------
 BYTE   PATT
  POIN2 Label_0100E48F
//  #01 //034   ----------------------------------------
 BYTE   PATT
  POIN2 Label_0100E48F
//  #01 //035   ----------------------------------------
 BYTE   N05  Cn1  v120
 BYTE   N05  Fs1  v068
 BYTE   W06
 BYTE   Fs1  v078
 BYTE   W06
 BYTE   N12  As1  v100
 BYTE   W12
 BYTE   N05  Cn1  v120
 BYTE   N05  Fs1  v068
 BYTE   W06
 BYTE   Fs1  v078
 BYTE   W06
 BYTE   N12  As1  v100
 BYTE   W12
 BYTE   N05  Cn1  v120
 BYTE   N05  Fs1  v068
 BYTE   W06
 BYTE   Fs1  v078
 BYTE   W06
 BYTE   N12  As1  v100
 BYTE   N05  Dn1  v120
 BYTE   W12
 BYTE   Cn1
 BYTE   N05  Fs1  v068
 BYTE   N05  Dn1  v120
 BYTE   W06
 BYTE   Fs1  v078
 BYTE   W06
 BYTE   N12  As1  v100
 BYTE   W06
 BYTE   N05  Dn1  v120
 BYTE   W06
//  #01 //036   ----------------------------------------
 BYTE   Cn1
 BYTE   N05  Fs1  v068
 BYTE   W06
 BYTE   Fs1  v078
 BYTE   N05  Dn1  v120
 BYTE   W06
 BYTE   N12  As1  v100
 BYTE   N05  Dn1  v120
 BYTE   W12
 BYTE   Cn1
 BYTE   N05  Fs1  v068
 BYTE   N05  Dn1  v120
 BYTE   W06
 BYTE   Fs1  v078
 BYTE   W06
 BYTE   N12  As1  v100
 BYTE   W06
 BYTE   N05  Dn1  v120
 BYTE   W06
 BYTE   Cn1
 BYTE   N23  Cs2  v127
 BYTE   W06
 BYTE   N05  Fs1  v078
 BYTE   W06
 BYTE   N12  As1  v100
 BYTE   W12
 BYTE   N05  Fs1  v068
 BYTE   W06
 BYTE   Fs1  v078
 BYTE   W06
 BYTE   N12  As1  v100
 BYTE   W12
//  #01 //037   ----------------------------------------
Label_0100E72C:
 BYTE   N05  Fs1  v068
 BYTE   W06
 BYTE   Fs1  v078
 BYTE   W06
 BYTE   N12  As1  v100
 BYTE   W12
 BYTE   N05  Fs1  v068
 BYTE   W06
 BYTE   Fs1  v078
 BYTE   W06
 BYTE   N12  As1  v100
 BYTE   W12
 BYTE   N05  Fs1  v068
 BYTE   W06
 BYTE   Fs1  v078
 BYTE   W06
 BYTE   N12  As1  v100
 BYTE   W12
 BYTE   N05  Fs1  v068
 BYTE   W06
 BYTE   Fs1  v078
 BYTE   W06
 BYTE   N12  As1  v100
 BYTE   W12
 BYTE   PEND 
//  #01 //038   ----------------------------------------
 BYTE   N05  Fs1  v068
 BYTE   W06
 BYTE   Fs1  v078
 BYTE   W06
 BYTE   N12  As1  v100
 BYTE   W12
 BYTE   N05  Fs1  v068
 BYTE   W06
 BYTE   Fs1  v078
 BYTE   W06
 BYTE   Cn1  v120
 BYTE   N12  As1  v100
 BYTE   W12
 BYTE   N05  Cn1  v120
 BYTE   N05  Fs1  v068
 BYTE   W06
 BYTE   Fs1  v078
 BYTE   W06
 BYTE   N12  As1  v100
 BYTE   W12
 BYTE   N05  Fs1  v068
 BYTE   W06
 BYTE   Fs1  v078
 BYTE   W06
 BYTE   N12  As1  v100
 BYTE   W12
//  #01 //039   ----------------------------------------
 BYTE   PATT
  POIN2 Label_0100E72C
//  #01 //040   ----------------------------------------
 BYTE   N05  Fs1  v068
 BYTE   W06
 BYTE   Fs1  v078
 BYTE   W06
 BYTE   N12  As1  v100
 BYTE   W12
 BYTE   N05  Fs1  v068
 BYTE   W06
 BYTE   Fs1  v078
 BYTE   W06
 BYTE   N12  As1  v100
 BYTE   W12
 BYTE   N05  Cn1  v120
 BYTE   W24
 BYTE   Cn1
 BYTE   N05  Dn1
 BYTE   W18
 BYTE   Dn1
 BYTE   W06
//  #01 //041   ----------------------------------------
 BYTE   Cn1
 BYTE   GoTo
  POIN2 Label_0100E24A
//  #01 //042   ----------------------------------------
 BYTE   W06
 BYTE   Dn1
 BYTE   W06
 BYTE   Dn1
 BYTE   W12
 BYTE   Cn1
 BYTE   N03  Dn1
 BYTE   W04
 BYTE   Dn1  v074
 BYTE   W04
 BYTE   Dn1  v106
 BYTE   W04
 BYTE   N05  Dn1  v120
 BYTE   W06
 BYTE   Dn1
 BYTE   W05
 BYTE   FINE

//**************** Track 2 (Midi-Chn.1) ****************//

aai_crises_of_fate_002:
//  #02 //000   ----------------------------------------
 BYTE   KEYSH   aai_crises_of_fate_key+0
Label_0100E7CE:
 BYTE   VOICE   2
 BYTE   VOL   75*aai_crises_of_fate_mvl/mxv
 BYTE   W48
 BYTE   N05  Bn0  v120
 BYTE   W06
 BYTE   Bn0
 BYTE   W06
 BYTE   Bn0
 BYTE   W06
 BYTE   Bn0
 BYTE   W06
 BYTE   Bn1
 BYTE   W06
 BYTE   Bn0
 BYTE   W06
 BYTE   Bn0
 BYTE   W06
 BYTE   Bn1
 BYTE   W06
//  #02 //001   ----------------------------------------
 BYTE   Bn0
 BYTE   W06
 BYTE   Bn1
 BYTE   W06
 BYTE   Bn0
 BYTE   W06
 BYTE   Bn0
 BYTE   W06
 BYTE   Bn0
 BYTE   W06
 BYTE   Bn0
 BYTE   W06
 BYTE   Bn1
 BYTE   W06
 BYTE   Bn0
 BYTE   W06
 BYTE   Dn1
 BYTE   W06
 BYTE   Dn1
 BYTE   W06
 BYTE   Dn1
 BYTE   W06
 BYTE   Dn1
 BYTE   W06
 BYTE   Dn2
 BYTE   W06
 BYTE   Dn1
 BYTE   W06
 BYTE   Dn1
 BYTE   W06
 BYTE   Dn2
 BYTE   W06
//  #02 //002   ----------------------------------------
 BYTE   W06
 BYTE   Dn2
 BYTE   W06
 BYTE   Dn1
 BYTE   W06
 BYTE   Dn1
 BYTE   W06
 BYTE   Dn1
 BYTE   W06
 BYTE   Dn1
 BYTE   W06
 BYTE   Dn2
 BYTE   W06
 BYTE   Dn1
 BYTE   W06
 BYTE   En1
 BYTE   W06
 BYTE   En1
 BYTE   W06
 BYTE   En1
 BYTE   W06
 BYTE   En1
 BYTE   W06
 BYTE   En2
 BYTE   W06
 BYTE   En1
 BYTE   W06
 BYTE   En1
 BYTE   W06
 BYTE   En2
 BYTE   W06
//  #02 //003   ----------------------------------------
 BYTE   W06
 BYTE   En2
 BYTE   W06
 BYTE   En1
 BYTE   W06
 BYTE   En1
 BYTE   W06
 BYTE   En1
 BYTE   W06
 BYTE   En1
 BYTE   W06
 BYTE   En2
 BYTE   W06
 BYTE   En1
 BYTE   W06
 BYTE   Gn0
 BYTE   W06
 BYTE   Gn0
 BYTE   W06
 BYTE   Gn0
 BYTE   W06
 BYTE   Gn0
 BYTE   W06
 BYTE   Gn1
 BYTE   W06
 BYTE   Gn0
 BYTE   W06
 BYTE   Gn0
 BYTE   W06
 BYTE   Gn0
 BYTE   W06
//  #02 //004   ----------------------------------------
 BYTE   An0
 BYTE   W06
 BYTE   An0
 BYTE   W06
 BYTE   An0
 BYTE   W06
 BYTE   An0
 BYTE   W06
 BYTE   An1
 BYTE   W06
 BYTE   An0
 BYTE   W06
 BYTE   An0
 BYTE   W06
 BYTE   An0
 BYTE   W06
 BYTE   Bn0
 BYTE   W06
 BYTE   Bn0
 BYTE   W06
 BYTE   Bn0
 BYTE   W06
 BYTE   Bn0
 BYTE   W06
 BYTE   Bn0
 BYTE   W06
 BYTE   Bn0
 BYTE   W06
 BYTE   Bn0
 BYTE   W06
 BYTE   Bn0
 BYTE   W06
//  #02 //005   ----------------------------------------
Label_0100E863:
 BYTE   N05  Bn0  v120
 BYTE   W06
 BYTE   Bn0
 BYTE   W06
 BYTE   Bn0
 BYTE   W06
 BYTE   Bn0
 BYTE   W06
 BYTE   Bn0
 BYTE   W06
 BYTE   Bn0
 BYTE   W06
 BYTE   Bn0
 BYTE   W06
 BYTE   Bn0
 BYTE   W06
 BYTE   Bn0
 BYTE   W06
 BYTE   Bn0
 BYTE   W06
 BYTE   Bn0
 BYTE   W06
 BYTE   Bn0
 BYTE   W06
 BYTE   Bn0
 BYTE   W06
 BYTE   Bn0
 BYTE   W06
 BYTE   Bn0
 BYTE   W06
 BYTE   Bn0
 BYTE   W06
 BYTE   PEND 
//  #02 //006   ----------------------------------------
Label_0100E886:
 BYTE   N13  An0  v120
 BYTE   W18
 BYTE   N14
 BYTE   W18
 BYTE   N09  As0
 BYTE   W12
 BYTE   N05  Bn0
 BYTE   W06
 BYTE   Bn0
 BYTE   W06
 BYTE   Bn0
 BYTE   W06
 BYTE   Bn0
 BYTE   W06
 BYTE   Bn0
 BYTE   W06
 BYTE   Bn0
 BYTE   W06
 BYTE   Bn0
 BYTE   W06
 BYTE   Bn0
 BYTE   W06
 BYTE   PEND 
//  #02 //007   ----------------------------------------
 BYTE   PATT
  POIN2 Label_0100E863
//  #02 //008   ----------------------------------------
 BYTE   PATT
  POIN2 Label_0100E886
//  #02 //009   ----------------------------------------
 BYTE   PATT
  POIN2 Label_0100E863
//  #02 //010   ----------------------------------------
 BYTE   PATT
  POIN2 Label_0100E886
//  #02 //011   ----------------------------------------
 BYTE   PATT
  POIN2 Label_0100E863
//  #02 //012   ----------------------------------------
 BYTE   N05  Bn0  v120
 BYTE   W06
 BYTE   Bn0
 BYTE   W06
 BYTE   Bn0
 BYTE   W06
 BYTE   Bn0
 BYTE   W06
 BYTE   Bn0
 BYTE   W06
 BYTE   Bn0
 BYTE   W06
 BYTE   Bn0
 BYTE   W06
 BYTE   Bn0
 BYTE   W06
 BYTE   N12  Dn1
 BYTE   W12
 BYTE   N03  Dn2
 BYTE   W12
 BYTE   N12  Dn1
 BYTE   W12
 BYTE   N02  Dn2
 BYTE   W12
//  #02 //013   ----------------------------------------
Label_0100E8D8:
 BYTE   N12  Dn1  v120
 BYTE   W12
 BYTE   N02  Dn2
 BYTE   W12
 BYTE   N12  Dn1
 BYTE   W12
 BYTE   N04  Dn2
 BYTE   W12
 BYTE   N12  Fn1
 BYTE   W12
 BYTE   N03  Fn2
 BYTE   W12
 BYTE   N12  Fn1
 BYTE   W12
 BYTE   N03  Fn2
 BYTE   W12
 BYTE   PEND 
//  #02 //014   ----------------------------------------
Label_0100E8F2:
 BYTE   N12  Fn1  v120
 BYTE   W12
 BYTE   N04  Fn2
 BYTE   W12
 BYTE   N12  Fn1
 BYTE   W12
 BYTE   N03  Fn2
 BYTE   W12
 BYTE   N12  Gn1
 BYTE   W12
 BYTE   N04  Gn2
 BYTE   W12
 BYTE   N12  Gn1
 BYTE   W12
 BYTE   N04  Gn2
 BYTE   W12
 BYTE   PEND 
//  #02 //015   ----------------------------------------
Label_0100E90C:
 BYTE   N12  Gn1  v120
 BYTE   W12
 BYTE   N03  Gn2
 BYTE   W12
 BYTE   N12  Gn1
 BYTE   W12
 BYTE   N04  Gn2
 BYTE   W11
 BYTE   N05  As0
 BYTE   W05
 BYTE   N01
 BYTE   W07
 BYTE   N05
 BYTE   W05
 BYTE   N06
 BYTE   W06
 BYTE   As1
 BYTE   W06
 BYTE   As0
 BYTE   W07
 BYTE   N05
 BYTE   W06
 BYTE   As0
 BYTE   W06
 BYTE   N06  Cn1
 BYTE   W01
 BYTE   PEND 
//  #02 //016   ----------------------------------------
 BYTE   W05
 BYTE   N05
 BYTE   W05
 BYTE   N06
 BYTE   W07
 BYTE   N05
 BYTE   W06
 BYTE   Cn2
 BYTE   W06
 BYTE   N06  Cn1
 BYTE   W06
 BYTE   Cn1
 BYTE   W06
 BYTE   Cn1
 BYTE   W07
 BYTE   N12  Dn1
 BYTE   W12
 BYTE   N03  Dn2
 BYTE   W12
 BYTE   N12  Dn1
 BYTE   W12
 BYTE   N02  Dn2
 BYTE   W12
//  #02 //017   ----------------------------------------
 BYTE   PATT
  POIN2 Label_0100E8D8
//  #02 //018   ----------------------------------------
 BYTE   PATT
  POIN2 Label_0100E8F2
//  #02 //019   ----------------------------------------
 BYTE   PATT
  POIN2 Label_0100E90C
//  #02 //020   ----------------------------------------
 BYTE   W05
 BYTE   N05  Cn1  v120
 BYTE   W05
 BYTE   N06
 BYTE   W07
 BYTE   N05
 BYTE   W06
 BYTE   Cn2
 BYTE   W06
 BYTE   N06  Cn1
 BYTE   W06
 BYTE   Cn1
 BYTE   W06
 BYTE   Cn1
 BYTE   W07
 BYTE   N05  Dn1
 BYTE   W06
 BYTE   Dn1
 BYTE   W06
 BYTE   Dn1
 BYTE   W06
 BYTE   Dn1
 BYTE   W06
 BYTE   Dn1
 BYTE   W06
 BYTE   Dn1
 BYTE   W06
 BYTE   Dn1
 BYTE   W06
 BYTE   Dn1
 BYTE   W06
//  #02 //021   ----------------------------------------
Label_0100E97C:
 BYTE   N05  Dn1  v120
 BYTE   W06
 BYTE   Dn1
 BYTE   W06
 BYTE   Dn1
 BYTE   W06
 BYTE   Dn1
 BYTE   W06
 BYTE   Dn1
 BYTE   W06
 BYTE   Dn1
 BYTE   W06
 BYTE   Dn1
 BYTE   W06
 BYTE   Dn1
 BYTE   W06
 BYTE   Dn1
 BYTE   W06
 BYTE   Dn1
 BYTE   W06
 BYTE   Dn1
 BYTE   W06
 BYTE   Dn1
 BYTE   W06
 BYTE   Dn1
 BYTE   W06
 BYTE   Dn1
 BYTE   W06
 BYTE   Dn1
 BYTE   W06
 BYTE   Dn1
 BYTE   W06
 BYTE   PEND 
//  #02 //022   ----------------------------------------
Label_0100E99F:
 BYTE   N13  Cn1  v120
 BYTE   W18
 BYTE   N14
 BYTE   W18
 BYTE   N09  Cs1
 BYTE   W12
 BYTE   N05  Dn1
 BYTE   W06
 BYTE   Dn1
 BYTE   W06
 BYTE   Dn1
 BYTE   W06
 BYTE   Dn1
 BYTE   W06
 BYTE   Dn1
 BYTE   W06
 BYTE   Dn1
 BYTE   W06
 BYTE   Dn1
 BYTE   W06
 BYTE   Dn1
 BYTE   W06
 BYTE   PEND 
//  #02 //023   ----------------------------------------
 BYTE   PATT
  POIN2 Label_0100E97C
//  #02 //024   ----------------------------------------
 BYTE   PATT
  POIN2 Label_0100E99F
//  #02 //025   ----------------------------------------
 BYTE   PATT
  POIN2 Label_0100E97C
//  #02 //026   ----------------------------------------
 BYTE   PATT
  POIN2 Label_0100E99F
//  #02 //027   ----------------------------------------
 BYTE   PATT
  POIN2 Label_0100E97C
//  #02 //028   ----------------------------------------
 BYTE   N05  Dn1  v120
 BYTE   W06
 BYTE   Dn1
 BYTE   W06
 BYTE   Dn1
 BYTE   W06
 BYTE   Dn1
 BYTE   W06
 BYTE   Dn1
 BYTE   W06
 BYTE   Dn1
 BYTE   W06
 BYTE   Ds1
 BYTE   W06
 BYTE   En1
 BYTE   W06
 BYTE   N12  Fn1
 BYTE   W12
 BYTE   N03  Fn2
 BYTE   W12
 BYTE   N12  Fn1
 BYTE   W12
 BYTE   N02  Fn2
 BYTE   W12
//  #02 //029   ----------------------------------------
 BYTE   N12  Fn1
 BYTE   W12
 BYTE   N02  Fn2
 BYTE   W12
 BYTE   N12  Fn1
 BYTE   W12
 BYTE   N04  Fn2
 BYTE   W12
 BYTE   N12  Gs1
 BYTE   W12
 BYTE   N03  Gs2
 BYTE   W12
 BYTE   N12  Gs1
 BYTE   W12
 BYTE   N03  Gs2
 BYTE   W12
//  #02 //030   ----------------------------------------
 BYTE   N12  Gs1
 BYTE   W12
 BYTE   N04  Gs2
 BYTE   W12
 BYTE   N12  Gs1
 BYTE   W12
 BYTE   N03  Gs2
 BYTE   W12
 BYTE   N12  As0
 BYTE   W12
 BYTE   N04  As1
 BYTE   W12
 BYTE   N12  As0
 BYTE   W12
 BYTE   N04  As1
 BYTE   W12
//  #02 //031   ----------------------------------------
 BYTE   N12  As0
 BYTE   W12
 BYTE   N03  As1
 BYTE   W12
 BYTE   N12  As0
 BYTE   W12
 BYTE   N04  As1
 BYTE   W11
 BYTE   N05  Cs1
 BYTE   W05
 BYTE   N01
 BYTE   W07
 BYTE   N05
 BYTE   W05
 BYTE   N06
 BYTE   W06
 BYTE   Cs2
 BYTE   W06
 BYTE   Cs1
 BYTE   W07
 BYTE   N05
 BYTE   W06
 BYTE   Cs1
 BYTE   W06
 BYTE   N06  Ds1
 BYTE   W01
//  #02 //032   ----------------------------------------
 BYTE   W05
 BYTE   N05
 BYTE   W05
 BYTE   N06
 BYTE   W07
 BYTE   N05
 BYTE   W06
 BYTE   Ds2
 BYTE   W06
 BYTE   N06  Ds1
 BYTE   W06
 BYTE   Ds1
 BYTE   W06
 BYTE   Ds1
 BYTE   W07
 BYTE   N12  Gs0
 BYTE   W12
 BYTE   N03  Gs1
 BYTE   W12
 BYTE   N12  Gs0
 BYTE   W12
 BYTE   N02  Gs1
 BYTE   W12
//  #02 //033   ----------------------------------------
 BYTE   N12  Gs0
 BYTE   W12
 BYTE   N02  Gs1
 BYTE   W12
 BYTE   N12  Gs0
 BYTE   W12
 BYTE   N04  Gs1
 BYTE   W12
 BYTE   N12  Bn0
 BYTE   W12
 BYTE   N03  Bn1
 BYTE   W12
 BYTE   N12  Bn0
 BYTE   W12
 BYTE   N03  Bn1
 BYTE   W12
//  #02 //034   ----------------------------------------
 BYTE   N12  Bn0
 BYTE   W12
 BYTE   N04  Bn1
 BYTE   W12
 BYTE   N12  Bn0
 BYTE   W12
 BYTE   N03  Bn1
 BYTE   W12
 BYTE   N12  Cs1
 BYTE   W12
 BYTE   N04  Cs2
 BYTE   W12
 BYTE   N12  Cs1
 BYTE   W12
 BYTE   N04  Cs2
 BYTE   W12
//  #02 //035   ----------------------------------------
 BYTE   N12  Cs1
 BYTE   W12
 BYTE   N03  Cs2
 BYTE   W12
 BYTE   N12  Cs1
 BYTE   W12
 BYTE   N04  Cs2
 BYTE   W11
 BYTE   N05  En0
 BYTE   W05
 BYTE   N01
 BYTE   W07
 BYTE   N05
 BYTE   W05
 BYTE   N06
 BYTE   W06
 BYTE   En1
 BYTE   W06
 BYTE   En0
 BYTE   W07
 BYTE   N05
 BYTE   W06
 BYTE   En0
 BYTE   W06
 BYTE   N06  Fs0
 BYTE   W01
//  #02 //036   ----------------------------------------
 BYTE   W05
 BYTE   N05
 BYTE   W05
 BYTE   N06
 BYTE   W07
 BYTE   N05
 BYTE   W06
 BYTE   Fs1
 BYTE   W06
 BYTE   N06  Fs0
 BYTE   W06
 BYTE   Fs0
 BYTE   W06
 BYTE   Fs0
 BYTE   W07
 BYTE   N05  Gn0
 BYTE   W06
 BYTE   Gn0
 BYTE   W06
 BYTE   Gn0
 BYTE   W06
 BYTE   Gn0
 BYTE   W06
 BYTE   Gn0
 BYTE   W06
 BYTE   Gn0
 BYTE   W06
 BYTE   Gn0
 BYTE   W06
 BYTE   Gn0
 BYTE   W06
//  #02 //037   ----------------------------------------
Label_0100EACE:
 BYTE   N05  Gn0  v120
 BYTE   W06
 BYTE   Gn0
 BYTE   W06
 BYTE   Gn0
 BYTE   W06
 BYTE   Gn0
 BYTE   W06
 BYTE   Gn0
 BYTE   W06
 BYTE   Gn0
 BYTE   W06
 BYTE   Gn0
 BYTE   W06
 BYTE   Gn0
 BYTE   W06
 BYTE   Gn0
 BYTE   W06
 BYTE   Gn0
 BYTE   W06
 BYTE   Gn0
 BYTE   W06
 BYTE   Gn0
 BYTE   W06
 BYTE   Gn0
 BYTE   W06
 BYTE   Gn0
 BYTE   W06
 BYTE   Gn0
 BYTE   W06
 BYTE   Gn0
 BYTE   W06
 BYTE   PEND 
//  #02 //038   ----------------------------------------
 BYTE   PATT
  POIN2 Label_0100EACE
//  #02 //039   ----------------------------------------
 BYTE   PATT
  POIN2 Label_0100EACE
//  #02 //040   ----------------------------------------
 BYTE   N05  Gn0  v120
 BYTE   W06
 BYTE   Gn0
 BYTE   W06
 BYTE   Gn0
 BYTE   W06
 BYTE   Gn0
 BYTE   W06
 BYTE   An0
 BYTE   W06
 BYTE   An0
 BYTE   W06
 BYTE   An0
 BYTE   W06
 BYTE   An0
 BYTE   W06
 BYTE   N12  Bn0
 BYTE   W48
//  #02 //041   ----------------------------------------
 BYTE   GoTo
  POIN2 Label_0100E7CE
//  #02 //042   ----------------------------------------
 BYTE   W44
 BYTE   W03
 BYTE   FINE

//**************** Track 3 (Midi-Chn.2) ****************//

aai_crises_of_fate_003:
//  #03 //000   ----------------------------------------
 BYTE   KEYSH   aai_crises_of_fate_key+0
Label_0100C5EA:
 BYTE   VOICE   118
 BYTE   VOL   90*aai_crises_of_fate_mvl/mxv
 BYTE   W96
//  #03 //001   ----------------------------------------
 BYTE   W96
//  #03 //002   ----------------------------------------
 BYTE   W96
//  #03 //003   ----------------------------------------
 BYTE   W48
 BYTE   N05  Bn2  v120
 BYTE   W06
 BYTE   Bn2
 BYTE   W06
 BYTE   Bn2
 BYTE   W06
 BYTE   Bn2
 BYTE   W06
 BYTE   N23
 BYTE   W24
//  #03 //004   ----------------------------------------
 BYTE   N05
 BYTE   W06
 BYTE   Bn2
 BYTE   W06
 BYTE   Bn2
 BYTE   W06
 BYTE   Bn2
 BYTE   W06
 BYTE   N23
 BYTE   W24
 BYTE   N05
 BYTE   W06
 BYTE   Bn2
 BYTE   W06
 BYTE   Bn2
 BYTE   W06
 BYTE   Bn2
 BYTE   W06
 BYTE   N24
 BYTE   W24
//  #03 //005   ----------------------------------------
 BYTE   W96
//  #03 //006   ----------------------------------------
Label_0100C613:
 BYTE   W48
 BYTE   N05  Bn2  v120
 BYTE   W06
 BYTE   Bn2
 BYTE   W06
 BYTE   Bn2
 BYTE   W06
 BYTE   Bn2
 BYTE   W06
 BYTE   N24
 BYTE   W24
 BYTE   PEND 
//  #03 //007   ----------------------------------------
 BYTE   W96
//  #03 //008   ----------------------------------------
 BYTE   PATT
  POIN2 Label_0100C613
//  #03 //009   ----------------------------------------
 BYTE   W96
//  #03 //010   ----------------------------------------
 BYTE   PATT
  POIN2 Label_0100C613
//  #03 //011   ----------------------------------------
 BYTE   W96
//  #03 //012   ----------------------------------------
Label_0100C62E:
 BYTE   W48
 BYTE   N05  Dn3  v120
 BYTE   W06
 BYTE   Dn3
 BYTE   W06
 BYTE   Dn3
 BYTE   W06
 BYTE   Dn3
 BYTE   W06
 BYTE   N24
 BYTE   W24
 BYTE   PEND 
//  #03 //013   ----------------------------------------
 BYTE   PATT
  POIN2 Label_0100C62E
//  #03 //014   ----------------------------------------
 BYTE   PATT
  POIN2 Label_0100C62E
//  #03 //015   ----------------------------------------
 BYTE   PATT
  POIN2 Label_0100C62E
//  #03 //016   ----------------------------------------
Label_0100C64B:
 BYTE   N14  As2  v123
 BYTE   W18
 BYTE   N13  As2  v112
 BYTE   W18
 BYTE   N09  Cn3  v118
 BYTE   W12
 BYTE   N05  Dn3  v120
 BYTE   W06
 BYTE   Dn3
 BYTE   W06
 BYTE   Dn3
 BYTE   W06
 BYTE   Dn3
 BYTE   W06
 BYTE   N24
 BYTE   W24
 BYTE   PEND 
//  #03 //017   ----------------------------------------
 BYTE   PATT
  POIN2 Label_0100C62E
//  #03 //018   ----------------------------------------
 BYTE   PATT
  POIN2 Label_0100C62E
//  #03 //019   ----------------------------------------
 BYTE   PATT
  POIN2 Label_0100C62E
//  #03 //020   ----------------------------------------
 BYTE   PATT
  POIN2 Label_0100C64B
//  #03 //021   ----------------------------------------
 BYTE   W96
//  #03 //022   ----------------------------------------
 BYTE   PATT
  POIN2 Label_0100C62E
//  #03 //023   ----------------------------------------
 BYTE   W96
//  #03 //024   ----------------------------------------
 BYTE   PATT
  POIN2 Label_0100C62E
//  #03 //025   ----------------------------------------
 BYTE   W96
//  #03 //026   ----------------------------------------
 BYTE   PATT
  POIN2 Label_0100C62E
//  #03 //027   ----------------------------------------
 BYTE   W96
//  #03 //028   ----------------------------------------
Label_0100C68B:
 BYTE   W48
 BYTE   N05  Fn3  v120
 BYTE   W06
 BYTE   Fn3
 BYTE   W06
 BYTE   Fn3
 BYTE   W06
 BYTE   Fn3
 BYTE   W06
 BYTE   N24
 BYTE   W24
 BYTE   PEND 
//  #03 //029   ----------------------------------------
 BYTE   PATT
  POIN2 Label_0100C68B
//  #03 //030   ----------------------------------------
 BYTE   PATT
  POIN2 Label_0100C68B
//  #03 //031   ----------------------------------------
 BYTE   PATT
  POIN2 Label_0100C68B
//  #03 //032   ----------------------------------------
 BYTE   N14  Cs3  v123
 BYTE   W18
 BYTE   N13  Cs3  v112
 BYTE   W18
 BYTE   N09  Ds3  v118
 BYTE   W12
 BYTE   N05  Gs2  v120
 BYTE   W06
 BYTE   Gs2
 BYTE   W06
 BYTE   Gs2
 BYTE   W06
 BYTE   Gs2
 BYTE   W06
 BYTE   N24
 BYTE   W24
//  #03 //033   ----------------------------------------
Label_0100C6C0:
 BYTE   W48
 BYTE   N05  Gs2  v120
 BYTE   W06
 BYTE   Gs2
 BYTE   W06
 BYTE   Gs2
 BYTE   W06
 BYTE   Gs2
 BYTE   W06
 BYTE   N24
 BYTE   W24
 BYTE   PEND 
//  #03 //034   ----------------------------------------
 BYTE   PATT
  POIN2 Label_0100C6C0
//  #03 //035   ----------------------------------------
 BYTE   PATT
  POIN2 Label_0100C6C0
//  #03 //036   ----------------------------------------
 BYTE   N14  En2  v123
 BYTE   W18
 BYTE   N13  En2  v112
 BYTE   W18
 BYTE   N09  Fs2  v118
 BYTE   W60
//  #03 //037   ----------------------------------------
 BYTE   W96
//  #03 //038   ----------------------------------------
 BYTE   W96
//  #03 //039   ----------------------------------------
 BYTE   W96
//  #03 //040   ----------------------------------------
 BYTE   PATT
  POIN2 Label_0100C613
//  #03 //041   ----------------------------------------
 BYTE   GoTo
  POIN2 Label_0100C5EA
//  #03 //042   ----------------------------------------
 BYTE   W44
 BYTE   W03
 BYTE   FINE

//**************** Track 4 (Midi-Chn.3) ****************//

aai_crises_of_fate_004:
//  #04 //000   ----------------------------------------
 BYTE   KEYSH   aai_crises_of_fate_key+0
Label_0100EB1A:
 BYTE   VOICE   20
 BYTE   PAN   c_v-50
 BYTE   VOL   45*aai_crises_of_fate_mvl/mxv
 BYTE   BEND   c_v-1
 BYTE   W48
 BYTE   N03  Dn3  v095
 BYTE   W06
 BYTE   Fs3
 BYTE   W06
 BYTE   Bn3
 BYTE   W06
 BYTE   Fs3
 BYTE   W06
 BYTE   Fs4
 BYTE   W06
 BYTE   Dn4
 BYTE   W06
 BYTE   Bn3
 BYTE   W06
 BYTE   Bn4
 BYTE   W06
//  #04 //001   ----------------------------------------
 BYTE   Fs4
 BYTE   W06
 BYTE   Dn4
 BYTE   W06
 BYTE   Fs4
 BYTE   W06
 BYTE   Dn4
 BYTE   W06
 BYTE   Bn3
 BYTE   W06
 BYTE   Fs3
 BYTE   W06
 BYTE   Dn3
 BYTE   W06
 BYTE   Dn4
 BYTE   W06
 BYTE   An2
 BYTE   W06
 BYTE   Dn3
 BYTE   W06
 BYTE   Fs3
 BYTE   W06
 BYTE   Dn3
 BYTE   W06
 BYTE   An3
 BYTE   W06
 BYTE   Fs3
 BYTE   W06
 BYTE   Dn3
 BYTE   W06
 BYTE   Fs4
 BYTE   W06
//  #04 //002   ----------------------------------------
 BYTE   Dn4
 BYTE   W06
 BYTE   An3
 BYTE   W06
 BYTE   Dn4
 BYTE   W06
 BYTE   An3
 BYTE   W06
 BYTE   Fs3
 BYTE   W06
 BYTE   Dn3
 BYTE   W06
 BYTE   An3
 BYTE   W06
 BYTE   Fs3
 BYTE   W06
 BYTE   Bn2
 BYTE   W06
 BYTE   En3
 BYTE   W06
 BYTE   Gs3
 BYTE   W06
 BYTE   En3
 BYTE   W06
 BYTE   En4
 BYTE   W06
 BYTE   Bn3
 BYTE   W06
 BYTE   Gs3
 BYTE   W06
 BYTE   Bn4
 BYTE   W06
//  #04 //003   ----------------------------------------
 BYTE   Gs4
 BYTE   W06
 BYTE   En4
 BYTE   W06
 BYTE   Bn3
 BYTE   W06
 BYTE   Gs3
 BYTE   W06
 BYTE   En4
 BYTE   W06
 BYTE   Bn3
 BYTE   W06
 BYTE   Gs3
 BYTE   W06
 BYTE   En3
 BYTE   W06
 BYTE   Bn2
 BYTE   W06
 BYTE   Dn3
 BYTE   W06
 BYTE   Gn3
 BYTE   W06
 BYTE   Dn3
 BYTE   W06
 BYTE   Bn3
 BYTE   W06
 BYTE   Gn3
 BYTE   W06
 BYTE   Dn3
 BYTE   W06
 BYTE   Dn4
 BYTE   W06
//  #04 //004   ----------------------------------------
 BYTE   Cs4
 BYTE   W06
 BYTE   An3
 BYTE   W06
 BYTE   En3
 BYTE   W06
 BYTE   An4
 BYTE   W06
 BYTE   En4
 BYTE   W06
 BYTE   Cs4
 BYTE   W06
 BYTE   An3
 BYTE   W06
 BYTE   Cs4
 BYTE   W06
 BYTE   Bn2
 BYTE   W06
 BYTE   Bn2
 BYTE   W06
 BYTE   Bn3
 BYTE   W06
 BYTE   Bn2
 BYTE   W06
 BYTE   Bn2
 BYTE   W06
 BYTE   Bn3
 BYTE   W06
 BYTE   Bn2
 BYTE   W06
 BYTE   Bn2
 BYTE   W06
//  #04 //005   ----------------------------------------
Label_0100EBB5:
 BYTE   N03  Bn3  v095
 BYTE   W06
 BYTE   Bn2
 BYTE   W06
 BYTE   Bn2
 BYTE   W06
 BYTE   Bn3
 BYTE   W06
 BYTE   Bn2
 BYTE   W06
 BYTE   Bn2
 BYTE   W06
 BYTE   Bn3
 BYTE   W06
 BYTE   Bn2
 BYTE   W06
 BYTE   Bn2
 BYTE   W06
 BYTE   Bn2
 BYTE   W06
 BYTE   Bn3
 BYTE   W06
 BYTE   Bn2
 BYTE   W06
 BYTE   Bn2
 BYTE   W06
 BYTE   Bn3
 BYTE   W06
 BYTE   Bn2
 BYTE   W06
 BYTE   Bn2
 BYTE   W06
 BYTE   PEND 
//  #04 //006   ----------------------------------------
Label_0100EBD8:
 BYTE   N03  An3  v095
 BYTE   W06
 BYTE   An2
 BYTE   W06
 BYTE   An2
 BYTE   W06
 BYTE   An3
 BYTE   W06
 BYTE   An2
 BYTE   W06
 BYTE   An2
 BYTE   W06
 BYTE   As3
 BYTE   W06
 BYTE   As2
 BYTE   W06
 BYTE   Bn2
 BYTE   W06
 BYTE   Bn2
 BYTE   W06
 BYTE   Bn3
 BYTE   W06
 BYTE   Bn2
 BYTE   W06
 BYTE   Bn2
 BYTE   W06
 BYTE   Bn3
 BYTE   W06
 BYTE   Bn2
 BYTE   W06
 BYTE   Bn2
 BYTE   W06
 BYTE   PEND 
//  #04 //007   ----------------------------------------
 BYTE   PATT
  POIN2 Label_0100EBB5
//  #04 //008   ----------------------------------------
 BYTE   PATT
  POIN2 Label_0100EBD8
//  #04 //009   ----------------------------------------
 BYTE   PATT
  POIN2 Label_0100EBB5
//  #04 //010   ----------------------------------------
 BYTE   PATT
  POIN2 Label_0100EBD8
//  #04 //011   ----------------------------------------
 BYTE   PATT
  POIN2 Label_0100EBB5
//  #04 //012   ----------------------------------------
 BYTE   N03  Bn3  v095
 BYTE   W06
 BYTE   Bn2
 BYTE   W06
 BYTE   Bn2
 BYTE   W06
 BYTE   Bn3
 BYTE   W06
 BYTE   Bn2
 BYTE   W06
 BYTE   Bn2
 BYTE   W06
 BYTE   Bn3
 BYTE   W06
 BYTE   Bn2
 BYTE   W06
 BYTE   Fn3
 BYTE   W06
 BYTE   An3
 BYTE   W06
 BYTE   Dn4
 BYTE   W06
 BYTE   An3
 BYTE   W06
 BYTE   An4
 BYTE   W06
 BYTE   Fn4
 BYTE   W06
 BYTE   Dn4
 BYTE   W06
 BYTE   Dn5
 BYTE   W06
//  #04 //013   ----------------------------------------
Label_0100EC36:
 BYTE   N03  An4  v095
 BYTE   W06
 BYTE   Fn4
 BYTE   W06
 BYTE   An4
 BYTE   W06
 BYTE   Fn4
 BYTE   W06
 BYTE   Dn4
 BYTE   W06
 BYTE   An3
 BYTE   W06
 BYTE   Fn3
 BYTE   W06
 BYTE   Fn4
 BYTE   W06
 BYTE   Cn3
 BYTE   W06
 BYTE   Fn3
 BYTE   W06
 BYTE   An3
 BYTE   W06
 BYTE   Fn3
 BYTE   W06
 BYTE   Cn4
 BYTE   W06
 BYTE   An3
 BYTE   W06
 BYTE   Fn3
 BYTE   W06
 BYTE   An4
 BYTE   W06
 BYTE   PEND 
//  #04 //014   ----------------------------------------
Label_0100EC59:
 BYTE   N03  Fn4  v095
 BYTE   W06
 BYTE   Cn4
 BYTE   W06
 BYTE   Fn4
 BYTE   W06
 BYTE   Cn4
 BYTE   W06
 BYTE   An3
 BYTE   W06
 BYTE   Fn3
 BYTE   W06
 BYTE   Cn4
 BYTE   W06
 BYTE   An3
 BYTE   W06
 BYTE   Dn3
 BYTE   W06
 BYTE   Gn3
 BYTE   W06
 BYTE   Bn3
 BYTE   W06
 BYTE   Gn3
 BYTE   W06
 BYTE   Gn4
 BYTE   W06
 BYTE   Dn4
 BYTE   W06
 BYTE   Bn3
 BYTE   W06
 BYTE   Dn5
 BYTE   W06
 BYTE   PEND 
//  #04 //015   ----------------------------------------
Label_0100EC7C:
 BYTE   N03  Bn4  v095
 BYTE   W06
 BYTE   Gn4
 BYTE   W06
 BYTE   Dn4
 BYTE   W06
 BYTE   Bn3
 BYTE   W06
 BYTE   Gn4
 BYTE   W06
 BYTE   Dn4
 BYTE   W06
 BYTE   Bn3
 BYTE   W06
 BYTE   Gn3
 BYTE   W06
 BYTE   Dn3
 BYTE   W06
 BYTE   Fn3
 BYTE   W06
 BYTE   As3
 BYTE   W06
 BYTE   Fn3
 BYTE   W06
 BYTE   Dn4
 BYTE   W06
 BYTE   As3
 BYTE   W06
 BYTE   Fn3
 BYTE   W06
 BYTE   Fn4
 BYTE   W06
 BYTE   PEND 
//  #04 //016   ----------------------------------------
 BYTE   En4
 BYTE   W06
 BYTE   Cn4
 BYTE   W06
 BYTE   Gn3
 BYTE   W06
 BYTE   Cn5
 BYTE   W06
 BYTE   Gn4
 BYTE   W06
 BYTE   En4
 BYTE   W06
 BYTE   Cn4
 BYTE   W06
 BYTE   En4
 BYTE   W06
 BYTE   Fn3
 BYTE   W06
 BYTE   An3
 BYTE   W06
 BYTE   Dn4
 BYTE   W06
 BYTE   An3
 BYTE   W06
 BYTE   An4
 BYTE   W06
 BYTE   Fn4
 BYTE   W06
 BYTE   Dn4
 BYTE   W06
 BYTE   Dn5
 BYTE   W06
//  #04 //017   ----------------------------------------
 BYTE   PATT
  POIN2 Label_0100EC36
//  #04 //018   ----------------------------------------
 BYTE   PATT
  POIN2 Label_0100EC59
//  #04 //019   ----------------------------------------
 BYTE   PATT
  POIN2 Label_0100EC7C
//  #04 //020   ----------------------------------------
 BYTE   N03  En4  v095
 BYTE   W06
 BYTE   Cn4
 BYTE   W06
 BYTE   Gn3
 BYTE   W06
 BYTE   Cn5
 BYTE   W06
 BYTE   Gn4
 BYTE   W06
 BYTE   En4
 BYTE   W06
 BYTE   Cn4
 BYTE   W06
 BYTE   En4
 BYTE   W06
 BYTE   Dn3
 BYTE   W06
 BYTE   Dn3
 BYTE   W06
 BYTE   Dn4
 BYTE   W06
 BYTE   Dn3
 BYTE   W06
 BYTE   Dn3
 BYTE   W06
 BYTE   Dn4
 BYTE   W06
 BYTE   Dn3
 BYTE   W06
 BYTE   Dn3
 BYTE   W06
//  #04 //021   ----------------------------------------
Label_0100ECF0:
 BYTE   N03  Dn4  v095
 BYTE   W06
 BYTE   Dn3
 BYTE   W06
 BYTE   Dn3
 BYTE   W06
 BYTE   Dn4
 BYTE   W06
 BYTE   Dn3
 BYTE   W06
 BYTE   Dn3
 BYTE   W06
 BYTE   Dn4
 BYTE   W06
 BYTE   Dn3
 BYTE   W06
 BYTE   Dn3
 BYTE   W06
 BYTE   Dn3
 BYTE   W06
 BYTE   Dn4
 BYTE   W06
 BYTE   Dn3
 BYTE   W06
 BYTE   Dn3
 BYTE   W06
 BYTE   Dn4
 BYTE   W06
 BYTE   Dn3
 BYTE   W06
 BYTE   Dn3
 BYTE   W06
 BYTE   PEND 
//  #04 //022   ----------------------------------------
Label_0100ED13:
 BYTE   N03  Cn4  v095
 BYTE   W06
 BYTE   Cn3
 BYTE   W06
 BYTE   Cn3
 BYTE   W06
 BYTE   Cn4
 BYTE   W06
 BYTE   Cn3
 BYTE   W06
 BYTE   Cn3
 BYTE   W06
 BYTE   Cs4
 BYTE   W06
 BYTE   Cs3
 BYTE   W06
 BYTE   Dn3
 BYTE   W06
 BYTE   Dn3
 BYTE   W06
 BYTE   Dn4
 BYTE   W06
 BYTE   Dn3
 BYTE   W06
 BYTE   Dn3
 BYTE   W06
 BYTE   Dn4
 BYTE   W06
 BYTE   Dn3
 BYTE   W06
 BYTE   Dn3
 BYTE   W06
 BYTE   PEND 
//  #04 //023   ----------------------------------------
 BYTE   PATT
  POIN2 Label_0100ECF0
//  #04 //024   ----------------------------------------
 BYTE   PATT
  POIN2 Label_0100ED13
//  #04 //025   ----------------------------------------
 BYTE   PATT
  POIN2 Label_0100ECF0
//  #04 //026   ----------------------------------------
 BYTE   PATT
  POIN2 Label_0100ED13
//  #04 //027   ----------------------------------------
 BYTE   PATT
  POIN2 Label_0100ECF0
//  #04 //028   ----------------------------------------
 BYTE   N03  Dn4  v095
 BYTE   W06
 BYTE   Dn3
 BYTE   W06
 BYTE   Dn3
 BYTE   W06
 BYTE   Dn4
 BYTE   W06
 BYTE   Dn3
 BYTE   W06
 BYTE   Dn3
 BYTE   W06
 BYTE   Dn4
 BYTE   W06
 BYTE   Dn3
 BYTE   W06
 BYTE   Gs3
 BYTE   W06
 BYTE   Cn4
 BYTE   W06
 BYTE   Fn4
 BYTE   W06
 BYTE   Cn4
 BYTE   W06
 BYTE   Cn5
 BYTE   W06
 BYTE   Gs4
 BYTE   W06
 BYTE   Fn4
 BYTE   W06
 BYTE   Fn5
 BYTE   W06
//  #04 //029   ----------------------------------------
 BYTE   Cn5
 BYTE   W06
 BYTE   Gs4
 BYTE   W06
 BYTE   Cn5
 BYTE   W06
 BYTE   Gs4
 BYTE   W06
 BYTE   Fn4
 BYTE   W06
 BYTE   Cn4
 BYTE   W06
 BYTE   Gs3
 BYTE   W06
 BYTE   Gs4
 BYTE   W06
 BYTE   Ds3
 BYTE   W06
 BYTE   Gs3
 BYTE   W06
 BYTE   Cn4
 BYTE   W06
 BYTE   Gs3
 BYTE   W06
 BYTE   Ds4
 BYTE   W06
 BYTE   Cn4
 BYTE   W06
 BYTE   Gs3
 BYTE   W06
 BYTE   Cn5
 BYTE   W06
//  #04 //030   ----------------------------------------
 BYTE   Gs4
 BYTE   W06
 BYTE   Ds4
 BYTE   W06
 BYTE   Gs4
 BYTE   W06
 BYTE   Ds4
 BYTE   W06
 BYTE   Cn4
 BYTE   W06
 BYTE   Gs3
 BYTE   W06
 BYTE   Ds4
 BYTE   W06
 BYTE   Cn4
 BYTE   W06
 BYTE   Fn3
 BYTE   W06
 BYTE   As3
 BYTE   W06
 BYTE   Dn4
 BYTE   W06
 BYTE   As3
 BYTE   W06
 BYTE   As4
 BYTE   W06
 BYTE   Fn4
 BYTE   W06
 BYTE   Dn4
 BYTE   W06
 BYTE   Fn5
 BYTE   W06
//  #04 //031   ----------------------------------------
 BYTE   Dn5
 BYTE   W06
 BYTE   As4
 BYTE   W06
 BYTE   Fn4
 BYTE   W06
 BYTE   Dn4
 BYTE   W06
 BYTE   As4
 BYTE   W06
 BYTE   Fn4
 BYTE   W06
 BYTE   Dn4
 BYTE   W06
 BYTE   As3
 BYTE   W06
 BYTE   Fn3
 BYTE   W06
 BYTE   Gs3
 BYTE   W06
 BYTE   Cs4
 BYTE   W06
 BYTE   Gs3
 BYTE   W06
 BYTE   Fn4
 BYTE   W06
 BYTE   Cs4
 BYTE   W06
 BYTE   Gs3
 BYTE   W06
 BYTE   Gs4
 BYTE   W06
//  #04 //032   ----------------------------------------
 BYTE   Gn4
 BYTE   W06
 BYTE   Ds4
 BYTE   W06
 BYTE   As3
 BYTE   W06
 BYTE   Ds5
 BYTE   W06
 BYTE   As4
 BYTE   W06
 BYTE   Gn4
 BYTE   W06
 BYTE   Ds4
 BYTE   W06
 BYTE   Gn4
 BYTE   W06
 BYTE   Bn2
 BYTE   W06
 BYTE   Ds3
 BYTE   W06
 BYTE   Gs3
 BYTE   W06
 BYTE   Ds3
 BYTE   W06
 BYTE   Ds4
 BYTE   W06
 BYTE   Bn3
 BYTE   W06
 BYTE   Gs3
 BYTE   W06
 BYTE   Gs4
 BYTE   W06
//  #04 //033   ----------------------------------------
 BYTE   Ds4
 BYTE   W06
 BYTE   Bn3
 BYTE   W06
 BYTE   Ds4
 BYTE   W06
 BYTE   Bn3
 BYTE   W06
 BYTE   Gs3
 BYTE   W06
 BYTE   Ds3
 BYTE   W06
 BYTE   Bn2
 BYTE   W06
 BYTE   Bn3
 BYTE   W06
 BYTE   Fs2
 BYTE   W06
 BYTE   Bn2
 BYTE   W06
 BYTE   Ds3
 BYTE   W06
 BYTE   Bn2
 BYTE   W06
 BYTE   Fs3
 BYTE   W06
 BYTE   Ds3
 BYTE   W06
 BYTE   Bn2
 BYTE   W06
 BYTE   Ds4
 BYTE   W06
//  #04 //034   ----------------------------------------
 BYTE   Bn3
 BYTE   W06
 BYTE   Fs3
 BYTE   W06
 BYTE   Bn3
 BYTE   W06
 BYTE   Fs3
 BYTE   W06
 BYTE   Ds3
 BYTE   W06
 BYTE   Bn2
 BYTE   W06
 BYTE   Fs3
 BYTE   W06
 BYTE   Ds3
 BYTE   W06
 BYTE   Gs2
 BYTE   W06
 BYTE   Cs3
 BYTE   W06
 BYTE   Fn3
 BYTE   W06
 BYTE   Cs3
 BYTE   W06
 BYTE   Cs4
 BYTE   W06
 BYTE   Gs3
 BYTE   W06
 BYTE   Fn3
 BYTE   W06
 BYTE   Gs4
 BYTE   W06
//  #04 //035   ----------------------------------------
 BYTE   Fn4
 BYTE   W06
 BYTE   Cs4
 BYTE   W06
 BYTE   Gs3
 BYTE   W06
 BYTE   Fn3
 BYTE   W06
 BYTE   Cs4
 BYTE   W06
 BYTE   Gs3
 BYTE   W06
 BYTE   Fn3
 BYTE   W06
 BYTE   Cs3
 BYTE   W06
 BYTE   Gs2
 BYTE   W06
 BYTE   Bn2
 BYTE   W06
 BYTE   En3
 BYTE   W06
 BYTE   Bn2
 BYTE   W06
 BYTE   Gs3
 BYTE   W06
 BYTE   En3
 BYTE   W06
 BYTE   Bn2
 BYTE   W06
 BYTE   Bn3
 BYTE   W06
//  #04 //036   ----------------------------------------
 BYTE   As3
 BYTE   W06
 BYTE   Fs3
 BYTE   W06
 BYTE   Cs3
 BYTE   W06
 BYTE   Fs4
 BYTE   W06
 BYTE   Cs4
 BYTE   W06
 BYTE   As3
 BYTE   W06
 BYTE   Fs3
 BYTE   W06
 BYTE   As3
 BYTE   W06
 BYTE   N04  Dn2  v067
 BYTE   N04  Fs2  v070
 BYTE   W12
 BYTE   Bn2  v063
 BYTE   N04  Dn3  v075
 BYTE   W12
 BYTE   Dn2  v063
 BYTE   N04  Fs2  v068
 BYTE   W12
 BYTE   Bn2  v059
 BYTE   N04  Dn3  v072
 BYTE   W12
//  #04 //037   ----------------------------------------
 BYTE   Dn2  v065
 BYTE   N04  Fs2  v067
 BYTE   W12
 BYTE   Bn2  v053
 BYTE   N04  Dn3  v070
 BYTE   W12
 BYTE   Dn2  v063
 BYTE   N04  Fs2  v069
 BYTE   W12
 BYTE   Bn2  v056
 BYTE   N04  Dn3  v070
 BYTE   W12
 BYTE   Dn2  v068
 BYTE   N04  Fs2  v074
 BYTE   W12
 BYTE   Bn2  v065
 BYTE   N04  Dn3  v077
 BYTE   W12
 BYTE   Dn2  v062
 BYTE   N04  Fs2  v065
 BYTE   W12
 BYTE   Bn2  v059
 BYTE   N04  Dn3  v071
 BYTE   W12
//  #04 //038   ----------------------------------------
 BYTE   Dn2  v063
 BYTE   N04  Fs2  v074
 BYTE   W12
 BYTE   Bn2  v063
 BYTE   N04  Dn3  v080
 BYTE   W12
 BYTE   Dn2  v067
 BYTE   N04  Fs2  v070
 BYTE   W12
 BYTE   Bn2  v069
 BYTE   N04  Dn3  v087
 BYTE   W12
 BYTE   Dn2  v065
 BYTE   N04  Fs2  v074
 BYTE   W12
 BYTE   Bn2  v069
 BYTE   N04  Dn3  v084
 BYTE   W12
 BYTE   Dn2  v069
 BYTE   N04  Fs2  v071
 BYTE   W12
 BYTE   Bn2  v068
 BYTE   N04  Dn3  v085
 BYTE   W12
//  #04 //039   ----------------------------------------
 BYTE   Dn2  v063
 BYTE   N04  Fs2  v072
 BYTE   W12
 BYTE   Cs3
 BYTE   N04  En3  v087
 BYTE   W12
 BYTE   En2  v068
 BYTE   N04  An2  v069
 BYTE   W12
 BYTE   Cs3
 BYTE   N04  En3  v085
 BYTE   W12
 BYTE   En2  v080
 BYTE   N04  An2  v073
 BYTE   W12
 BYTE   Cs3  v071
 BYTE   N04  En3  v085
 BYTE   W12
 BYTE   En2  v080
 BYTE   N04  An2  v070
 BYTE   W12
 BYTE   Cs3  v069
 BYTE   N04  En3  v089
 BYTE   W12
//  #04 //040   ----------------------------------------
 BYTE   En2  v087
 BYTE   N04  An2  v077
 BYTE   W12
 BYTE   Cs3  v070
 BYTE   N04  En3  v088
 BYTE   W12
 BYTE   En2  v091
 BYTE   N04  An2  v074
 BYTE   W12
 BYTE   Cs3  v090
 BYTE   N04  En3  v094
 BYTE   W60
//  #04 //041   ----------------------------------------
 BYTE   GoTo
  POIN2 Label_0100EB1A
//  #04 //042   ----------------------------------------
 BYTE   W44
 BYTE   W03
 BYTE   FINE

//**************** Track 5 (Midi-Chn.4) ****************//

aai_crises_of_fate_005:
//  #05 //000   ----------------------------------------
 BYTE   KEYSH   aai_crises_of_fate_key+0
Label_0100F33E:
 BYTE   VOICE   20
 BYTE   PAN   c_v+30
 BYTE   VOL   15*aai_crises_of_fate_mvl/mxv
 BYTE   BEND   c_v-1
 BYTE   W66
 BYTE   N03  Dn3  v095
 BYTE   W06
 BYTE   Fs3
 BYTE   W06
 BYTE   Bn3
 BYTE   W06
 BYTE   Fs3
 BYTE   W06
 BYTE   Fs4
 BYTE   W06
//  #05 //001   ----------------------------------------
 BYTE   Dn4
 BYTE   W06
 BYTE   Bn3
 BYTE   W06
 BYTE   Bn4
 BYTE   W06
 BYTE   Fs4
 BYTE   W06
 BYTE   Dn4
 BYTE   W06
 BYTE   Fs4
 BYTE   W06
 BYTE   Dn4
 BYTE   W06
 BYTE   Bn3
 BYTE   W06
 BYTE   Fs3
 BYTE   W06
 BYTE   Dn3
 BYTE   W06
 BYTE   Dn4
 BYTE   W06
 BYTE   An2
 BYTE   W06
 BYTE   Dn3
 BYTE   W06
 BYTE   Fs3
 BYTE   W06
 BYTE   Dn3
 BYTE   W06
 BYTE   An3
 BYTE   W06
//  #05 //002   ----------------------------------------
 BYTE   Fs3
 BYTE   W06
 BYTE   Dn3
 BYTE   W06
 BYTE   Fs4
 BYTE   W06
 BYTE   Dn4
 BYTE   W06
 BYTE   An3
 BYTE   W06
 BYTE   Dn4
 BYTE   W06
 BYTE   An3
 BYTE   W06
 BYTE   Fs3
 BYTE   W06
 BYTE   Dn3
 BYTE   W06
 BYTE   An3
 BYTE   W06
 BYTE   Fs3
 BYTE   W06
 BYTE   Bn2
 BYTE   W06
 BYTE   En3
 BYTE   W06
 BYTE   Gs3
 BYTE   W06
 BYTE   En3
 BYTE   W06
 BYTE   En4
 BYTE   W06
//  #05 //003   ----------------------------------------
 BYTE   Bn3
 BYTE   W06
 BYTE   Gs3
 BYTE   W06
 BYTE   Bn4
 BYTE   W06
 BYTE   Gs4
 BYTE   W06
 BYTE   En4
 BYTE   W06
 BYTE   Bn3
 BYTE   W06
 BYTE   Gs3
 BYTE   W06
 BYTE   En4
 BYTE   W06
 BYTE   Bn3
 BYTE   W06
 BYTE   Gs3
 BYTE   W06
 BYTE   En3
 BYTE   W06
 BYTE   Bn2
 BYTE   W06
 BYTE   Dn3
 BYTE   W06
 BYTE   Gn3
 BYTE   W06
 BYTE   Dn3
 BYTE   W06
 BYTE   Bn3
 BYTE   W06
//  #05 //004   ----------------------------------------
 BYTE   Gn3
 BYTE   W06
 BYTE   Dn3
 BYTE   W06
 BYTE   Dn4
 BYTE   W06
 BYTE   Cs4
 BYTE   W06
 BYTE   An3
 BYTE   W06
 BYTE   En3
 BYTE   W06
 BYTE   An4
 BYTE   W06
 BYTE   En4
 BYTE   W06
 BYTE   Cs4
 BYTE   W06
 BYTE   An3
 BYTE   W06
 BYTE   Cs4
 BYTE   W06
 BYTE   Bn2
 BYTE   W06
 BYTE   Bn2
 BYTE   W06
 BYTE   Bn3
 BYTE   W06
 BYTE   Bn2
 BYTE   W06
 BYTE   Bn2
 BYTE   W06
//  #05 //005   ----------------------------------------
Label_0100F3D3:
 BYTE   N03  Bn3  v095
 BYTE   W06
 BYTE   Bn2
 BYTE   W06
 BYTE   Bn2
 BYTE   W06
 BYTE   Bn3
 BYTE   W06
 BYTE   Bn2
 BYTE   W06
 BYTE   Bn2
 BYTE   W06
 BYTE   Bn3
 BYTE   W06
 BYTE   Bn2
 BYTE   W06
 BYTE   Bn2
 BYTE   W06
 BYTE   Bn3
 BYTE   W06
 BYTE   Bn2
 BYTE   W06
 BYTE   Bn2
 BYTE   W06
 BYTE   Bn2
 BYTE   W06
 BYTE   Bn3
 BYTE   W06
 BYTE   Bn2
 BYTE   W06
 BYTE   Bn2
 BYTE   W06
 BYTE   PEND 
//  #05 //006   ----------------------------------------
Label_0100F3F6:
 BYTE   N03  Bn3  v095
 BYTE   W06
 BYTE   Bn2
 BYTE   W06
 BYTE   Bn2
 BYTE   W06
 BYTE   An3
 BYTE   W06
 BYTE   An2
 BYTE   W06
 BYTE   An2
 BYTE   W06
 BYTE   An3
 BYTE   W06
 BYTE   An2
 BYTE   W06
 BYTE   An2
 BYTE   W06
 BYTE   As3
 BYTE   W06
 BYTE   As2
 BYTE   W06
 BYTE   Bn2
 BYTE   W06
 BYTE   Bn2
 BYTE   W06
 BYTE   Bn3
 BYTE   W06
 BYTE   Bn2
 BYTE   W06
 BYTE   Bn2
 BYTE   W06
 BYTE   PEND 
//  #05 //007   ----------------------------------------
 BYTE   PATT
  POIN2 Label_0100F3D3
//  #05 //008   ----------------------------------------
 BYTE   PATT
  POIN2 Label_0100F3F6
//  #05 //009   ----------------------------------------
 BYTE   PATT
  POIN2 Label_0100F3D3
//  #05 //010   ----------------------------------------
 BYTE   PATT
  POIN2 Label_0100F3F6
//  #05 //011   ----------------------------------------
 BYTE   PATT
  POIN2 Label_0100F3D3
//  #05 //012   ----------------------------------------
 BYTE   N03  Bn3  v095
 BYTE   W06
 BYTE   Bn2
 BYTE   W06
 BYTE   Bn2
 BYTE   W06
 BYTE   Bn3
 BYTE   W06
 BYTE   Bn2
 BYTE   W06
 BYTE   Bn2
 BYTE   W06
 BYTE   Bn3
 BYTE   W06
 BYTE   Bn2
 BYTE   W06
 BYTE   Bn2
 BYTE   W06
 BYTE   Bn3
 BYTE   W06
 BYTE   Bn2
 BYTE   W06
 BYTE   Fn3
 BYTE   W06
 BYTE   An3
 BYTE   W06
 BYTE   Dn4
 BYTE   W06
 BYTE   An3
 BYTE   W06
 BYTE   An4
 BYTE   W06
//  #05 //013   ----------------------------------------
Label_0100F454:
 BYTE   N03  Fn4  v095
 BYTE   W06
 BYTE   Dn4
 BYTE   W06
 BYTE   Dn5
 BYTE   W06
 BYTE   An4
 BYTE   W06
 BYTE   Fn4
 BYTE   W06
 BYTE   An4
 BYTE   W06
 BYTE   Fn4
 BYTE   W06
 BYTE   Dn4
 BYTE   W06
 BYTE   An3
 BYTE   W06
 BYTE   Fn3
 BYTE   W06
 BYTE   Fn4
 BYTE   W06
 BYTE   Cn3
 BYTE   W06
 BYTE   Fn3
 BYTE   W06
 BYTE   An3
 BYTE   W06
 BYTE   Fn3
 BYTE   W06
 BYTE   Cn4
 BYTE   W06
 BYTE   PEND 
//  #05 //014   ----------------------------------------
Label_0100F477:
 BYTE   N03  An3  v095
 BYTE   W06
 BYTE   Fn3
 BYTE   W06
 BYTE   An4
 BYTE   W06
 BYTE   Fn4
 BYTE   W06
 BYTE   Cn4
 BYTE   W06
 BYTE   Fn4
 BYTE   W06
 BYTE   Cn4
 BYTE   W06
 BYTE   An3
 BYTE   W06
 BYTE   Fn3
 BYTE   W06
 BYTE   Cn4
 BYTE   W06
 BYTE   An3
 BYTE   W06
 BYTE   Dn3
 BYTE   W06
 BYTE   Gn3
 BYTE   W06
 BYTE   Bn3
 BYTE   W06
 BYTE   Gn3
 BYTE   W06
 BYTE   Gn4
 BYTE   W06
 BYTE   PEND 
//  #05 //015   ----------------------------------------
Label_0100F49A:
 BYTE   N03  Dn4  v095
 BYTE   W06
 BYTE   Bn3
 BYTE   W06
 BYTE   Dn5
 BYTE   W06
 BYTE   Bn4
 BYTE   W06
 BYTE   Gn4
 BYTE   W06
 BYTE   Dn4
 BYTE   W06
 BYTE   Bn3
 BYTE   W06
 BYTE   Gn4
 BYTE   W06
 BYTE   Dn4
 BYTE   W06
 BYTE   Bn3
 BYTE   W06
 BYTE   Gn3
 BYTE   W06
 BYTE   Dn3
 BYTE   W06
 BYTE   Fn3
 BYTE   W06
 BYTE   As3
 BYTE   W06
 BYTE   Fn3
 BYTE   W06
 BYTE   Dn4
 BYTE   W06
 BYTE   PEND 
//  #05 //016   ----------------------------------------
 BYTE   As3
 BYTE   W06
 BYTE   Fn3
 BYTE   W06
 BYTE   Fn4
 BYTE   W06
 BYTE   En4
 BYTE   W06
 BYTE   Cn4
 BYTE   W06
 BYTE   Gn3
 BYTE   W06
 BYTE   Cn5
 BYTE   W06
 BYTE   Gn4
 BYTE   W06
 BYTE   En4
 BYTE   W06
 BYTE   Cn4
 BYTE   W06
 BYTE   En4
 BYTE   W06
 BYTE   Fn3
 BYTE   W06
 BYTE   An3
 BYTE   W06
 BYTE   Dn4
 BYTE   W06
 BYTE   An3
 BYTE   W06
 BYTE   An4
 BYTE   W06
//  #05 //017   ----------------------------------------
 BYTE   PATT
  POIN2 Label_0100F454
//  #05 //018   ----------------------------------------
 BYTE   PATT
  POIN2 Label_0100F477
//  #05 //019   ----------------------------------------
 BYTE   PATT
  POIN2 Label_0100F49A
//  #05 //020   ----------------------------------------
 BYTE   N03  As3  v095
 BYTE   W06
 BYTE   Fn3
 BYTE   W06
 BYTE   Fn4
 BYTE   W06
 BYTE   En4
 BYTE   W06
 BYTE   Cn4
 BYTE   W06
 BYTE   Gn3
 BYTE   W06
 BYTE   Cn5
 BYTE   W06
 BYTE   Gn4
 BYTE   W06
 BYTE   En4
 BYTE   W06
 BYTE   Cn4
 BYTE   W06
 BYTE   En4
 BYTE   W06
 BYTE   Dn3
 BYTE   W06
 BYTE   Dn3
 BYTE   W06
 BYTE   Dn4
 BYTE   W06
 BYTE   Dn3
 BYTE   W06
 BYTE   Dn3
 BYTE   W06
//  #05 //021   ----------------------------------------
Label_0100F50E:
 BYTE   N03  Dn4  v095
 BYTE   W06
 BYTE   Dn3
 BYTE   W06
 BYTE   Dn3
 BYTE   W06
 BYTE   Dn4
 BYTE   W06
 BYTE   Dn3
 BYTE   W06
 BYTE   Dn3
 BYTE   W06
 BYTE   Dn4
 BYTE   W06
 BYTE   Dn3
 BYTE   W06
 BYTE   Dn3
 BYTE   W06
 BYTE   Dn4
 BYTE   W06
 BYTE   Dn3
 BYTE   W06
 BYTE   Dn3
 BYTE   W06
 BYTE   Dn3
 BYTE   W06
 BYTE   Dn4
 BYTE   W06
 BYTE   Dn3
 BYTE   W06
 BYTE   Dn3
 BYTE   W06
 BYTE   PEND 
//  #05 //022   ----------------------------------------
Label_0100F531:
 BYTE   N03  Dn4  v095
 BYTE   W06
 BYTE   Dn3
 BYTE   W06
 BYTE   Dn3
 BYTE   W06
 BYTE   Cn4
 BYTE   W06
 BYTE   Cn3
 BYTE   W06
 BYTE   Cn3
 BYTE   W06
 BYTE   Cn4
 BYTE   W06
 BYTE   Cn3
 BYTE   W06
 BYTE   Cn3
 BYTE   W06
 BYTE   Cs4
 BYTE   W06
 BYTE   Cs3
 BYTE   W06
 BYTE   Dn3
 BYTE   W06
 BYTE   Dn3
 BYTE   W06
 BYTE   Dn4
 BYTE   W06
 BYTE   Dn3
 BYTE   W06
 BYTE   Dn3
 BYTE   W06
 BYTE   PEND 
//  #05 //023   ----------------------------------------
 BYTE   PATT
  POIN2 Label_0100F50E
//  #05 //024   ----------------------------------------
 BYTE   PATT
  POIN2 Label_0100F531
//  #05 //025   ----------------------------------------
 BYTE   PATT
  POIN2 Label_0100F50E
//  #05 //026   ----------------------------------------
 BYTE   PATT
  POIN2 Label_0100F531
//  #05 //027   ----------------------------------------
 BYTE   PATT
  POIN2 Label_0100F50E
//  #05 //028   ----------------------------------------
 BYTE   N03  Dn4  v095
 BYTE   W06
 BYTE   Dn3
 BYTE   W06
 BYTE   Dn3
 BYTE   W06
 BYTE   Dn4
 BYTE   W06
 BYTE   Dn3
 BYTE   W06
 BYTE   Dn3
 BYTE   W06
 BYTE   Dn4
 BYTE   W06
 BYTE   Dn3
 BYTE   W06
 BYTE   Dn3
 BYTE   W06
 BYTE   Dn4
 BYTE   W06
 BYTE   Dn3
 BYTE   W06
 BYTE   Gs3
 BYTE   W06
 BYTE   Cn4
 BYTE   W06
 BYTE   Fn4
 BYTE   W06
 BYTE   Cn4
 BYTE   W06
 BYTE   Cn5
 BYTE   W06
//  #05 //029   ----------------------------------------
 BYTE   Gs4
 BYTE   W06
 BYTE   Fn4
 BYTE   W06
 BYTE   Fn5
 BYTE   W06
 BYTE   Cn5
 BYTE   W06
 BYTE   Gs4
 BYTE   W06
 BYTE   Cn5
 BYTE   W06
 BYTE   Gs4
 BYTE   W06
 BYTE   Fn4
 BYTE   W06
 BYTE   Cn4
 BYTE   W06
 BYTE   Gs3
 BYTE   W06
 BYTE   Gs4
 BYTE   W06
 BYTE   Ds3
 BYTE   W06
 BYTE   Gs3
 BYTE   W06
 BYTE   Cn4
 BYTE   W06
 BYTE   Gs3
 BYTE   W06
 BYTE   Ds4
 BYTE   W06
//  #05 //030   ----------------------------------------
 BYTE   Cn4
 BYTE   W06
 BYTE   Gs3
 BYTE   W06
 BYTE   Cn5
 BYTE   W06
 BYTE   Gs4
 BYTE   W06
 BYTE   Ds4
 BYTE   W06
 BYTE   Gs4
 BYTE   W06
 BYTE   Ds4
 BYTE   W06
 BYTE   Cn4
 BYTE   W06
 BYTE   Gs3
 BYTE   W06
 BYTE   Ds4
 BYTE   W06
 BYTE   Cn4
 BYTE   W06
 BYTE   Fn3
 BYTE   W06
 BYTE   As3
 BYTE   W06
 BYTE   Dn4
 BYTE   W06
 BYTE   As3
 BYTE   W06
 BYTE   As4
 BYTE   W06
//  #05 //031   ----------------------------------------
 BYTE   Fn4
 BYTE   W06
 BYTE   Dn4
 BYTE   W06
 BYTE   Fn5
 BYTE   W06
 BYTE   Dn5
 BYTE   W06
 BYTE   As4
 BYTE   W06
 BYTE   Fn4
 BYTE   W06
 BYTE   Dn4
 BYTE   W06
 BYTE   As4
 BYTE   W06
 BYTE   Fn4
 BYTE   W06
 BYTE   Dn4
 BYTE   W06
 BYTE   As3
 BYTE   W06
 BYTE   Fn3
 BYTE   W06
 BYTE   Gs3
 BYTE   W06
 BYTE   Cs4
 BYTE   W06
 BYTE   Gs3
 BYTE   W06
 BYTE   Fn4
 BYTE   W06
//  #05 //032   ----------------------------------------
 BYTE   Cs4
 BYTE   W06
 BYTE   Gs3
 BYTE   W06
 BYTE   Gs4
 BYTE   W06
 BYTE   Gn4
 BYTE   W06
 BYTE   Ds4
 BYTE   W06
 BYTE   As3
 BYTE   W06
 BYTE   Ds5
 BYTE   W06
 BYTE   As4
 BYTE   W06
 BYTE   Gn4
 BYTE   W06
 BYTE   Ds4
 BYTE   W06
 BYTE   Gn4
 BYTE   W06
 BYTE   Bn2
 BYTE   W06
 BYTE   Ds3
 BYTE   W06
 BYTE   Gs3
 BYTE   W06
 BYTE   Ds3
 BYTE   W06
 BYTE   Ds4
 BYTE   W06
//  #05 //033   ----------------------------------------
 BYTE   Bn3
 BYTE   W06
 BYTE   Gs3
 BYTE   W06
 BYTE   Gs4
 BYTE   W06
 BYTE   Ds4
 BYTE   W06
 BYTE   Bn3
 BYTE   W06
 BYTE   Ds4
 BYTE   W06
 BYTE   Bn3
 BYTE   W06
 BYTE   Gs3
 BYTE   W06
 BYTE   Ds3
 BYTE   W06
 BYTE   Bn2
 BYTE   W06
 BYTE   Bn3
 BYTE   W06
 BYTE   Fs2
 BYTE   W06
 BYTE   Bn2
 BYTE   W06
 BYTE   Ds3
 BYTE   W06
 BYTE   Bn2
 BYTE   W06
 BYTE   Fs3
 BYTE   W06
//  #05 //034   ----------------------------------------
 BYTE   Ds3
 BYTE   W06
 BYTE   Bn2
 BYTE   W06
 BYTE   Ds4
 BYTE   W06
 BYTE   Bn3
 BYTE   W06
 BYTE   Fs3
 BYTE   W06
 BYTE   Bn3
 BYTE   W06
 BYTE   Fs3
 BYTE   W06
 BYTE   Ds3
 BYTE   W06
 BYTE   Bn2
 BYTE   W06
 BYTE   Fs3
 BYTE   W06
 BYTE   Ds3
 BYTE   W06
 BYTE   Gs2
 BYTE   W06
 BYTE   Cs3
 BYTE   W06
 BYTE   Fn3
 BYTE   W06
 BYTE   Cs3
 BYTE   W06
 BYTE   Cs4
 BYTE   W06
//  #05 //035   ----------------------------------------
 BYTE   Gs3
 BYTE   W06
 BYTE   Fn3
 BYTE   W06
 BYTE   Gs4
 BYTE   W06
 BYTE   Fn4
 BYTE   W06
 BYTE   Cs4
 BYTE   W06
 BYTE   Gs3
 BYTE   W06
 BYTE   Fn3
 BYTE   W06
 BYTE   Cs4
 BYTE   W06
 BYTE   Gs3
 BYTE   W06
 BYTE   Fn3
 BYTE   W06
 BYTE   Cs3
 BYTE   W06
 BYTE   Gs2
 BYTE   W06
 BYTE   Bn2
 BYTE   W06
 BYTE   En3
 BYTE   W06
 BYTE   Bn2
 BYTE   W06
 BYTE   Gs3
 BYTE   W06
//  #05 //036   ----------------------------------------
 BYTE   En3
 BYTE   W06
 BYTE   Bn2
 BYTE   W06
 BYTE   Bn3
 BYTE   W06
 BYTE   As3
 BYTE   W06
 BYTE   Fs3
 BYTE   W06
 BYTE   Cs3
 BYTE   W06
 BYTE   Fs4
 BYTE   W06
 BYTE   Cs4
 BYTE   W06
 BYTE   As3
 BYTE   W06
 BYTE   Fs3
 BYTE   W06
 BYTE   As3
 BYTE   W06
 BYTE   N04  Dn2  v067
 BYTE   N04  Fs2  v070
 BYTE   W12
 BYTE   Bn2  v063
 BYTE   N04  Dn3  v075
 BYTE   W12
 BYTE   Dn2  v063
 BYTE   N04  Fs2  v068
 BYTE   W06
//  #05 //037   ----------------------------------------
 BYTE   W06
 BYTE   Bn2  v059
 BYTE   N04  Dn3  v072
 BYTE   W12
 BYTE   Dn2  v065
 BYTE   N04  Fs2  v067
 BYTE   W12
 BYTE   Bn2  v053
 BYTE   N04  Dn3  v070
 BYTE   W12
 BYTE   Dn2  v063
 BYTE   N04  Fs2  v069
 BYTE   W12
 BYTE   Bn2  v056
 BYTE   N04  Dn3  v070
 BYTE   W12
 BYTE   Dn2  v068
 BYTE   N04  Fs2  v074
 BYTE   W12
 BYTE   Bn2  v065
 BYTE   N04  Dn3  v077
 BYTE   W12
 BYTE   Dn2  v062
 BYTE   N04  Fs2  v065
 BYTE   W06
//  #05 //038   ----------------------------------------
 BYTE   W06
 BYTE   Bn2  v059
 BYTE   N04  Dn3  v071
 BYTE   W12
 BYTE   Dn2  v063
 BYTE   N04  Fs2  v074
 BYTE   W12
 BYTE   Bn2  v063
 BYTE   N04  Dn3  v080
 BYTE   W12
 BYTE   Dn2  v067
 BYTE   N04  Fs2  v070
 BYTE   W12
 BYTE   Bn2  v069
 BYTE   N04  Dn3  v087
 BYTE   W12
 BYTE   Dn2  v065
 BYTE   N04  Fs2  v074
 BYTE   W12
 BYTE   Bn2  v069
 BYTE   N04  Dn3  v084
 BYTE   W12
 BYTE   Dn2  v069
 BYTE   N04  Fs2  v071
 BYTE   W06
//  #05 //039   ----------------------------------------
 BYTE   W06
 BYTE   Bn2  v068
 BYTE   N04  Dn3  v085
 BYTE   W12
 BYTE   Dn2  v063
 BYTE   N04  Fs2  v072
 BYTE   W12
 BYTE   Cs3
 BYTE   N04  En3  v087
 BYTE   W12
 BYTE   En2  v068
 BYTE   N04  An2  v069
 BYTE   W12
 BYTE   Cs3
 BYTE   N04  En3  v085
 BYTE   W12
 BYTE   En2  v080
 BYTE   N04  An2  v073
 BYTE   W12
 BYTE   Cs3  v071
 BYTE   N04  En3  v085
 BYTE   W12
 BYTE   En2  v080
 BYTE   N04  An2  v070
 BYTE   W06
//  #05 //040   ----------------------------------------
 BYTE   W06
 BYTE   Cs3  v069
 BYTE   N04  En3  v089
 BYTE   W12
 BYTE   En2  v087
 BYTE   N04  An2  v077
 BYTE   W12
 BYTE   Cs3  v070
 BYTE   N04  En3  v088
 BYTE   W12
 BYTE   En2  v091
 BYTE   N04  An2  v074
 BYTE   W12
 BYTE   Cs3  v090
 BYTE   N04  En3  v094
 BYTE   W42
//  #05 //041   ----------------------------------------
 BYTE   GoTo
  POIN2 Label_0100F33E
//  #05 //042   ----------------------------------------
 BYTE   W44
 BYTE   W03
 BYTE   FINE

//**************** Track 6 (Midi-Chn.5) ****************//

aai_crises_of_fate_006:
//  #06 //000   ----------------------------------------
 BYTE   KEYSH   aai_crises_of_fate_key+0
Label_010100CE:
 BYTE   VOICE   20
 BYTE   PAN   c_v+50
 BYTE   VOL   45*aai_crises_of_fate_mvl/mxv
 BYTE   BEND   c_v-1
 BYTE   W48
 BYTE   N03  Fs3  v095
 BYTE   W06
 BYTE   Bn3
 BYTE   W06
 BYTE   Dn4
 BYTE   W06
 BYTE   Bn3
 BYTE   W06
 BYTE   Bn4
 BYTE   W06
 BYTE   Fs4
 BYTE   W06
 BYTE   Dn4
 BYTE   W06
 BYTE   Dn5
 BYTE   W06
//  #06 //001   ----------------------------------------
 BYTE   Bn4
 BYTE   W06
 BYTE   Fs4
 BYTE   W06
 BYTE   Bn4
 BYTE   W06
 BYTE   Fs4
 BYTE   W06
 BYTE   Dn4
 BYTE   W06
 BYTE   Bn3
 BYTE   W06
 BYTE   Fs3
 BYTE   W06
 BYTE   Fs4
 BYTE   W06
 BYTE   Dn3
 BYTE   W06
 BYTE   Fs3
 BYTE   W06
 BYTE   An3
 BYTE   W06
 BYTE   Fs3
 BYTE   W06
 BYTE   Dn4
 BYTE   W06
 BYTE   An3
 BYTE   W06
 BYTE   Fs3
 BYTE   W06
 BYTE   An4
 BYTE   W06
//  #06 //002   ----------------------------------------
 BYTE   Fs4
 BYTE   W06
 BYTE   Dn3
 BYTE   W06
 BYTE   Fs4
 BYTE   W06
 BYTE   Dn4
 BYTE   W06
 BYTE   An3
 BYTE   W06
 BYTE   Fs3
 BYTE   W06
 BYTE   Dn4
 BYTE   W06
 BYTE   An3
 BYTE   W06
 BYTE   Dn3
 BYTE   W06
 BYTE   Gs3
 BYTE   W06
 BYTE   Bn3
 BYTE   W06
 BYTE   Gs3
 BYTE   W06
 BYTE   Gs4
 BYTE   W06
 BYTE   Dn4
 BYTE   W06
 BYTE   Bn3
 BYTE   W06
 BYTE   Dn5
 BYTE   W06
//  #06 //003   ----------------------------------------
 BYTE   Bn4
 BYTE   W06
 BYTE   Gs4
 BYTE   W06
 BYTE   Dn4
 BYTE   W06
 BYTE   Bn3
 BYTE   W06
 BYTE   Gs4
 BYTE   W06
 BYTE   Dn4
 BYTE   W06
 BYTE   Bn3
 BYTE   W06
 BYTE   Gs3
 BYTE   W06
 BYTE   Dn3
 BYTE   W06
 BYTE   Gn3
 BYTE   W06
 BYTE   Bn3
 BYTE   W06
 BYTE   Gn3
 BYTE   W06
 BYTE   Dn4
 BYTE   W06
 BYTE   Bn3
 BYTE   W06
 BYTE   Gn3
 BYTE   W06
 BYTE   Gn4
 BYTE   W06
//  #06 //004   ----------------------------------------
 BYTE   En4
 BYTE   W06
 BYTE   Cs4
 BYTE   W06
 BYTE   An3
 BYTE   W06
 BYTE   Cs5
 BYTE   W06
 BYTE   An4
 BYTE   W06
 BYTE   En4
 BYTE   W06
 BYTE   Cs4
 BYTE   W06
 BYTE   En4
 BYTE   W06
 BYTE   N02  Bn5  v088
 BYTE   W05
 BYTE   N03  Bn5  v081
 BYTE   W06
 BYTE   N02  Bn5  v078
 BYTE   W07
 BYTE   Bn5  v093
 BYTE   W06
 BYTE   Bn5  v091
 BYTE   W07
 BYTE   Bn5  v093
 BYTE   W05
 BYTE   Bn5  v089
 BYTE   W06
 BYTE   Bn5  v088
 BYTE   W06
//  #06 //005   ----------------------------------------
Label_01010174:
 BYTE   N02  Bn5  v102
 BYTE   W06
 BYTE   Bn5  v097
 BYTE   W06
 BYTE   Bn5  v102
 BYTE   W06
 BYTE   Bn5  v101
 BYTE   W06
 BYTE   Bn5
 BYTE   W06
 BYTE   Bn5  v097
 BYTE   W06
 BYTE   Bn5  v103
 BYTE   W06
 BYTE   Bn5  v094
 BYTE   W06
 BYTE   Bn5  v102
 BYTE   W05
 BYTE   Bn5  v108
 BYTE   W06
 BYTE   N03  Bn5  v102
 BYTE   W06
 BYTE   Bn5  v098
 BYTE   W06
 BYTE   Bn5  v099
 BYTE   W06
 BYTE   Bn5  v107
 BYTE   W07
 BYTE   N01  Bn5  v102
 BYTE   W05
 BYTE   N03  Bn5  v103
 BYTE   W07
 BYTE   PEND 
//  #06 //006   ----------------------------------------
Label_010101A8:
 BYTE   N07  An5  v103
 BYTE   W06
 BYTE   En5  v090
 BYTE   W06
 BYTE   N03  Cs5  v088
 BYTE   W05
 BYTE   N08  En5  v101
 BYTE   W07
 BYTE   N06  Cs5  v064
 BYTE   W05
 BYTE   N05  An4  v082
 BYTE   W06
 BYTE   N06  En4  v089
 BYTE   W13
 BYTE   N02  Bn5  v088
 BYTE   W05
 BYTE   N03  Bn5  v081
 BYTE   W06
 BYTE   N02  Bn5  v078
 BYTE   W07
 BYTE   Bn5  v093
 BYTE   W06
 BYTE   Bn5  v091
 BYTE   W07
 BYTE   Bn5  v093
 BYTE   W05
 BYTE   Bn5  v089
 BYTE   W06
 BYTE   Bn5  v088
 BYTE   W06
 BYTE   PEND 
//  #06 //007   ----------------------------------------
 BYTE   PATT
  POIN2 Label_01010174
//  #06 //008   ----------------------------------------
 BYTE   PATT
  POIN2 Label_010101A8
//  #06 //009   ----------------------------------------
 BYTE   PATT
  POIN2 Label_01010174
//  #06 //010   ----------------------------------------
 BYTE   N07  An5  v103
 BYTE   W06
 BYTE   En5  v090
 BYTE   W06
 BYTE   N03  Cs5  v088
 BYTE   W05
 BYTE   N08  En5  v101
 BYTE   W07
 BYTE   N06  Cs5  v064
 BYTE   W05
 BYTE   N05  An4  v082
 BYTE   W06
 BYTE   N06  En4  v089
 BYTE   W13
 BYTE   N03  Bn1  v103
 BYTE   W06
 BYTE   Bn1  v096
 BYTE   W05
 BYTE   N04  Bn1  v079
 BYTE   W07
 BYTE   N03  Bn1  v088
 BYTE   W06
 BYTE   Bn1  v103
 BYTE   W06
 BYTE   Bn1  v097
 BYTE   W06
 BYTE   Bn1  v099
 BYTE   W06
 BYTE   N02  Bn1  v108
 BYTE   W06
//  #06 //011   ----------------------------------------
 BYTE   N03  Bn1  v111
 BYTE   W06
 BYTE   Bn1
 BYTE   W06
 BYTE   Bn1  v110
 BYTE   W06
 BYTE   Bn1  v114
 BYTE   W06
 BYTE   Bn1  v111
 BYTE   W06
 BYTE   Bn1  v110
 BYTE   W07
 BYTE   N02  Bn1  v121
 BYTE   W05
 BYTE   N03  Bn1  v111
 BYTE   W06
 BYTE   Bn1  v103
 BYTE   W06
 BYTE   Bn1  v096
 BYTE   W05
 BYTE   N04  Bn1  v079
 BYTE   W07
 BYTE   N03  Bn1  v088
 BYTE   W06
 BYTE   Bn1  v103
 BYTE   W06
 BYTE   Bn1  v097
 BYTE   W06
 BYTE   Bn1  v099
 BYTE   W06
 BYTE   N02  Bn1  v108
 BYTE   W06
//  #06 //012   ----------------------------------------
 BYTE   N03  Bn1  v111
 BYTE   W06
 BYTE   Bn1
 BYTE   W06
 BYTE   Bn1  v110
 BYTE   W06
 BYTE   Bn1  v114
 BYTE   W06
 BYTE   Bn1  v111
 BYTE   W06
 BYTE   Bn1  v110
 BYTE   W07
 BYTE   N02  Bn1  v121
 BYTE   W05
 BYTE   N03  Bn1  v111
 BYTE   W06
 BYTE   An3  v095
 BYTE   W06
 BYTE   Dn4
 BYTE   W06
 BYTE   Fn4
 BYTE   W06
 BYTE   Dn4
 BYTE   W06
 BYTE   Dn5
 BYTE   W06
 BYTE   An4
 BYTE   W06
 BYTE   Fn4
 BYTE   W06
 BYTE   Fn5
 BYTE   W06
//  #06 //013   ----------------------------------------
Label_01010285:
 BYTE   N03  Dn5  v095
 BYTE   W06
 BYTE   An4
 BYTE   W06
 BYTE   Dn5
 BYTE   W06
 BYTE   An4
 BYTE   W06
 BYTE   Fn4
 BYTE   W06
 BYTE   Dn4
 BYTE   W06
 BYTE   An3
 BYTE   W06
 BYTE   An4
 BYTE   W06
 BYTE   Fn3
 BYTE   W06
 BYTE   An3
 BYTE   W06
 BYTE   Cn4
 BYTE   W06
 BYTE   An3
 BYTE   W06
 BYTE   Fn4
 BYTE   W06
 BYTE   Cn4
 BYTE   W06
 BYTE   An3
 BYTE   W06
 BYTE   Cn5
 BYTE   W06
 BYTE   PEND 
//  #06 //014   ----------------------------------------
Label_010102A8:
 BYTE   N03  An4  v095
 BYTE   W06
 BYTE   Fn3
 BYTE   W06
 BYTE   An4
 BYTE   W06
 BYTE   Fn4
 BYTE   W06
 BYTE   Cn4
 BYTE   W06
 BYTE   An3
 BYTE   W06
 BYTE   Fn4
 BYTE   W06
 BYTE   Cn4
 BYTE   W06
 BYTE   Fn3
 BYTE   W06
 BYTE   Bn3
 BYTE   W06
 BYTE   Dn4
 BYTE   W06
 BYTE   Bn3
 BYTE   W06
 BYTE   Bn4
 BYTE   W06
 BYTE   Fn4
 BYTE   W06
 BYTE   Dn4
 BYTE   W06
 BYTE   Fn5
 BYTE   W06
 BYTE   PEND 
//  #06 //015   ----------------------------------------
Label_010102CB:
 BYTE   N03  Dn5  v095
 BYTE   W06
 BYTE   Bn4
 BYTE   W06
 BYTE   Fn4
 BYTE   W06
 BYTE   Dn4
 BYTE   W06
 BYTE   Bn4
 BYTE   W06
 BYTE   Fn4
 BYTE   W06
 BYTE   Dn4
 BYTE   W06
 BYTE   Bn3
 BYTE   W06
 BYTE   Fn3
 BYTE   W06
 BYTE   As3
 BYTE   W06
 BYTE   Dn4
 BYTE   W06
 BYTE   As3
 BYTE   W06
 BYTE   Fn4
 BYTE   W06
 BYTE   Dn4
 BYTE   W06
 BYTE   As3
 BYTE   W06
 BYTE   As4
 BYTE   W06
 BYTE   PEND 
//  #06 //016   ----------------------------------------
 BYTE   Gn4
 BYTE   W06
 BYTE   En4
 BYTE   W06
 BYTE   Cn4
 BYTE   W06
 BYTE   En5
 BYTE   W06
 BYTE   Cn5
 BYTE   W06
 BYTE   Gn4
 BYTE   W06
 BYTE   En4
 BYTE   W06
 BYTE   Gn4
 BYTE   W06
 BYTE   An3
 BYTE   W06
 BYTE   Dn4
 BYTE   W06
 BYTE   Fn4
 BYTE   W06
 BYTE   Dn4
 BYTE   W06
 BYTE   Dn5
 BYTE   W06
 BYTE   An4
 BYTE   W06
 BYTE   Fn4
 BYTE   W06
 BYTE   Fn5
 BYTE   W06
//  #06 //017   ----------------------------------------
 BYTE   PATT
  POIN2 Label_01010285
//  #06 //018   ----------------------------------------
 BYTE   PATT
  POIN2 Label_010102A8
//  #06 //019   ----------------------------------------
 BYTE   PATT
  POIN2 Label_010102CB
//  #06 //020   ----------------------------------------
 BYTE   N03  Gn4  v095
 BYTE   W06
 BYTE   En4
 BYTE   W06
 BYTE   Cn4
 BYTE   W06
 BYTE   En5
 BYTE   W06
 BYTE   Cn5
 BYTE   W06
 BYTE   Gn4
 BYTE   W06
 BYTE   En4
 BYTE   W06
 BYTE   Gn4
 BYTE   W06
 BYTE   N02  Dn6  v088
 BYTE   W05
 BYTE   N03  Dn6  v081
 BYTE   W06
 BYTE   N02  Dn6  v078
 BYTE   W07
 BYTE   Dn6  v093
 BYTE   W06
 BYTE   Dn6  v091
 BYTE   W07
 BYTE   Dn6  v093
 BYTE   W05
 BYTE   Dn6  v089
 BYTE   W06
 BYTE   Dn6  v088
 BYTE   W06
//  #06 //021   ----------------------------------------
Label_0101034A:
 BYTE   N02  Dn6  v102
 BYTE   W06
 BYTE   Dn6  v097
 BYTE   W06
 BYTE   Dn6  v102
 BYTE   W06
 BYTE   Dn6  v101
 BYTE   W06
 BYTE   Dn6
 BYTE   W06
 BYTE   Dn6  v097
 BYTE   W06
 BYTE   Dn6  v103
 BYTE   W06
 BYTE   Dn6  v094
 BYTE   W06
 BYTE   Dn6  v102
 BYTE   W05
 BYTE   Dn6  v108
 BYTE   W06
 BYTE   N03  Dn6  v102
 BYTE   W06
 BYTE   Dn6  v098
 BYTE   W06
 BYTE   Dn6  v099
 BYTE   W06
 BYTE   Dn6  v107
 BYTE   W07
 BYTE   N01  Dn6  v102
 BYTE   W05
 BYTE   N03  Dn6  v103
 BYTE   W07
 BYTE   PEND 
//  #06 //022   ----------------------------------------
Label_0101037E:
 BYTE   N07  Cn6  v103
 BYTE   W06
 BYTE   Gn5  v090
 BYTE   W06
 BYTE   N03  En5  v088
 BYTE   W05
 BYTE   N08  Gn5  v101
 BYTE   W07
 BYTE   N06  En5  v064
 BYTE   W05
 BYTE   N05  Cn5  v082
 BYTE   W06
 BYTE   N06  Gn4  v089
 BYTE   W13
 BYTE   N02  Dn6  v088
 BYTE   W05
 BYTE   N03  Dn6  v081
 BYTE   W06
 BYTE   N02  Dn6  v078
 BYTE   W07
 BYTE   Dn6  v093
 BYTE   W06
 BYTE   Dn6  v091
 BYTE   W07
 BYTE   Dn6  v093
 BYTE   W05
 BYTE   Dn6  v089
 BYTE   W06
 BYTE   Dn6  v088
 BYTE   W06
 BYTE   PEND 
//  #06 //023   ----------------------------------------
 BYTE   PATT
  POIN2 Label_0101034A
//  #06 //024   ----------------------------------------
 BYTE   PATT
  POIN2 Label_0101037E
//  #06 //025   ----------------------------------------
 BYTE   PATT
  POIN2 Label_0101034A
//  #06 //026   ----------------------------------------
 BYTE   N07  Cn6  v103
 BYTE   W06
 BYTE   Gn5  v090
 BYTE   W06
 BYTE   N03  En5  v088
 BYTE   W05
 BYTE   N08  Gn5  v101
 BYTE   W07
 BYTE   N06  En5  v064
 BYTE   W05
 BYTE   N05  Cn5  v082
 BYTE   W06
 BYTE   N06  Gn4  v089
 BYTE   W13
 BYTE   N03  Dn2  v103
 BYTE   W06
 BYTE   Dn2  v096
 BYTE   W05
 BYTE   N04  Dn2  v079
 BYTE   W07
 BYTE   N03  Dn2  v088
 BYTE   W06
 BYTE   Dn2  v103
 BYTE   W06
 BYTE   Dn2  v097
 BYTE   W06
 BYTE   Dn2  v099
 BYTE   W06
 BYTE   N02  Dn2  v108
 BYTE   W06
//  #06 //027   ----------------------------------------
 BYTE   N03  Dn2  v111
 BYTE   W06
 BYTE   Dn2
 BYTE   W06
 BYTE   Dn2  v110
 BYTE   W06
 BYTE   Dn2  v114
 BYTE   W06
 BYTE   Dn2  v111
 BYTE   W06
 BYTE   Dn2  v110
 BYTE   W07
 BYTE   N02  Dn2  v121
 BYTE   W05
 BYTE   N03  Dn2  v111
 BYTE   W06
 BYTE   Dn2  v103
 BYTE   W06
 BYTE   Dn2  v096
 BYTE   W05
 BYTE   N04  Dn2  v079
 BYTE   W07
 BYTE   N03  Dn2  v088
 BYTE   W06
 BYTE   Dn2  v103
 BYTE   W06
 BYTE   Dn2  v097
 BYTE   W06
 BYTE   Dn2  v099
 BYTE   W06
 BYTE   N02  Dn2  v108
 BYTE   W06
//  #06 //028   ----------------------------------------
 BYTE   N03  Dn2  v111
 BYTE   W06
 BYTE   Dn2
 BYTE   W06
 BYTE   Dn2  v110
 BYTE   W06
 BYTE   Dn2  v114
 BYTE   W06
 BYTE   Dn2  v111
 BYTE   W06
 BYTE   Dn2  v110
 BYTE   W07
 BYTE   N02  Dn2  v121
 BYTE   W05
 BYTE   N03  Dn2  v111
 BYTE   W06
 BYTE   Cn4  v095
 BYTE   W06
 BYTE   Fn4
 BYTE   W06
 BYTE   Gs4
 BYTE   W06
 BYTE   Fn4
 BYTE   W06
 BYTE   Fn5
 BYTE   W06
 BYTE   Cn5
 BYTE   W06
 BYTE   Gs4
 BYTE   W06
 BYTE   Gs5
 BYTE   W06
//  #06 //029   ----------------------------------------
 BYTE   Fn5
 BYTE   W06
 BYTE   Cn5
 BYTE   W06
 BYTE   Fn5
 BYTE   W06
 BYTE   Cn5
 BYTE   W06
 BYTE   Gs4
 BYTE   W06
 BYTE   Fn4
 BYTE   W06
 BYTE   Cn4
 BYTE   W06
 BYTE   Cn5
 BYTE   W06
 BYTE   Gs3
 BYTE   W06
 BYTE   Cn4
 BYTE   W06
 BYTE   Ds4
 BYTE   W06
 BYTE   Cn4
 BYTE   W06
 BYTE   Gs4
 BYTE   W06
 BYTE   Ds4
 BYTE   W06
 BYTE   Cn4
 BYTE   W06
 BYTE   Ds5
 BYTE   W06
//  #06 //030   ----------------------------------------
 BYTE   Cn5
 BYTE   W06
 BYTE   Gs3
 BYTE   W06
 BYTE   Cn5
 BYTE   W06
 BYTE   Gs4
 BYTE   W06
 BYTE   Ds4
 BYTE   W06
 BYTE   Cn4
 BYTE   W06
 BYTE   Gs4
 BYTE   W06
 BYTE   Ds4
 BYTE   W06
 BYTE   Gs3
 BYTE   W06
 BYTE   Dn4
 BYTE   W06
 BYTE   Fn4
 BYTE   W06
 BYTE   Dn4
 BYTE   W06
 BYTE   Dn5
 BYTE   W06
 BYTE   Gs4
 BYTE   W06
 BYTE   Fn4
 BYTE   W06
 BYTE   Gs5
 BYTE   W06
//  #06 //031   ----------------------------------------
 BYTE   Fn5
 BYTE   W06
 BYTE   Dn5
 BYTE   W06
 BYTE   Gs4
 BYTE   W06
 BYTE   Fn4
 BYTE   W06
 BYTE   Dn5
 BYTE   W06
 BYTE   Gs4
 BYTE   W06
 BYTE   Fn4
 BYTE   W06
 BYTE   Dn4
 BYTE   W06
 BYTE   Gs3
 BYTE   W06
 BYTE   Cs4
 BYTE   W06
 BYTE   Fn4
 BYTE   W06
 BYTE   Cs4
 BYTE   W06
 BYTE   Gs4
 BYTE   W06
 BYTE   Fn4
 BYTE   W06
 BYTE   Cs4
 BYTE   W06
 BYTE   Cs5
 BYTE   W06
//  #06 //032   ----------------------------------------
 BYTE   As4
 BYTE   W06
 BYTE   Gn4
 BYTE   W06
 BYTE   Ds4
 BYTE   W06
 BYTE   Gn5
 BYTE   W06
 BYTE   Ds5
 BYTE   W06
 BYTE   As4
 BYTE   W06
 BYTE   Gn4
 BYTE   W06
 BYTE   As4
 BYTE   W06
 BYTE   Ds3
 BYTE   W06
 BYTE   Gs3
 BYTE   W06
 BYTE   Bn3
 BYTE   W06
 BYTE   Gs3
 BYTE   W06
 BYTE   Gs4
 BYTE   W06
 BYTE   Ds4
 BYTE   W06
 BYTE   Bn3
 BYTE   W06
 BYTE   Bn4
 BYTE   W06
//  #06 //033   ----------------------------------------
 BYTE   Gs4
 BYTE   W06
 BYTE   Ds4
 BYTE   W06
 BYTE   Gs4
 BYTE   W06
 BYTE   Ds4
 BYTE   W06
 BYTE   Bn3
 BYTE   W06
 BYTE   Gs3
 BYTE   W06
 BYTE   Ds3
 BYTE   W06
 BYTE   Ds4
 BYTE   W06
 BYTE   Bn2
 BYTE   W06
 BYTE   Ds3
 BYTE   W06
 BYTE   Fs3
 BYTE   W06
 BYTE   Ds3
 BYTE   W06
 BYTE   Bn3
 BYTE   W06
 BYTE   Fs3
 BYTE   W06
 BYTE   Ds3
 BYTE   W06
 BYTE   Fs4
 BYTE   W06
//  #06 //034   ----------------------------------------
 BYTE   Ds4
 BYTE   W06
 BYTE   Bn2
 BYTE   W06
 BYTE   Ds4
 BYTE   W06
 BYTE   Bn3
 BYTE   W06
 BYTE   Fs3
 BYTE   W06
 BYTE   Ds3
 BYTE   W06
 BYTE   Bn3
 BYTE   W06
 BYTE   Fs3
 BYTE   W06
 BYTE   Bn2
 BYTE   W06
 BYTE   Fn3
 BYTE   W06
 BYTE   Gs3
 BYTE   W06
 BYTE   Fn3
 BYTE   W06
 BYTE   Fn4
 BYTE   W06
 BYTE   Bn3
 BYTE   W06
 BYTE   Gs3
 BYTE   W06
 BYTE   Bn4
 BYTE   W06
//  #06 //035   ----------------------------------------
 BYTE   Gs4
 BYTE   W06
 BYTE   Fn4
 BYTE   W06
 BYTE   Bn3
 BYTE   W06
 BYTE   Gs3
 BYTE   W06
 BYTE   Fn4
 BYTE   W06
 BYTE   Bn3
 BYTE   W06
 BYTE   Gs3
 BYTE   W06
 BYTE   Fn3
 BYTE   W06
 BYTE   Bn2
 BYTE   W06
 BYTE   En3
 BYTE   W06
 BYTE   Gs3
 BYTE   W06
 BYTE   En3
 BYTE   W06
 BYTE   Bn3
 BYTE   W06
 BYTE   Gs3
 BYTE   W06
 BYTE   En3
 BYTE   W06
 BYTE   En4
 BYTE   W06
//  #06 //036   ----------------------------------------
 BYTE   Cs4
 BYTE   W06
 BYTE   As3
 BYTE   W06
 BYTE   Fs3
 BYTE   W06
 BYTE   As4
 BYTE   W06
 BYTE   Fs4
 BYTE   W06
 BYTE   Cs4
 BYTE   W06
 BYTE   As3
 BYTE   W06
 BYTE   Cs4
 BYTE   W54
//  #06 //037   ----------------------------------------
 BYTE   W96
//  #06 //038   ----------------------------------------
 BYTE   W96
//  #06 //039   ----------------------------------------
 BYTE   W96
//  #06 //040   ----------------------------------------
 BYTE   W96
//  #06 //041   ----------------------------------------
 BYTE   GoTo
  POIN2 Label_010100CE
//  #06 //042   ----------------------------------------
 BYTE   W44
 BYTE   W03
 BYTE   FINE

//**************** Track 7 (Midi-Chn.6) ****************//

aai_crises_of_fate_007:
//  #07 //000   ----------------------------------------
 BYTE   KEYSH   aai_crises_of_fate_key+0
Label_0100F7CA:
 BYTE   VOICE   20
 BYTE   PAN   c_v-30
 BYTE   VOL   15*aai_crises_of_fate_mvl/mxv
 BYTE   BEND   c_v-1
 BYTE   W66
 BYTE   N03  Fs3  v095
 BYTE   W06
 BYTE   Bn3
 BYTE   W06
 BYTE   Dn4
 BYTE   W06
 BYTE   Bn3
 BYTE   W06
 BYTE   Bn4
 BYTE   W06
//  #07 //001   ----------------------------------------
 BYTE   Fs4
 BYTE   W06
 BYTE   Dn4
 BYTE   W06
 BYTE   Dn5
 BYTE   W06
 BYTE   Bn4
 BYTE   W06
 BYTE   Fs4
 BYTE   W06
 BYTE   Bn4
 BYTE   W06
 BYTE   Fs4
 BYTE   W06
 BYTE   Dn4
 BYTE   W06
 BYTE   Bn3
 BYTE   W06
 BYTE   Fs3
 BYTE   W06
 BYTE   Fs4
 BYTE   W06
 BYTE   Dn3
 BYTE   W06
 BYTE   Fs3
 BYTE   W06
 BYTE   An3
 BYTE   W06
 BYTE   Fs3
 BYTE   W06
 BYTE   Dn4
 BYTE   W06
//  #07 //002   ----------------------------------------
 BYTE   An3
 BYTE   W06
 BYTE   Fs3
 BYTE   W06
 BYTE   An4
 BYTE   W06
 BYTE   Fs4
 BYTE   W06
 BYTE   Dn3
 BYTE   W06
 BYTE   Fs4
 BYTE   W06
 BYTE   Dn4
 BYTE   W06
 BYTE   An3
 BYTE   W06
 BYTE   Fs3
 BYTE   W06
 BYTE   Dn4
 BYTE   W06
 BYTE   An3
 BYTE   W06
 BYTE   Dn3
 BYTE   W06
 BYTE   Gs3
 BYTE   W06
 BYTE   Bn3
 BYTE   W06
 BYTE   Gs3
 BYTE   W06
 BYTE   Gs4
 BYTE   W06
//  #07 //003   ----------------------------------------
 BYTE   Dn4
 BYTE   W06
 BYTE   Bn3
 BYTE   W06
 BYTE   Dn5
 BYTE   W06
 BYTE   Bn4
 BYTE   W06
 BYTE   Gs4
 BYTE   W06
 BYTE   Dn4
 BYTE   W06
 BYTE   Bn3
 BYTE   W06
 BYTE   Gs4
 BYTE   W06
 BYTE   Dn4
 BYTE   W06
 BYTE   Bn3
 BYTE   W06
 BYTE   Gs3
 BYTE   W06
 BYTE   Dn3
 BYTE   W06
 BYTE   Gn3
 BYTE   W06
 BYTE   Bn3
 BYTE   W06
 BYTE   Gn3
 BYTE   W06
 BYTE   Dn4
 BYTE   W06
//  #07 //004   ----------------------------------------
 BYTE   Bn3
 BYTE   W06
 BYTE   Gn3
 BYTE   W06
 BYTE   Gn4
 BYTE   W06
 BYTE   En4
 BYTE   W06
 BYTE   Cs4
 BYTE   W06
 BYTE   An3
 BYTE   W06
 BYTE   Cs5
 BYTE   W06
 BYTE   An4
 BYTE   W06
 BYTE   En4
 BYTE   W06
 BYTE   Cs4
 BYTE   W06
 BYTE   En4
 BYTE   W06
 BYTE   N02  Bn5  v088
 BYTE   W05
 BYTE   N03  Bn5  v081
 BYTE   W06
 BYTE   N02  Bn5  v078
 BYTE   W07
 BYTE   Bn5  v093
 BYTE   W06
 BYTE   Bn5  v091
 BYTE   W06
//  #07 //005   ----------------------------------------
Label_0100F867:
 BYTE   W01
 BYTE   N02  Bn5  v093
 BYTE   W05
 BYTE   Bn5  v089
 BYTE   W06
 BYTE   Bn5  v088
 BYTE   W06
 BYTE   Bn5  v102
 BYTE   W06
 BYTE   Bn5  v097
 BYTE   W06
 BYTE   Bn5  v102
 BYTE   W06
 BYTE   Bn5  v101
 BYTE   W06
 BYTE   Bn5
 BYTE   W06
 BYTE   Bn5  v097
 BYTE   W06
 BYTE   Bn5  v103
 BYTE   W06
 BYTE   Bn5  v094
 BYTE   W06
 BYTE   Bn5  v102
 BYTE   W05
 BYTE   Bn5  v108
 BYTE   W06
 BYTE   N03  Bn5  v102
 BYTE   W06
 BYTE   Bn5  v098
 BYTE   W06
 BYTE   Bn5  v099
 BYTE   W06
 BYTE   Bn5  v107
 BYTE   W01
 BYTE   PEND 
//  #07 //006   ----------------------------------------
Label_0100F89D:
 BYTE   W06
 BYTE   N01  Bn5  v102
 BYTE   W05
 BYTE   N03  Bn5  v103
 BYTE   W07
 BYTE   N07  An5
 BYTE   W06
 BYTE   En5  v090
 BYTE   W06
 BYTE   N03  Cs5  v088
 BYTE   W05
 BYTE   N08  En5  v101
 BYTE   W07
 BYTE   N06  Cs5  v064
 BYTE   W05
 BYTE   N05  An4  v082
 BYTE   W06
 BYTE   N06  En4  v089
 BYTE   W13
 BYTE   N02  Bn5  v088
 BYTE   W05
 BYTE   N03  Bn5  v081
 BYTE   W06
 BYTE   N02  Bn5  v078
 BYTE   W07
 BYTE   Bn5  v093
 BYTE   W06
 BYTE   Bn5  v091
 BYTE   W06
 BYTE   PEND 
//  #07 //007   ----------------------------------------
 BYTE   PATT
  POIN2 Label_0100F867
//  #07 //008   ----------------------------------------
 BYTE   PATT
  POIN2 Label_0100F89D
//  #07 //009   ----------------------------------------
 BYTE   PATT
  POIN2 Label_0100F867
//  #07 //010   ----------------------------------------
 BYTE   W06
 BYTE   N01  Bn5  v102
 BYTE   W05
 BYTE   N03  Bn5  v103
 BYTE   W07
 BYTE   N07  An5
 BYTE   W06
 BYTE   En5  v090
 BYTE   W06
 BYTE   N03  Cs5  v088
 BYTE   W05
 BYTE   N08  En5  v101
 BYTE   W07
 BYTE   N06  Cs5  v064
 BYTE   W05
 BYTE   N05  An4  v082
 BYTE   W06
 BYTE   N06  En4  v089
 BYTE   W13
 BYTE   N03  Bn1  v103
 BYTE   W06
 BYTE   Bn1  v096
 BYTE   W05
 BYTE   N04  Bn1  v079
 BYTE   W07
 BYTE   N03  Bn1  v088
 BYTE   W06
 BYTE   Bn1  v103
 BYTE   W06
//  #07 //011   ----------------------------------------
 BYTE   Bn1  v097
 BYTE   W06
 BYTE   Bn1  v099
 BYTE   W06
 BYTE   N02  Bn1  v108
 BYTE   W06
 BYTE   N03  Bn1  v111
 BYTE   W06
 BYTE   Bn1
 BYTE   W06
 BYTE   Bn1  v110
 BYTE   W06
 BYTE   Bn1  v114
 BYTE   W06
 BYTE   Bn1  v111
 BYTE   W06
 BYTE   Bn1  v110
 BYTE   W07
 BYTE   N02  Bn1  v121
 BYTE   W05
 BYTE   N03  Bn1  v111
 BYTE   W06
 BYTE   Bn1  v103
 BYTE   W06
 BYTE   Bn1  v096
 BYTE   W05
 BYTE   N04  Bn1  v079
 BYTE   W07
 BYTE   N03  Bn1  v088
 BYTE   W06
 BYTE   Bn1  v103
 BYTE   W06
//  #07 //012   ----------------------------------------
 BYTE   Bn1  v097
 BYTE   W06
 BYTE   Bn1  v099
 BYTE   W06
 BYTE   N02  Bn1  v108
 BYTE   W06
 BYTE   N03  Bn1  v111
 BYTE   W06
 BYTE   Bn1
 BYTE   W06
 BYTE   Bn1  v110
 BYTE   W06
 BYTE   Bn1  v114
 BYTE   W06
 BYTE   Bn1  v111
 BYTE   W06
 BYTE   Bn1  v110
 BYTE   W07
 BYTE   N02  Bn1  v121
 BYTE   W05
 BYTE   N03  Bn1  v111
 BYTE   W06
 BYTE   An3  v095
 BYTE   W06
 BYTE   Dn4
 BYTE   W06
 BYTE   Fn4
 BYTE   W06
 BYTE   Dn4
 BYTE   W06
 BYTE   Dn5
 BYTE   W06
//  #07 //013   ----------------------------------------
Label_0100F97B:
 BYTE   N03  An4  v095
 BYTE   W06
 BYTE   Fn4
 BYTE   W06
 BYTE   Fn5
 BYTE   W06
 BYTE   Dn5
 BYTE   W06
 BYTE   An4
 BYTE   W06
 BYTE   Dn5
 BYTE   W06
 BYTE   An4
 BYTE   W06
 BYTE   Fn4
 BYTE   W06
 BYTE   Dn4
 BYTE   W06
 BYTE   An3
 BYTE   W06
 BYTE   An4
 BYTE   W06
 BYTE   Fn3
 BYTE   W06
 BYTE   An3
 BYTE   W06
 BYTE   Cn4
 BYTE   W06
 BYTE   An3
 BYTE   W06
 BYTE   Fn4
 BYTE   W06
 BYTE   PEND 
//  #07 //014   ----------------------------------------
Label_0100F99E:
 BYTE   N03  Cn4  v095
 BYTE   W06
 BYTE   An3
 BYTE   W06
 BYTE   Cn5
 BYTE   W06
 BYTE   An4
 BYTE   W06
 BYTE   Fn3
 BYTE   W06
 BYTE   An4
 BYTE   W06
 BYTE   Fn4
 BYTE   W06
 BYTE   Cn4
 BYTE   W06
 BYTE   An3
 BYTE   W06
 BYTE   Fn4
 BYTE   W06
 BYTE   Cn4
 BYTE   W06
 BYTE   Fn3
 BYTE   W06
 BYTE   Bn3
 BYTE   W06
 BYTE   Dn4
 BYTE   W06
 BYTE   Bn3
 BYTE   W06
 BYTE   Bn4
 BYTE   W06
 BYTE   PEND 
//  #07 //015   ----------------------------------------
Label_0100F9C1:
 BYTE   N03  Fn4  v095
 BYTE   W06
 BYTE   Dn4
 BYTE   W06
 BYTE   Fn5
 BYTE   W06
 BYTE   Dn5
 BYTE   W06
 BYTE   Bn4
 BYTE   W06
 BYTE   Fn4
 BYTE   W06
 BYTE   Dn4
 BYTE   W06
 BYTE   Bn4
 BYTE   W06
 BYTE   Fn4
 BYTE   W06
 BYTE   Dn4
 BYTE   W06
 BYTE   Bn3
 BYTE   W06
 BYTE   Fn3
 BYTE   W06
 BYTE   As3
 BYTE   W06
 BYTE   Dn4
 BYTE   W06
 BYTE   As3
 BYTE   W06
 BYTE   Fn4
 BYTE   W06
 BYTE   PEND 
//  #07 //016   ----------------------------------------
 BYTE   Dn4
 BYTE   W06
 BYTE   As3
 BYTE   W06
 BYTE   As4
 BYTE   W06
 BYTE   Gn4
 BYTE   W06
 BYTE   En4
 BYTE   W06
 BYTE   Cn4
 BYTE   W06
 BYTE   En5
 BYTE   W06
 BYTE   Cn5
 BYTE   W06
 BYTE   Gn4
 BYTE   W06
 BYTE   En4
 BYTE   W06
 BYTE   Gn4
 BYTE   W06
 BYTE   An3
 BYTE   W06
 BYTE   Dn4
 BYTE   W06
 BYTE   Fn4
 BYTE   W06
 BYTE   Dn4
 BYTE   W06
 BYTE   Dn5
 BYTE   W06
//  #07 //017   ----------------------------------------
 BYTE   PATT
  POIN2 Label_0100F97B
//  #07 //018   ----------------------------------------
 BYTE   PATT
  POIN2 Label_0100F99E
//  #07 //019   ----------------------------------------
 BYTE   PATT
  POIN2 Label_0100F9C1
//  #07 //020   ----------------------------------------
 BYTE   N03  Dn4  v095
 BYTE   W06
 BYTE   As3
 BYTE   W06
 BYTE   As4
 BYTE   W06
 BYTE   Gn4
 BYTE   W06
 BYTE   En4
 BYTE   W06
 BYTE   Cn4
 BYTE   W06
 BYTE   En5
 BYTE   W06
 BYTE   Cn5
 BYTE   W06
 BYTE   Gn4
 BYTE   W06
 BYTE   En4
 BYTE   W06
 BYTE   Gn4
 BYTE   W06
 BYTE   N02  Dn6  v088
 BYTE   W05
 BYTE   N03  Dn6  v081
 BYTE   W06
 BYTE   N02  Dn6  v078
 BYTE   W07
 BYTE   Dn6  v093
 BYTE   W06
 BYTE   Dn6  v091
 BYTE   W06
//  #07 //021   ----------------------------------------
Label_0100FA3D:
 BYTE   W01
 BYTE   N02  Dn6  v093
 BYTE   W05
 BYTE   Dn6  v089
 BYTE   W06
 BYTE   Dn6  v088
 BYTE   W06
 BYTE   Dn6  v102
 BYTE   W06
 BYTE   Dn6  v097
 BYTE   W06
 BYTE   Dn6  v102
 BYTE   W06
 BYTE   Dn6  v101
 BYTE   W06
 BYTE   Dn6
 BYTE   W06
 BYTE   Dn6  v097
 BYTE   W06
 BYTE   Dn6  v103
 BYTE   W06
 BYTE   Dn6  v094
 BYTE   W06
 BYTE   Dn6  v102
 BYTE   W05
 BYTE   Dn6  v108
 BYTE   W06
 BYTE   N03  Dn6  v102
 BYTE   W06
 BYTE   Dn6  v098
 BYTE   W06
 BYTE   Dn6  v099
 BYTE   W06
 BYTE   Dn6  v107
 BYTE   W01
 BYTE   PEND 
//  #07 //022   ----------------------------------------
Label_0100FA73:
 BYTE   W06
 BYTE   N01  Dn6  v102
 BYTE   W05
 BYTE   N03  Dn6  v103
 BYTE   W07
 BYTE   N07  Cn6
 BYTE   W06
 BYTE   Gn5  v090
 BYTE   W06
 BYTE   N03  En5  v088
 BYTE   W05
 BYTE   N08  Gn5  v101
 BYTE   W07
 BYTE   N06  En5  v064
 BYTE   W05
 BYTE   N05  Cn5  v082
 BYTE   W06
 BYTE   N06  Gn4  v089
 BYTE   W13
 BYTE   N02  Dn6  v088
 BYTE   W05
 BYTE   N03  Dn6  v081
 BYTE   W06
 BYTE   N02  Dn6  v078
 BYTE   W07
 BYTE   Dn6  v093
 BYTE   W06
 BYTE   Dn6  v091
 BYTE   W06
 BYTE   PEND 
//  #07 //023   ----------------------------------------
 BYTE   PATT
  POIN2 Label_0100FA3D
//  #07 //024   ----------------------------------------
 BYTE   PATT
  POIN2 Label_0100FA73
//  #07 //025   ----------------------------------------
 BYTE   PATT
  POIN2 Label_0100FA3D
//  #07 //026   ----------------------------------------
 BYTE   W06
 BYTE   N01  Dn6  v102
 BYTE   W05
 BYTE   N03  Dn6  v103
 BYTE   W07
 BYTE   N07  Cn6
 BYTE   W06
 BYTE   Gn5  v090
 BYTE   W06
 BYTE   N03  En5  v088
 BYTE   W05
 BYTE   N08  Gn5  v101
 BYTE   W07
 BYTE   N06  En5  v064
 BYTE   W05
 BYTE   N05  Cn5  v082
 BYTE   W06
 BYTE   N06  Gn4  v089
 BYTE   W13
 BYTE   N03  Dn2  v103
 BYTE   W06
 BYTE   Dn2  v096
 BYTE   W05
 BYTE   N04  Dn2  v079
 BYTE   W07
 BYTE   N03  Dn2  v088
 BYTE   W06
 BYTE   Dn2  v103
 BYTE   W06
//  #07 //027   ----------------------------------------
 BYTE   Dn2  v097
 BYTE   W06
 BYTE   Dn2  v099
 BYTE   W06
 BYTE   N02  Dn2  v108
 BYTE   W06
 BYTE   N03  Dn2  v111
 BYTE   W06
 BYTE   Dn2
 BYTE   W06
 BYTE   Dn2  v110
 BYTE   W06
 BYTE   Dn2  v114
 BYTE   W06
 BYTE   Dn2  v111
 BYTE   W06
 BYTE   Dn2  v110
 BYTE   W07
 BYTE   N02  Dn2  v121
 BYTE   W05
 BYTE   N03  Dn2  v111
 BYTE   W06
 BYTE   Dn2  v103
 BYTE   W06
 BYTE   Dn2  v096
 BYTE   W05
 BYTE   N04  Dn2  v079
 BYTE   W07
 BYTE   N03  Dn2  v088
 BYTE   W06
 BYTE   Dn2  v103
 BYTE   W06
//  #07 //028   ----------------------------------------
 BYTE   Dn2  v097
 BYTE   W06
 BYTE   Dn2  v099
 BYTE   W06
 BYTE   N02  Dn2  v108
 BYTE   W06
 BYTE   N03  Dn2  v111
 BYTE   W06
 BYTE   Dn2
 BYTE   W06
 BYTE   Dn2  v110
 BYTE   W06
 BYTE   Dn2  v114
 BYTE   W06
 BYTE   Dn2  v111
 BYTE   W06
 BYTE   Dn2  v110
 BYTE   W07
 BYTE   N02  Dn2  v121
 BYTE   W05
 BYTE   N03  Dn2  v111
 BYTE   W06
 BYTE   Cn4  v095
 BYTE   W06
 BYTE   Fn4
 BYTE   W06
 BYTE   Gs4
 BYTE   W06
 BYTE   Fn4
 BYTE   W06
 BYTE   Fn5
 BYTE   W06
//  #07 //029   ----------------------------------------
 BYTE   Cn5
 BYTE   W06
 BYTE   Gs4
 BYTE   W06
 BYTE   Gs5
 BYTE   W06
 BYTE   Fn5
 BYTE   W06
 BYTE   Cn5
 BYTE   W06
 BYTE   Fn5
 BYTE   W06
 BYTE   Cn5
 BYTE   W06
 BYTE   Gs4
 BYTE   W06
 BYTE   Fn4
 BYTE   W06
 BYTE   Cn4
 BYTE   W06
 BYTE   Cn5
 BYTE   W06
 BYTE   Gs3
 BYTE   W06
 BYTE   Cn4
 BYTE   W06
 BYTE   Ds4
 BYTE   W06
 BYTE   Cn4
 BYTE   W06
 BYTE   Gs4
 BYTE   W06
//  #07 //030   ----------------------------------------
 BYTE   Ds4
 BYTE   W06
 BYTE   Cn4
 BYTE   W06
 BYTE   Ds5
 BYTE   W06
 BYTE   Cn5
 BYTE   W06
 BYTE   Gs3
 BYTE   W06
 BYTE   Cn5
 BYTE   W06
 BYTE   Gs4
 BYTE   W06
 BYTE   Ds4
 BYTE   W06
 BYTE   Cn4
 BYTE   W06
 BYTE   Gs4
 BYTE   W06
 BYTE   Ds4
 BYTE   W06
 BYTE   Gs3
 BYTE   W06
 BYTE   Dn4
 BYTE   W06
 BYTE   Fn4
 BYTE   W06
 BYTE   Dn4
 BYTE   W06
 BYTE   Dn5
 BYTE   W06
//  #07 //031   ----------------------------------------
 BYTE   Gs4
 BYTE   W06
 BYTE   Fn4
 BYTE   W06
 BYTE   Gs5
 BYTE   W06
 BYTE   Fn5
 BYTE   W06
 BYTE   Dn5
 BYTE   W06
 BYTE   Gs4
 BYTE   W06
 BYTE   Fn4
 BYTE   W06
 BYTE   Dn5
 BYTE   W06
 BYTE   Gs4
 BYTE   W06
 BYTE   Fn4
 BYTE   W06
 BYTE   Dn4
 BYTE   W06
 BYTE   Gs3
 BYTE   W06
 BYTE   Cs4
 BYTE   W06
 BYTE   Fn4
 BYTE   W06
 BYTE   Cs4
 BYTE   W06
 BYTE   Gs4
 BYTE   W06
//  #07 //032   ----------------------------------------
 BYTE   Fn4
 BYTE   W06
 BYTE   Cs4
 BYTE   W06
 BYTE   Cs5
 BYTE   W06
 BYTE   As4
 BYTE   W06
 BYTE   Gn4
 BYTE   W06
 BYTE   Ds4
 BYTE   W06
 BYTE   Gn5
 BYTE   W06
 BYTE   Ds5
 BYTE   W06
 BYTE   As4
 BYTE   W06
 BYTE   Gn4
 BYTE   W06
 BYTE   As4
 BYTE   W06
 BYTE   Ds3
 BYTE   W06
 BYTE   Gs3
 BYTE   W06
 BYTE   Bn3
 BYTE   W06
 BYTE   Gs3
 BYTE   W06
 BYTE   Gs4
 BYTE   W06
//  #07 //033   ----------------------------------------
 BYTE   Ds4
 BYTE   W06
 BYTE   Bn3
 BYTE   W06
 BYTE   Bn4
 BYTE   W06
 BYTE   Gs4
 BYTE   W06
 BYTE   Ds4
 BYTE   W06
 BYTE   Gs4
 BYTE   W06
 BYTE   Ds4
 BYTE   W06
 BYTE   Bn3
 BYTE   W06
 BYTE   Gs3
 BYTE   W06
 BYTE   Ds3
 BYTE   W06
 BYTE   Ds4
 BYTE   W06
 BYTE   Bn2
 BYTE   W06
 BYTE   Ds3
 BYTE   W06
 BYTE   Fs3
 BYTE   W06
 BYTE   Ds3
 BYTE   W06
 BYTE   Bn3
 BYTE   W06
//  #07 //034   ----------------------------------------
 BYTE   Fs3
 BYTE   W06
 BYTE   Ds3
 BYTE   W06
 BYTE   Fs4
 BYTE   W06
 BYTE   Ds4
 BYTE   W06
 BYTE   Bn2
 BYTE   W06
 BYTE   Ds4
 BYTE   W06
 BYTE   Bn3
 BYTE   W06
 BYTE   Fs3
 BYTE   W06
 BYTE   Ds3
 BYTE   W06
 BYTE   Bn3
 BYTE   W06
 BYTE   Fs3
 BYTE   W06
 BYTE   Bn2
 BYTE   W06
 BYTE   Fn3
 BYTE   W06
 BYTE   Gs3
 BYTE   W06
 BYTE   Fn3
 BYTE   W06
 BYTE   Fn4
 BYTE   W06
//  #07 //035   ----------------------------------------
 BYTE   Bn3
 BYTE   W06
 BYTE   Gs3
 BYTE   W06
 BYTE   Bn4
 BYTE   W06
 BYTE   Gs4
 BYTE   W06
 BYTE   Fn4
 BYTE   W06
 BYTE   Bn3
 BYTE   W06
 BYTE   Gs3
 BYTE   W06
 BYTE   Fn4
 BYTE   W06
 BYTE   Bn3
 BYTE   W06
 BYTE   Gs3
 BYTE   W06
 BYTE   Fn3
 BYTE   W06
 BYTE   Bn2
 BYTE   W06
 BYTE   En3
 BYTE   W06
 BYTE   Gs3
 BYTE   W06
 BYTE   En3
 BYTE   W06
 BYTE   Bn3
 BYTE   W06
//  #07 //036   ----------------------------------------
 BYTE   Gs3
 BYTE   W06
 BYTE   En3
 BYTE   W06
 BYTE   En4
 BYTE   W06
 BYTE   Cs4
 BYTE   W06
 BYTE   As3
 BYTE   W06
 BYTE   Fs3
 BYTE   W06
 BYTE   As4
 BYTE   W06
 BYTE   Fs4
 BYTE   W06
 BYTE   Cs4
 BYTE   W06
 BYTE   As3
 BYTE   W06
 BYTE   Cs4
 BYTE   W36
//  #07 //037   ----------------------------------------
 BYTE   W96
//  #07 //038   ----------------------------------------
 BYTE   W96
//  #07 //039   ----------------------------------------
 BYTE   W96
//  #07 //040   ----------------------------------------
 BYTE   W96
//  #07 //041   ----------------------------------------
 BYTE   GoTo
  POIN2 Label_0100F7CA
//  #07 //042   ----------------------------------------
 BYTE   W44
 BYTE   W03
 BYTE   FINE

//**************** Track 8 (Midi-Chn.7) ****************//

aai_crises_of_fate_008:
//  #08 //000   ----------------------------------------
 BYTE   KEYSH   aai_crises_of_fate_key+0
Label_0100FE5E:
 BYTE   VOICE   20 //16
 BYTE   PAN   c_v-40
 BYTE   VOL   70*aai_crises_of_fate_mvl/mxv
 BYTE   W84
 BYTE   N05  Cs4  v100
 BYTE   W06
 BYTE   N13  Dn4
 BYTE   W06
//  #08 //001   ----------------------------------------
 BYTE   W06
 BYTE   N05  Cs4
 BYTE   W06
 BYTE   En4
 BYTE   W06
 BYTE   N06  Dn4
 BYTE   W06
 BYTE   Fs4
 BYTE   W06
 BYTE   En4
 BYTE   W06
 BYTE   Dn4
 BYTE   W06
 BYTE   Cs4
 BYTE   W06
 BYTE   Bn3
 BYTE   W36
 BYTE   Cs4
 BYTE   W06
 BYTE   N12  Dn4
 BYTE   W06
//  #08 //002   ----------------------------------------
 BYTE   W06
 BYTE   N05  Cs4
 BYTE   W06
 BYTE   N06  En4
 BYTE   W06
 BYTE   Dn4
 BYTE   W06
 BYTE   Fs4
 BYTE   W06
 BYTE   En4
 BYTE   W06
 BYTE   Dn4
 BYTE   W06
 BYTE   Cs4
 BYTE   W06
 BYTE   Bn3
 BYTE   W36
 BYTE   Cs4
 BYTE   W06
 BYTE   N13  Dn4
 BYTE   W06
//  #08 //003   ----------------------------------------
 BYTE   W06
 BYTE   N07  Cs4
 BYTE   W06
 BYTE   N05  En4
 BYTE   W06
 BYTE   N06  Dn4
 BYTE   W06
 BYTE   N07  Fs4
 BYTE   W06
 BYTE   N06  En4
 BYTE   W06
 BYTE   Dn4
 BYTE   W06
 BYTE   Cs4
 BYTE   W06
 BYTE   N03  Bn3
 BYTE   W06
 BYTE   N02
 BYTE   W06
 BYTE   Bn3
 BYTE   W06
 BYTE   N03
 BYTE   W06
 BYTE   N05
 BYTE   W24
//  #08 //004   ----------------------------------------
 BYTE   N06
 BYTE   W06
 BYTE   N01
 BYTE   W06
 BYTE   N02
 BYTE   W06
 BYTE   N06
 BYTE   W12
 BYTE   N03  Bn4
 BYTE   W06
 BYTE   N12  Bn3
 BYTE   W60
//  #08 //005   ----------------------------------------
 BYTE   W96
//  #08 //006   ----------------------------------------
 BYTE   W96
//  #08 //007   ----------------------------------------
 BYTE   W96
//  #08 //008   ----------------------------------------
 BYTE   W96
//  #08 //009   ----------------------------------------
 BYTE   W96
//  #08 //010   ----------------------------------------
 BYTE   W96
//  #08 //011   ----------------------------------------
 BYTE   W96
//  #08 //012   ----------------------------------------
 BYTE   W84
 BYTE   N05  En4
 BYTE   W06
 BYTE   N13  Fn4
 BYTE   W06
//  #08 //013   ----------------------------------------
Label_0100FED7:
 BYTE   W06
 BYTE   N05  En4  v100
 BYTE   W06
 BYTE   Gn4
 BYTE   W06
 BYTE   N06  Fn4
 BYTE   W06
 BYTE   An4
 BYTE   W06
 BYTE   Gn4
 BYTE   W06
 BYTE   Fn4
 BYTE   W06
 BYTE   En4
 BYTE   W06
 BYTE   Dn4
 BYTE   W36
 BYTE   En4
 BYTE   W06
 BYTE   N12  Fn4
 BYTE   W06
 BYTE   PEND 
//  #08 //014   ----------------------------------------
Label_0100FEF1:
 BYTE   W06
 BYTE   N05  En4  v100
 BYTE   W06
 BYTE   N06  Gn4
 BYTE   W06
 BYTE   Fn4
 BYTE   W06
 BYTE   An4
 BYTE   W06
 BYTE   Gn4
 BYTE   W06
 BYTE   Fn4
 BYTE   W06
 BYTE   En4
 BYTE   W06
 BYTE   Dn4
 BYTE   W36
 BYTE   En4
 BYTE   W06
 BYTE   N13  Fn4
 BYTE   W06
 BYTE   PEND 
//  #08 //015   ----------------------------------------
Label_0100FF0B:
 BYTE   W06
 BYTE   N07  En4  v100
 BYTE   W06
 BYTE   N05  Gn4
 BYTE   W06
 BYTE   N06  Fn4
 BYTE   W06
 BYTE   N07  An4
 BYTE   W06
 BYTE   N06  Gn4
 BYTE   W06
 BYTE   Fn4
 BYTE   W06
 BYTE   En4
 BYTE   W06
 BYTE   N03  Dn4
 BYTE   W06
 BYTE   N02
 BYTE   W06
 BYTE   Dn4
 BYTE   W06
 BYTE   N03
 BYTE   W06
 BYTE   N05
 BYTE   W24
 BYTE   PEND 
//  #08 //016   ----------------------------------------
 BYTE   N06
 BYTE   W06
 BYTE   N01
 BYTE   W06
 BYTE   N02
 BYTE   W06
 BYTE   N06
 BYTE   W12
 BYTE   N03  Dn5
 BYTE   W06
 BYTE   N12  Dn4
 BYTE   W12
 BYTE   N06
 BYTE   W36
 BYTE   N05  En4
 BYTE   W06
 BYTE   N13  Fn4
 BYTE   W06
//  #08 //017   ----------------------------------------
 BYTE   PATT
  POIN2 Label_0100FED7
//  #08 //018   ----------------------------------------
 BYTE   PATT
  POIN2 Label_0100FEF1
//  #08 //019   ----------------------------------------
 BYTE   PATT
  POIN2 Label_0100FF0B
//  #08 //020   ----------------------------------------
 BYTE   N06  Dn4  v100
 BYTE   W06
 BYTE   N01
 BYTE   W06
 BYTE   N02
 BYTE   W06
 BYTE   N06
 BYTE   W12
 BYTE   N03  Dn5
 BYTE   W06
 BYTE   N12  Dn4
 BYTE   W60
//  #08 //021   ----------------------------------------
 BYTE   W96
//  #08 //022   ----------------------------------------
 BYTE   W96
//  #08 //023   ----------------------------------------
 BYTE   W96
//  #08 //024   ----------------------------------------
 BYTE   W96
//  #08 //025   ----------------------------------------
 BYTE   W96
//  #08 //026   ----------------------------------------
 BYTE   W96
//  #08 //027   ----------------------------------------
 BYTE   W96
//  #08 //028   ----------------------------------------
 BYTE   W84
 BYTE   N05  Gn4
 BYTE   W06
 BYTE   N13  Gs4
 BYTE   W06
//  #08 //029   ----------------------------------------
 BYTE   W06
 BYTE   N05  Gn4
 BYTE   W06
 BYTE   As4
 BYTE   W06
 BYTE   N06  Gs4
 BYTE   W06
 BYTE   Cn5
 BYTE   W06
 BYTE   As4
 BYTE   W06
 BYTE   Gs4
 BYTE   W06
 BYTE   Gn4
 BYTE   W42
 BYTE   Gn4
 BYTE   W06
 BYTE   N12  Gs4
 BYTE   W06
//  #08 //030   ----------------------------------------
 BYTE   W06
 BYTE   N05  Gn4
 BYTE   W06
 BYTE   N06  As4
 BYTE   W06
 BYTE   Gs4
 BYTE   W06
 BYTE   Cn5
 BYTE   W06
 BYTE   As4
 BYTE   W06
 BYTE   Gs4
 BYTE   W06
 BYTE   Gn4
 BYTE   W42
 BYTE   Gn4
 BYTE   W06
 BYTE   N13  Gs4
 BYTE   W06
//  #08 //031   ----------------------------------------
 BYTE   W06
 BYTE   N07  Gn4
 BYTE   W06
 BYTE   N05  As4
 BYTE   W06
 BYTE   N06  Gs4
 BYTE   W06
 BYTE   N07  Cn5
 BYTE   W06
 BYTE   N06  As4
 BYTE   W06
 BYTE   Gs4
 BYTE   W06
 BYTE   Gn4
 BYTE   W06
 BYTE   N03  Fn4
 BYTE   W06
 BYTE   N02
 BYTE   W06
 BYTE   Fn4
 BYTE   W06
 BYTE   N03
 BYTE   W06
 BYTE   N05
 BYTE   W12
 BYTE   Fn5
 BYTE   W06
 BYTE   N06  Fn4
 BYTE   W06
//  #08 //032   ----------------------------------------
 BYTE   W06
 BYTE   N02
 BYTE   W06
 BYTE   Fn4
 BYTE   W06
 BYTE   Fn4
 BYTE   W06
 BYTE   N05
 BYTE   W06
 BYTE   N03  Fn5
 BYTE   W06
 BYTE   N07  Fn4
 BYTE   W48
 BYTE   N05  As4
 BYTE   W06
 BYTE   N13  Bn4
 BYTE   W06
//  #08 //033   ----------------------------------------
 BYTE   W06
 BYTE   N05  As4
 BYTE   W06
 BYTE   Cs5
 BYTE   W06
 BYTE   N06  Bn4
 BYTE   W06
 BYTE   Ds5
 BYTE   W06
 BYTE   Cs5
 BYTE   W06
 BYTE   Bn4
 BYTE   W06
 BYTE   As4
 BYTE   W42
 BYTE   As4
 BYTE   W06
 BYTE   N12  Bn4
 BYTE   W06
//  #08 //034   ----------------------------------------
 BYTE   W06
 BYTE   N05  As4
 BYTE   W06
 BYTE   N06  Cs5
 BYTE   W06
 BYTE   Bn4
 BYTE   W06
 BYTE   Ds5
 BYTE   W06
 BYTE   Cs5
 BYTE   W06
 BYTE   Bn4
 BYTE   W06
 BYTE   As4
 BYTE   W42
 BYTE   As4
 BYTE   W06
 BYTE   N13  Bn4
 BYTE   W06
//  #08 //035   ----------------------------------------
 BYTE   W06
 BYTE   N07  As4
 BYTE   W06
 BYTE   N05  Cs5
 BYTE   W06
 BYTE   N06  Bn4
 BYTE   W06
 BYTE   N07  Ds5
 BYTE   W06
 BYTE   N06  Cs5
 BYTE   W06
 BYTE   Bn4
 BYTE   W06
 BYTE   As4
 BYTE   W06
 BYTE   N03  Gs4
 BYTE   W06
 BYTE   N02
 BYTE   W06
 BYTE   Gs4
 BYTE   W06
 BYTE   N03
 BYTE   W06
 BYTE   N05
 BYTE   W12
 BYTE   Gs5
 BYTE   W06
 BYTE   N06  Gs4
 BYTE   W06
//  #08 //036   ----------------------------------------
 BYTE   W06
 BYTE   N02
 BYTE   W06
 BYTE   Gs4
 BYTE   W06
 BYTE   Gs4
 BYTE   W06
 BYTE   N05
 BYTE   W06
 BYTE   N03  Gs5
 BYTE   W06
 BYTE   N07  Gs4
 BYTE   W12
 BYTE   N06  Fs3  v077
 BYTE   W12
 BYTE   N05  Fs3  v084
 BYTE   W24
 BYTE   N06  An3  v108
 BYTE   W12
//  #08 //037   ----------------------------------------
 BYTE   W12
 BYTE   TIE  Bn3  v104
 BYTE   W84
//  #08 //038   ----------------------------------------
 BYTE   W40
 BYTE   W01
 BYTE   EOT
 BYTE   W07
 BYTE   N06  Bn3  v091
 BYTE   W12
 BYTE   Bn3  v089
 BYTE   W24
 BYTE   Dn4  v108
 BYTE   W12
//  #08 //039   ----------------------------------------
 BYTE   W12
 BYTE   TIE  En4  v118
 BYTE   W84
//  #08 //040   ----------------------------------------
 BYTE   W40
 BYTE   EOT
 BYTE   W56
//  #08 //041   ----------------------------------------
 BYTE   GoTo
  POIN2 Label_0100FE5E
//  #08 //042   ----------------------------------------
 BYTE   W44
 BYTE   W03
 BYTE   FINE

//**************** Track 9 (Midi-Chn.8) ****************//

aai_crises_of_fate_009:
//  #09 //000   ----------------------------------------
 BYTE   KEYSH   aai_crises_of_fate_key+0
Label_0100FC56:
 BYTE   VOICE   16
 BYTE   PAN   c_v+40
 BYTE   VOL   70*aai_crises_of_fate_mvl/mxv
 BYTE   W84
 BYTE   N05  Cs3  v100
 BYTE   W06
 BYTE   N13  Dn3
 BYTE   W06
//  #09 //001   ----------------------------------------
 BYTE   W06
 BYTE   N05  Cs3
 BYTE   W06
 BYTE   En3
 BYTE   W06
 BYTE   N06  Dn3
 BYTE   W06
 BYTE   Fs3
 BYTE   W06
 BYTE   En3
 BYTE   W06
 BYTE   Dn3
 BYTE   W06
 BYTE   Cs3
 BYTE   W06
 BYTE   Bn2
 BYTE   W36
 BYTE   Cs3
 BYTE   W06
 BYTE   N12  Dn3
 BYTE   W06
//  #09 //002   ----------------------------------------
 BYTE   W06
 BYTE   N05  Cs3
 BYTE   W06
 BYTE   N06  En3
 BYTE   W06
 BYTE   Dn3
 BYTE   W06
 BYTE   Fs3
 BYTE   W06
 BYTE   En3
 BYTE   W06
 BYTE   Dn3
 BYTE   W06
 BYTE   Cs3
 BYTE   W06
 BYTE   Bn2
 BYTE   W36
 BYTE   Cs3
 BYTE   W06
 BYTE   N13  Dn3
 BYTE   W06
//  #09 //003   ----------------------------------------
 BYTE   W06
 BYTE   N07  Cs3
 BYTE   W06
 BYTE   N05  En3
 BYTE   W06
 BYTE   N06  Dn3
 BYTE   W06
 BYTE   N07  Fs3
 BYTE   W06
 BYTE   N06  En3
 BYTE   W06
 BYTE   Dn3
 BYTE   W06
 BYTE   Cs3
 BYTE   W06
 BYTE   N03  Bn2
 BYTE   W06
 BYTE   N02
 BYTE   W06
 BYTE   Bn2
 BYTE   W06
 BYTE   N03
 BYTE   W06
 BYTE   N05
 BYTE   W24
//  #09 //004   ----------------------------------------
 BYTE   N06
 BYTE   W06
 BYTE   N01
 BYTE   W06
 BYTE   N02
 BYTE   W06
 BYTE   N06
 BYTE   W12
 BYTE   N03  Bn3
 BYTE   W06
 BYTE   N12  Bn2
 BYTE   W60
//  #09 //005   ----------------------------------------
 BYTE   W96
//  #09 //006   ----------------------------------------
 BYTE   W96
//  #09 //007   ----------------------------------------
 BYTE   W96
//  #09 //008   ----------------------------------------
 BYTE   W96
//  #09 //009   ----------------------------------------
 BYTE   W96
//  #09 //010   ----------------------------------------
 BYTE   W96
//  #09 //011   ----------------------------------------
 BYTE   W96
//  #09 //012   ----------------------------------------
 BYTE   W84
 BYTE   N05  En3
 BYTE   W06
 BYTE   N13  Fn3
 BYTE   W06
//  #09 //013   ----------------------------------------
Label_0100FCCF:
 BYTE   W06
 BYTE   N05  En3  v100
 BYTE   W06
 BYTE   Gn3
 BYTE   W06
 BYTE   N06  Fn3
 BYTE   W06
 BYTE   An3
 BYTE   W06
 BYTE   Gn3
 BYTE   W06
 BYTE   Fn3
 BYTE   W06
 BYTE   En3
 BYTE   W06
 BYTE   Dn3
 BYTE   W36
 BYTE   En3
 BYTE   W06
 BYTE   N12  Fn3
 BYTE   W06
 BYTE   PEND 
//  #09 //014   ----------------------------------------
Label_0100FCE9:
 BYTE   W06
 BYTE   N05  En3  v100
 BYTE   W06
 BYTE   N06  Gn3
 BYTE   W06
 BYTE   Fn3
 BYTE   W06
 BYTE   An3
 BYTE   W06
 BYTE   Gn3
 BYTE   W06
 BYTE   Fn3
 BYTE   W06
 BYTE   En3
 BYTE   W06
 BYTE   Dn3
 BYTE   W36
 BYTE   En3
 BYTE   W06
 BYTE   N13  Fn3
 BYTE   W06
 BYTE   PEND 
//  #09 //015   ----------------------------------------
Label_0100FD03:
 BYTE   W06
 BYTE   N07  En3  v100
 BYTE   W06
 BYTE   N05  Gn3
 BYTE   W06
 BYTE   N06  Fn3
 BYTE   W06
 BYTE   N07  An3
 BYTE   W06
 BYTE   N06  Gn3
 BYTE   W06
 BYTE   Fn3
 BYTE   W06
 BYTE   En3
 BYTE   W06
 BYTE   N03  Dn3
 BYTE   W06
 BYTE   N02
 BYTE   W06
 BYTE   Dn3
 BYTE   W06
 BYTE   N03
 BYTE   W06
 BYTE   N05
 BYTE   W24
 BYTE   PEND 
//  #09 //016   ----------------------------------------
 BYTE   N06
 BYTE   W06
 BYTE   N01
 BYTE   W06
 BYTE   N02
 BYTE   W06
 BYTE   N06
 BYTE   W12
 BYTE   N03  Dn4
 BYTE   W06
 BYTE   N12  Dn3
 BYTE   W12
 BYTE   N06
 BYTE   W36
 BYTE   N05  En3
 BYTE   W06
 BYTE   N13  Fn3
 BYTE   W06
//  #09 //017   ----------------------------------------
 BYTE   PATT
  POIN2 Label_0100FCCF
//  #09 //018   ----------------------------------------
 BYTE   PATT
  POIN2 Label_0100FCE9
//  #09 //019   ----------------------------------------
 BYTE   PATT
  POIN2 Label_0100FD03
//  #09 //020   ----------------------------------------
 BYTE   N06  Dn3  v100
 BYTE   W06
 BYTE   N01
 BYTE   W06
 BYTE   N02
 BYTE   W06
 BYTE   N06
 BYTE   W12
 BYTE   N03  Dn4
 BYTE   W06
 BYTE   N12  Dn3
 BYTE   W60
//  #09 //021   ----------------------------------------
 BYTE   W96
//  #09 //022   ----------------------------------------
 BYTE   W96
//  #09 //023   ----------------------------------------
 BYTE   W96
//  #09 //024   ----------------------------------------
 BYTE   W96
//  #09 //025   ----------------------------------------
 BYTE   W96
//  #09 //026   ----------------------------------------
 BYTE   W96
//  #09 //027   ----------------------------------------
 BYTE   W96
//  #09 //028   ----------------------------------------
 BYTE   W84
 BYTE   N05  Gn3
 BYTE   W06
 BYTE   N13  Gs3
 BYTE   W06
//  #09 //029   ----------------------------------------
 BYTE   W06
 BYTE   N05  Gn3
 BYTE   W06
 BYTE   As3
 BYTE   W06
 BYTE   N06  Gs3
 BYTE   W06
 BYTE   Cn4
 BYTE   W06
 BYTE   As3
 BYTE   W06
 BYTE   Gs3
 BYTE   W06
 BYTE   Gn3
 BYTE   W42
 BYTE   Gn3
 BYTE   W06
 BYTE   N12  Gs3
 BYTE   W06
//  #09 //030   ----------------------------------------
 BYTE   W06
 BYTE   N05  Gn3
 BYTE   W06
 BYTE   N06  As3
 BYTE   W06
 BYTE   Gs3
 BYTE   W06
 BYTE   Cn4
 BYTE   W06
 BYTE   As3
 BYTE   W06
 BYTE   Gs3
 BYTE   W06
 BYTE   Gn3
 BYTE   W42
 BYTE   Gn3
 BYTE   W06
 BYTE   N13  Gs3
 BYTE   W06
//  #09 //031   ----------------------------------------
 BYTE   W06
 BYTE   N07  Gn3
 BYTE   W06
 BYTE   N05  As3
 BYTE   W06
 BYTE   N06  Gs3
 BYTE   W06
 BYTE   N07  Cn4
 BYTE   W06
 BYTE   N06  As3
 BYTE   W06
 BYTE   Gs3
 BYTE   W06
 BYTE   Gn3
 BYTE   W06
 BYTE   N03  Fn3
 BYTE   W06
 BYTE   N02
 BYTE   W06
 BYTE   Fn3
 BYTE   W06
 BYTE   N03
 BYTE   W06
 BYTE   N05
 BYTE   W12
 BYTE   Fn4
 BYTE   W06
 BYTE   N06  Fn3
 BYTE   W06
//  #09 //032   ----------------------------------------
 BYTE   W06
 BYTE   N02
 BYTE   W06
 BYTE   Fn3
 BYTE   W06
 BYTE   Fn3
 BYTE   W06
 BYTE   N05
 BYTE   W06
 BYTE   N03  Fn4
 BYTE   W06
 BYTE   N07  Fn3
 BYTE   W48
 BYTE   N05  As3
 BYTE   W06
 BYTE   N13  Bn3
 BYTE   W06
//  #09 //033   ----------------------------------------
 BYTE   W06
 BYTE   N05  As3
 BYTE   W06
 BYTE   Cs4
 BYTE   W06
 BYTE   N06  Bn3
 BYTE   W06
 BYTE   Ds4
 BYTE   W06
 BYTE   Cs4
 BYTE   W06
 BYTE   Bn3
 BYTE   W06
 BYTE   As3
 BYTE   W42
 BYTE   As3
 BYTE   W06
 BYTE   N12  Bn3
 BYTE   W06
//  #09 //034   ----------------------------------------
 BYTE   W06
 BYTE   N05  As3
 BYTE   W06
 BYTE   N06  Cs4
 BYTE   W06
 BYTE   Bn3
 BYTE   W06
 BYTE   Ds4
 BYTE   W06
 BYTE   Cs4
 BYTE   W06
 BYTE   Bn3
 BYTE   W06
 BYTE   As3
 BYTE   W42
 BYTE   As3
 BYTE   W06
 BYTE   N13  Bn3
 BYTE   W06
//  #09 //035   ----------------------------------------
 BYTE   W06
 BYTE   N07  As3
 BYTE   W06
 BYTE   N05  Cs4
 BYTE   W06
 BYTE   N06  Bn3
 BYTE   W06
 BYTE   N07  Ds4
 BYTE   W06
 BYTE   N06  Cs4
 BYTE   W06
 BYTE   Bn3
 BYTE   W06
 BYTE   As3
 BYTE   W06
 BYTE   N03  Gs3
 BYTE   W06
 BYTE   N02
 BYTE   W06
 BYTE   Gs3
 BYTE   W06
 BYTE   N03
 BYTE   W06
 BYTE   N05
 BYTE   W12
 BYTE   Gs4
 BYTE   W06
 BYTE   N06  Gs3
 BYTE   W06
//  #09 //036   ----------------------------------------
 BYTE   W06
 BYTE   N02
 BYTE   W06
 BYTE   Gs3
 BYTE   W06
 BYTE   Gs3
 BYTE   W06
 BYTE   N05
 BYTE   W06
 BYTE   N03  Gs4
 BYTE   W06
 BYTE   N07  Gs3
 BYTE   W12
 BYTE   N05  Dn3  v088
 BYTE   W12
 BYTE   N03  Dn3  v096
 BYTE   W24
 BYTE   Fs3  v088
 BYTE   W12
//  #09 //037   ----------------------------------------
 BYTE   W12
 BYTE   TIE
 BYTE   W84
//  #09 //038   ----------------------------------------
 BYTE   W40
 BYTE   EOT
 BYTE   W08
 BYTE   N05  Gn3  v098
 BYTE   W12
 BYTE   N03  Gn3  v095
 BYTE   W24
 BYTE   N05  Bn3  v103
 BYTE   W12
//  #09 //039   ----------------------------------------
 BYTE   W12
 BYTE   TIE  Cs4  v087
 BYTE   W84
//  #09 //040   ----------------------------------------
 BYTE   W36
 BYTE   W03
 BYTE   EOT
 BYTE   W56
 BYTE   W01
//  #09 //041   ----------------------------------------
 BYTE   GoTo
  POIN2 Label_0100FC56
//  #09 //042   ----------------------------------------
 BYTE   W44
 BYTE   W03
 BYTE   FINE

//**************** Track 10 (Midi-Chn.9) ****************//

aai_crises_of_fate_010:
//  #10 //000   ----------------------------------------
 BYTE   KEYSH   aai_crises_of_fate_key+0
Label_0100EF2A:
 BYTE   VOICE   16
 BYTE   VOL   70*aai_crises_of_fate_mvl/mxv
 BYTE   W96
//  #10 //001   ----------------------------------------
 BYTE   W96
//  #10 //002   ----------------------------------------
 BYTE   W96
//  #10 //003   ----------------------------------------
 BYTE   W48
 BYTE   N03  Bn1  v100
 BYTE   W06
 BYTE   N02
 BYTE   W06
 BYTE   Bn1
 BYTE   W06
 BYTE   N03
 BYTE   W06
 BYTE   N05
 BYTE   W24
//  #10 //004   ----------------------------------------
 BYTE   N06
 BYTE   W06
 BYTE   N01
 BYTE   W06
 BYTE   N02
 BYTE   W06
 BYTE   N06
 BYTE   W12
 BYTE   N03  Bn2
 BYTE   W06
 BYTE   N12  Bn1
 BYTE   W60
//  #10 //005   ----------------------------------------
 BYTE   W96
//  #10 //006   ----------------------------------------
 BYTE   W96
//  #10 //007   ----------------------------------------
 BYTE   W96
//  #10 //008   ----------------------------------------
 BYTE   W96
//  #10 //009   ----------------------------------------
 BYTE   W96
//  #10 //010   ----------------------------------------
 BYTE   W96
//  #10 //011   ----------------------------------------
 BYTE   W96
//  #10 //012   ----------------------------------------
 BYTE   W84
 BYTE   N05  En2
 BYTE   W06
 BYTE   N13  Fn2
 BYTE   W06
//  #10 //013   ----------------------------------------
Label_0100EF5A:
 BYTE   W06
 BYTE   N05  En2  v100
 BYTE   W06
 BYTE   Gn2
 BYTE   W06
 BYTE   N06  Fn2
 BYTE   W06
 BYTE   An2
 BYTE   W06
 BYTE   Gn2
 BYTE   W06
 BYTE   Fn2
 BYTE   W06
 BYTE   En2
 BYTE   W06
 BYTE   Dn2
 BYTE   W36
 BYTE   En2
 BYTE   W06
 BYTE   N12  Fn2
 BYTE   W06
 BYTE   PEND 
//  #10 //014   ----------------------------------------
Label_0100EF74:
 BYTE   W06
 BYTE   N05  En2  v100
 BYTE   W06
 BYTE   N06  Gn2
 BYTE   W06
 BYTE   Fn2
 BYTE   W06
 BYTE   An2
 BYTE   W06
 BYTE   Gn2
 BYTE   W06
 BYTE   Fn2
 BYTE   W06
 BYTE   En2
 BYTE   W06
 BYTE   Dn2
 BYTE   W36
 BYTE   En2
 BYTE   W06
 BYTE   N13  Fn2
 BYTE   W06
 BYTE   PEND 
//  #10 //015   ----------------------------------------
Label_0100EF8E:
 BYTE   W06
 BYTE   N07  En2  v100
 BYTE   W06
 BYTE   N05  Gn2
 BYTE   W06
 BYTE   N06  Fn2
 BYTE   W06
 BYTE   N07  An2
 BYTE   W06
 BYTE   N06  Gn2
 BYTE   W06
 BYTE   Fn2
 BYTE   W06
 BYTE   En2
 BYTE   W06
 BYTE   N03  Dn2
 BYTE   W06
 BYTE   N02
 BYTE   W06
 BYTE   Dn2
 BYTE   W06
 BYTE   N03
 BYTE   W06
 BYTE   N05
 BYTE   W24
 BYTE   PEND 
//  #10 //016   ----------------------------------------
 BYTE   N06
 BYTE   W06
 BYTE   N01
 BYTE   W06
 BYTE   N02
 BYTE   W06
 BYTE   N06
 BYTE   W12
 BYTE   N03  Dn3
 BYTE   W06
 BYTE   N12  Dn2
 BYTE   W12
 BYTE   N06
 BYTE   W36
 BYTE   N05  En2
 BYTE   W06
 BYTE   N13  Fn2
 BYTE   W06
//  #10 //017   ----------------------------------------
 BYTE   PATT
  POIN2 Label_0100EF5A
//  #10 //018   ----------------------------------------
 BYTE   PATT
  POIN2 Label_0100EF74
//  #10 //019   ----------------------------------------
 BYTE   PATT
  POIN2 Label_0100EF8E
//  #10 //020   ----------------------------------------
 BYTE   N06  Dn2  v100
 BYTE   W06
 BYTE   N01
 BYTE   W06
 BYTE   N02
 BYTE   W06
 BYTE   N06
 BYTE   W12
 BYTE   N03  Dn3
 BYTE   W06
 BYTE   N12  Dn2
 BYTE   W60
//  #10 //021   ----------------------------------------
 BYTE   W96
//  #10 //022   ----------------------------------------
 BYTE   W96
//  #10 //023   ----------------------------------------
 BYTE   W96
//  #10 //024   ----------------------------------------
 BYTE   W96
//  #10 //025   ----------------------------------------
 BYTE   W96
//  #10 //026   ----------------------------------------
 BYTE   W96
//  #10 //027   ----------------------------------------
 BYTE   W96
//  #10 //028   ----------------------------------------
 BYTE   W84
 BYTE   N05  Gn2
 BYTE   W06
 BYTE   N13  Gs2
 BYTE   W06
//  #10 //029   ----------------------------------------
 BYTE   W06
 BYTE   N05  Gn2
 BYTE   W06
 BYTE   As2
 BYTE   W06
 BYTE   N06  Gs2
 BYTE   W06
 BYTE   Cn3
 BYTE   W06
 BYTE   As2
 BYTE   W06
 BYTE   Gs2
 BYTE   W06
 BYTE   Gn2
 BYTE   W42
 BYTE   Gn2
 BYTE   W06
 BYTE   N12  Gs2
 BYTE   W06
//  #10 //030   ----------------------------------------
 BYTE   W06
 BYTE   N05  Gn2
 BYTE   W06
 BYTE   N06  As2
 BYTE   W06
 BYTE   Gs2
 BYTE   W06
 BYTE   Cn3
 BYTE   W06
 BYTE   As2
 BYTE   W06
 BYTE   Gs2
 BYTE   W06
 BYTE   Gn2
 BYTE   W42
 BYTE   Gn2
 BYTE   W06
 BYTE   N13  Gs2
 BYTE   W06
//  #10 //031   ----------------------------------------
 BYTE   W06
 BYTE   N07  Gn2
 BYTE   W06
 BYTE   N05  As2
 BYTE   W06
 BYTE   N06  Gs2
 BYTE   W06
 BYTE   N07  Cn3
 BYTE   W06
 BYTE   N06  As2
 BYTE   W06
 BYTE   Gs2
 BYTE   W06
 BYTE   Gn2
 BYTE   W06
 BYTE   N03  Fn2
 BYTE   W06
 BYTE   N02
 BYTE   W06
 BYTE   Fn2
 BYTE   W06
 BYTE   N03
 BYTE   W06
 BYTE   N05
 BYTE   W12
 BYTE   Fn3
 BYTE   W06
 BYTE   N06  Fn2
 BYTE   W06
//  #10 //032   ----------------------------------------
 BYTE   W06
 BYTE   N02
 BYTE   W06
 BYTE   Fn2
 BYTE   W06
 BYTE   Fn2
 BYTE   W06
 BYTE   N05
 BYTE   W06
 BYTE   N03  Fn3
 BYTE   W06
 BYTE   N07  Fn2
 BYTE   W48
 BYTE   N05  As2
 BYTE   W06
 BYTE   N13  Bn2
 BYTE   W06
//  #10 //033   ----------------------------------------
 BYTE   W06
 BYTE   N05  As2
 BYTE   W06
 BYTE   Cs3
 BYTE   W06
 BYTE   N06  Bn2
 BYTE   W06
 BYTE   Ds3
 BYTE   W06
 BYTE   Cs3
 BYTE   W06
 BYTE   Bn2
 BYTE   W06
 BYTE   As2
 BYTE   W42
 BYTE   As2
 BYTE   W06
 BYTE   N12  Bn2
 BYTE   W06
//  #10 //034   ----------------------------------------
 BYTE   W06
 BYTE   N05  As2
 BYTE   W06
 BYTE   N06  Cs3
 BYTE   W06
 BYTE   Bn2
 BYTE   W06
 BYTE   Ds3
 BYTE   W06
 BYTE   Cs3
 BYTE   W06
 BYTE   Bn2
 BYTE   W06
 BYTE   As2
 BYTE   W42
 BYTE   As2
 BYTE   W06
 BYTE   N13  Bn2
 BYTE   W06
//  #10 //035   ----------------------------------------
 BYTE   W06
 BYTE   N07  As2
 BYTE   W06
 BYTE   N05  Cs3
 BYTE   W06
 BYTE   N06  Bn2
 BYTE   W06
 BYTE   N07  Ds3
 BYTE   W06
 BYTE   N06  Cs3
 BYTE   W06
 BYTE   Bn2
 BYTE   W06
 BYTE   As2
 BYTE   W06
 BYTE   N03  Gs2
 BYTE   W06
 BYTE   N02
 BYTE   W06
 BYTE   Gs2
 BYTE   W06
 BYTE   N03
 BYTE   W06
 BYTE   N05
 BYTE   W12
 BYTE   Gs3
 BYTE   W06
 BYTE   N06  Gs2
 BYTE   W06
//  #10 //036   ----------------------------------------
 BYTE   W06
 BYTE   N02
 BYTE   W06
 BYTE   Gs2
 BYTE   W06
 BYTE   Gs2
 BYTE   W06
 BYTE   N05
 BYTE   W06
 BYTE   N03  Gs3
 BYTE   W06
 BYTE   N07  Gs2
 BYTE   W12
 BYTE   N05  Bn2  v076
 BYTE   W12
 BYTE   N04  Bn2  v095
 BYTE   W24
 BYTE   N05  Dn3  v104
 BYTE   W12
//  #10 //037   ----------------------------------------
 BYTE   W12
 BYTE   TIE  Dn3  v094
 BYTE   W84
//  #10 //038   ----------------------------------------
 BYTE   W40
 BYTE   EOT
 BYTE   W08
 BYTE   N05  Dn3  v093
 BYTE   W12
 BYTE   N04  Dn3  v101
 BYTE   W24
 BYTE   N05  Gn3  v108
 BYTE   W12
//  #10 //039   ----------------------------------------
 BYTE   W12
 BYTE   TIE  An3  v099
 BYTE   W84
//  #10 //040   ----------------------------------------
 BYTE   W40
 BYTE   W01
 BYTE   EOT
 BYTE   W54
 BYTE   W01
//  #10 //041   ----------------------------------------
 BYTE   GoTo
  POIN2 Label_0100EF2A
//  #10 //042   ----------------------------------------
 BYTE   W44
 BYTE   W03
 BYTE   FINE

//******************************************************//
	ALIGN 4

aai_crises_of_fate:
	BYTE	10	// NumTrks
	BYTE	0	// NumBlks
	BYTE	aai_crises_of_fate_pri	// Priority
	BYTE	aai_crises_of_fate_rev	// Reverb.
    
	POIN2	aai_crises_of_fate_grp
    
	POIN2	aai_crises_of_fate_001
	POIN2	aai_crises_of_fate_002
	POIN2	aai_crises_of_fate_003
	POIN2	aai_crises_of_fate_004
	POIN2	aai_crises_of_fate_005
	POIN2	aai_crises_of_fate_006
	POIN2	aai_crises_of_fate_007
	POIN2	aai_crises_of_fate_008
	POIN2	aai_crises_of_fate_009
	POIN2	aai_crises_of_fate_010

	
