//Event file generated from Sappy .s format.
	#include "MPlayDef.event"

	#define	elegy_of_battle_grp  voicegroup000
	#define	elegy_of_battle_pri  0
	#define	elegy_of_battle_rev  0
	#define	elegy_of_battle_mvl  127
	#define	elegy_of_battle_key  0
	#define	elegy_of_battle_tbs  1
	#define	elegy_of_battle_exg  0
	#define	elegy_of_battle_cmp  1

	// .rodata
	//	elegy_of_battle
	ALIGN 4


//**************** Track 1 (Midi-Chn.0) ****************//

elegy_of_battle_001:
//  #01 //000   ----------------------------------------
 BYTE   KEYSH   elegy_of_battle_key+0
Label_0102079E:
 BYTE   TEMPO   60*elegy_of_battle_tbs/2
 BYTE   VOICE   1
 BYTE   MODT 0
 BYTE   LFOS 44
 BYTE   VOL   107*elegy_of_battle_mvl/mxv
 BYTE   PAN   c_v+0
 BYTE   N11  As4  v072
 BYTE   W12
 BYTE   An4
 BYTE   W12
 BYTE   N68  Dn4
 BYTE   W72
//  #01 //001   ----------------------------------------
 BYTE   N11  An4
 BYTE   W12
 BYTE   Gn4
 BYTE   W12
 BYTE   N68  Dn4
 BYTE   W72
//  #01 //002   ----------------------------------------
 BYTE   N11  Gn4  v068
 BYTE   W12
 BYTE   Fn4
 BYTE   W12
 BYTE   N68  As3  v076
 BYTE   W72
//  #01 //003   ----------------------------------------
 BYTE   N11  Fn4  v072
 BYTE   W12
 BYTE   Cn4
 BYTE   W12
 BYTE   N68  As3  v064
 BYTE   W72
//  #01 //004   ----------------------------------------
 BYTE   N11  Fn4  v072
 BYTE   W12
 BYTE   Ds4
 BYTE   W12
 BYTE   N22  Gn3
 BYTE   W36
 BYTE   N11  Cn4  v068
 BYTE   W12
 BYTE   Gn3  v072
 BYTE   W12
 BYTE   Ds3
 BYTE   W12
//  #01 //005   ----------------------------------------
 BYTE   N44  As3
 BYTE   W48
 BYTE   TEMPO   30*elegy_of_battle_tbs/2
 BYTE   An3  v068
 BYTE   W44
 BYTE   W03
 BYTE   TEMPO   60*elegy_of_battle_tbs/2
 BYTE   W01
//  #01 //006   ----------------------------------------
 BYTE   N90  Gn3  v072
 BYTE   W96
//  #01 //007   ----------------------------------------
 BYTE   Dn4
 BYTE   W96
//  #01 //008   ----------------------------------------
 BYTE   N68  Dn4  v076
 BYTE   W72
 BYTE   N22  Ds4  v072
 BYTE   W24
//  #01 //009   ----------------------------------------
 BYTE   N90  Cn4
 BYTE   W96
//  #01 //010   ----------------------------------------
 BYTE   As3  v076
 BYTE   W96
//  #01 //011   ----------------------------------------
 BYTE   Ds4  v068
 BYTE   W96
//  #01 //012   ----------------------------------------
 BYTE   N68  Gn4
 BYTE   W72
 BYTE   N22  An4  v064
 BYTE   W24
//  #01 //013   ----------------------------------------
 BYTE   N90  Fs4  v072
 BYTE   W96
//  #01 //014   ----------------------------------------
 BYTE   As4  v068
 BYTE   W96
//  #01 //015   ----------------------------------------
 BYTE   Dn4  v072
 BYTE   W96
//  #01 //016   ----------------------------------------
 BYTE   N68  Gn4  v068
 BYTE   W72
 BYTE   N22  An4  v072
 BYTE   W24
//  #01 //017   ----------------------------------------
 BYTE   N68  Fn4  v064
 BYTE   W72
 BYTE   N22  Dn4  v072
 BYTE   W24
//  #01 //018   ----------------------------------------
 BYTE   N90  Gn4  v068
 BYTE   W96
//  #01 //019   ----------------------------------------
 BYTE   N44  Gn4  v072
 BYTE   W48
 BYTE   Fs4  v068
 BYTE   W48
//  #01 //020   ----------------------------------------
 BYTE   TIE  Gn4
 BYTE   W96
//  #01 //021   ----------------------------------------
 BYTE   W84
 BYTE   W02
 BYTE   EOT
 BYTE   W10
//  #01 //022   ----------------------------------------
 BYTE   N11  As4
 BYTE   W12
 BYTE   An4  v064
 BYTE   W12
 BYTE   N68  Dn4
 BYTE   W72
//  #01 //023   ----------------------------------------
 BYTE   N11  An4  v068
 BYTE   W12
 BYTE   Gn4  v072
 BYTE   W12
 BYTE   N68  Dn4
 BYTE   W72
//  #01 //024   ----------------------------------------
 BYTE   N11  Gn4
 BYTE   W12
 BYTE   Fn4
 BYTE   W12
 BYTE   N68  As3  v068
 BYTE   W72
//  #01 //025   ----------------------------------------
 BYTE   N11  Fn4  v072
 BYTE   W12
 BYTE   Cn4  v068
 BYTE   W12
 BYTE   N68  As3  v076
 BYTE   W72
//  #01 //026   ----------------------------------------
 BYTE   N11  Fn4
 BYTE   W12
 BYTE   Ds4  v072
 BYTE   W12
 BYTE   N22  Gn3  v068
 BYTE   W36
 BYTE   N11  Cn4
 BYTE   W12
 BYTE   Gn3
 BYTE   W12
 BYTE   Ds3  v064
 BYTE   W12
//  #01 //027   ----------------------------------------
 BYTE   N44  As3  v072
 BYTE   W44
 BYTE   W03
 BYTE   An3  v076
 BYTE   W01
 BYTE   TEMPO   30*elegy_of_battle_tbs/2
 BYTE   W48
//  #01 //028   ----------------------------------------
 BYTE   TEMPO   60*elegy_of_battle_tbs/2
 BYTE   N90  Gn3  v068
 BYTE   W96
//  #01 //029   ----------------------------------------
 BYTE   Dn4  v072
 BYTE   W96
//  #01 //030   ----------------------------------------
 BYTE   N68  Dn4  v068
 BYTE   W72
 BYTE   N22  Ds4  v080
 BYTE   W24
//  #01 //031   ----------------------------------------
 BYTE   N90  Cn4  v072
 BYTE   W96
//  #01 //032   ----------------------------------------
 BYTE   As3
 BYTE   W96
//  #01 //033   ----------------------------------------
 BYTE   Ds4
 BYTE   W96
//  #01 //034   ----------------------------------------
 BYTE   N68  Gn4
 BYTE   W72
 BYTE   N22  An4  v068
 BYTE   W24
//  #01 //035   ----------------------------------------
 BYTE   N90  Fs4  v064
 BYTE   W96
//  #01 //036   ----------------------------------------
 BYTE   As4  v068
 BYTE   W96
//  #01 //037   ----------------------------------------
 BYTE   Dn4  v072
 BYTE   W96
//  #01 //038   ----------------------------------------
 BYTE   N68  Gn4
 BYTE   W72
 BYTE   N22  An4
 BYTE   W24
//  #01 //039   ----------------------------------------
 BYTE   N68  Fn4  v068
 BYTE   W72
 BYTE   N22  Dn4  v076
 BYTE   W24
//  #01 //040   ----------------------------------------
 BYTE   N90  Gn4  v068
 BYTE   W96
//  #01 //041   ----------------------------------------
 BYTE   N44
 BYTE   W48
 BYTE   Fs4  v072
 BYTE   W48
//  #01 //042   ----------------------------------------
 BYTE   TIE  Gn4  v068
 BYTE   W96
//  #01 //043   ----------------------------------------
 BYTE   W84
 BYTE   W02
 BYTE   EOT
 BYTE   W10
//  #01 //044   ----------------------------------------
 BYTE   TIE  As1  v044
 BYTE   TIE  Dn2
 BYTE   TIE  Gn2
 BYTE   W96
//  #01 //045   ----------------------------------------
 BYTE   W84
 BYTE   W03
 BYTE   EOT
 BYTE   As1  v050
 BYTE   Gn2
 BYTE   W09
//  #01 //046   ----------------------------------------
 BYTE   GoTo
  POIN2 Label_0102079E
 BYTE   FINE

//**************** Track 2 (Midi-Chn.1) ****************//

elegy_of_battle_002:
//  #02 //000   ----------------------------------------
 BYTE   KEYSH   elegy_of_battle_key+0
Label_0101F6BA:
 BYTE   VOICE   1
 BYTE   MODT 0
 BYTE   LFOS 44
 BYTE   VOL   93*elegy_of_battle_mvl/mxv
 BYTE   PAN   c_v+3
 BYTE   N90  Gn2  v072
 BYTE   W96
//  #02 //001   ----------------------------------------
 BYTE   Fn2
 BYTE   W96
//  #02 //002   ----------------------------------------
 BYTE   Ds2  v064
 BYTE   W96
//  #02 //003   ----------------------------------------
 BYTE   Dn2  v072
 BYTE   W96
//  #02 //004   ----------------------------------------
 BYTE   N11  Cn2  v060
 BYTE   W12
 BYTE   Gn2
 BYTE   W12
 BYTE   N22  Ds3  v068
 BYTE   W24
 BYTE   N11  An1  v060
 BYTE   W12
 BYTE   Ds2  v056
 BYTE   W12
 BYTE   N22  Cn3  v072
 BYTE   W24
//  #02 //005   ----------------------------------------
 BYTE   N11  Dn1  v060
 BYTE   W12
 BYTE   An1
 BYTE   W12
 BYTE   N22  Cn2  v072
 BYTE   W24
 BYTE   N44  An1
 BYTE   W48
//  #02 //006   ----------------------------------------
 BYTE   N11  Gn1  v064
 BYTE   W12
 BYTE   Dn2  v056
 BYTE   W12
 BYTE   N68  As2  v072
 BYTE   W72
//  #02 //007   ----------------------------------------
 BYTE   N11  Fn1  v064
 BYTE   W12
 BYTE   Dn2  v060
 BYTE   W12
 BYTE   N68  Fn2  v072
 BYTE   W72
//  #02 //008   ----------------------------------------
 BYTE   N11  Ds1  v060
 BYTE   W12
 BYTE   As1
 BYTE   W12
 BYTE   N68  Gn2  v076
 BYTE   W72
//  #02 //009   ----------------------------------------
 BYTE   N11  Dn1  v060
 BYTE   W12
 BYTE   An1
 BYTE   W12
 BYTE   N22  Dn2  v076
 BYTE   W24
 BYTE   N44  Cn2  v072
 BYTE   W48
//  #02 //010   ----------------------------------------
 BYTE   N11  Cn1  v060
 BYTE   W12
 BYTE   Gn1  v056
 BYTE   W12
 BYTE   Cn2  v060
 BYTE   W12
 BYTE   Ds2  v064
 BYTE   W12
 BYTE   N44  Gn2  v072
 BYTE   W48
//  #02 //011   ----------------------------------------
 BYTE   N11  An1  v060
 BYTE   W12
 BYTE   Ds2
 BYTE   W12
 BYTE   Gn2  v056
 BYTE   W12
 BYTE   Cn3
 BYTE   W12
 BYTE   N44  Ds3  v072
 BYTE   W48
//  #02 //012   ----------------------------------------
 BYTE   N11  Dn1  v056
 BYTE   W12
 BYTE   An1  v060
 BYTE   W12
 BYTE   Dn2
 BYTE   W12
 BYTE   Gn2
 BYTE   W12
 BYTE   N44  Cn3  v072
 BYTE   W48
//  #02 //013   ----------------------------------------
 BYTE   N11  Dn2  v060
 BYTE   W12
 BYTE   An2
 BYTE   W12
 BYTE   Cn3
 BYTE   W12
 BYTE   Dn3  v056
 BYTE   W12
 BYTE   N44  Fs3  v072
 BYTE   W48
//  #02 //014   ----------------------------------------
 BYTE   N11  Gn2  v060
 BYTE   W12
 BYTE   Dn3  v056
 BYTE   W12
 BYTE   N68  As3  v068
 BYTE   W72
//  #02 //015   ----------------------------------------
 BYTE   N11  Fn2  v060
 BYTE   W12
 BYTE   Dn3
 BYTE   W12
 BYTE   N68  An3  v072
 BYTE   W72
//  #02 //016   ----------------------------------------
 BYTE   N11  Ds2  v060
 BYTE   W12
 BYTE   As2  v056
 BYTE   W12
 BYTE   N68  Gn3  v072
 BYTE   W72
//  #02 //017   ----------------------------------------
 BYTE   N11  Dn2  v064
 BYTE   W12
 BYTE   An2  v060
 BYTE   W12
 BYTE   N22  Cn3  v072
 BYTE   W24
 BYTE   N11  Gn1  v060
 BYTE   W12
 BYTE   Dn2  v064
 BYTE   W12
 BYTE   N22  Bn2  v072
 BYTE   W24
//  #02 //018   ----------------------------------------
 BYTE   N11  Cn1  v060
 BYTE   W12
 BYTE   Gn1  v064
 BYTE   W12
 BYTE   Cn2
 BYTE   W12
 BYTE   Ds2  v056
 BYTE   W12
 BYTE   N44  Gn2  v072
 BYTE   W48
//  #02 //019   ----------------------------------------
 BYTE   N11  Dn1  v056
 BYTE   W12
 BYTE   An1  v060
 BYTE   W12
 BYTE   Dn2  v064
 BYTE   W12
 BYTE   An2
 BYTE   W12
 BYTE   N44  Cn3  v072
 BYTE   W48
//  #02 //020   ----------------------------------------
 BYTE   N11  Gn1  v060
 BYTE   W12
 BYTE   Dn2
 BYTE   W12
 BYTE   Gn2
 BYTE   W12
 BYTE   Cn3
 BYTE   W12
 BYTE   N44  Dn3  v072
 BYTE   W48
//  #02 //021   ----------------------------------------
 BYTE   N11  Gn1  v060
 BYTE   W12
 BYTE   As1
 BYTE   W12
 BYTE   Gn2
 BYTE   W12
 BYTE   As2
 BYTE   W12
 BYTE   N44  Dn3  v072
 BYTE   W48
//  #02 //022   ----------------------------------------
 BYTE   N90  Gn2
 BYTE   W96
//  #02 //023   ----------------------------------------
 BYTE   Fn2
 BYTE   W96
//  #02 //024   ----------------------------------------
 BYTE   Ds2  v068
 BYTE   W96
//  #02 //025   ----------------------------------------
 BYTE   Dn2  v072
 BYTE   W96
//  #02 //026   ----------------------------------------
 BYTE   N11  Cn2  v060
 BYTE   W12
 BYTE   Gn2
 BYTE   W12
 BYTE   N22  Ds3  v072
 BYTE   W24
 BYTE   N11  An1  v060
 BYTE   W12
 BYTE   Ds2
 BYTE   W12
 BYTE   N22  Cn3  v072
 BYTE   W24
//  #02 //027   ----------------------------------------
 BYTE   N11  Dn1  v060
 BYTE   W12
 BYTE   An1  v056
 BYTE   W12
 BYTE   N22  Cn2  v072
 BYTE   W23
 BYTE   N44  An1  v076
 BYTE   W48
 BYTE   W01
//  #02 //028   ----------------------------------------
 BYTE   N11  Gn1  v060
 BYTE   W12
 BYTE   Dn2
 BYTE   W12
 BYTE   N68  As2  v068
 BYTE   W72
//  #02 //029   ----------------------------------------
 BYTE   N11  Fn1  v064
 BYTE   W12
 BYTE   Dn2  v056
 BYTE   W12
 BYTE   N68  Fn2  v072
 BYTE   W72
//  #02 //030   ----------------------------------------
 BYTE   N11  Ds1  v060
 BYTE   W12
 BYTE   As1
 BYTE   W12
 BYTE   N68  Gn2  v068
 BYTE   W72
//  #02 //031   ----------------------------------------
 BYTE   N11  Dn1  v056
 BYTE   W12
 BYTE   An1  v068
 BYTE   W12
 BYTE   N22  Dn2  v072
 BYTE   W24
 BYTE   N44  Cn2
 BYTE   W48
//  #02 //032   ----------------------------------------
Label_0101F82C:
 BYTE   N11  Cn1  v060
 BYTE   W12
 BYTE   Gn1
 BYTE   W12
 BYTE   Cn2
 BYTE   W12
 BYTE   Ds2
 BYTE   W12
 BYTE   N44  Gn2  v072
 BYTE   W48
 BYTE   PEND 
//  #02 //033   ----------------------------------------
 BYTE   N11  An1  v060
 BYTE   W12
 BYTE   Ds2
 BYTE   W12
 BYTE   Gn2
 BYTE   W12
 BYTE   Cn3  v056
 BYTE   W12
 BYTE   N44  Ds3  v072
 BYTE   W48
//  #02 //034   ----------------------------------------
 BYTE   N11  Dn1  v056
 BYTE   W12
 BYTE   An1  v060
 BYTE   W12
 BYTE   Dn2  v056
 BYTE   W12
 BYTE   Gn2  v064
 BYTE   W12
 BYTE   N44  Cn3  v072
 BYTE   W48
//  #02 //035   ----------------------------------------
 BYTE   N11  Dn2  v060
 BYTE   W12
 BYTE   An2  v056
 BYTE   W12
 BYTE   Cn3  v060
 BYTE   W12
 BYTE   Dn3  v056
 BYTE   W12
 BYTE   N44  Fs3  v072
 BYTE   W48
//  #02 //036   ----------------------------------------
 BYTE   N11  Gn2  v060
 BYTE   W12
 BYTE   Dn3  v056
 BYTE   W12
 BYTE   N68  As3  v072
 BYTE   W72
//  #02 //037   ----------------------------------------
 BYTE   N11  Fn2  v056
 BYTE   W12
 BYTE   Dn3
 BYTE   W12
 BYTE   N68  An3  v076
 BYTE   W72
//  #02 //038   ----------------------------------------
 BYTE   N11  Ds2  v060
 BYTE   W12
 BYTE   As2  v068
 BYTE   W12
 BYTE   N68  Gn3  v072
 BYTE   W72
//  #02 //039   ----------------------------------------
 BYTE   N11  Dn2  v064
 BYTE   W12
 BYTE   An2  v060
 BYTE   W12
 BYTE   N22  Cn3  v072
 BYTE   W24
 BYTE   N11  Gn1  v056
 BYTE   W12
 BYTE   Dn2  v060
 BYTE   W12
 BYTE   N22  Bn2  v076
 BYTE   W24
//  #02 //040   ----------------------------------------
 BYTE   PATT
  POIN2 Label_0101F82C
//  #02 //041   ----------------------------------------
 BYTE   N11  Dn1  v060
 BYTE   W12
 BYTE   An1  v064
 BYTE   W12
 BYTE   Dn2  v060
 BYTE   W12
 BYTE   An2  v064
 BYTE   W12
 BYTE   N44  Cn3  v072
 BYTE   W48
//  #02 //042   ----------------------------------------
 BYTE   N11  Gn1  v056
 BYTE   W12
 BYTE   Dn2  v060
 BYTE   W12
 BYTE   Gn2
 BYTE   W12
 BYTE   Cn3
 BYTE   W12
 BYTE   N44  Dn3  v072
 BYTE   W48
//  #02 //043   ----------------------------------------
 BYTE   N11  Gn1  v060
 BYTE   W12
 BYTE   As1
 BYTE   W12
 BYTE   Gn2  v052
 BYTE   W12
 BYTE   As2  v060
 BYTE   W12
 BYTE   N44  Dn3  v072
 BYTE   W48
//  #02 //044   ----------------------------------------
 BYTE   TIE  Gn0  v036
 BYTE   TIE  Gn1  v032
 BYTE   W96
//  #02 //045   ----------------------------------------
 BYTE   W92
 BYTE   W01
 BYTE   EOT
 BYTE   Gn0  v043
 BYTE   W03
//  #02 //046   ----------------------------------------
 BYTE   GoTo
  POIN2 Label_0101F6BA
 BYTE   FINE

//**************** Track 3 (Midi-Chn.2) ****************//

elegy_of_battle_003:
//  #03 //000   ----------------------------------------
 BYTE   KEYSH   elegy_of_battle_key+0
Label_010270D2:
 BYTE   VOICE   40
 BYTE   MODT 0
 BYTE   LFOS 44
 BYTE   PAN   c_v+21
 BYTE   VOL   0*elegy_of_battle_mvl/mxv
 BYTE   N96  As3  v044
 BYTE   W01
 BYTE   VOL   0*elegy_of_battle_mvl/mxv
 BYTE   W02
 BYTE   VOL   1*elegy_of_battle_mvl/mxv
 BYTE   W01
 BYTE   VOL   2*elegy_of_battle_mvl/mxv
 BYTE   W02
 BYTE   VOL   3*elegy_of_battle_mvl/mxv
 BYTE   W01
 BYTE   VOL   6*elegy_of_battle_mvl/mxv
 BYTE   W02
 BYTE   VOL   7*elegy_of_battle_mvl/mxv
 BYTE   W01
 BYTE   VOL   10*elegy_of_battle_mvl/mxv
 BYTE   W02
 BYTE   VOL   13*elegy_of_battle_mvl/mxv
 BYTE   W01
 BYTE   VOL   16*elegy_of_battle_mvl/mxv
 BYTE   W02
 BYTE   VOL   19*elegy_of_battle_mvl/mxv
 BYTE   W01
 BYTE   VOL   24*elegy_of_battle_mvl/mxv
 BYTE   W02
 BYTE   VOL   36*elegy_of_battle_mvl/mxv
 BYTE   W01
 BYTE   VOL   54*elegy_of_battle_mvl/mxv
 BYTE   W02
 BYTE   VOL   76*elegy_of_battle_mvl/mxv
 BYTE   W01
 BYTE   VOL   96*elegy_of_battle_mvl/mxv
 BYTE   W02
 BYTE   VOL   100*elegy_of_battle_mvl/mxv
 BYTE   W01
 BYTE   VOL   100*elegy_of_battle_mvl/mxv
 BYTE   W03
 BYTE   VOL   100*elegy_of_battle_mvl/mxv
 BYTE   W02
 BYTE   VOL   100*elegy_of_battle_mvl/mxv
 BYTE   W01
 BYTE   VOL   100*elegy_of_battle_mvl/mxv
 BYTE   W02
 BYTE   VOL   100*elegy_of_battle_mvl/mxv
 BYTE   W01
 BYTE   VOL   100*elegy_of_battle_mvl/mxv
 BYTE   W02
 BYTE   VOL   100*elegy_of_battle_mvl/mxv
 BYTE   W03
 BYTE   VOL   100*elegy_of_battle_mvl/mxv
 BYTE   W03
 BYTE   VOL   100*elegy_of_battle_mvl/mxv
 BYTE   W03
 BYTE   VOL   100*elegy_of_battle_mvl/mxv
 BYTE   W01
 BYTE   VOL   100*elegy_of_battle_mvl/mxv
 BYTE   W02
 BYTE   VOL   100*elegy_of_battle_mvl/mxv
 BYTE   W01
 BYTE   VOL   100*elegy_of_battle_mvl/mxv
 BYTE   W02
 BYTE   VOL   100*elegy_of_battle_mvl/mxv
 BYTE   W03
 BYTE   VOL   100*elegy_of_battle_mvl/mxv
 BYTE   W03
 BYTE   VOL   98*elegy_of_battle_mvl/mxv
 BYTE   W01
 BYTE   VOL   100*elegy_of_battle_mvl/mxv
 BYTE   W02
 BYTE   VOL   94*elegy_of_battle_mvl/mxv
 BYTE   W01
 BYTE   VOL   91*elegy_of_battle_mvl/mxv
 BYTE   W02
 BYTE   VOL   83*elegy_of_battle_mvl/mxv
 BYTE   W01
 BYTE   VOL   76*elegy_of_battle_mvl/mxv
 BYTE   W02
 BYTE   VOL   59*elegy_of_battle_mvl/mxv
 BYTE   W01
 BYTE   VOL   59*elegy_of_battle_mvl/mxv
 BYTE   W02
 BYTE   VOL   49*elegy_of_battle_mvl/mxv
 BYTE   W03
 BYTE   VOL   39*elegy_of_battle_mvl/mxv
 BYTE   W01
 BYTE   VOL   36*elegy_of_battle_mvl/mxv
 BYTE   W02
 BYTE   VOL   35*elegy_of_battle_mvl/mxv
 BYTE   W01
 BYTE   VOL   30*elegy_of_battle_mvl/mxv
 BYTE   W02
 BYTE   VOL   24*elegy_of_battle_mvl/mxv
 BYTE   W01
 BYTE   VOL   23*elegy_of_battle_mvl/mxv
 BYTE   W02
 BYTE   VOL   17*elegy_of_battle_mvl/mxv
 BYTE   W01
 BYTE   VOL   14*elegy_of_battle_mvl/mxv
 BYTE   W02
 BYTE   VOL   11*elegy_of_battle_mvl/mxv
 BYTE   W01
 BYTE   VOL   7*elegy_of_battle_mvl/mxv
 BYTE   W02
 BYTE   VOL   5*elegy_of_battle_mvl/mxv
 BYTE   W01
 BYTE   VOL   2*elegy_of_battle_mvl/mxv
 BYTE   W02
 BYTE   VOL   0*elegy_of_battle_mvl/mxv
 BYTE   W01
 BYTE   VOL   0*elegy_of_battle_mvl/mxv
 BYTE   W02
 BYTE   VOL   0*elegy_of_battle_mvl/mxv
 BYTE   W01
 BYTE   VOL   0*elegy_of_battle_mvl/mxv
 BYTE   W02
//  #03 //001   ----------------------------------------
Label_01027151:
 BYTE   VOL   0*elegy_of_battle_mvl/mxv
 BYTE   N96  Dn4  v044
 BYTE   W01
 BYTE   VOL   0*elegy_of_battle_mvl/mxv
 BYTE   W02
 BYTE   VOL   1*elegy_of_battle_mvl/mxv
 BYTE   W01
 BYTE   VOL   2*elegy_of_battle_mvl/mxv
 BYTE   W02
 BYTE   VOL   3*elegy_of_battle_mvl/mxv
 BYTE   W01
 BYTE   VOL   6*elegy_of_battle_mvl/mxv
 BYTE   W02
 BYTE   VOL   7*elegy_of_battle_mvl/mxv
 BYTE   W01
 BYTE   VOL   10*elegy_of_battle_mvl/mxv
 BYTE   W02
 BYTE   VOL   13*elegy_of_battle_mvl/mxv
 BYTE   W01
 BYTE   VOL   16*elegy_of_battle_mvl/mxv
 BYTE   W02
 BYTE   VOL   19*elegy_of_battle_mvl/mxv
 BYTE   W01
 BYTE   VOL   24*elegy_of_battle_mvl/mxv
 BYTE   W02
 BYTE   VOL   36*elegy_of_battle_mvl/mxv
 BYTE   W01
 BYTE   VOL   54*elegy_of_battle_mvl/mxv
 BYTE   W02
 BYTE   VOL   76*elegy_of_battle_mvl/mxv
 BYTE   W01
 BYTE   VOL   96*elegy_of_battle_mvl/mxv
 BYTE   W02
 BYTE   VOL   100*elegy_of_battle_mvl/mxv
 BYTE   W01
 BYTE   VOL   100*elegy_of_battle_mvl/mxv
 BYTE   W03
 BYTE   VOL   100*elegy_of_battle_mvl/mxv
 BYTE   W02
 BYTE   VOL   100*elegy_of_battle_mvl/mxv
 BYTE   W01
 BYTE   VOL   100*elegy_of_battle_mvl/mxv
 BYTE   W02
 BYTE   VOL   100*elegy_of_battle_mvl/mxv
 BYTE   W01
 BYTE   VOL   100*elegy_of_battle_mvl/mxv
 BYTE   W02
 BYTE   VOL   100*elegy_of_battle_mvl/mxv
 BYTE   W03
 BYTE   VOL   100*elegy_of_battle_mvl/mxv
 BYTE   W03
 BYTE   VOL   100*elegy_of_battle_mvl/mxv
 BYTE   W03
 BYTE   VOL   100*elegy_of_battle_mvl/mxv
 BYTE   W01
 BYTE   VOL   100*elegy_of_battle_mvl/mxv
 BYTE   W02
 BYTE   VOL   100*elegy_of_battle_mvl/mxv
 BYTE   W01
 BYTE   VOL   100*elegy_of_battle_mvl/mxv
 BYTE   W02
 BYTE   VOL   100*elegy_of_battle_mvl/mxv
 BYTE   W03
 BYTE   VOL   100*elegy_of_battle_mvl/mxv
 BYTE   W03
 BYTE   VOL   98*elegy_of_battle_mvl/mxv
 BYTE   W01
 BYTE   VOL   100*elegy_of_battle_mvl/mxv
 BYTE   W02
 BYTE   VOL   94*elegy_of_battle_mvl/mxv
 BYTE   W01
 BYTE   VOL   91*elegy_of_battle_mvl/mxv
 BYTE   W02
 BYTE   VOL   83*elegy_of_battle_mvl/mxv
 BYTE   W01
 BYTE   VOL   76*elegy_of_battle_mvl/mxv
 BYTE   W02
 BYTE   VOL   59*elegy_of_battle_mvl/mxv
 BYTE   W01
 BYTE   VOL   59*elegy_of_battle_mvl/mxv
 BYTE   W02
 BYTE   VOL   49*elegy_of_battle_mvl/mxv
 BYTE   W03
 BYTE   VOL   39*elegy_of_battle_mvl/mxv
 BYTE   W01
 BYTE   VOL   36*elegy_of_battle_mvl/mxv
 BYTE   W02
 BYTE   VOL   35*elegy_of_battle_mvl/mxv
 BYTE   W01
 BYTE   VOL   30*elegy_of_battle_mvl/mxv
 BYTE   W02
 BYTE   VOL   24*elegy_of_battle_mvl/mxv
 BYTE   W01
 BYTE   VOL   23*elegy_of_battle_mvl/mxv
 BYTE   W02
 BYTE   VOL   17*elegy_of_battle_mvl/mxv
 BYTE   W01
 BYTE   VOL   14*elegy_of_battle_mvl/mxv
 BYTE   W02
 BYTE   VOL   11*elegy_of_battle_mvl/mxv
 BYTE   W01
 BYTE   VOL   7*elegy_of_battle_mvl/mxv
 BYTE   W02
 BYTE   VOL   5*elegy_of_battle_mvl/mxv
 BYTE   W01
 BYTE   VOL   2*elegy_of_battle_mvl/mxv
 BYTE   W02
 BYTE   VOL   0*elegy_of_battle_mvl/mxv
 BYTE   W01
 BYTE   VOL   0*elegy_of_battle_mvl/mxv
 BYTE   W02
 BYTE   VOL   0*elegy_of_battle_mvl/mxv
 BYTE   W01
 BYTE   VOL   0*elegy_of_battle_mvl/mxv
 BYTE   W02
 BYTE   PEND 
//  #03 //002   ----------------------------------------
Label_010271C9:
 BYTE   VOL   0*elegy_of_battle_mvl/mxv
 BYTE   N96  As3  v044
 BYTE   W01
 BYTE   VOL   0*elegy_of_battle_mvl/mxv
 BYTE   W02
 BYTE   VOL   1*elegy_of_battle_mvl/mxv
 BYTE   W01
 BYTE   VOL   2*elegy_of_battle_mvl/mxv
 BYTE   W02
 BYTE   VOL   3*elegy_of_battle_mvl/mxv
 BYTE   W01
 BYTE   VOL   6*elegy_of_battle_mvl/mxv
 BYTE   W02
 BYTE   VOL   7*elegy_of_battle_mvl/mxv
 BYTE   W01
 BYTE   VOL   10*elegy_of_battle_mvl/mxv
 BYTE   W02
 BYTE   VOL   13*elegy_of_battle_mvl/mxv
 BYTE   W01
 BYTE   VOL   16*elegy_of_battle_mvl/mxv
 BYTE   W02
 BYTE   VOL   19*elegy_of_battle_mvl/mxv
 BYTE   W01
 BYTE   VOL   24*elegy_of_battle_mvl/mxv
 BYTE   W02
 BYTE   VOL   36*elegy_of_battle_mvl/mxv
 BYTE   W01
 BYTE   VOL   54*elegy_of_battle_mvl/mxv
 BYTE   W02
 BYTE   VOL   76*elegy_of_battle_mvl/mxv
 BYTE   W01
 BYTE   VOL   96*elegy_of_battle_mvl/mxv
 BYTE   W02
 BYTE   VOL   100*elegy_of_battle_mvl/mxv
 BYTE   W01
 BYTE   VOL   100*elegy_of_battle_mvl/mxv
 BYTE   W03
 BYTE   VOL   100*elegy_of_battle_mvl/mxv
 BYTE   W02
 BYTE   VOL   100*elegy_of_battle_mvl/mxv
 BYTE   W01
 BYTE   VOL   100*elegy_of_battle_mvl/mxv
 BYTE   W02
 BYTE   VOL   100*elegy_of_battle_mvl/mxv
 BYTE   W01
 BYTE   VOL   100*elegy_of_battle_mvl/mxv
 BYTE   W02
 BYTE   VOL   100*elegy_of_battle_mvl/mxv
 BYTE   W03
 BYTE   VOL   100*elegy_of_battle_mvl/mxv
 BYTE   W03
 BYTE   VOL   100*elegy_of_battle_mvl/mxv
 BYTE   W03
 BYTE   VOL   100*elegy_of_battle_mvl/mxv
 BYTE   W01
 BYTE   VOL   100*elegy_of_battle_mvl/mxv
 BYTE   W02
 BYTE   VOL   100*elegy_of_battle_mvl/mxv
 BYTE   W01
 BYTE   VOL   100*elegy_of_battle_mvl/mxv
 BYTE   W02
 BYTE   VOL   100*elegy_of_battle_mvl/mxv
 BYTE   W03
 BYTE   VOL   100*elegy_of_battle_mvl/mxv
 BYTE   W03
 BYTE   VOL   98*elegy_of_battle_mvl/mxv
 BYTE   W01
 BYTE   VOL   100*elegy_of_battle_mvl/mxv
 BYTE   W02
 BYTE   VOL   94*elegy_of_battle_mvl/mxv
 BYTE   W01
 BYTE   VOL   91*elegy_of_battle_mvl/mxv
 BYTE   W02
 BYTE   VOL   83*elegy_of_battle_mvl/mxv
 BYTE   W01
 BYTE   VOL   76*elegy_of_battle_mvl/mxv
 BYTE   W02
 BYTE   VOL   59*elegy_of_battle_mvl/mxv
 BYTE   W01
 BYTE   VOL   59*elegy_of_battle_mvl/mxv
 BYTE   W02
 BYTE   VOL   49*elegy_of_battle_mvl/mxv
 BYTE   W03
 BYTE   VOL   39*elegy_of_battle_mvl/mxv
 BYTE   W01
 BYTE   VOL   36*elegy_of_battle_mvl/mxv
 BYTE   W02
 BYTE   VOL   35*elegy_of_battle_mvl/mxv
 BYTE   W01
 BYTE   VOL   30*elegy_of_battle_mvl/mxv
 BYTE   W02
 BYTE   VOL   24*elegy_of_battle_mvl/mxv
 BYTE   W01
 BYTE   VOL   23*elegy_of_battle_mvl/mxv
 BYTE   W02
 BYTE   VOL   17*elegy_of_battle_mvl/mxv
 BYTE   W01
 BYTE   VOL   14*elegy_of_battle_mvl/mxv
 BYTE   W02
 BYTE   VOL   11*elegy_of_battle_mvl/mxv
 BYTE   W01
 BYTE   VOL   7*elegy_of_battle_mvl/mxv
 BYTE   W02
 BYTE   VOL   5*elegy_of_battle_mvl/mxv
 BYTE   W01
 BYTE   VOL   2*elegy_of_battle_mvl/mxv
 BYTE   W02
 BYTE   VOL   0*elegy_of_battle_mvl/mxv
 BYTE   W01
 BYTE   VOL   0*elegy_of_battle_mvl/mxv
 BYTE   W02
 BYTE   VOL   0*elegy_of_battle_mvl/mxv
 BYTE   W01
 BYTE   VOL   0*elegy_of_battle_mvl/mxv
 BYTE   W02
 BYTE   PEND 
//  #03 //003   ----------------------------------------
 BYTE   PATT
  POIN2 Label_010271C9
//  #03 //004   ----------------------------------------
Label_01027246:
 BYTE   VOL   0*elegy_of_battle_mvl/mxv
 BYTE   N48  Ds3  v044
 BYTE   W01
 BYTE   VOL   0*elegy_of_battle_mvl/mxv
 BYTE   W02
 BYTE   VOL   1*elegy_of_battle_mvl/mxv
 BYTE   W01
 BYTE   VOL   2*elegy_of_battle_mvl/mxv
 BYTE   W02
 BYTE   VOL   3*elegy_of_battle_mvl/mxv
 BYTE   W01
 BYTE   VOL   6*elegy_of_battle_mvl/mxv
 BYTE   W02
 BYTE   VOL   7*elegy_of_battle_mvl/mxv
 BYTE   W01
 BYTE   VOL   10*elegy_of_battle_mvl/mxv
 BYTE   W02
 BYTE   VOL   13*elegy_of_battle_mvl/mxv
 BYTE   W01
 BYTE   VOL   16*elegy_of_battle_mvl/mxv
 BYTE   W02
 BYTE   VOL   24*elegy_of_battle_mvl/mxv
 BYTE   W01
 BYTE   VOL   29*elegy_of_battle_mvl/mxv
 BYTE   W02
 BYTE   VOL   39*elegy_of_battle_mvl/mxv
 BYTE   W01
 BYTE   VOL   44*elegy_of_battle_mvl/mxv
 BYTE   W02
 BYTE   VOL   49*elegy_of_battle_mvl/mxv
 BYTE   W01
 BYTE   VOL   51*elegy_of_battle_mvl/mxv
 BYTE   W02
 BYTE   VOL   54*elegy_of_battle_mvl/mxv
 BYTE   W01
 BYTE   VOL   62*elegy_of_battle_mvl/mxv
 BYTE   W03
 BYTE   VOL   64*elegy_of_battle_mvl/mxv
 BYTE   W02
 BYTE   VOL   64*elegy_of_battle_mvl/mxv
 BYTE   W01
 BYTE   VOL   64*elegy_of_battle_mvl/mxv
 BYTE   W02
 BYTE   VOL   68*elegy_of_battle_mvl/mxv
 BYTE   W01
 BYTE   VOL   68*elegy_of_battle_mvl/mxv
 BYTE   W02
 BYTE   VOL   68*elegy_of_battle_mvl/mxv
 BYTE   W01
 BYTE   VOL   66*elegy_of_battle_mvl/mxv
 BYTE   W02
 BYTE   VOL   66*elegy_of_battle_mvl/mxv
 BYTE   W01
 BYTE   VOL   62*elegy_of_battle_mvl/mxv
 BYTE   W02
 BYTE   VOL   60*elegy_of_battle_mvl/mxv
 BYTE   W01
 BYTE   VOL   36*elegy_of_battle_mvl/mxv
 BYTE   W02
 BYTE   VOL   24*elegy_of_battle_mvl/mxv
 BYTE   W01
 BYTE   VOL   14*elegy_of_battle_mvl/mxv
 BYTE   W02
 BYTE   VOL   8*elegy_of_battle_mvl/mxv
 BYTE   N48  Gn3
 BYTE   W01
 BYTE   VOL   6*elegy_of_battle_mvl/mxv
 BYTE   W02
 BYTE   VOL   6*elegy_of_battle_mvl/mxv
 BYTE   W01
 BYTE   VOL   10*elegy_of_battle_mvl/mxv
 BYTE   W02
 BYTE   VOL   22*elegy_of_battle_mvl/mxv
 BYTE   W01
 BYTE   VOL   30*elegy_of_battle_mvl/mxv
 BYTE   W03
 BYTE   VOL   27*elegy_of_battle_mvl/mxv
 BYTE   W02
 BYTE   VOL   27*elegy_of_battle_mvl/mxv
 BYTE   W01
 BYTE   VOL   30*elegy_of_battle_mvl/mxv
 BYTE   W02
 BYTE   VOL   33*elegy_of_battle_mvl/mxv
 BYTE   W01
 BYTE   VOL   39*elegy_of_battle_mvl/mxv
 BYTE   W02
 BYTE   VOL   42*elegy_of_battle_mvl/mxv
 BYTE   W01
 BYTE   VOL   51*elegy_of_battle_mvl/mxv
 BYTE   W02
 BYTE   VOL   57*elegy_of_battle_mvl/mxv
 BYTE   W01
 BYTE   VOL   57*elegy_of_battle_mvl/mxv
 BYTE   W02
 BYTE   VOL   59*elegy_of_battle_mvl/mxv
 BYTE   W01
 BYTE   VOL   62*elegy_of_battle_mvl/mxv
 BYTE   W02
 BYTE   VOL   62*elegy_of_battle_mvl/mxv
 BYTE   W07
 BYTE   VOL   62*elegy_of_battle_mvl/mxv
 BYTE   W03
 BYTE   VOL   62*elegy_of_battle_mvl/mxv
 BYTE   W02
 BYTE   VOL   62*elegy_of_battle_mvl/mxv
 BYTE   W01
 BYTE   VOL   62*elegy_of_battle_mvl/mxv
 BYTE   W02
 BYTE   VOL   60*elegy_of_battle_mvl/mxv
 BYTE   W01
 BYTE   VOL   55*elegy_of_battle_mvl/mxv
 BYTE   W02
 BYTE   VOL   47*elegy_of_battle_mvl/mxv
 BYTE   W01
 BYTE   VOL   42*elegy_of_battle_mvl/mxv
 BYTE   W02
 BYTE   PEND 
//  #03 //005   ----------------------------------------
Label_010272C1:
 BYTE   VOL   22*elegy_of_battle_mvl/mxv
 BYTE   N44  As3  v056
 BYTE   W01
 BYTE   VOL   26*elegy_of_battle_mvl/mxv
 BYTE   W02
 BYTE   VOL   24*elegy_of_battle_mvl/mxv
 BYTE   W01
 BYTE   VOL   25*elegy_of_battle_mvl/mxv
 BYTE   W02
 BYTE   VOL   33*elegy_of_battle_mvl/mxv
 BYTE   W01
 BYTE   VOL   42*elegy_of_battle_mvl/mxv
 BYTE   W02
 BYTE   VOL   51*elegy_of_battle_mvl/mxv
 BYTE   W01
 BYTE   VOL   55*elegy_of_battle_mvl/mxv
 BYTE   W02
 BYTE   VOL   55*elegy_of_battle_mvl/mxv
 BYTE   W01
 BYTE   VOL   57*elegy_of_battle_mvl/mxv
 BYTE   W02
 BYTE   VOL   57*elegy_of_battle_mvl/mxv
 BYTE   W01
 BYTE   VOL   57*elegy_of_battle_mvl/mxv
 BYTE   W02
 BYTE   VOL   57*elegy_of_battle_mvl/mxv
 BYTE   W01
 BYTE   VOL   57*elegy_of_battle_mvl/mxv
 BYTE   W02
 BYTE   VOL   57*elegy_of_battle_mvl/mxv
 BYTE   W01
 BYTE   VOL   57*elegy_of_battle_mvl/mxv
 BYTE   W02
 BYTE   VOL   57*elegy_of_battle_mvl/mxv
 BYTE   W01
 BYTE   VOL   57*elegy_of_battle_mvl/mxv
 BYTE   W02
 BYTE   VOL   55*elegy_of_battle_mvl/mxv
 BYTE   W01
 BYTE   VOL   54*elegy_of_battle_mvl/mxv
 BYTE   W02
 BYTE   VOL   54*elegy_of_battle_mvl/mxv
 BYTE   W01
 BYTE   VOL   50*elegy_of_battle_mvl/mxv
 BYTE   W02
 BYTE   VOL   49*elegy_of_battle_mvl/mxv
 BYTE   W01
 BYTE   VOL   45*elegy_of_battle_mvl/mxv
 BYTE   W02
 BYTE   VOL   44*elegy_of_battle_mvl/mxv
 BYTE   W01
 BYTE   VOL   40*elegy_of_battle_mvl/mxv
 BYTE   W02
 BYTE   VOL   39*elegy_of_battle_mvl/mxv
 BYTE   W01
 BYTE   VOL   23*elegy_of_battle_mvl/mxv
 BYTE   W02
 BYTE   VOL   14*elegy_of_battle_mvl/mxv
 BYTE   W01
 BYTE   VOL   13*elegy_of_battle_mvl/mxv
 BYTE   W02
 BYTE   VOL   13*elegy_of_battle_mvl/mxv
 BYTE   W03
 BYTE   VOL   16*elegy_of_battle_mvl/mxv
 BYTE   N48  An3  v044
 BYTE   W01
 BYTE   VOL   26*elegy_of_battle_mvl/mxv
 BYTE   W02
 BYTE   VOL   24*elegy_of_battle_mvl/mxv
 BYTE   W01
 BYTE   VOL   25*elegy_of_battle_mvl/mxv
 BYTE   W02
 BYTE   VOL   33*elegy_of_battle_mvl/mxv
 BYTE   W01
 BYTE   VOL   42*elegy_of_battle_mvl/mxv
 BYTE   W02
 BYTE   VOL   51*elegy_of_battle_mvl/mxv
 BYTE   W01
 BYTE   VOL   55*elegy_of_battle_mvl/mxv
 BYTE   W02
 BYTE   VOL   55*elegy_of_battle_mvl/mxv
 BYTE   W01
 BYTE   VOL   57*elegy_of_battle_mvl/mxv
 BYTE   W02
 BYTE   VOL   57*elegy_of_battle_mvl/mxv
 BYTE   W01
 BYTE   VOL   57*elegy_of_battle_mvl/mxv
 BYTE   W02
 BYTE   VOL   57*elegy_of_battle_mvl/mxv
 BYTE   W01
 BYTE   VOL   57*elegy_of_battle_mvl/mxv
 BYTE   W02
 BYTE   VOL   57*elegy_of_battle_mvl/mxv
 BYTE   W01
 BYTE   VOL   57*elegy_of_battle_mvl/mxv
 BYTE   W02
 BYTE   VOL   57*elegy_of_battle_mvl/mxv
 BYTE   W01
 BYTE   VOL   57*elegy_of_battle_mvl/mxv
 BYTE   W02
 BYTE   VOL   55*elegy_of_battle_mvl/mxv
 BYTE   W01
 BYTE   VOL   54*elegy_of_battle_mvl/mxv
 BYTE   W02
 BYTE   VOL   54*elegy_of_battle_mvl/mxv
 BYTE   W01
 BYTE   VOL   50*elegy_of_battle_mvl/mxv
 BYTE   W02
 BYTE   VOL   49*elegy_of_battle_mvl/mxv
 BYTE   W01
 BYTE   VOL   45*elegy_of_battle_mvl/mxv
 BYTE   W02
 BYTE   VOL   44*elegy_of_battle_mvl/mxv
 BYTE   W01
 BYTE   VOL   40*elegy_of_battle_mvl/mxv
 BYTE   W02
 BYTE   VOL   35*elegy_of_battle_mvl/mxv
 BYTE   W01
 BYTE   VOL   36*elegy_of_battle_mvl/mxv
 BYTE   W02
 BYTE   VOL   30*elegy_of_battle_mvl/mxv
 BYTE   W01
 BYTE   VOL   25*elegy_of_battle_mvl/mxv
 BYTE   W02
 BYTE   VOL   23*elegy_of_battle_mvl/mxv
 BYTE   W01
 BYTE   VOL   23*elegy_of_battle_mvl/mxv
 BYTE   W02
 BYTE   PEND 
//  #03 //006   ----------------------------------------
Label_01027349:
 BYTE   VOL   23*elegy_of_battle_mvl/mxv
 BYTE   N96  Gn3  v044
 BYTE   W01
 BYTE   VOL   23*elegy_of_battle_mvl/mxv
 BYTE   W02
 BYTE   VOL   22*elegy_of_battle_mvl/mxv
 BYTE   W01
 BYTE   VOL   22*elegy_of_battle_mvl/mxv
 BYTE   W02
 BYTE   VOL   22*elegy_of_battle_mvl/mxv
 BYTE   W01
 BYTE   VOL   22*elegy_of_battle_mvl/mxv
 BYTE   W01
 BYTE   VOL   22*elegy_of_battle_mvl/mxv
 BYTE   W01
 BYTE   VOL   19*elegy_of_battle_mvl/mxv
 BYTE   W01
 BYTE   VOL   18*elegy_of_battle_mvl/mxv
 BYTE   W02
 BYTE   VOL   18*elegy_of_battle_mvl/mxv
 BYTE   W01
 BYTE   VOL   18*elegy_of_battle_mvl/mxv
 BYTE   W02
 BYTE   VOL   18*elegy_of_battle_mvl/mxv
 BYTE   W01
 BYTE   VOL   19*elegy_of_battle_mvl/mxv
 BYTE   W02
 BYTE   VOL   23*elegy_of_battle_mvl/mxv
 BYTE   W01
 BYTE   VOL   24*elegy_of_battle_mvl/mxv
 BYTE   W02
 BYTE   VOL   26*elegy_of_battle_mvl/mxv
 BYTE   W01
 BYTE   VOL   30*elegy_of_battle_mvl/mxv
 BYTE   W02
 BYTE   VOL   35*elegy_of_battle_mvl/mxv
 BYTE   W01
 BYTE   VOL   39*elegy_of_battle_mvl/mxv
 BYTE   W02
 BYTE   VOL   45*elegy_of_battle_mvl/mxv
 BYTE   W01
 BYTE   VOL   50*elegy_of_battle_mvl/mxv
 BYTE   W02
 BYTE   VOL   55*elegy_of_battle_mvl/mxv
 BYTE   W01
 BYTE   VOL   60*elegy_of_battle_mvl/mxv
 BYTE   W02
 BYTE   VOL   64*elegy_of_battle_mvl/mxv
 BYTE   W01
 BYTE   VOL   64*elegy_of_battle_mvl/mxv
 BYTE   W02
 BYTE   VOL   70*elegy_of_battle_mvl/mxv
 BYTE   W03
 BYTE   VOL   70*elegy_of_battle_mvl/mxv
 BYTE   W03
 BYTE   VOL   70*elegy_of_battle_mvl/mxv
 BYTE   W03
 BYTE   VOL   70*elegy_of_battle_mvl/mxv
 BYTE   W01
 BYTE   VOL   68*elegy_of_battle_mvl/mxv
 BYTE   W02
 BYTE   VOL   68*elegy_of_battle_mvl/mxv
 BYTE   W01
 BYTE   VOL   68*elegy_of_battle_mvl/mxv
 BYTE   W02
 BYTE   VOL   68*elegy_of_battle_mvl/mxv
 BYTE   W03
 BYTE   VOL   68*elegy_of_battle_mvl/mxv
 BYTE   W03
 BYTE   VOL   68*elegy_of_battle_mvl/mxv
 BYTE   W01
 BYTE   VOL   68*elegy_of_battle_mvl/mxv
 BYTE   W02
 BYTE   VOL   64*elegy_of_battle_mvl/mxv
 BYTE   W01
 BYTE   VOL   64*elegy_of_battle_mvl/mxv
 BYTE   W02
 BYTE   VOL   62*elegy_of_battle_mvl/mxv
 BYTE   W01
 BYTE   VOL   57*elegy_of_battle_mvl/mxv
 BYTE   W02
 BYTE   VOL   54*elegy_of_battle_mvl/mxv
 BYTE   W01
 BYTE   VOL   49*elegy_of_battle_mvl/mxv
 BYTE   W02
 BYTE   VOL   47*elegy_of_battle_mvl/mxv
 BYTE   W03
 BYTE   VOL   42*elegy_of_battle_mvl/mxv
 BYTE   W01
 BYTE   VOL   35*elegy_of_battle_mvl/mxv
 BYTE   W02
 BYTE   VOL   35*elegy_of_battle_mvl/mxv
 BYTE   W01
 BYTE   VOL   30*elegy_of_battle_mvl/mxv
 BYTE   W02
 BYTE   VOL   24*elegy_of_battle_mvl/mxv
 BYTE   W01
 BYTE   VOL   23*elegy_of_battle_mvl/mxv
 BYTE   W02
 BYTE   VOL   17*elegy_of_battle_mvl/mxv
 BYTE   W01
 BYTE   VOL   14*elegy_of_battle_mvl/mxv
 BYTE   W02
 BYTE   VOL   11*elegy_of_battle_mvl/mxv
 BYTE   W01
 BYTE   VOL   7*elegy_of_battle_mvl/mxv
 BYTE   W02
 BYTE   VOL   5*elegy_of_battle_mvl/mxv
 BYTE   W01
 BYTE   VOL   2*elegy_of_battle_mvl/mxv
 BYTE   W02
 BYTE   VOL   0*elegy_of_battle_mvl/mxv
 BYTE   W01
 BYTE   VOL   0*elegy_of_battle_mvl/mxv
 BYTE   W02
 BYTE   VOL   0*elegy_of_battle_mvl/mxv
 BYTE   W01
 BYTE   VOL   0*elegy_of_battle_mvl/mxv
 BYTE   W02
 BYTE   PEND 
//  #03 //007   ----------------------------------------
Label_010273C5:
 BYTE   VOL   0*elegy_of_battle_mvl/mxv
 BYTE   N96  An3  v044
 BYTE   W01
 BYTE   VOL   0*elegy_of_battle_mvl/mxv
 BYTE   W02
 BYTE   VOL   1*elegy_of_battle_mvl/mxv
 BYTE   W01
 BYTE   VOL   2*elegy_of_battle_mvl/mxv
 BYTE   W02
 BYTE   VOL   3*elegy_of_battle_mvl/mxv
 BYTE   W01
 BYTE   VOL   6*elegy_of_battle_mvl/mxv
 BYTE   W02
 BYTE   VOL   7*elegy_of_battle_mvl/mxv
 BYTE   W01
 BYTE   VOL   10*elegy_of_battle_mvl/mxv
 BYTE   W02
 BYTE   VOL   13*elegy_of_battle_mvl/mxv
 BYTE   W01
 BYTE   VOL   16*elegy_of_battle_mvl/mxv
 BYTE   W02
 BYTE   VOL   19*elegy_of_battle_mvl/mxv
 BYTE   W01
 BYTE   VOL   24*elegy_of_battle_mvl/mxv
 BYTE   W02
 BYTE   VOL   36*elegy_of_battle_mvl/mxv
 BYTE   W01
 BYTE   VOL   54*elegy_of_battle_mvl/mxv
 BYTE   W02
 BYTE   VOL   76*elegy_of_battle_mvl/mxv
 BYTE   W01
 BYTE   VOL   96*elegy_of_battle_mvl/mxv
 BYTE   W02
 BYTE   VOL   100*elegy_of_battle_mvl/mxv
 BYTE   W01
 BYTE   VOL   100*elegy_of_battle_mvl/mxv
 BYTE   W03
 BYTE   VOL   100*elegy_of_battle_mvl/mxv
 BYTE   W02
 BYTE   VOL   100*elegy_of_battle_mvl/mxv
 BYTE   W01
 BYTE   VOL   100*elegy_of_battle_mvl/mxv
 BYTE   W02
 BYTE   VOL   100*elegy_of_battle_mvl/mxv
 BYTE   W01
 BYTE   VOL   100*elegy_of_battle_mvl/mxv
 BYTE   W02
 BYTE   VOL   100*elegy_of_battle_mvl/mxv
 BYTE   W03
 BYTE   VOL   100*elegy_of_battle_mvl/mxv
 BYTE   W03
 BYTE   VOL   100*elegy_of_battle_mvl/mxv
 BYTE   W03
 BYTE   VOL   100*elegy_of_battle_mvl/mxv
 BYTE   W01
 BYTE   VOL   100*elegy_of_battle_mvl/mxv
 BYTE   W02
 BYTE   VOL   100*elegy_of_battle_mvl/mxv
 BYTE   W01
 BYTE   VOL   100*elegy_of_battle_mvl/mxv
 BYTE   W02
 BYTE   VOL   100*elegy_of_battle_mvl/mxv
 BYTE   W03
 BYTE   VOL   100*elegy_of_battle_mvl/mxv
 BYTE   W03
 BYTE   VOL   98*elegy_of_battle_mvl/mxv
 BYTE   W01
 BYTE   VOL   100*elegy_of_battle_mvl/mxv
 BYTE   W02
 BYTE   VOL   94*elegy_of_battle_mvl/mxv
 BYTE   W01
 BYTE   VOL   91*elegy_of_battle_mvl/mxv
 BYTE   W02
 BYTE   VOL   83*elegy_of_battle_mvl/mxv
 BYTE   W01
 BYTE   VOL   76*elegy_of_battle_mvl/mxv
 BYTE   W02
 BYTE   VOL   59*elegy_of_battle_mvl/mxv
 BYTE   W01
 BYTE   VOL   59*elegy_of_battle_mvl/mxv
 BYTE   W02
 BYTE   VOL   49*elegy_of_battle_mvl/mxv
 BYTE   W03
 BYTE   VOL   39*elegy_of_battle_mvl/mxv
 BYTE   W01
 BYTE   VOL   36*elegy_of_battle_mvl/mxv
 BYTE   W02
 BYTE   VOL   35*elegy_of_battle_mvl/mxv
 BYTE   W01
 BYTE   VOL   30*elegy_of_battle_mvl/mxv
 BYTE   W02
 BYTE   VOL   24*elegy_of_battle_mvl/mxv
 BYTE   W01
 BYTE   VOL   23*elegy_of_battle_mvl/mxv
 BYTE   W02
 BYTE   VOL   17*elegy_of_battle_mvl/mxv
 BYTE   W01
 BYTE   VOL   14*elegy_of_battle_mvl/mxv
 BYTE   W02
 BYTE   VOL   11*elegy_of_battle_mvl/mxv
 BYTE   W01
 BYTE   VOL   7*elegy_of_battle_mvl/mxv
 BYTE   W02
 BYTE   VOL   5*elegy_of_battle_mvl/mxv
 BYTE   W01
 BYTE   VOL   2*elegy_of_battle_mvl/mxv
 BYTE   W02
 BYTE   VOL   0*elegy_of_battle_mvl/mxv
 BYTE   W01
 BYTE   VOL   0*elegy_of_battle_mvl/mxv
 BYTE   W02
 BYTE   VOL   0*elegy_of_battle_mvl/mxv
 BYTE   W01
 BYTE   VOL   0*elegy_of_battle_mvl/mxv
 BYTE   W02
 BYTE   PEND 
//  #03 //008   ----------------------------------------
Label_0102743D:
 BYTE   VOL   0*elegy_of_battle_mvl/mxv
 BYTE   N96  Gn3  v044
 BYTE   W01
 BYTE   VOL   0*elegy_of_battle_mvl/mxv
 BYTE   W02
 BYTE   VOL   1*elegy_of_battle_mvl/mxv
 BYTE   W01
 BYTE   VOL   2*elegy_of_battle_mvl/mxv
 BYTE   W02
 BYTE   VOL   3*elegy_of_battle_mvl/mxv
 BYTE   W01
 BYTE   VOL   6*elegy_of_battle_mvl/mxv
 BYTE   W02
 BYTE   VOL   7*elegy_of_battle_mvl/mxv
 BYTE   W01
 BYTE   VOL   10*elegy_of_battle_mvl/mxv
 BYTE   W02
 BYTE   VOL   13*elegy_of_battle_mvl/mxv
 BYTE   W01
 BYTE   VOL   16*elegy_of_battle_mvl/mxv
 BYTE   W02
 BYTE   VOL   19*elegy_of_battle_mvl/mxv
 BYTE   W01
 BYTE   VOL   24*elegy_of_battle_mvl/mxv
 BYTE   W02
 BYTE   VOL   36*elegy_of_battle_mvl/mxv
 BYTE   W01
 BYTE   VOL   54*elegy_of_battle_mvl/mxv
 BYTE   W02
 BYTE   VOL   76*elegy_of_battle_mvl/mxv
 BYTE   W01
 BYTE   VOL   96*elegy_of_battle_mvl/mxv
 BYTE   W02
 BYTE   VOL   100*elegy_of_battle_mvl/mxv
 BYTE   W01
 BYTE   VOL   100*elegy_of_battle_mvl/mxv
 BYTE   W03
 BYTE   VOL   100*elegy_of_battle_mvl/mxv
 BYTE   W02
 BYTE   VOL   100*elegy_of_battle_mvl/mxv
 BYTE   W01
 BYTE   VOL   100*elegy_of_battle_mvl/mxv
 BYTE   W02
 BYTE   VOL   100*elegy_of_battle_mvl/mxv
 BYTE   W01
 BYTE   VOL   100*elegy_of_battle_mvl/mxv
 BYTE   W02
 BYTE   VOL   100*elegy_of_battle_mvl/mxv
 BYTE   W03
 BYTE   VOL   100*elegy_of_battle_mvl/mxv
 BYTE   W03
 BYTE   VOL   100*elegy_of_battle_mvl/mxv
 BYTE   W03
 BYTE   VOL   100*elegy_of_battle_mvl/mxv
 BYTE   W01
 BYTE   VOL   100*elegy_of_battle_mvl/mxv
 BYTE   W02
 BYTE   VOL   100*elegy_of_battle_mvl/mxv
 BYTE   W01
 BYTE   VOL   100*elegy_of_battle_mvl/mxv
 BYTE   W02
 BYTE   VOL   100*elegy_of_battle_mvl/mxv
 BYTE   W03
 BYTE   VOL   100*elegy_of_battle_mvl/mxv
 BYTE   W03
 BYTE   VOL   98*elegy_of_battle_mvl/mxv
 BYTE   W01
 BYTE   VOL   100*elegy_of_battle_mvl/mxv
 BYTE   W02
 BYTE   VOL   94*elegy_of_battle_mvl/mxv
 BYTE   W01
 BYTE   VOL   91*elegy_of_battle_mvl/mxv
 BYTE   W02
 BYTE   VOL   83*elegy_of_battle_mvl/mxv
 BYTE   W01
 BYTE   VOL   76*elegy_of_battle_mvl/mxv
 BYTE   W02
 BYTE   VOL   59*elegy_of_battle_mvl/mxv
 BYTE   W01
 BYTE   VOL   59*elegy_of_battle_mvl/mxv
 BYTE   W02
 BYTE   VOL   49*elegy_of_battle_mvl/mxv
 BYTE   W03
 BYTE   VOL   39*elegy_of_battle_mvl/mxv
 BYTE   W01
 BYTE   VOL   36*elegy_of_battle_mvl/mxv
 BYTE   W02
 BYTE   VOL   35*elegy_of_battle_mvl/mxv
 BYTE   W01
 BYTE   VOL   30*elegy_of_battle_mvl/mxv
 BYTE   W02
 BYTE   VOL   24*elegy_of_battle_mvl/mxv
 BYTE   W01
 BYTE   VOL   23*elegy_of_battle_mvl/mxv
 BYTE   W02
 BYTE   VOL   17*elegy_of_battle_mvl/mxv
 BYTE   W01
 BYTE   VOL   14*elegy_of_battle_mvl/mxv
 BYTE   W02
 BYTE   VOL   11*elegy_of_battle_mvl/mxv
 BYTE   W01
 BYTE   VOL   7*elegy_of_battle_mvl/mxv
 BYTE   W02
 BYTE   VOL   5*elegy_of_battle_mvl/mxv
 BYTE   W01
 BYTE   VOL   2*elegy_of_battle_mvl/mxv
 BYTE   W02
 BYTE   VOL   0*elegy_of_battle_mvl/mxv
 BYTE   W01
 BYTE   VOL   0*elegy_of_battle_mvl/mxv
 BYTE   W02
 BYTE   VOL   0*elegy_of_battle_mvl/mxv
 BYTE   W01
 BYTE   VOL   0*elegy_of_battle_mvl/mxv
 BYTE   W02
 BYTE   PEND 
//  #03 //009   ----------------------------------------
Label_010274B5:
 BYTE   VOL   0*elegy_of_battle_mvl/mxv
 BYTE   N96  Cn4  v044
 BYTE   W01
 BYTE   VOL   1*elegy_of_battle_mvl/mxv
 BYTE   W02
 BYTE   VOL   2*elegy_of_battle_mvl/mxv
 BYTE   W01
 BYTE   VOL   3*elegy_of_battle_mvl/mxv
 BYTE   W02
 BYTE   VOL   6*elegy_of_battle_mvl/mxv
 BYTE   W01
 BYTE   VOL   7*elegy_of_battle_mvl/mxv
 BYTE   W02
 BYTE   VOL   10*elegy_of_battle_mvl/mxv
 BYTE   W01
 BYTE   VOL   13*elegy_of_battle_mvl/mxv
 BYTE   W02
 BYTE   VOL   16*elegy_of_battle_mvl/mxv
 BYTE   W01
 BYTE   VOL   19*elegy_of_battle_mvl/mxv
 BYTE   W02
 BYTE   VOL   24*elegy_of_battle_mvl/mxv
 BYTE   W01
 BYTE   VOL   36*elegy_of_battle_mvl/mxv
 BYTE   W02
 BYTE   VOL   54*elegy_of_battle_mvl/mxv
 BYTE   W01
 BYTE   VOL   76*elegy_of_battle_mvl/mxv
 BYTE   W02
 BYTE   VOL   96*elegy_of_battle_mvl/mxv
 BYTE   W01
 BYTE   VOL   100*elegy_of_battle_mvl/mxv
 BYTE   W02
 BYTE   VOL   100*elegy_of_battle_mvl/mxv
 BYTE   W03
 BYTE   VOL   100*elegy_of_battle_mvl/mxv
 BYTE   W01
 BYTE   VOL   100*elegy_of_battle_mvl/mxv
 BYTE   W02
 BYTE   VOL   100*elegy_of_battle_mvl/mxv
 BYTE   W01
 BYTE   VOL   100*elegy_of_battle_mvl/mxv
 BYTE   W02
 BYTE   VOL   100*elegy_of_battle_mvl/mxv
 BYTE   W01
 BYTE   VOL   100*elegy_of_battle_mvl/mxv
 BYTE   W03
 BYTE   VOL   100*elegy_of_battle_mvl/mxv
 BYTE   W03
 BYTE   VOL   100*elegy_of_battle_mvl/mxv
 BYTE   W03
 BYTE   VOL   100*elegy_of_battle_mvl/mxv
 BYTE   W02
 BYTE   VOL   100*elegy_of_battle_mvl/mxv
 BYTE   W01
 BYTE   VOL   100*elegy_of_battle_mvl/mxv
 BYTE   W02
 BYTE   VOL   100*elegy_of_battle_mvl/mxv
 BYTE   W01
 BYTE   VOL   100*elegy_of_battle_mvl/mxv
 BYTE   W03
 BYTE   VOL   100*elegy_of_battle_mvl/mxv
 BYTE   W03
 BYTE   VOL   98*elegy_of_battle_mvl/mxv
 BYTE   W02
 BYTE   VOL   100*elegy_of_battle_mvl/mxv
 BYTE   W01
 BYTE   VOL   94*elegy_of_battle_mvl/mxv
 BYTE   W02
 BYTE   VOL   91*elegy_of_battle_mvl/mxv
 BYTE   W01
 BYTE   VOL   83*elegy_of_battle_mvl/mxv
 BYTE   W02
 BYTE   VOL   32*elegy_of_battle_mvl/mxv
 BYTE   W01
 BYTE   VOL   30*elegy_of_battle_mvl/mxv
 BYTE   W02
 BYTE   VOL   27*elegy_of_battle_mvl/mxv
 BYTE   W01
 BYTE   VOL   24*elegy_of_battle_mvl/mxv
 BYTE   W03
 BYTE   VOL   23*elegy_of_battle_mvl/mxv
 BYTE   W02
 BYTE   VOL   23*elegy_of_battle_mvl/mxv
 BYTE   W01
 BYTE   VOL   21*elegy_of_battle_mvl/mxv
 BYTE   W02
 BYTE   VOL   19*elegy_of_battle_mvl/mxv
 BYTE   W01
 BYTE   VOL   19*elegy_of_battle_mvl/mxv
 BYTE   W02
 BYTE   VOL   17*elegy_of_battle_mvl/mxv
 BYTE   W01
 BYTE   VOL   16*elegy_of_battle_mvl/mxv
 BYTE   W02
 BYTE   VOL   16*elegy_of_battle_mvl/mxv
 BYTE   W01
 BYTE   VOL   11*elegy_of_battle_mvl/mxv
 BYTE   W02
 BYTE   VOL   7*elegy_of_battle_mvl/mxv
 BYTE   W01
 BYTE   VOL   5*elegy_of_battle_mvl/mxv
 BYTE   W02
 BYTE   VOL   2*elegy_of_battle_mvl/mxv
 BYTE   W01
 BYTE   VOL   0*elegy_of_battle_mvl/mxv
 BYTE   W08
 BYTE   PEND 
//  #03 //010   ----------------------------------------
Label_01027525:
 BYTE   VOL   0*elegy_of_battle_mvl/mxv
 BYTE   N96  As3  v044
 BYTE   W01
 BYTE   VOL   0*elegy_of_battle_mvl/mxv
 BYTE   W02
 BYTE   VOL   1*elegy_of_battle_mvl/mxv
 BYTE   W01
 BYTE   VOL   2*elegy_of_battle_mvl/mxv
 BYTE   W02
 BYTE   VOL   3*elegy_of_battle_mvl/mxv
 BYTE   W01
 BYTE   VOL   6*elegy_of_battle_mvl/mxv
 BYTE   W02
 BYTE   VOL   7*elegy_of_battle_mvl/mxv
 BYTE   W01
 BYTE   VOL   10*elegy_of_battle_mvl/mxv
 BYTE   W02
 BYTE   VOL   13*elegy_of_battle_mvl/mxv
 BYTE   W01
 BYTE   VOL   16*elegy_of_battle_mvl/mxv
 BYTE   W02
 BYTE   VOL   19*elegy_of_battle_mvl/mxv
 BYTE   W01
 BYTE   VOL   24*elegy_of_battle_mvl/mxv
 BYTE   W02
 BYTE   VOL   36*elegy_of_battle_mvl/mxv
 BYTE   W01
 BYTE   VOL   54*elegy_of_battle_mvl/mxv
 BYTE   W02
 BYTE   VOL   76*elegy_of_battle_mvl/mxv
 BYTE   W01
 BYTE   VOL   96*elegy_of_battle_mvl/mxv
 BYTE   W02
 BYTE   VOL   100*elegy_of_battle_mvl/mxv
 BYTE   W01
 BYTE   VOL   100*elegy_of_battle_mvl/mxv
 BYTE   W03
 BYTE   VOL   100*elegy_of_battle_mvl/mxv
 BYTE   W02
 BYTE   VOL   100*elegy_of_battle_mvl/mxv
 BYTE   W01
 BYTE   VOL   100*elegy_of_battle_mvl/mxv
 BYTE   W02
 BYTE   VOL   100*elegy_of_battle_mvl/mxv
 BYTE   W01
 BYTE   VOL   100*elegy_of_battle_mvl/mxv
 BYTE   W02
 BYTE   VOL   100*elegy_of_battle_mvl/mxv
 BYTE   W03
 BYTE   VOL   100*elegy_of_battle_mvl/mxv
 BYTE   W03
 BYTE   VOL   100*elegy_of_battle_mvl/mxv
 BYTE   W03
 BYTE   VOL   100*elegy_of_battle_mvl/mxv
 BYTE   W01
 BYTE   VOL   100*elegy_of_battle_mvl/mxv
 BYTE   W02
 BYTE   VOL   100*elegy_of_battle_mvl/mxv
 BYTE   W01
 BYTE   VOL   100*elegy_of_battle_mvl/mxv
 BYTE   W02
 BYTE   VOL   100*elegy_of_battle_mvl/mxv
 BYTE   W03
 BYTE   VOL   100*elegy_of_battle_mvl/mxv
 BYTE   W03
 BYTE   VOL   98*elegy_of_battle_mvl/mxv
 BYTE   W01
 BYTE   VOL   100*elegy_of_battle_mvl/mxv
 BYTE   W02
 BYTE   VOL   94*elegy_of_battle_mvl/mxv
 BYTE   W01
 BYTE   VOL   91*elegy_of_battle_mvl/mxv
 BYTE   W02
 BYTE   VOL   83*elegy_of_battle_mvl/mxv
 BYTE   W01
 BYTE   VOL   76*elegy_of_battle_mvl/mxv
 BYTE   W02
 BYTE   VOL   59*elegy_of_battle_mvl/mxv
 BYTE   W01
 BYTE   VOL   59*elegy_of_battle_mvl/mxv
 BYTE   W02
 BYTE   VOL   49*elegy_of_battle_mvl/mxv
 BYTE   W03
 BYTE   VOL   39*elegy_of_battle_mvl/mxv
 BYTE   W01
 BYTE   VOL   36*elegy_of_battle_mvl/mxv
 BYTE   W02
 BYTE   VOL   35*elegy_of_battle_mvl/mxv
 BYTE   W01
 BYTE   VOL   30*elegy_of_battle_mvl/mxv
 BYTE   W02
 BYTE   VOL   24*elegy_of_battle_mvl/mxv
 BYTE   W01
 BYTE   VOL   23*elegy_of_battle_mvl/mxv
 BYTE   W02
 BYTE   VOL   17*elegy_of_battle_mvl/mxv
 BYTE   W01
 BYTE   VOL   14*elegy_of_battle_mvl/mxv
 BYTE   W02
 BYTE   VOL   11*elegy_of_battle_mvl/mxv
 BYTE   W01
 BYTE   VOL   7*elegy_of_battle_mvl/mxv
 BYTE   W02
 BYTE   VOL   5*elegy_of_battle_mvl/mxv
 BYTE   W01
 BYTE   VOL   2*elegy_of_battle_mvl/mxv
 BYTE   W02
 BYTE   VOL   0*elegy_of_battle_mvl/mxv
 BYTE   W01
 BYTE   VOL   0*elegy_of_battle_mvl/mxv
 BYTE   W02
 BYTE   VOL   0*elegy_of_battle_mvl/mxv
 BYTE   W01
 BYTE   VOL   0*elegy_of_battle_mvl/mxv
 BYTE   W02
 BYTE   PEND 
//  #03 //011   ----------------------------------------
Label_0102759D:
 BYTE   VOL   0*elegy_of_battle_mvl/mxv
 BYTE   N96  Cn4  v044
 BYTE   W01
 BYTE   VOL   0*elegy_of_battle_mvl/mxv
 BYTE   W02
 BYTE   VOL   1*elegy_of_battle_mvl/mxv
 BYTE   W01
 BYTE   VOL   2*elegy_of_battle_mvl/mxv
 BYTE   W02
 BYTE   VOL   3*elegy_of_battle_mvl/mxv
 BYTE   W01
 BYTE   VOL   6*elegy_of_battle_mvl/mxv
 BYTE   W02
 BYTE   VOL   7*elegy_of_battle_mvl/mxv
 BYTE   W01
 BYTE   VOL   10*elegy_of_battle_mvl/mxv
 BYTE   W02
 BYTE   VOL   13*elegy_of_battle_mvl/mxv
 BYTE   W01
 BYTE   VOL   16*elegy_of_battle_mvl/mxv
 BYTE   W02
 BYTE   VOL   19*elegy_of_battle_mvl/mxv
 BYTE   W01
 BYTE   VOL   24*elegy_of_battle_mvl/mxv
 BYTE   W02
 BYTE   VOL   36*elegy_of_battle_mvl/mxv
 BYTE   W01
 BYTE   VOL   54*elegy_of_battle_mvl/mxv
 BYTE   W02
 BYTE   VOL   76*elegy_of_battle_mvl/mxv
 BYTE   W01
 BYTE   VOL   96*elegy_of_battle_mvl/mxv
 BYTE   W02
 BYTE   VOL   100*elegy_of_battle_mvl/mxv
 BYTE   W01
 BYTE   VOL   100*elegy_of_battle_mvl/mxv
 BYTE   W03
 BYTE   VOL   100*elegy_of_battle_mvl/mxv
 BYTE   W02
 BYTE   VOL   100*elegy_of_battle_mvl/mxv
 BYTE   W01
 BYTE   VOL   100*elegy_of_battle_mvl/mxv
 BYTE   W02
 BYTE   VOL   100*elegy_of_battle_mvl/mxv
 BYTE   W01
 BYTE   VOL   100*elegy_of_battle_mvl/mxv
 BYTE   W02
 BYTE   VOL   100*elegy_of_battle_mvl/mxv
 BYTE   W03
 BYTE   VOL   100*elegy_of_battle_mvl/mxv
 BYTE   W03
 BYTE   VOL   100*elegy_of_battle_mvl/mxv
 BYTE   W03
 BYTE   VOL   100*elegy_of_battle_mvl/mxv
 BYTE   W01
 BYTE   VOL   100*elegy_of_battle_mvl/mxv
 BYTE   W02
 BYTE   VOL   100*elegy_of_battle_mvl/mxv
 BYTE   W01
 BYTE   VOL   100*elegy_of_battle_mvl/mxv
 BYTE   W02
 BYTE   VOL   100*elegy_of_battle_mvl/mxv
 BYTE   W03
 BYTE   VOL   100*elegy_of_battle_mvl/mxv
 BYTE   W03
 BYTE   VOL   98*elegy_of_battle_mvl/mxv
 BYTE   W01
 BYTE   VOL   100*elegy_of_battle_mvl/mxv
 BYTE   W02
 BYTE   VOL   94*elegy_of_battle_mvl/mxv
 BYTE   W01
 BYTE   VOL   91*elegy_of_battle_mvl/mxv
 BYTE   W02
 BYTE   VOL   83*elegy_of_battle_mvl/mxv
 BYTE   W01
 BYTE   VOL   76*elegy_of_battle_mvl/mxv
 BYTE   W02
 BYTE   VOL   59*elegy_of_battle_mvl/mxv
 BYTE   W01
 BYTE   VOL   59*elegy_of_battle_mvl/mxv
 BYTE   W02
 BYTE   VOL   49*elegy_of_battle_mvl/mxv
 BYTE   W03
 BYTE   VOL   39*elegy_of_battle_mvl/mxv
 BYTE   W01
 BYTE   VOL   36*elegy_of_battle_mvl/mxv
 BYTE   W02
 BYTE   VOL   35*elegy_of_battle_mvl/mxv
 BYTE   W01
 BYTE   VOL   30*elegy_of_battle_mvl/mxv
 BYTE   W02
 BYTE   VOL   24*elegy_of_battle_mvl/mxv
 BYTE   W01
 BYTE   VOL   23*elegy_of_battle_mvl/mxv
 BYTE   W02
 BYTE   VOL   17*elegy_of_battle_mvl/mxv
 BYTE   W01
 BYTE   VOL   14*elegy_of_battle_mvl/mxv
 BYTE   W02
 BYTE   VOL   11*elegy_of_battle_mvl/mxv
 BYTE   W01
 BYTE   VOL   7*elegy_of_battle_mvl/mxv
 BYTE   W02
 BYTE   VOL   5*elegy_of_battle_mvl/mxv
 BYTE   W01
 BYTE   VOL   2*elegy_of_battle_mvl/mxv
 BYTE   W02
 BYTE   VOL   0*elegy_of_battle_mvl/mxv
 BYTE   W01
 BYTE   VOL   0*elegy_of_battle_mvl/mxv
 BYTE   W02
 BYTE   VOL   0*elegy_of_battle_mvl/mxv
 BYTE   W01
 BYTE   VOL   0*elegy_of_battle_mvl/mxv
 BYTE   W02
 BYTE   PEND 
//  #03 //012   ----------------------------------------
 BYTE   PATT
  POIN2 Label_0102759D
//  #03 //013   ----------------------------------------
 BYTE   PATT
  POIN2 Label_010271C9
//  #03 //014   ----------------------------------------
Label_0102761F:
 BYTE   W19
 BYTE   VOL   3*elegy_of_battle_mvl/mxv
 BYTE   W02
 BYTE   VOL   3*elegy_of_battle_mvl/mxv
 BYTE   W01
 BYTE   VOL   3*elegy_of_battle_mvl/mxv
 BYTE   W02
 BYTE   VOL   5*elegy_of_battle_mvl/mxv
 BYTE   W01
 BYTE   VOL   6*elegy_of_battle_mvl/mxv
 BYTE   W02
 BYTE   VOL   7*elegy_of_battle_mvl/mxv
 BYTE   W01
 BYTE   VOL   10*elegy_of_battle_mvl/mxv
 BYTE   W02
 BYTE   VOL   11*elegy_of_battle_mvl/mxv
 BYTE   W01
 BYTE   VOL   13*elegy_of_battle_mvl/mxv
 BYTE   W02
 BYTE   VOL   17*elegy_of_battle_mvl/mxv
 BYTE   W01
 BYTE   VOL   20*elegy_of_battle_mvl/mxv
 BYTE   W02
 BYTE   VOL   26*elegy_of_battle_mvl/mxv
 BYTE   N60  Dn5  v024
 BYTE   W01
 BYTE   VOL   27*elegy_of_battle_mvl/mxv
 BYTE   W02
 BYTE   VOL   35*elegy_of_battle_mvl/mxv
 BYTE   W01
 BYTE   VOL   39*elegy_of_battle_mvl/mxv
 BYTE   W02
 BYTE   VOL   44*elegy_of_battle_mvl/mxv
 BYTE   W01
 BYTE   VOL   49*elegy_of_battle_mvl/mxv
 BYTE   W02
 BYTE   VOL   60*elegy_of_battle_mvl/mxv
 BYTE   W01
 BYTE   VOL   60*elegy_of_battle_mvl/mxv
 BYTE   W02
 BYTE   VOL   66*elegy_of_battle_mvl/mxv
 BYTE   W01
 BYTE   VOL   77*elegy_of_battle_mvl/mxv
 BYTE   W02
 BYTE   VOL   89*elegy_of_battle_mvl/mxv
 BYTE   W01
 BYTE   VOL   100*elegy_of_battle_mvl/mxv
 BYTE   W02
 BYTE   VOL   100*elegy_of_battle_mvl/mxv
 BYTE   W01
 BYTE   VOL   100*elegy_of_battle_mvl/mxv
 BYTE   W02
 BYTE   VOL   100*elegy_of_battle_mvl/mxv
 BYTE   W01
 BYTE   VOL   100*elegy_of_battle_mvl/mxv
 BYTE   W02
 BYTE   VOL   100*elegy_of_battle_mvl/mxv
 BYTE   W01
 BYTE   VOL   100*elegy_of_battle_mvl/mxv
 BYTE   W02
 BYTE   VOL   100*elegy_of_battle_mvl/mxv
 BYTE   W01
 BYTE   VOL   100*elegy_of_battle_mvl/mxv
 BYTE   W02
 BYTE   VOL   100*elegy_of_battle_mvl/mxv
 BYTE   W01
 BYTE   VOL   92*elegy_of_battle_mvl/mxv
 BYTE   W02
 BYTE   VOL   88*elegy_of_battle_mvl/mxv
 BYTE   W01
 BYTE   VOL   82*elegy_of_battle_mvl/mxv
 BYTE   W02
 BYTE   VOL   94*elegy_of_battle_mvl/mxv
 BYTE   W01
 BYTE   VOL   70*elegy_of_battle_mvl/mxv
 BYTE   W02
 BYTE   VOL   64*elegy_of_battle_mvl/mxv
 BYTE   W01
 BYTE   VOL   59*elegy_of_battle_mvl/mxv
 BYTE   W02
 BYTE   VOL   54*elegy_of_battle_mvl/mxv
 BYTE   W01
 BYTE   VOL   47*elegy_of_battle_mvl/mxv
 BYTE   W02
 BYTE   VOL   42*elegy_of_battle_mvl/mxv
 BYTE   W01
 BYTE   VOL   37*elegy_of_battle_mvl/mxv
 BYTE   W02
 BYTE   VOL   35*elegy_of_battle_mvl/mxv
 BYTE   W01
 BYTE   VOL   30*elegy_of_battle_mvl/mxv
 BYTE   W02
 BYTE   VOL   26*elegy_of_battle_mvl/mxv
 BYTE   W01
 BYTE   VOL   25*elegy_of_battle_mvl/mxv
 BYTE   W02
 BYTE   VOL   23*elegy_of_battle_mvl/mxv
 BYTE   W01
 BYTE   VOL   22*elegy_of_battle_mvl/mxv
 BYTE   W02
 BYTE   VOL   19*elegy_of_battle_mvl/mxv
 BYTE   W01
 BYTE   VOL   19*elegy_of_battle_mvl/mxv
 BYTE   W02
 BYTE   PEND 
//  #03 //015   ----------------------------------------
Label_0102768C:
 BYTE   VOL   7*elegy_of_battle_mvl/mxv
 BYTE   W01
 BYTE   VOL   7*elegy_of_battle_mvl/mxv
 BYTE   W02
 BYTE   VOL   7*elegy_of_battle_mvl/mxv
 BYTE   W01
 BYTE   VOL   7*elegy_of_battle_mvl/mxv
 BYTE   W02
 BYTE   VOL   7*elegy_of_battle_mvl/mxv
 BYTE   W01
 BYTE   VOL   7*elegy_of_battle_mvl/mxv
 BYTE   W02
 BYTE   VOL   5*elegy_of_battle_mvl/mxv
 BYTE   W01
 BYTE   VOL   3*elegy_of_battle_mvl/mxv
 BYTE   W02
 BYTE   VOL   3*elegy_of_battle_mvl/mxv
 BYTE   W01
 BYTE   VOL   3*elegy_of_battle_mvl/mxv
 BYTE   W02
 BYTE   VOL   3*elegy_of_battle_mvl/mxv
 BYTE   W01
 BYTE   VOL   3*elegy_of_battle_mvl/mxv
 BYTE   W02
 BYTE   VOL   3*elegy_of_battle_mvl/mxv
 BYTE   W01
 BYTE   VOL   3*elegy_of_battle_mvl/mxv
 BYTE   W02
 BYTE   VOL   3*elegy_of_battle_mvl/mxv
 BYTE   W01
 BYTE   VOL   3*elegy_of_battle_mvl/mxv
 BYTE   W02
 BYTE   VOL   5*elegy_of_battle_mvl/mxv
 BYTE   W01
 BYTE   VOL   6*elegy_of_battle_mvl/mxv
 BYTE   W02
 BYTE   VOL   7*elegy_of_battle_mvl/mxv
 BYTE   W01
 BYTE   VOL   11*elegy_of_battle_mvl/mxv
 BYTE   W02
 BYTE   VOL   11*elegy_of_battle_mvl/mxv
 BYTE   W01
 BYTE   VOL   13*elegy_of_battle_mvl/mxv
 BYTE   W02
 BYTE   VOL   17*elegy_of_battle_mvl/mxv
 BYTE   W01
 BYTE   VOL   20*elegy_of_battle_mvl/mxv
 BYTE   W02
 BYTE   VOL   26*elegy_of_battle_mvl/mxv
 BYTE   N60  Dn5  v024
 BYTE   W01
 BYTE   VOL   27*elegy_of_battle_mvl/mxv
 BYTE   W02
 BYTE   VOL   39*elegy_of_battle_mvl/mxv
 BYTE   W01
 BYTE   VOL   39*elegy_of_battle_mvl/mxv
 BYTE   W02
 BYTE   VOL   49*elegy_of_battle_mvl/mxv
 BYTE   W01
 BYTE   VOL   49*elegy_of_battle_mvl/mxv
 BYTE   W02
 BYTE   VOL   60*elegy_of_battle_mvl/mxv
 BYTE   W01
 BYTE   VOL   60*elegy_of_battle_mvl/mxv
 BYTE   W02
 BYTE   VOL   66*elegy_of_battle_mvl/mxv
 BYTE   W01
 BYTE   VOL   77*elegy_of_battle_mvl/mxv
 BYTE   W02
 BYTE   VOL   89*elegy_of_battle_mvl/mxv
 BYTE   W01
 BYTE   VOL   100*elegy_of_battle_mvl/mxv
 BYTE   W02
 BYTE   VOL   100*elegy_of_battle_mvl/mxv
 BYTE   W01
 BYTE   VOL   100*elegy_of_battle_mvl/mxv
 BYTE   W02
 BYTE   VOL   100*elegy_of_battle_mvl/mxv
 BYTE   W01
 BYTE   VOL   100*elegy_of_battle_mvl/mxv
 BYTE   W02
 BYTE   VOL   100*elegy_of_battle_mvl/mxv
 BYTE   W01
 BYTE   VOL   100*elegy_of_battle_mvl/mxv
 BYTE   W02
 BYTE   VOL   100*elegy_of_battle_mvl/mxv
 BYTE   W01
 BYTE   VOL   100*elegy_of_battle_mvl/mxv
 BYTE   W02
 BYTE   VOL   100*elegy_of_battle_mvl/mxv
 BYTE   W01
 BYTE   VOL   92*elegy_of_battle_mvl/mxv
 BYTE   W02
 BYTE   VOL   88*elegy_of_battle_mvl/mxv
 BYTE   W01
 BYTE   VOL   82*elegy_of_battle_mvl/mxv
 BYTE   W02
 BYTE   VOL   70*elegy_of_battle_mvl/mxv
 BYTE   W01
 BYTE   VOL   70*elegy_of_battle_mvl/mxv
 BYTE   W02
 BYTE   VOL   64*elegy_of_battle_mvl/mxv
 BYTE   W01
 BYTE   VOL   59*elegy_of_battle_mvl/mxv
 BYTE   W02
 BYTE   VOL   54*elegy_of_battle_mvl/mxv
 BYTE   W01
 BYTE   VOL   47*elegy_of_battle_mvl/mxv
 BYTE   W02
 BYTE   VOL   42*elegy_of_battle_mvl/mxv
 BYTE   W01
 BYTE   VOL   37*elegy_of_battle_mvl/mxv
 BYTE   W02
 BYTE   VOL   35*elegy_of_battle_mvl/mxv
 BYTE   W01
 BYTE   VOL   30*elegy_of_battle_mvl/mxv
 BYTE   W02
 BYTE   VOL   26*elegy_of_battle_mvl/mxv
 BYTE   W01
 BYTE   VOL   25*elegy_of_battle_mvl/mxv
 BYTE   W02
 BYTE   VOL   23*elegy_of_battle_mvl/mxv
 BYTE   W01
 BYTE   VOL   22*elegy_of_battle_mvl/mxv
 BYTE   W02
 BYTE   VOL   19*elegy_of_battle_mvl/mxv
 BYTE   W01
 BYTE   VOL   19*elegy_of_battle_mvl/mxv
 BYTE   W02
 BYTE   PEND 
//  #03 //016   ----------------------------------------
Label_01027712:
 BYTE   VOL   7*elegy_of_battle_mvl/mxv
 BYTE   W01
 BYTE   VOL   7*elegy_of_battle_mvl/mxv
 BYTE   W02
 BYTE   VOL   7*elegy_of_battle_mvl/mxv
 BYTE   W01
 BYTE   VOL   7*elegy_of_battle_mvl/mxv
 BYTE   W02
 BYTE   VOL   7*elegy_of_battle_mvl/mxv
 BYTE   W01
 BYTE   VOL   7*elegy_of_battle_mvl/mxv
 BYTE   W02
 BYTE   VOL   5*elegy_of_battle_mvl/mxv
 BYTE   W01
 BYTE   VOL   3*elegy_of_battle_mvl/mxv
 BYTE   W02
 BYTE   VOL   3*elegy_of_battle_mvl/mxv
 BYTE   W01
 BYTE   VOL   3*elegy_of_battle_mvl/mxv
 BYTE   W02
 BYTE   VOL   3*elegy_of_battle_mvl/mxv
 BYTE   W01
 BYTE   VOL   3*elegy_of_battle_mvl/mxv
 BYTE   W02
 BYTE   VOL   3*elegy_of_battle_mvl/mxv
 BYTE   W01
 BYTE   VOL   3*elegy_of_battle_mvl/mxv
 BYTE   W02
 BYTE   VOL   3*elegy_of_battle_mvl/mxv
 BYTE   W01
 BYTE   VOL   3*elegy_of_battle_mvl/mxv
 BYTE   W02
 BYTE   VOL   5*elegy_of_battle_mvl/mxv
 BYTE   W01
 BYTE   VOL   6*elegy_of_battle_mvl/mxv
 BYTE   W02
 BYTE   VOL   7*elegy_of_battle_mvl/mxv
 BYTE   W03
 BYTE   VOL   11*elegy_of_battle_mvl/mxv
 BYTE   W01
 BYTE   VOL   13*elegy_of_battle_mvl/mxv
 BYTE   W02
 BYTE   VOL   17*elegy_of_battle_mvl/mxv
 BYTE   W01
 BYTE   VOL   20*elegy_of_battle_mvl/mxv
 BYTE   W02
 BYTE   VOL   26*elegy_of_battle_mvl/mxv
 BYTE   N60  Dn5  v024
 BYTE   W01
 BYTE   VOL   27*elegy_of_battle_mvl/mxv
 BYTE   W03
 BYTE   VOL   39*elegy_of_battle_mvl/mxv
 BYTE   W03
 BYTE   VOL   49*elegy_of_battle_mvl/mxv
 BYTE   W03
 BYTE   VOL   60*elegy_of_battle_mvl/mxv
 BYTE   W02
 BYTE   VOL   66*elegy_of_battle_mvl/mxv
 BYTE   W01
 BYTE   VOL   77*elegy_of_battle_mvl/mxv
 BYTE   W02
 BYTE   VOL   89*elegy_of_battle_mvl/mxv
 BYTE   W01
 BYTE   VOL   100*elegy_of_battle_mvl/mxv
 BYTE   W02
 BYTE   VOL   100*elegy_of_battle_mvl/mxv
 BYTE   W01
 BYTE   VOL   100*elegy_of_battle_mvl/mxv
 BYTE   W02
 BYTE   VOL   98*elegy_of_battle_mvl/mxv
 BYTE   W01
 BYTE   VOL   100*elegy_of_battle_mvl/mxv
 BYTE   W02
 BYTE   VOL   100*elegy_of_battle_mvl/mxv
 BYTE   W01
 BYTE   VOL   100*elegy_of_battle_mvl/mxv
 BYTE   W02
 BYTE   VOL   100*elegy_of_battle_mvl/mxv
 BYTE   W01
 BYTE   VOL   100*elegy_of_battle_mvl/mxv
 BYTE   W02
 BYTE   VOL   100*elegy_of_battle_mvl/mxv
 BYTE   W01
 BYTE   VOL   92*elegy_of_battle_mvl/mxv
 BYTE   W02
 BYTE   VOL   88*elegy_of_battle_mvl/mxv
 BYTE   W01
 BYTE   VOL   82*elegy_of_battle_mvl/mxv
 BYTE   W03
 BYTE   VOL   70*elegy_of_battle_mvl/mxv
 BYTE   W02
 BYTE   VOL   64*elegy_of_battle_mvl/mxv
 BYTE   W01
 BYTE   VOL   59*elegy_of_battle_mvl/mxv
 BYTE   W02
 BYTE   VOL   54*elegy_of_battle_mvl/mxv
 BYTE   W01
 BYTE   VOL   47*elegy_of_battle_mvl/mxv
 BYTE   W02
 BYTE   VOL   42*elegy_of_battle_mvl/mxv
 BYTE   W01
 BYTE   VOL   37*elegy_of_battle_mvl/mxv
 BYTE   W02
 BYTE   VOL   35*elegy_of_battle_mvl/mxv
 BYTE   W01
 BYTE   VOL   30*elegy_of_battle_mvl/mxv
 BYTE   W02
 BYTE   VOL   26*elegy_of_battle_mvl/mxv
 BYTE   W01
 BYTE   VOL   25*elegy_of_battle_mvl/mxv
 BYTE   W02
 BYTE   VOL   23*elegy_of_battle_mvl/mxv
 BYTE   W01
 BYTE   VOL   22*elegy_of_battle_mvl/mxv
 BYTE   W02
 BYTE   VOL   19*elegy_of_battle_mvl/mxv
 BYTE   W01
 BYTE   VOL   19*elegy_of_battle_mvl/mxv
 BYTE   W02
 BYTE   PEND 
//  #03 //017   ----------------------------------------
 BYTE   PATT
  POIN2 Label_01027712
//  #03 //018   ----------------------------------------
Label_01027793:
 BYTE   VOL   18*elegy_of_battle_mvl/mxv
 BYTE   W01
 BYTE   VOL   19*elegy_of_battle_mvl/mxv
 BYTE   W02
 BYTE   VOL   19*elegy_of_battle_mvl/mxv
 BYTE   W01
 BYTE   VOL   19*elegy_of_battle_mvl/mxv
 BYTE   W02
 BYTE   VOL   19*elegy_of_battle_mvl/mxv
 BYTE   W01
 BYTE   VOL   20*elegy_of_battle_mvl/mxv
 BYTE   W02
 BYTE   VOL   20*elegy_of_battle_mvl/mxv
 BYTE   W01
 BYTE   VOL   23*elegy_of_battle_mvl/mxv
 BYTE   W02
 BYTE   VOL   23*elegy_of_battle_mvl/mxv
 BYTE   W01
 BYTE   VOL   17*elegy_of_battle_mvl/mxv
 BYTE   W02
 BYTE   VOL   9*elegy_of_battle_mvl/mxv
 BYTE   W01
 BYTE   VOL   6*elegy_of_battle_mvl/mxv
 BYTE   W02
 BYTE   VOL   4*elegy_of_battle_mvl/mxv
 BYTE   W01
 BYTE   VOL   11*elegy_of_battle_mvl/mxv
 BYTE   W02
 BYTE   VOL   11*elegy_of_battle_mvl/mxv
 BYTE   W01
 BYTE   VOL   11*elegy_of_battle_mvl/mxv
 BYTE   W02
 BYTE   VOL   14*elegy_of_battle_mvl/mxv
 BYTE   N24  As4  v044
 BYTE   W01
 BYTE   VOL   18*elegy_of_battle_mvl/mxv
 BYTE   W02
 BYTE   VOL   25*elegy_of_battle_mvl/mxv
 BYTE   W01
 BYTE   VOL   33*elegy_of_battle_mvl/mxv
 BYTE   W02
 BYTE   VOL   49*elegy_of_battle_mvl/mxv
 BYTE   W03
 BYTE   VOL   64*elegy_of_battle_mvl/mxv
 BYTE   W03
 BYTE   VOL   79*elegy_of_battle_mvl/mxv
 BYTE   W03
 BYTE   VOL   82*elegy_of_battle_mvl/mxv
 BYTE   W01
 BYTE   VOL   77*elegy_of_battle_mvl/mxv
 BYTE   W02
 BYTE   VOL   71*elegy_of_battle_mvl/mxv
 BYTE   W01
 BYTE   VOL   68*elegy_of_battle_mvl/mxv
 BYTE   W02
 BYTE   VOL   60*elegy_of_battle_mvl/mxv
 BYTE   W03
 BYTE   VOL   42*elegy_of_battle_mvl/mxv
 BYTE   N24  An4
 BYTE   W03
 BYTE   VOL   40*elegy_of_battle_mvl/mxv
 BYTE   W01
 BYTE   VOL   44*elegy_of_battle_mvl/mxv
 BYTE   W02
 BYTE   VOL   57*elegy_of_battle_mvl/mxv
 BYTE   W01
 BYTE   VOL   64*elegy_of_battle_mvl/mxv
 BYTE   W02
 BYTE   VOL   70*elegy_of_battle_mvl/mxv
 BYTE   W01
 BYTE   VOL   74*elegy_of_battle_mvl/mxv
 BYTE   W02
 BYTE   VOL   74*elegy_of_battle_mvl/mxv
 BYTE   W01
 BYTE   VOL   71*elegy_of_battle_mvl/mxv
 BYTE   W02
 BYTE   VOL   68*elegy_of_battle_mvl/mxv
 BYTE   W03
 BYTE   VOL   62*elegy_of_battle_mvl/mxv
 BYTE   W01
 BYTE   VOL   55*elegy_of_battle_mvl/mxv
 BYTE   W02
 BYTE   VOL   42*elegy_of_battle_mvl/mxv
 BYTE   W01
 BYTE   VOL   37*elegy_of_battle_mvl/mxv
 BYTE   W02
 BYTE   VOL   29*elegy_of_battle_mvl/mxv
 BYTE   N23  Gn4
 BYTE   W01
 BYTE   VOL   29*elegy_of_battle_mvl/mxv
 BYTE   W02
 BYTE   VOL   36*elegy_of_battle_mvl/mxv
 BYTE   W01
 BYTE   VOL   37*elegy_of_battle_mvl/mxv
 BYTE   W02
 BYTE   VOL   37*elegy_of_battle_mvl/mxv
 BYTE   W01
 BYTE   VOL   44*elegy_of_battle_mvl/mxv
 BYTE   W02
 BYTE   VOL   62*elegy_of_battle_mvl/mxv
 BYTE   W01
 BYTE   VOL   68*elegy_of_battle_mvl/mxv
 BYTE   W02
 BYTE   VOL   76*elegy_of_battle_mvl/mxv
 BYTE   W01
 BYTE   VOL   76*elegy_of_battle_mvl/mxv
 BYTE   W02
 BYTE   VOL   74*elegy_of_battle_mvl/mxv
 BYTE   W01
 BYTE   VOL   62*elegy_of_battle_mvl/mxv
 BYTE   W02
 BYTE   VOL   57*elegy_of_battle_mvl/mxv
 BYTE   W01
 BYTE   VOL   45*elegy_of_battle_mvl/mxv
 BYTE   W02
 BYTE   VOL   37*elegy_of_battle_mvl/mxv
 BYTE   W01
 BYTE   VOL   27*elegy_of_battle_mvl/mxv
 BYTE   W02
 BYTE   PEND 
//  #03 //019   ----------------------------------------
Label_01027813:
 BYTE   VOL   22*elegy_of_battle_mvl/mxv
 BYTE   N48  Gn4  v044
 BYTE   W01
 BYTE   VOL   18*elegy_of_battle_mvl/mxv
 BYTE   W02
 BYTE   VOL   17*elegy_of_battle_mvl/mxv
 BYTE   W01
 BYTE   VOL   17*elegy_of_battle_mvl/mxv
 BYTE   W01
 BYTE   VOL   17*elegy_of_battle_mvl/mxv
 BYTE   W01
 BYTE   VOL   22*elegy_of_battle_mvl/mxv
 BYTE   W01
 BYTE   VOL   26*elegy_of_battle_mvl/mxv
 BYTE   W02
 BYTE   VOL   39*elegy_of_battle_mvl/mxv
 BYTE   W01
 BYTE   VOL   51*elegy_of_battle_mvl/mxv
 BYTE   W02
 BYTE   VOL   64*elegy_of_battle_mvl/mxv
 BYTE   W01
 BYTE   VOL   79*elegy_of_battle_mvl/mxv
 BYTE   W02
 BYTE   VOL   92*elegy_of_battle_mvl/mxv
 BYTE   W01
 BYTE   VOL   94*elegy_of_battle_mvl/mxv
 BYTE   W02
 BYTE   VOL   94*elegy_of_battle_mvl/mxv
 BYTE   W01
 BYTE   VOL   100*elegy_of_battle_mvl/mxv
 BYTE   W03
 BYTE   VOL   100*elegy_of_battle_mvl/mxv
 BYTE   W02
 BYTE   VOL   100*elegy_of_battle_mvl/mxv
 BYTE   W01
 BYTE   VOL   100*elegy_of_battle_mvl/mxv
 BYTE   W02
 BYTE   VOL   100*elegy_of_battle_mvl/mxv
 BYTE   W01
 BYTE   VOL   100*elegy_of_battle_mvl/mxv
 BYTE   W02
 BYTE   VOL   100*elegy_of_battle_mvl/mxv
 BYTE   W03
 BYTE   VOL   100*elegy_of_battle_mvl/mxv
 BYTE   W03
 BYTE   VOL   100*elegy_of_battle_mvl/mxv
 BYTE   W03
 BYTE   VOL   100*elegy_of_battle_mvl/mxv
 BYTE   W01
 BYTE   VOL   89*elegy_of_battle_mvl/mxv
 BYTE   W02
 BYTE   VOL   74*elegy_of_battle_mvl/mxv
 BYTE   W01
 BYTE   VOL   60*elegy_of_battle_mvl/mxv
 BYTE   W02
 BYTE   VOL   45*elegy_of_battle_mvl/mxv
 BYTE   W01
 BYTE   VOL   42*elegy_of_battle_mvl/mxv
 BYTE   W02
 BYTE   VOL   40*elegy_of_battle_mvl/mxv
 BYTE   N48  Fs4
 BYTE   W01
 BYTE   VOL   40*elegy_of_battle_mvl/mxv
 BYTE   W02
 BYTE   VOL   44*elegy_of_battle_mvl/mxv
 BYTE   W01
 BYTE   VOL   54*elegy_of_battle_mvl/mxv
 BYTE   W02
 BYTE   VOL   68*elegy_of_battle_mvl/mxv
 BYTE   W01
 BYTE   VOL   76*elegy_of_battle_mvl/mxv
 BYTE   W02
 BYTE   VOL   76*elegy_of_battle_mvl/mxv
 BYTE   W01
 BYTE   VOL   79*elegy_of_battle_mvl/mxv
 BYTE   W02
 BYTE   VOL   79*elegy_of_battle_mvl/mxv
 BYTE   W01
 BYTE   VOL   83*elegy_of_battle_mvl/mxv
 BYTE   W02
 BYTE   VOL   87*elegy_of_battle_mvl/mxv
 BYTE   W01
 BYTE   VOL   91*elegy_of_battle_mvl/mxv
 BYTE   W02
 BYTE   VOL   92*elegy_of_battle_mvl/mxv
 BYTE   W01
 BYTE   VOL   98*elegy_of_battle_mvl/mxv
 BYTE   W02
 BYTE   VOL   100*elegy_of_battle_mvl/mxv
 BYTE   W01
 BYTE   VOL   98*elegy_of_battle_mvl/mxv
 BYTE   W02
 BYTE   VOL   92*elegy_of_battle_mvl/mxv
 BYTE   W01
 BYTE   VOL   92*elegy_of_battle_mvl/mxv
 BYTE   W02
 BYTE   VOL   89*elegy_of_battle_mvl/mxv
 BYTE   W01
 BYTE   VOL   85*elegy_of_battle_mvl/mxv
 BYTE   W02
 BYTE   VOL   85*elegy_of_battle_mvl/mxv
 BYTE   W01
 BYTE   VOL   79*elegy_of_battle_mvl/mxv
 BYTE   W02
 BYTE   VOL   71*elegy_of_battle_mvl/mxv
 BYTE   W01
 BYTE   VOL   68*elegy_of_battle_mvl/mxv
 BYTE   W02
 BYTE   VOL   55*elegy_of_battle_mvl/mxv
 BYTE   W01
 BYTE   VOL   51*elegy_of_battle_mvl/mxv
 BYTE   W01
 BYTE   VOL   47*elegy_of_battle_mvl/mxv
 BYTE   W01
 BYTE   VOL   36*elegy_of_battle_mvl/mxv
 BYTE   W01
 BYTE   VOL   36*elegy_of_battle_mvl/mxv
 BYTE   W02
 BYTE   VOL   29*elegy_of_battle_mvl/mxv
 BYTE   W01
 BYTE   VOL   27*elegy_of_battle_mvl/mxv
 BYTE   W02
 BYTE   VOL   24*elegy_of_battle_mvl/mxv
 BYTE   W01
 BYTE   VOL   22*elegy_of_battle_mvl/mxv
 BYTE   W02
 BYTE   PEND 
//  #03 //020   ----------------------------------------
Label_01027898:
 BYTE   VOL   18*elegy_of_battle_mvl/mxv
 BYTE   N96  Gn4  v044
 BYTE   W02
 BYTE   VOL   17*elegy_of_battle_mvl/mxv
 BYTE   W01
 BYTE   VOL   17*elegy_of_battle_mvl/mxv
 BYTE   W02
 BYTE   VOL   19*elegy_of_battle_mvl/mxv
 BYTE   W01
 BYTE   VOL   23*elegy_of_battle_mvl/mxv
 BYTE   W02
 BYTE   VOL   26*elegy_of_battle_mvl/mxv
 BYTE   W01
 BYTE   VOL   26*elegy_of_battle_mvl/mxv
 BYTE   W02
 BYTE   VOL   27*elegy_of_battle_mvl/mxv
 BYTE   W01
 BYTE   VOL   29*elegy_of_battle_mvl/mxv
 BYTE   W02
 BYTE   VOL   30*elegy_of_battle_mvl/mxv
 BYTE   W01
 BYTE   VOL   33*elegy_of_battle_mvl/mxv
 BYTE   W02
 BYTE   VOL   37*elegy_of_battle_mvl/mxv
 BYTE   W01
 BYTE   VOL   39*elegy_of_battle_mvl/mxv
 BYTE   W02
 BYTE   VOL   49*elegy_of_battle_mvl/mxv
 BYTE   W01
 BYTE   VOL   49*elegy_of_battle_mvl/mxv
 BYTE   W02
 BYTE   VOL   54*elegy_of_battle_mvl/mxv
 BYTE   W01
 BYTE   VOL   59*elegy_of_battle_mvl/mxv
 BYTE   W02
 BYTE   VOL   64*elegy_of_battle_mvl/mxv
 BYTE   W01
 BYTE   VOL   70*elegy_of_battle_mvl/mxv
 BYTE   W02
 BYTE   VOL   79*elegy_of_battle_mvl/mxv
 BYTE   W01
 BYTE   VOL   92*elegy_of_battle_mvl/mxv
 BYTE   W01
 BYTE   VOL   92*elegy_of_battle_mvl/mxv
 BYTE   W02
 BYTE   VOL   100*elegy_of_battle_mvl/mxv
 BYTE   W01
 BYTE   VOL   100*elegy_of_battle_mvl/mxv
 BYTE   W02
 BYTE   VOL   100*elegy_of_battle_mvl/mxv
 BYTE   W01
 BYTE   VOL   100*elegy_of_battle_mvl/mxv
 BYTE   W02
 BYTE   VOL   100*elegy_of_battle_mvl/mxv
 BYTE   W02
 BYTE   VOL   100*elegy_of_battle_mvl/mxv
 BYTE   W01
 BYTE   VOL   100*elegy_of_battle_mvl/mxv
 BYTE   W02
 BYTE   VOL   100*elegy_of_battle_mvl/mxv
 BYTE   W01
 BYTE   VOL   100*elegy_of_battle_mvl/mxv
 BYTE   W03
 BYTE   VOL   100*elegy_of_battle_mvl/mxv
 BYTE   W03
 BYTE   VOL   98*elegy_of_battle_mvl/mxv
 BYTE   W02
 BYTE   VOL   100*elegy_of_battle_mvl/mxv
 BYTE   W01
 BYTE   VOL   94*elegy_of_battle_mvl/mxv
 BYTE   W02
 BYTE   VOL   91*elegy_of_battle_mvl/mxv
 BYTE   W01
 BYTE   VOL   83*elegy_of_battle_mvl/mxv
 BYTE   W02
 BYTE   VOL   79*elegy_of_battle_mvl/mxv
 BYTE   W01
 BYTE   VOL   74*elegy_of_battle_mvl/mxv
 BYTE   W02
 BYTE   VOL   71*elegy_of_battle_mvl/mxv
 BYTE   W02
 BYTE   VOL   71*elegy_of_battle_mvl/mxv
 BYTE   W02
 BYTE   VOL   71*elegy_of_battle_mvl/mxv
 BYTE   W02
 BYTE   VOL   68*elegy_of_battle_mvl/mxv
 BYTE   W01
 BYTE   VOL   62*elegy_of_battle_mvl/mxv
 BYTE   W02
 BYTE   VOL   60*elegy_of_battle_mvl/mxv
 BYTE   W01
 BYTE   VOL   55*elegy_of_battle_mvl/mxv
 BYTE   W02
 BYTE   VOL   50*elegy_of_battle_mvl/mxv
 BYTE   W01
 BYTE   VOL   45*elegy_of_battle_mvl/mxv
 BYTE   W02
 BYTE   VOL   42*elegy_of_battle_mvl/mxv
 BYTE   W01
 BYTE   VOL   37*elegy_of_battle_mvl/mxv
 BYTE   W02
 BYTE   VOL   36*elegy_of_battle_mvl/mxv
 BYTE   W01
 BYTE   VOL   29*elegy_of_battle_mvl/mxv
 BYTE   W02
 BYTE   VOL   25*elegy_of_battle_mvl/mxv
 BYTE   W01
 BYTE   VOL   22*elegy_of_battle_mvl/mxv
 BYTE   W02
 BYTE   VOL   20*elegy_of_battle_mvl/mxv
 BYTE   W01
 BYTE   VOL   18*elegy_of_battle_mvl/mxv
 BYTE   W01
 BYTE   VOL   18*elegy_of_battle_mvl/mxv
 BYTE   W02
 BYTE   VOL   14*elegy_of_battle_mvl/mxv
 BYTE   W02
 BYTE   VOL   14*elegy_of_battle_mvl/mxv
 BYTE   W01
 BYTE   VOL   12*elegy_of_battle_mvl/mxv
 BYTE   W02
 BYTE   VOL   11*elegy_of_battle_mvl/mxv
 BYTE   W01
 BYTE   PEND 
//  #03 //021   ----------------------------------------
Label_01027918:
 BYTE   VOL   11*elegy_of_battle_mvl/mxv
 BYTE   N96  Gn4  v044
 BYTE   W02
 BYTE   VOL   12*elegy_of_battle_mvl/mxv
 BYTE   W01
 BYTE   VOL   13*elegy_of_battle_mvl/mxv
 BYTE   W02
 BYTE   VOL   18*elegy_of_battle_mvl/mxv
 BYTE   W01
 BYTE   VOL   19*elegy_of_battle_mvl/mxv
 BYTE   W01
 BYTE   VOL   22*elegy_of_battle_mvl/mxv
 BYTE   W01
 BYTE   VOL   23*elegy_of_battle_mvl/mxv
 BYTE   W01
 BYTE   VOL   26*elegy_of_battle_mvl/mxv
 BYTE   W03
 BYTE   VOL   30*elegy_of_battle_mvl/mxv
 BYTE   W01
 BYTE   VOL   35*elegy_of_battle_mvl/mxv
 BYTE   W02
 BYTE   VOL   39*elegy_of_battle_mvl/mxv
 BYTE   W01
 BYTE   VOL   44*elegy_of_battle_mvl/mxv
 BYTE   W02
 BYTE   VOL   49*elegy_of_battle_mvl/mxv
 BYTE   W01
 BYTE   VOL   51*elegy_of_battle_mvl/mxv
 BYTE   W02
 BYTE   VOL   59*elegy_of_battle_mvl/mxv
 BYTE   W01
 BYTE   VOL   62*elegy_of_battle_mvl/mxv
 BYTE   W02
 BYTE   VOL   68*elegy_of_battle_mvl/mxv
 BYTE   W01
 BYTE   VOL   70*elegy_of_battle_mvl/mxv
 BYTE   W01
 BYTE   VOL   70*elegy_of_battle_mvl/mxv
 BYTE   W02
 BYTE   VOL   76*elegy_of_battle_mvl/mxv
 BYTE   W02
 BYTE   VOL   79*elegy_of_battle_mvl/mxv
 BYTE   W01
 BYTE   VOL   82*elegy_of_battle_mvl/mxv
 BYTE   W02
 BYTE   VOL   85*elegy_of_battle_mvl/mxv
 BYTE   W01
 BYTE   VOL   88*elegy_of_battle_mvl/mxv
 BYTE   W02
 BYTE   VOL   94*elegy_of_battle_mvl/mxv
 BYTE   W03
 BYTE   VOL   100*elegy_of_battle_mvl/mxv
 BYTE   W03
 BYTE   VOL   100*elegy_of_battle_mvl/mxv
 BYTE   W03
 BYTE   VOL   100*elegy_of_battle_mvl/mxv
 BYTE   W01
 BYTE   VOL   100*elegy_of_battle_mvl/mxv
 BYTE   W02
 BYTE   VOL   100*elegy_of_battle_mvl/mxv
 BYTE   W01
 BYTE   VOL   100*elegy_of_battle_mvl/mxv
 BYTE   W02
 BYTE   VOL   100*elegy_of_battle_mvl/mxv
 BYTE   W03
 BYTE   VOL   100*elegy_of_battle_mvl/mxv
 BYTE   W03
 BYTE   VOL   98*elegy_of_battle_mvl/mxv
 BYTE   W01
 BYTE   VOL   100*elegy_of_battle_mvl/mxv
 BYTE   W02
 BYTE   VOL   94*elegy_of_battle_mvl/mxv
 BYTE   W01
 BYTE   VOL   91*elegy_of_battle_mvl/mxv
 BYTE   W02
 BYTE   VOL   83*elegy_of_battle_mvl/mxv
 BYTE   W01
 BYTE   VOL   76*elegy_of_battle_mvl/mxv
 BYTE   W02
 BYTE   VOL   59*elegy_of_battle_mvl/mxv
 BYTE   W01
 BYTE   VOL   59*elegy_of_battle_mvl/mxv
 BYTE   W02
 BYTE   VOL   49*elegy_of_battle_mvl/mxv
 BYTE   W03
 BYTE   VOL   39*elegy_of_battle_mvl/mxv
 BYTE   W01
 BYTE   VOL   36*elegy_of_battle_mvl/mxv
 BYTE   W02
 BYTE   VOL   35*elegy_of_battle_mvl/mxv
 BYTE   W01
 BYTE   VOL   30*elegy_of_battle_mvl/mxv
 BYTE   W02
 BYTE   VOL   24*elegy_of_battle_mvl/mxv
 BYTE   W01
 BYTE   VOL   23*elegy_of_battle_mvl/mxv
 BYTE   W02
 BYTE   VOL   17*elegy_of_battle_mvl/mxv
 BYTE   W01
 BYTE   VOL   14*elegy_of_battle_mvl/mxv
 BYTE   W02
 BYTE   VOL   11*elegy_of_battle_mvl/mxv
 BYTE   W01
 BYTE   VOL   7*elegy_of_battle_mvl/mxv
 BYTE   W02
 BYTE   VOL   5*elegy_of_battle_mvl/mxv
 BYTE   W01
 BYTE   VOL   2*elegy_of_battle_mvl/mxv
 BYTE   W02
 BYTE   VOL   0*elegy_of_battle_mvl/mxv
 BYTE   W06
 BYTE   PEND 
//  #03 //022   ----------------------------------------
 BYTE   VOICE   40
 BYTE   PAN   c_v+21
 BYTE   VOL   0*elegy_of_battle_mvl/mxv
 BYTE   N96  As3
 BYTE   W01
 BYTE   VOL   0*elegy_of_battle_mvl/mxv
 BYTE   W02
 BYTE   VOL   1*elegy_of_battle_mvl/mxv
 BYTE   W01
 BYTE   VOL   2*elegy_of_battle_mvl/mxv
 BYTE   W02
 BYTE   VOL   3*elegy_of_battle_mvl/mxv
 BYTE   W01
 BYTE   VOL   6*elegy_of_battle_mvl/mxv
 BYTE   W02
 BYTE   VOL   7*elegy_of_battle_mvl/mxv
 BYTE   W01
 BYTE   VOL   10*elegy_of_battle_mvl/mxv
 BYTE   W02
 BYTE   VOL   13*elegy_of_battle_mvl/mxv
 BYTE   W01
 BYTE   VOL   16*elegy_of_battle_mvl/mxv
 BYTE   W02
 BYTE   VOL   19*elegy_of_battle_mvl/mxv
 BYTE   W01
 BYTE   VOL   24*elegy_of_battle_mvl/mxv
 BYTE   W02
 BYTE   VOL   36*elegy_of_battle_mvl/mxv
 BYTE   W01
 BYTE   VOL   54*elegy_of_battle_mvl/mxv
 BYTE   W02
 BYTE   VOL   76*elegy_of_battle_mvl/mxv
 BYTE   W01
 BYTE   VOL   96*elegy_of_battle_mvl/mxv
 BYTE   W02
 BYTE   VOL   100*elegy_of_battle_mvl/mxv
 BYTE   W01
 BYTE   VOL   100*elegy_of_battle_mvl/mxv
 BYTE   W03
 BYTE   VOL   100*elegy_of_battle_mvl/mxv
 BYTE   W02
 BYTE   VOL   100*elegy_of_battle_mvl/mxv
 BYTE   W01
 BYTE   VOL   100*elegy_of_battle_mvl/mxv
 BYTE   W02
 BYTE   VOL   100*elegy_of_battle_mvl/mxv
 BYTE   W01
 BYTE   VOL   100*elegy_of_battle_mvl/mxv
 BYTE   W02
 BYTE   VOL   100*elegy_of_battle_mvl/mxv
 BYTE   W03
 BYTE   VOL   100*elegy_of_battle_mvl/mxv
 BYTE   W03
 BYTE   VOL   100*elegy_of_battle_mvl/mxv
 BYTE   W03
 BYTE   VOL   100*elegy_of_battle_mvl/mxv
 BYTE   W01
 BYTE   VOL   100*elegy_of_battle_mvl/mxv
 BYTE   W02
 BYTE   VOL   100*elegy_of_battle_mvl/mxv
 BYTE   W01
 BYTE   VOL   100*elegy_of_battle_mvl/mxv
 BYTE   W02
 BYTE   VOL   100*elegy_of_battle_mvl/mxv
 BYTE   W03
 BYTE   VOL   100*elegy_of_battle_mvl/mxv
 BYTE   W03
 BYTE   VOL   98*elegy_of_battle_mvl/mxv
 BYTE   W01
 BYTE   VOL   100*elegy_of_battle_mvl/mxv
 BYTE   W02
 BYTE   VOL   94*elegy_of_battle_mvl/mxv
 BYTE   W01
 BYTE   VOL   91*elegy_of_battle_mvl/mxv
 BYTE   W02
 BYTE   VOL   83*elegy_of_battle_mvl/mxv
 BYTE   W01
 BYTE   VOL   76*elegy_of_battle_mvl/mxv
 BYTE   W02
 BYTE   VOL   59*elegy_of_battle_mvl/mxv
 BYTE   W01
 BYTE   VOL   59*elegy_of_battle_mvl/mxv
 BYTE   W02
 BYTE   VOL   49*elegy_of_battle_mvl/mxv
 BYTE   W03
 BYTE   VOL   39*elegy_of_battle_mvl/mxv
 BYTE   W01
 BYTE   VOL   36*elegy_of_battle_mvl/mxv
 BYTE   W02
 BYTE   VOL   35*elegy_of_battle_mvl/mxv
 BYTE   W01
 BYTE   VOL   30*elegy_of_battle_mvl/mxv
 BYTE   W02
 BYTE   VOL   24*elegy_of_battle_mvl/mxv
 BYTE   W01
 BYTE   VOL   23*elegy_of_battle_mvl/mxv
 BYTE   W02
 BYTE   VOL   17*elegy_of_battle_mvl/mxv
 BYTE   W01
 BYTE   VOL   14*elegy_of_battle_mvl/mxv
 BYTE   W02
 BYTE   VOL   11*elegy_of_battle_mvl/mxv
 BYTE   W01
 BYTE   VOL   7*elegy_of_battle_mvl/mxv
 BYTE   W02
 BYTE   VOL   5*elegy_of_battle_mvl/mxv
 BYTE   W01
 BYTE   VOL   2*elegy_of_battle_mvl/mxv
 BYTE   W02
 BYTE   VOL   0*elegy_of_battle_mvl/mxv
 BYTE   W01
 BYTE   VOL   0*elegy_of_battle_mvl/mxv
 BYTE   W02
 BYTE   VOL   0*elegy_of_battle_mvl/mxv
 BYTE   W01
 BYTE   VOL   0*elegy_of_battle_mvl/mxv
 BYTE   W02
//  #03 //023   ----------------------------------------
 BYTE   PATT
  POIN2 Label_01027151
//  #03 //024   ----------------------------------------
 BYTE   PATT
  POIN2 Label_010271C9
//  #03 //025   ----------------------------------------
 BYTE   PATT
  POIN2 Label_010271C9
//  #03 //026   ----------------------------------------
 BYTE   PATT
  POIN2 Label_01027246
//  #03 //027   ----------------------------------------
 BYTE   PATT
  POIN2 Label_010272C1
//  #03 //028   ----------------------------------------
 BYTE   PATT
  POIN2 Label_01027349
//  #03 //029   ----------------------------------------
 BYTE   PATT
  POIN2 Label_010273C5
//  #03 //030   ----------------------------------------
 BYTE   PATT
  POIN2 Label_0102743D
//  #03 //031   ----------------------------------------
 BYTE   PATT
  POIN2 Label_010274B5
//  #03 //032   ----------------------------------------
 BYTE   PATT
  POIN2 Label_01027525
//  #03 //033   ----------------------------------------
 BYTE   PATT
  POIN2 Label_0102759D
//  #03 //034   ----------------------------------------
 BYTE   PATT
  POIN2 Label_0102759D
//  #03 //035   ----------------------------------------
 BYTE   PATT
  POIN2 Label_010271C9
//  #03 //036   ----------------------------------------
 BYTE   PATT
  POIN2 Label_0102761F
//  #03 //037   ----------------------------------------
 BYTE   PATT
  POIN2 Label_0102768C
//  #03 //038   ----------------------------------------
 BYTE   PATT
  POIN2 Label_01027712
//  #03 //039   ----------------------------------------
 BYTE   PATT
  POIN2 Label_01027712
//  #03 //040   ----------------------------------------
 BYTE   PATT
  POIN2 Label_01027793
//  #03 //041   ----------------------------------------
 BYTE   PATT
  POIN2 Label_01027813
//  #03 //042   ----------------------------------------
 BYTE   PATT
  POIN2 Label_01027898
//  #03 //043   ----------------------------------------
 BYTE   PATT
  POIN2 Label_01027918
//  #03 //044   ----------------------------------------
 BYTE   VOICE   40
 BYTE   PAN   c_v+21
 BYTE   VOL   12*elegy_of_battle_mvl/mxv
 BYTE   TIE  Gn3  v044
 BYTE   W01
 BYTE   VOL   12*elegy_of_battle_mvl/mxv
 BYTE   W02
 BYTE   VOL   14*elegy_of_battle_mvl/mxv
 BYTE   W01
 BYTE   VOL   14*elegy_of_battle_mvl/mxv
 BYTE   W02
 BYTE   VOL   14*elegy_of_battle_mvl/mxv
 BYTE   W01
 BYTE   VOL   18*elegy_of_battle_mvl/mxv
 BYTE   W02
 BYTE   VOL   20*elegy_of_battle_mvl/mxv
 BYTE   W01
 BYTE   VOL   20*elegy_of_battle_mvl/mxv
 BYTE   W02
 BYTE   VOL   24*elegy_of_battle_mvl/mxv
 BYTE   W01
 BYTE   VOL   27*elegy_of_battle_mvl/mxv
 BYTE   W02
 BYTE   VOL   29*elegy_of_battle_mvl/mxv
 BYTE   W01
 BYTE   VOL   32*elegy_of_battle_mvl/mxv
 BYTE   W02
 BYTE   VOL   33*elegy_of_battle_mvl/mxv
 BYTE   W01
 BYTE   VOL   37*elegy_of_battle_mvl/mxv
 BYTE   W02
 BYTE   VOL   42*elegy_of_battle_mvl/mxv
 BYTE   W01
 BYTE   VOL   45*elegy_of_battle_mvl/mxv
 BYTE   W02
 BYTE   VOL   47*elegy_of_battle_mvl/mxv
 BYTE   W01
 BYTE   VOL   50*elegy_of_battle_mvl/mxv
 BYTE   W03
 BYTE   VOL   55*elegy_of_battle_mvl/mxv
 BYTE   W02
 BYTE   VOL   55*elegy_of_battle_mvl/mxv
 BYTE   W01
 BYTE   VOL   57*elegy_of_battle_mvl/mxv
 BYTE   W02
 BYTE   VOL   57*elegy_of_battle_mvl/mxv
 BYTE   W01
 BYTE   VOL   57*elegy_of_battle_mvl/mxv
 BYTE   W02
 BYTE   VOL   57*elegy_of_battle_mvl/mxv
 BYTE   W03
 BYTE   VOL   57*elegy_of_battle_mvl/mxv
 BYTE   W03
 BYTE   VOL   60*elegy_of_battle_mvl/mxv
 BYTE   W03
 BYTE   VOL   62*elegy_of_battle_mvl/mxv
 BYTE   W01
 BYTE   VOL   62*elegy_of_battle_mvl/mxv
 BYTE   W02
 BYTE   VOL   66*elegy_of_battle_mvl/mxv
 BYTE   W01
 BYTE   VOL   66*elegy_of_battle_mvl/mxv
 BYTE   W02
 BYTE   VOL   66*elegy_of_battle_mvl/mxv
 BYTE   W03
 BYTE   VOL   68*elegy_of_battle_mvl/mxv
 BYTE   W03
 BYTE   VOL   68*elegy_of_battle_mvl/mxv
 BYTE   W01
 BYTE   VOL   68*elegy_of_battle_mvl/mxv
 BYTE   W02
 BYTE   VOL   68*elegy_of_battle_mvl/mxv
 BYTE   W01
 BYTE   VOL   68*elegy_of_battle_mvl/mxv
 BYTE   W02
 BYTE   VOL   68*elegy_of_battle_mvl/mxv
 BYTE   W01
 BYTE   VOL   71*elegy_of_battle_mvl/mxv
 BYTE   W02
 BYTE   VOL   71*elegy_of_battle_mvl/mxv
 BYTE   W01
 BYTE   VOL   71*elegy_of_battle_mvl/mxv
 BYTE   W02
 BYTE   VOL   71*elegy_of_battle_mvl/mxv
 BYTE   W03
 BYTE   VOL   71*elegy_of_battle_mvl/mxv
 BYTE   W01
 BYTE   VOL   71*elegy_of_battle_mvl/mxv
 BYTE   W02
 BYTE   VOL   74*elegy_of_battle_mvl/mxv
 BYTE   W01
 BYTE   VOL   74*elegy_of_battle_mvl/mxv
 BYTE   W02
 BYTE   VOL   74*elegy_of_battle_mvl/mxv
 BYTE   W01
 BYTE   VOL   74*elegy_of_battle_mvl/mxv
 BYTE   W02
 BYTE   VOL   74*elegy_of_battle_mvl/mxv
 BYTE   W01
 BYTE   VOL   74*elegy_of_battle_mvl/mxv
 BYTE   W02
 BYTE   VOL   74*elegy_of_battle_mvl/mxv
 BYTE   W01
 BYTE   VOL   74*elegy_of_battle_mvl/mxv
 BYTE   W02
 BYTE   VOL   74*elegy_of_battle_mvl/mxv
 BYTE   W01
 BYTE   VOL   74*elegy_of_battle_mvl/mxv
 BYTE   W02
 BYTE   VOL   74*elegy_of_battle_mvl/mxv
 BYTE   W01
 BYTE   VOL   74*elegy_of_battle_mvl/mxv
 BYTE   W02
 BYTE   VOL   71*elegy_of_battle_mvl/mxv
 BYTE   W01
 BYTE   VOL   71*elegy_of_battle_mvl/mxv
 BYTE   W01
 BYTE   VOL   70*elegy_of_battle_mvl/mxv
 BYTE   W01
//  #03 //045   ----------------------------------------
 BYTE   VOL   70*elegy_of_battle_mvl/mxv
 BYTE   W01
 BYTE   VOL   66*elegy_of_battle_mvl/mxv
 BYTE   W01
 BYTE   VOL   66*elegy_of_battle_mvl/mxv
 BYTE   W01
 BYTE   VOL   64*elegy_of_battle_mvl/mxv
 BYTE   W01
 BYTE   VOL   60*elegy_of_battle_mvl/mxv
 BYTE   W01
 BYTE   VOL   60*elegy_of_battle_mvl/mxv
 BYTE   W01
 BYTE   VOL   59*elegy_of_battle_mvl/mxv
 BYTE   W01
 BYTE   VOL   59*elegy_of_battle_mvl/mxv
 BYTE   W01
 BYTE   VOL   55*elegy_of_battle_mvl/mxv
 BYTE   W01
 BYTE   VOL   54*elegy_of_battle_mvl/mxv
 BYTE   W01
 BYTE   VOL   54*elegy_of_battle_mvl/mxv
 BYTE   W01
 BYTE   VOL   50*elegy_of_battle_mvl/mxv
 BYTE   W01
 BYTE   VOL   50*elegy_of_battle_mvl/mxv
 BYTE   W01
 BYTE   VOL   49*elegy_of_battle_mvl/mxv
 BYTE   W01
 BYTE   VOL   49*elegy_of_battle_mvl/mxv
 BYTE   W01
 BYTE   VOL   45*elegy_of_battle_mvl/mxv
 BYTE   W01
 BYTE   VOL   45*elegy_of_battle_mvl/mxv
 BYTE   W01
 BYTE   VOL   45*elegy_of_battle_mvl/mxv
 BYTE   W01
 BYTE   VOL   44*elegy_of_battle_mvl/mxv
 BYTE   W01
 BYTE   VOL   44*elegy_of_battle_mvl/mxv
 BYTE   W01
 BYTE   VOL   40*elegy_of_battle_mvl/mxv
 BYTE   W01
 BYTE   VOL   40*elegy_of_battle_mvl/mxv
 BYTE   W01
 BYTE   VOL   40*elegy_of_battle_mvl/mxv
 BYTE   W01
 BYTE   VOL   40*elegy_of_battle_mvl/mxv
 BYTE   W01
 BYTE   VOL   39*elegy_of_battle_mvl/mxv
 BYTE   W01
 BYTE   VOL   36*elegy_of_battle_mvl/mxv
 BYTE   W01
 BYTE   VOL   36*elegy_of_battle_mvl/mxv
 BYTE   W01
 BYTE   VOL   36*elegy_of_battle_mvl/mxv
 BYTE   W01
 BYTE   VOL   35*elegy_of_battle_mvl/mxv
 BYTE   W01
 BYTE   VOL   35*elegy_of_battle_mvl/mxv
 BYTE   W01
 BYTE   VOL   32*elegy_of_battle_mvl/mxv
 BYTE   W01
 BYTE   VOL   30*elegy_of_battle_mvl/mxv
 BYTE   W01
 BYTE   VOL   27*elegy_of_battle_mvl/mxv
 BYTE   W01
 BYTE   VOL   26*elegy_of_battle_mvl/mxv
 BYTE   W01
 BYTE   VOL   26*elegy_of_battle_mvl/mxv
 BYTE   W01
 BYTE   VOL   26*elegy_of_battle_mvl/mxv
 BYTE   W01
 BYTE   VOL   24*elegy_of_battle_mvl/mxv
 BYTE   W01
 BYTE   VOL   24*elegy_of_battle_mvl/mxv
 BYTE   W01
 BYTE   VOL   23*elegy_of_battle_mvl/mxv
 BYTE   W01
 BYTE   VOL   20*elegy_of_battle_mvl/mxv
 BYTE   W01
 BYTE   VOL   20*elegy_of_battle_mvl/mxv
 BYTE   W01
 BYTE   VOL   19*elegy_of_battle_mvl/mxv
 BYTE   W01
 BYTE   VOL   19*elegy_of_battle_mvl/mxv
 BYTE   W01
 BYTE   VOL   17*elegy_of_battle_mvl/mxv
 BYTE   W01
 BYTE   VOL   17*elegy_of_battle_mvl/mxv
 BYTE   W01
 BYTE   VOL   16*elegy_of_battle_mvl/mxv
 BYTE   W01
 BYTE   VOL   16*elegy_of_battle_mvl/mxv
 BYTE   W02
 BYTE   VOL   13*elegy_of_battle_mvl/mxv
 BYTE   W01
 BYTE   VOL   13*elegy_of_battle_mvl/mxv
 BYTE   W01
 BYTE   VOL   11*elegy_of_battle_mvl/mxv
 BYTE   W01
 BYTE   VOL   11*elegy_of_battle_mvl/mxv
 BYTE   W01
 BYTE   VOL   10*elegy_of_battle_mvl/mxv
 BYTE   W01
 BYTE   VOL   10*elegy_of_battle_mvl/mxv
 BYTE   W01
 BYTE   VOL   8*elegy_of_battle_mvl/mxv
 BYTE   W01
 BYTE   VOL   8*elegy_of_battle_mvl/mxv
 BYTE   W01
 BYTE   VOL   7*elegy_of_battle_mvl/mxv
 BYTE   W01
 BYTE   VOL   6*elegy_of_battle_mvl/mxv
 BYTE   W01
 BYTE   VOL   6*elegy_of_battle_mvl/mxv
 BYTE   W01
 BYTE   VOL   5*elegy_of_battle_mvl/mxv
 BYTE   W01
 BYTE   VOL   3*elegy_of_battle_mvl/mxv
 BYTE   W05
 BYTE   VOL   2*elegy_of_battle_mvl/mxv
 BYTE   W01
 BYTE   VOL   1*elegy_of_battle_mvl/mxv
 BYTE   W03
 BYTE   VOL   0*elegy_of_battle_mvl/mxv
 BYTE   W03
 BYTE   VOL   0*elegy_of_battle_mvl/mxv
 BYTE   W05
 BYTE   VOL   0*elegy_of_battle_mvl/mxv
 BYTE   W04
 BYTE   VOL   0*elegy_of_battle_mvl/mxv
 BYTE   W06
 BYTE   VOL   0*elegy_of_battle_mvl/mxv
 BYTE   W03
 BYTE   VOL   0*elegy_of_battle_mvl/mxv
 BYTE   W03
 BYTE   VOL   0*elegy_of_battle_mvl/mxv
 BYTE   W01
 BYTE   VOL   0*elegy_of_battle_mvl/mxv
 BYTE   W02
//  #03 //046   ----------------------------------------
 BYTE   EOT
 BYTE   GoTo
  POIN2 Label_010270D2
 BYTE   FINE

//**************** Track 4 (Midi-Chn.3) ****************//

elegy_of_battle_004:
//  #04 //000   ----------------------------------------
 BYTE   KEYSH   elegy_of_battle_key+0
Label_0101FEFA:
 BYTE   VOICE   41
 BYTE   MODT 0
 BYTE   LFOS 44
 BYTE   VOL   0*elegy_of_battle_mvl/mxv
 BYTE   N96  As2  v044
 BYTE   W01
 BYTE   VOL   0*elegy_of_battle_mvl/mxv
 BYTE   W02
 BYTE   VOL   1*elegy_of_battle_mvl/mxv
 BYTE   W01
 BYTE   VOL   2*elegy_of_battle_mvl/mxv
 BYTE   W02
 BYTE   VOL   3*elegy_of_battle_mvl/mxv
 BYTE   W01
 BYTE   VOL   6*elegy_of_battle_mvl/mxv
 BYTE   W02
 BYTE   VOL   7*elegy_of_battle_mvl/mxv
 BYTE   W01
 BYTE   VOL   10*elegy_of_battle_mvl/mxv
 BYTE   W02
 BYTE   VOL   13*elegy_of_battle_mvl/mxv
 BYTE   W01
 BYTE   VOL   16*elegy_of_battle_mvl/mxv
 BYTE   W02
 BYTE   VOL   19*elegy_of_battle_mvl/mxv
 BYTE   W01
 BYTE   VOL   24*elegy_of_battle_mvl/mxv
 BYTE   W02
 BYTE   VOL   36*elegy_of_battle_mvl/mxv
 BYTE   W01
 BYTE   VOL   54*elegy_of_battle_mvl/mxv
 BYTE   W02
 BYTE   VOL   76*elegy_of_battle_mvl/mxv
 BYTE   W01
 BYTE   VOL   96*elegy_of_battle_mvl/mxv
 BYTE   W02
 BYTE   VOL   100*elegy_of_battle_mvl/mxv
 BYTE   W01
 BYTE   VOL   100*elegy_of_battle_mvl/mxv
 BYTE   W03
 BYTE   VOL   100*elegy_of_battle_mvl/mxv
 BYTE   W02
 BYTE   VOL   100*elegy_of_battle_mvl/mxv
 BYTE   W01
 BYTE   VOL   100*elegy_of_battle_mvl/mxv
 BYTE   W02
 BYTE   VOL   100*elegy_of_battle_mvl/mxv
 BYTE   W01
 BYTE   VOL   100*elegy_of_battle_mvl/mxv
 BYTE   W02
 BYTE   VOL   100*elegy_of_battle_mvl/mxv
 BYTE   W03
 BYTE   VOL   100*elegy_of_battle_mvl/mxv
 BYTE   W03
 BYTE   VOL   100*elegy_of_battle_mvl/mxv
 BYTE   W03
 BYTE   VOL   100*elegy_of_battle_mvl/mxv
 BYTE   W01
 BYTE   VOL   100*elegy_of_battle_mvl/mxv
 BYTE   W02
 BYTE   VOL   100*elegy_of_battle_mvl/mxv
 BYTE   W01
 BYTE   VOL   100*elegy_of_battle_mvl/mxv
 BYTE   W02
 BYTE   VOL   100*elegy_of_battle_mvl/mxv
 BYTE   W03
 BYTE   VOL   100*elegy_of_battle_mvl/mxv
 BYTE   W03
 BYTE   VOL   98*elegy_of_battle_mvl/mxv
 BYTE   W01
 BYTE   VOL   100*elegy_of_battle_mvl/mxv
 BYTE   W02
 BYTE   VOL   94*elegy_of_battle_mvl/mxv
 BYTE   W01
 BYTE   VOL   91*elegy_of_battle_mvl/mxv
 BYTE   W02
 BYTE   VOL   83*elegy_of_battle_mvl/mxv
 BYTE   W01
 BYTE   VOL   76*elegy_of_battle_mvl/mxv
 BYTE   W02
 BYTE   VOL   59*elegy_of_battle_mvl/mxv
 BYTE   W01
 BYTE   VOL   59*elegy_of_battle_mvl/mxv
 BYTE   W02
 BYTE   VOL   49*elegy_of_battle_mvl/mxv
 BYTE   W03
 BYTE   VOL   39*elegy_of_battle_mvl/mxv
 BYTE   W01
 BYTE   VOL   36*elegy_of_battle_mvl/mxv
 BYTE   W02
 BYTE   VOL   35*elegy_of_battle_mvl/mxv
 BYTE   W01
 BYTE   VOL   30*elegy_of_battle_mvl/mxv
 BYTE   W02
 BYTE   VOL   24*elegy_of_battle_mvl/mxv
 BYTE   W01
 BYTE   VOL   23*elegy_of_battle_mvl/mxv
 BYTE   W02
 BYTE   VOL   17*elegy_of_battle_mvl/mxv
 BYTE   W01
 BYTE   VOL   14*elegy_of_battle_mvl/mxv
 BYTE   W02
 BYTE   VOL   11*elegy_of_battle_mvl/mxv
 BYTE   W01
 BYTE   VOL   7*elegy_of_battle_mvl/mxv
 BYTE   W02
 BYTE   VOL   5*elegy_of_battle_mvl/mxv
 BYTE   W01
 BYTE   VOL   2*elegy_of_battle_mvl/mxv
 BYTE   W02
 BYTE   VOL   0*elegy_of_battle_mvl/mxv
 BYTE   W01
 BYTE   VOL   0*elegy_of_battle_mvl/mxv
 BYTE   W02
 BYTE   VOL   0*elegy_of_battle_mvl/mxv
 BYTE   W01
 BYTE   VOL   0*elegy_of_battle_mvl/mxv
 BYTE   W02
//  #04 //001   ----------------------------------------
Label_0101FF77:
 BYTE   VOL   0*elegy_of_battle_mvl/mxv
 BYTE   N96  Dn3  v044
 BYTE   W01
 BYTE   VOL   0*elegy_of_battle_mvl/mxv
 BYTE   W02
 BYTE   VOL   1*elegy_of_battle_mvl/mxv
 BYTE   W01
 BYTE   VOL   2*elegy_of_battle_mvl/mxv
 BYTE   W02
 BYTE   VOL   3*elegy_of_battle_mvl/mxv
 BYTE   W01
 BYTE   VOL   6*elegy_of_battle_mvl/mxv
 BYTE   W02
 BYTE   VOL   7*elegy_of_battle_mvl/mxv
 BYTE   W01
 BYTE   VOL   10*elegy_of_battle_mvl/mxv
 BYTE   W02
 BYTE   VOL   13*elegy_of_battle_mvl/mxv
 BYTE   W01
 BYTE   VOL   16*elegy_of_battle_mvl/mxv
 BYTE   W02
 BYTE   VOL   19*elegy_of_battle_mvl/mxv
 BYTE   W01
 BYTE   VOL   24*elegy_of_battle_mvl/mxv
 BYTE   W02
 BYTE   VOL   36*elegy_of_battle_mvl/mxv
 BYTE   W01
 BYTE   VOL   54*elegy_of_battle_mvl/mxv
 BYTE   W02
 BYTE   VOL   76*elegy_of_battle_mvl/mxv
 BYTE   W01
 BYTE   VOL   96*elegy_of_battle_mvl/mxv
 BYTE   W02
 BYTE   VOL   100*elegy_of_battle_mvl/mxv
 BYTE   W01
 BYTE   VOL   100*elegy_of_battle_mvl/mxv
 BYTE   W03
 BYTE   VOL   100*elegy_of_battle_mvl/mxv
 BYTE   W02
 BYTE   VOL   100*elegy_of_battle_mvl/mxv
 BYTE   W01
 BYTE   VOL   100*elegy_of_battle_mvl/mxv
 BYTE   W02
 BYTE   VOL   100*elegy_of_battle_mvl/mxv
 BYTE   W01
 BYTE   VOL   100*elegy_of_battle_mvl/mxv
 BYTE   W02
 BYTE   VOL   100*elegy_of_battle_mvl/mxv
 BYTE   W03
 BYTE   VOL   100*elegy_of_battle_mvl/mxv
 BYTE   W03
 BYTE   VOL   100*elegy_of_battle_mvl/mxv
 BYTE   W03
 BYTE   VOL   100*elegy_of_battle_mvl/mxv
 BYTE   W01
 BYTE   VOL   100*elegy_of_battle_mvl/mxv
 BYTE   W02
 BYTE   VOL   100*elegy_of_battle_mvl/mxv
 BYTE   W01
 BYTE   VOL   100*elegy_of_battle_mvl/mxv
 BYTE   W02
 BYTE   VOL   100*elegy_of_battle_mvl/mxv
 BYTE   W03
 BYTE   VOL   100*elegy_of_battle_mvl/mxv
 BYTE   W03
 BYTE   VOL   98*elegy_of_battle_mvl/mxv
 BYTE   W01
 BYTE   VOL   100*elegy_of_battle_mvl/mxv
 BYTE   W02
 BYTE   VOL   94*elegy_of_battle_mvl/mxv
 BYTE   W01
 BYTE   VOL   91*elegy_of_battle_mvl/mxv
 BYTE   W02
 BYTE   VOL   83*elegy_of_battle_mvl/mxv
 BYTE   W01
 BYTE   VOL   76*elegy_of_battle_mvl/mxv
 BYTE   W02
 BYTE   VOL   59*elegy_of_battle_mvl/mxv
 BYTE   W01
 BYTE   VOL   59*elegy_of_battle_mvl/mxv
 BYTE   W02
 BYTE   VOL   49*elegy_of_battle_mvl/mxv
 BYTE   W03
 BYTE   VOL   39*elegy_of_battle_mvl/mxv
 BYTE   W01
 BYTE   VOL   36*elegy_of_battle_mvl/mxv
 BYTE   W02
 BYTE   VOL   35*elegy_of_battle_mvl/mxv
 BYTE   W01
 BYTE   VOL   30*elegy_of_battle_mvl/mxv
 BYTE   W02
 BYTE   VOL   24*elegy_of_battle_mvl/mxv
 BYTE   W01
 BYTE   VOL   23*elegy_of_battle_mvl/mxv
 BYTE   W02
 BYTE   VOL   17*elegy_of_battle_mvl/mxv
 BYTE   W01
 BYTE   VOL   14*elegy_of_battle_mvl/mxv
 BYTE   W02
 BYTE   VOL   11*elegy_of_battle_mvl/mxv
 BYTE   W01
 BYTE   VOL   7*elegy_of_battle_mvl/mxv
 BYTE   W02
 BYTE   VOL   5*elegy_of_battle_mvl/mxv
 BYTE   W01
 BYTE   VOL   2*elegy_of_battle_mvl/mxv
 BYTE   W02
 BYTE   VOL   0*elegy_of_battle_mvl/mxv
 BYTE   W01
 BYTE   VOL   0*elegy_of_battle_mvl/mxv
 BYTE   W02
 BYTE   VOL   0*elegy_of_battle_mvl/mxv
 BYTE   W01
 BYTE   VOL   0*elegy_of_battle_mvl/mxv
 BYTE   W02
 BYTE   PEND 
//  #04 //002   ----------------------------------------
Label_0101FFEF:
 BYTE   VOL   0*elegy_of_battle_mvl/mxv
 BYTE   N96  As2  v044
 BYTE   W01
 BYTE   VOL   0*elegy_of_battle_mvl/mxv
 BYTE   W02
 BYTE   VOL   1*elegy_of_battle_mvl/mxv
 BYTE   W01
 BYTE   VOL   2*elegy_of_battle_mvl/mxv
 BYTE   W02
 BYTE   VOL   3*elegy_of_battle_mvl/mxv
 BYTE   W01
 BYTE   VOL   6*elegy_of_battle_mvl/mxv
 BYTE   W02
 BYTE   VOL   7*elegy_of_battle_mvl/mxv
 BYTE   W01
 BYTE   VOL   10*elegy_of_battle_mvl/mxv
 BYTE   W02
 BYTE   VOL   13*elegy_of_battle_mvl/mxv
 BYTE   W01
 BYTE   VOL   16*elegy_of_battle_mvl/mxv
 BYTE   W02
 BYTE   VOL   19*elegy_of_battle_mvl/mxv
 BYTE   W01
 BYTE   VOL   24*elegy_of_battle_mvl/mxv
 BYTE   W02
 BYTE   VOL   36*elegy_of_battle_mvl/mxv
 BYTE   W01
 BYTE   VOL   54*elegy_of_battle_mvl/mxv
 BYTE   W02
 BYTE   VOL   76*elegy_of_battle_mvl/mxv
 BYTE   W01
 BYTE   VOL   96*elegy_of_battle_mvl/mxv
 BYTE   W02
 BYTE   VOL   100*elegy_of_battle_mvl/mxv
 BYTE   W01
 BYTE   VOL   100*elegy_of_battle_mvl/mxv
 BYTE   W03
 BYTE   VOL   100*elegy_of_battle_mvl/mxv
 BYTE   W02
 BYTE   VOL   100*elegy_of_battle_mvl/mxv
 BYTE   W01
 BYTE   VOL   100*elegy_of_battle_mvl/mxv
 BYTE   W02
 BYTE   VOL   100*elegy_of_battle_mvl/mxv
 BYTE   W01
 BYTE   VOL   100*elegy_of_battle_mvl/mxv
 BYTE   W02
 BYTE   VOL   100*elegy_of_battle_mvl/mxv
 BYTE   W03
 BYTE   VOL   100*elegy_of_battle_mvl/mxv
 BYTE   W03
 BYTE   VOL   100*elegy_of_battle_mvl/mxv
 BYTE   W03
 BYTE   VOL   100*elegy_of_battle_mvl/mxv
 BYTE   W01
 BYTE   VOL   100*elegy_of_battle_mvl/mxv
 BYTE   W02
 BYTE   VOL   100*elegy_of_battle_mvl/mxv
 BYTE   W01
 BYTE   VOL   100*elegy_of_battle_mvl/mxv
 BYTE   W02
 BYTE   VOL   100*elegy_of_battle_mvl/mxv
 BYTE   W03
 BYTE   VOL   100*elegy_of_battle_mvl/mxv
 BYTE   W03
 BYTE   VOL   98*elegy_of_battle_mvl/mxv
 BYTE   W01
 BYTE   VOL   100*elegy_of_battle_mvl/mxv
 BYTE   W02
 BYTE   VOL   94*elegy_of_battle_mvl/mxv
 BYTE   W01
 BYTE   VOL   91*elegy_of_battle_mvl/mxv
 BYTE   W02
 BYTE   VOL   83*elegy_of_battle_mvl/mxv
 BYTE   W01
 BYTE   VOL   76*elegy_of_battle_mvl/mxv
 BYTE   W02
 BYTE   VOL   59*elegy_of_battle_mvl/mxv
 BYTE   W01
 BYTE   VOL   59*elegy_of_battle_mvl/mxv
 BYTE   W02
 BYTE   VOL   49*elegy_of_battle_mvl/mxv
 BYTE   W03
 BYTE   VOL   39*elegy_of_battle_mvl/mxv
 BYTE   W01
 BYTE   VOL   36*elegy_of_battle_mvl/mxv
 BYTE   W02
 BYTE   VOL   35*elegy_of_battle_mvl/mxv
 BYTE   W01
 BYTE   VOL   30*elegy_of_battle_mvl/mxv
 BYTE   W02
 BYTE   VOL   24*elegy_of_battle_mvl/mxv
 BYTE   W01
 BYTE   VOL   23*elegy_of_battle_mvl/mxv
 BYTE   W02
 BYTE   VOL   17*elegy_of_battle_mvl/mxv
 BYTE   W01
 BYTE   VOL   14*elegy_of_battle_mvl/mxv
 BYTE   W02
 BYTE   VOL   11*elegy_of_battle_mvl/mxv
 BYTE   W01
 BYTE   VOL   7*elegy_of_battle_mvl/mxv
 BYTE   W02
 BYTE   VOL   5*elegy_of_battle_mvl/mxv
 BYTE   W01
 BYTE   VOL   2*elegy_of_battle_mvl/mxv
 BYTE   W02
 BYTE   VOL   0*elegy_of_battle_mvl/mxv
 BYTE   W01
 BYTE   VOL   0*elegy_of_battle_mvl/mxv
 BYTE   W02
 BYTE   VOL   0*elegy_of_battle_mvl/mxv
 BYTE   W01
 BYTE   VOL   0*elegy_of_battle_mvl/mxv
 BYTE   W02
 BYTE   PEND 
//  #04 //003   ----------------------------------------
 BYTE   PATT
  POIN2 Label_0101FFEF
//  #04 //004   ----------------------------------------
Label_0102006C:
 BYTE   VOL   0*elegy_of_battle_mvl/mxv
 BYTE   N48  Gn2  v044
 BYTE   W01
 BYTE   VOL   0*elegy_of_battle_mvl/mxv
 BYTE   W02
 BYTE   VOL   1*elegy_of_battle_mvl/mxv
 BYTE   W01
 BYTE   VOL   2*elegy_of_battle_mvl/mxv
 BYTE   W02
 BYTE   VOL   3*elegy_of_battle_mvl/mxv
 BYTE   W01
 BYTE   VOL   6*elegy_of_battle_mvl/mxv
 BYTE   W02
 BYTE   VOL   7*elegy_of_battle_mvl/mxv
 BYTE   W01
 BYTE   VOL   10*elegy_of_battle_mvl/mxv
 BYTE   W02
 BYTE   VOL   13*elegy_of_battle_mvl/mxv
 BYTE   W01
 BYTE   VOL   16*elegy_of_battle_mvl/mxv
 BYTE   W02
 BYTE   VOL   24*elegy_of_battle_mvl/mxv
 BYTE   W01
 BYTE   VOL   29*elegy_of_battle_mvl/mxv
 BYTE   W02
 BYTE   VOL   39*elegy_of_battle_mvl/mxv
 BYTE   W01
 BYTE   VOL   44*elegy_of_battle_mvl/mxv
 BYTE   W02
 BYTE   VOL   49*elegy_of_battle_mvl/mxv
 BYTE   W01
 BYTE   VOL   51*elegy_of_battle_mvl/mxv
 BYTE   W02
 BYTE   VOL   54*elegy_of_battle_mvl/mxv
 BYTE   W01
 BYTE   VOL   62*elegy_of_battle_mvl/mxv
 BYTE   W03
 BYTE   VOL   64*elegy_of_battle_mvl/mxv
 BYTE   W02
 BYTE   VOL   64*elegy_of_battle_mvl/mxv
 BYTE   W01
 BYTE   VOL   64*elegy_of_battle_mvl/mxv
 BYTE   W02
 BYTE   VOL   68*elegy_of_battle_mvl/mxv
 BYTE   W01
 BYTE   VOL   68*elegy_of_battle_mvl/mxv
 BYTE   W02
 BYTE   VOL   68*elegy_of_battle_mvl/mxv
 BYTE   W01
 BYTE   VOL   66*elegy_of_battle_mvl/mxv
 BYTE   W02
 BYTE   VOL   66*elegy_of_battle_mvl/mxv
 BYTE   W01
 BYTE   VOL   62*elegy_of_battle_mvl/mxv
 BYTE   W02
 BYTE   VOL   60*elegy_of_battle_mvl/mxv
 BYTE   W01
 BYTE   VOL   36*elegy_of_battle_mvl/mxv
 BYTE   W02
 BYTE   VOL   24*elegy_of_battle_mvl/mxv
 BYTE   W01
 BYTE   VOL   14*elegy_of_battle_mvl/mxv
 BYTE   W02
 BYTE   VOL   8*elegy_of_battle_mvl/mxv
 BYTE   N48  Cn3  v056
 BYTE   W01
 BYTE   VOL   6*elegy_of_battle_mvl/mxv
 BYTE   W02
 BYTE   VOL   6*elegy_of_battle_mvl/mxv
 BYTE   W01
 BYTE   VOL   10*elegy_of_battle_mvl/mxv
 BYTE   W02
 BYTE   VOL   22*elegy_of_battle_mvl/mxv
 BYTE   W01
 BYTE   VOL   30*elegy_of_battle_mvl/mxv
 BYTE   W03
 BYTE   VOL   27*elegy_of_battle_mvl/mxv
 BYTE   W02
 BYTE   VOL   27*elegy_of_battle_mvl/mxv
 BYTE   W01
 BYTE   VOL   30*elegy_of_battle_mvl/mxv
 BYTE   W02
 BYTE   VOL   33*elegy_of_battle_mvl/mxv
 BYTE   W01
 BYTE   VOL   39*elegy_of_battle_mvl/mxv
 BYTE   W02
 BYTE   VOL   42*elegy_of_battle_mvl/mxv
 BYTE   W01
 BYTE   VOL   51*elegy_of_battle_mvl/mxv
 BYTE   W02
 BYTE   VOL   57*elegy_of_battle_mvl/mxv
 BYTE   W01
 BYTE   VOL   57*elegy_of_battle_mvl/mxv
 BYTE   W02
 BYTE   VOL   59*elegy_of_battle_mvl/mxv
 BYTE   W01
 BYTE   VOL   62*elegy_of_battle_mvl/mxv
 BYTE   W02
 BYTE   VOL   62*elegy_of_battle_mvl/mxv
 BYTE   W07
 BYTE   VOL   62*elegy_of_battle_mvl/mxv
 BYTE   W03
 BYTE   VOL   62*elegy_of_battle_mvl/mxv
 BYTE   W02
 BYTE   VOL   62*elegy_of_battle_mvl/mxv
 BYTE   W01
 BYTE   VOL   62*elegy_of_battle_mvl/mxv
 BYTE   W02
 BYTE   VOL   60*elegy_of_battle_mvl/mxv
 BYTE   W01
 BYTE   VOL   55*elegy_of_battle_mvl/mxv
 BYTE   W02
 BYTE   VOL   47*elegy_of_battle_mvl/mxv
 BYTE   W01
 BYTE   VOL   42*elegy_of_battle_mvl/mxv
 BYTE   W02
 BYTE   PEND 
//  #04 //005   ----------------------------------------
Label_010200E8:
 BYTE   VOL   36*elegy_of_battle_mvl/mxv
 BYTE   N48  As2  v040
 BYTE   W01
 BYTE   VOL   32*elegy_of_battle_mvl/mxv
 BYTE   W02
 BYTE   VOL   27*elegy_of_battle_mvl/mxv
 BYTE   W01
 BYTE   VOL   25*elegy_of_battle_mvl/mxv
 BYTE   W02
 BYTE   VOL   25*elegy_of_battle_mvl/mxv
 BYTE   W01
 BYTE   VOL   22*elegy_of_battle_mvl/mxv
 BYTE   W02
 BYTE   VOL   26*elegy_of_battle_mvl/mxv
 BYTE   W01
 BYTE   VOL   24*elegy_of_battle_mvl/mxv
 BYTE   W02
 BYTE   VOL   25*elegy_of_battle_mvl/mxv
 BYTE   W01
 BYTE   VOL   33*elegy_of_battle_mvl/mxv
 BYTE   W02
 BYTE   VOL   42*elegy_of_battle_mvl/mxv
 BYTE   W01
 BYTE   VOL   51*elegy_of_battle_mvl/mxv
 BYTE   W02
 BYTE   VOL   55*elegy_of_battle_mvl/mxv
 BYTE   W01
 BYTE   VOL   55*elegy_of_battle_mvl/mxv
 BYTE   W02
 BYTE   VOL   57*elegy_of_battle_mvl/mxv
 BYTE   W01
 BYTE   VOL   57*elegy_of_battle_mvl/mxv
 BYTE   W02
 BYTE   VOL   57*elegy_of_battle_mvl/mxv
 BYTE   W01
 BYTE   VOL   57*elegy_of_battle_mvl/mxv
 BYTE   W02
 BYTE   VOL   57*elegy_of_battle_mvl/mxv
 BYTE   W01
 BYTE   VOL   57*elegy_of_battle_mvl/mxv
 BYTE   W02
 BYTE   VOL   57*elegy_of_battle_mvl/mxv
 BYTE   W01
 BYTE   VOL   57*elegy_of_battle_mvl/mxv
 BYTE   W02
 BYTE   VOL   57*elegy_of_battle_mvl/mxv
 BYTE   W01
 BYTE   VOL   55*elegy_of_battle_mvl/mxv
 BYTE   W02
 BYTE   VOL   54*elegy_of_battle_mvl/mxv
 BYTE   W01
 BYTE   VOL   54*elegy_of_battle_mvl/mxv
 BYTE   W02
 BYTE   VOL   50*elegy_of_battle_mvl/mxv
 BYTE   W01
 BYTE   VOL   49*elegy_of_battle_mvl/mxv
 BYTE   W02
 BYTE   VOL   45*elegy_of_battle_mvl/mxv
 BYTE   W01
 BYTE   VOL   44*elegy_of_battle_mvl/mxv
 BYTE   W02
 BYTE   VOL   40*elegy_of_battle_mvl/mxv
 BYTE   W01
 BYTE   VOL   39*elegy_of_battle_mvl/mxv
 BYTE   W02
 BYTE   VOL   23*elegy_of_battle_mvl/mxv
 BYTE   N48  An2  v056
 BYTE   W01
 BYTE   VOL   14*elegy_of_battle_mvl/mxv
 BYTE   W02
 BYTE   VOL   13*elegy_of_battle_mvl/mxv
 BYTE   W01
 BYTE   VOL   13*elegy_of_battle_mvl/mxv
 BYTE   W02
 BYTE   VOL   16*elegy_of_battle_mvl/mxv
 BYTE   W01
 BYTE   VOL   26*elegy_of_battle_mvl/mxv
 BYTE   W02
 BYTE   VOL   24*elegy_of_battle_mvl/mxv
 BYTE   W01
 BYTE   VOL   25*elegy_of_battle_mvl/mxv
 BYTE   W02
 BYTE   VOL   33*elegy_of_battle_mvl/mxv
 BYTE   W01
 BYTE   VOL   42*elegy_of_battle_mvl/mxv
 BYTE   W02
 BYTE   VOL   51*elegy_of_battle_mvl/mxv
 BYTE   W01
 BYTE   VOL   55*elegy_of_battle_mvl/mxv
 BYTE   W02
 BYTE   VOL   55*elegy_of_battle_mvl/mxv
 BYTE   W01
 BYTE   VOL   57*elegy_of_battle_mvl/mxv
 BYTE   W02
 BYTE   VOL   57*elegy_of_battle_mvl/mxv
 BYTE   W01
 BYTE   VOL   57*elegy_of_battle_mvl/mxv
 BYTE   W02
 BYTE   VOL   57*elegy_of_battle_mvl/mxv
 BYTE   W01
 BYTE   VOL   57*elegy_of_battle_mvl/mxv
 BYTE   W02
 BYTE   VOL   57*elegy_of_battle_mvl/mxv
 BYTE   W01
 BYTE   VOL   57*elegy_of_battle_mvl/mxv
 BYTE   W02
 BYTE   VOL   57*elegy_of_battle_mvl/mxv
 BYTE   W01
 BYTE   VOL   57*elegy_of_battle_mvl/mxv
 BYTE   W02
 BYTE   VOL   55*elegy_of_battle_mvl/mxv
 BYTE   W01
 BYTE   VOL   54*elegy_of_battle_mvl/mxv
 BYTE   W02
 BYTE   VOL   54*elegy_of_battle_mvl/mxv
 BYTE   W01
 BYTE   VOL   50*elegy_of_battle_mvl/mxv
 BYTE   W02
 BYTE   VOL   49*elegy_of_battle_mvl/mxv
 BYTE   W01
 BYTE   VOL   45*elegy_of_battle_mvl/mxv
 BYTE   W02
 BYTE   VOL   44*elegy_of_battle_mvl/mxv
 BYTE   W01
 BYTE   VOL   40*elegy_of_battle_mvl/mxv
 BYTE   W02
 BYTE   VOL   35*elegy_of_battle_mvl/mxv
 BYTE   W01
 BYTE   VOL   14*elegy_of_battle_mvl/mxv
 BYTE   W02
 BYTE   PEND 
//  #04 //006   ----------------------------------------
Label_01020172:
 BYTE   VOL   9*elegy_of_battle_mvl/mxv
 BYTE   N96  As2  v044
 BYTE   W01
 BYTE   VOL   4*elegy_of_battle_mvl/mxv
 BYTE   W02
 BYTE   VOL   3*elegy_of_battle_mvl/mxv
 BYTE   W01
 BYTE   VOL   2*elegy_of_battle_mvl/mxv
 BYTE   W02
 BYTE   VOL   3*elegy_of_battle_mvl/mxv
 BYTE   W01
 BYTE   VOL   6*elegy_of_battle_mvl/mxv
 BYTE   W02
 BYTE   VOL   7*elegy_of_battle_mvl/mxv
 BYTE   W01
 BYTE   VOL   14*elegy_of_battle_mvl/mxv
 BYTE   W02
 BYTE   VOL   20*elegy_of_battle_mvl/mxv
 BYTE   W01
 BYTE   VOL   24*elegy_of_battle_mvl/mxv
 BYTE   W02
 BYTE   VOL   29*elegy_of_battle_mvl/mxv
 BYTE   W01
 BYTE   VOL   32*elegy_of_battle_mvl/mxv
 BYTE   W02
 BYTE   VOL   33*elegy_of_battle_mvl/mxv
 BYTE   W01
 BYTE   VOL   33*elegy_of_battle_mvl/mxv
 BYTE   W02
 BYTE   VOL   36*elegy_of_battle_mvl/mxv
 BYTE   W01
 BYTE   VOL   37*elegy_of_battle_mvl/mxv
 BYTE   W02
 BYTE   VOL   40*elegy_of_battle_mvl/mxv
 BYTE   W01
 BYTE   VOL   50*elegy_of_battle_mvl/mxv
 BYTE   W03
 BYTE   VOL   51*elegy_of_battle_mvl/mxv
 BYTE   W02
 BYTE   VOL   55*elegy_of_battle_mvl/mxv
 BYTE   W01
 BYTE   VOL   55*elegy_of_battle_mvl/mxv
 BYTE   W02
 BYTE   VOL   57*elegy_of_battle_mvl/mxv
 BYTE   W01
 BYTE   VOL   57*elegy_of_battle_mvl/mxv
 BYTE   W02
 BYTE   VOL   60*elegy_of_battle_mvl/mxv
 BYTE   W03
 BYTE   VOL   62*elegy_of_battle_mvl/mxv
 BYTE   W03
 BYTE   VOL   62*elegy_of_battle_mvl/mxv
 BYTE   W03
 BYTE   VOL   62*elegy_of_battle_mvl/mxv
 BYTE   W01
 BYTE   VOL   62*elegy_of_battle_mvl/mxv
 BYTE   W02
 BYTE   VOL   62*elegy_of_battle_mvl/mxv
 BYTE   W01
 BYTE   VOL   62*elegy_of_battle_mvl/mxv
 BYTE   W02
 BYTE   VOL   62*elegy_of_battle_mvl/mxv
 BYTE   W03
 BYTE   VOL   60*elegy_of_battle_mvl/mxv
 BYTE   W03
 BYTE   VOL   60*elegy_of_battle_mvl/mxv
 BYTE   W01
 BYTE   VOL   59*elegy_of_battle_mvl/mxv
 BYTE   W02
 BYTE   VOL   55*elegy_of_battle_mvl/mxv
 BYTE   W01
 BYTE   VOL   54*elegy_of_battle_mvl/mxv
 BYTE   W02
 BYTE   VOL   50*elegy_of_battle_mvl/mxv
 BYTE   W01
 BYTE   VOL   50*elegy_of_battle_mvl/mxv
 BYTE   W02
 BYTE   VOL   50*elegy_of_battle_mvl/mxv
 BYTE   W01
 BYTE   VOL   50*elegy_of_battle_mvl/mxv
 BYTE   W02
 BYTE   VOL   49*elegy_of_battle_mvl/mxv
 BYTE   W03
 BYTE   VOL   45*elegy_of_battle_mvl/mxv
 BYTE   W01
 BYTE   VOL   44*elegy_of_battle_mvl/mxv
 BYTE   W02
 BYTE   VOL   39*elegy_of_battle_mvl/mxv
 BYTE   W01
 BYTE   VOL   32*elegy_of_battle_mvl/mxv
 BYTE   W02
 BYTE   VOL   30*elegy_of_battle_mvl/mxv
 BYTE   W01
 BYTE   VOL   23*elegy_of_battle_mvl/mxv
 BYTE   W02
 BYTE   VOL   17*elegy_of_battle_mvl/mxv
 BYTE   W01
 BYTE   VOL   14*elegy_of_battle_mvl/mxv
 BYTE   W02
 BYTE   VOL   11*elegy_of_battle_mvl/mxv
 BYTE   W01
 BYTE   VOL   7*elegy_of_battle_mvl/mxv
 BYTE   W02
 BYTE   VOL   5*elegy_of_battle_mvl/mxv
 BYTE   W01
 BYTE   VOL   2*elegy_of_battle_mvl/mxv
 BYTE   W02
 BYTE   VOL   0*elegy_of_battle_mvl/mxv
 BYTE   W01
 BYTE   VOL   0*elegy_of_battle_mvl/mxv
 BYTE   W02
 BYTE   VOL   0*elegy_of_battle_mvl/mxv
 BYTE   W01
 BYTE   VOL   0*elegy_of_battle_mvl/mxv
 BYTE   W02
 BYTE   PEND 
//  #04 //007   ----------------------------------------
Label_010201EA:
 BYTE   VOL   0*elegy_of_battle_mvl/mxv
 BYTE   N96  Dn2  v044
 BYTE   W01
 BYTE   VOL   0*elegy_of_battle_mvl/mxv
 BYTE   W02
 BYTE   VOL   1*elegy_of_battle_mvl/mxv
 BYTE   W01
 BYTE   VOL   2*elegy_of_battle_mvl/mxv
 BYTE   W02
 BYTE   VOL   3*elegy_of_battle_mvl/mxv
 BYTE   W01
 BYTE   VOL   6*elegy_of_battle_mvl/mxv
 BYTE   W02
 BYTE   VOL   7*elegy_of_battle_mvl/mxv
 BYTE   W01
 BYTE   VOL   10*elegy_of_battle_mvl/mxv
 BYTE   W02
 BYTE   VOL   13*elegy_of_battle_mvl/mxv
 BYTE   W01
 BYTE   VOL   16*elegy_of_battle_mvl/mxv
 BYTE   W02
 BYTE   VOL   19*elegy_of_battle_mvl/mxv
 BYTE   W01
 BYTE   VOL   24*elegy_of_battle_mvl/mxv
 BYTE   W02
 BYTE   VOL   36*elegy_of_battle_mvl/mxv
 BYTE   W01
 BYTE   VOL   54*elegy_of_battle_mvl/mxv
 BYTE   W02
 BYTE   VOL   76*elegy_of_battle_mvl/mxv
 BYTE   W01
 BYTE   VOL   96*elegy_of_battle_mvl/mxv
 BYTE   W02
 BYTE   VOL   100*elegy_of_battle_mvl/mxv
 BYTE   W01
 BYTE   VOL   100*elegy_of_battle_mvl/mxv
 BYTE   W03
 BYTE   VOL   100*elegy_of_battle_mvl/mxv
 BYTE   W02
 BYTE   VOL   100*elegy_of_battle_mvl/mxv
 BYTE   W01
 BYTE   VOL   100*elegy_of_battle_mvl/mxv
 BYTE   W02
 BYTE   VOL   100*elegy_of_battle_mvl/mxv
 BYTE   W01
 BYTE   VOL   100*elegy_of_battle_mvl/mxv
 BYTE   W02
 BYTE   VOL   100*elegy_of_battle_mvl/mxv
 BYTE   W03
 BYTE   VOL   100*elegy_of_battle_mvl/mxv
 BYTE   W03
 BYTE   VOL   100*elegy_of_battle_mvl/mxv
 BYTE   W03
 BYTE   VOL   100*elegy_of_battle_mvl/mxv
 BYTE   W01
 BYTE   VOL   100*elegy_of_battle_mvl/mxv
 BYTE   W02
 BYTE   VOL   100*elegy_of_battle_mvl/mxv
 BYTE   W01
 BYTE   VOL   100*elegy_of_battle_mvl/mxv
 BYTE   W02
 BYTE   VOL   100*elegy_of_battle_mvl/mxv
 BYTE   W03
 BYTE   VOL   100*elegy_of_battle_mvl/mxv
 BYTE   W03
 BYTE   VOL   98*elegy_of_battle_mvl/mxv
 BYTE   W01
 BYTE   VOL   100*elegy_of_battle_mvl/mxv
 BYTE   W02
 BYTE   VOL   94*elegy_of_battle_mvl/mxv
 BYTE   W01
 BYTE   VOL   91*elegy_of_battle_mvl/mxv
 BYTE   W02
 BYTE   VOL   83*elegy_of_battle_mvl/mxv
 BYTE   W01
 BYTE   VOL   76*elegy_of_battle_mvl/mxv
 BYTE   W02
 BYTE   VOL   59*elegy_of_battle_mvl/mxv
 BYTE   W01
 BYTE   VOL   59*elegy_of_battle_mvl/mxv
 BYTE   W02
 BYTE   VOL   49*elegy_of_battle_mvl/mxv
 BYTE   W03
 BYTE   VOL   39*elegy_of_battle_mvl/mxv
 BYTE   W01
 BYTE   VOL   36*elegy_of_battle_mvl/mxv
 BYTE   W02
 BYTE   VOL   35*elegy_of_battle_mvl/mxv
 BYTE   W01
 BYTE   VOL   30*elegy_of_battle_mvl/mxv
 BYTE   W02
 BYTE   VOL   24*elegy_of_battle_mvl/mxv
 BYTE   W01
 BYTE   VOL   23*elegy_of_battle_mvl/mxv
 BYTE   W02
 BYTE   VOL   17*elegy_of_battle_mvl/mxv
 BYTE   W01
 BYTE   VOL   14*elegy_of_battle_mvl/mxv
 BYTE   W02
 BYTE   VOL   11*elegy_of_battle_mvl/mxv
 BYTE   W01
 BYTE   VOL   7*elegy_of_battle_mvl/mxv
 BYTE   W02
 BYTE   VOL   5*elegy_of_battle_mvl/mxv
 BYTE   W01
 BYTE   VOL   2*elegy_of_battle_mvl/mxv
 BYTE   W02
 BYTE   VOL   0*elegy_of_battle_mvl/mxv
 BYTE   W01
 BYTE   VOL   0*elegy_of_battle_mvl/mxv
 BYTE   W02
 BYTE   VOL   0*elegy_of_battle_mvl/mxv
 BYTE   W01
 BYTE   VOL   0*elegy_of_battle_mvl/mxv
 BYTE   W02
 BYTE   PEND 
//  #04 //008   ----------------------------------------
 BYTE   PATT
  POIN2 Label_010201EA
//  #04 //009   ----------------------------------------
Label_01020267:
 BYTE   VOL   0*elegy_of_battle_mvl/mxv
 BYTE   N60  Gn3  v044
 BYTE   W01
 BYTE   VOL   0*elegy_of_battle_mvl/mxv
 BYTE   W02
 BYTE   VOL   1*elegy_of_battle_mvl/mxv
 BYTE   W01
 BYTE   VOL   2*elegy_of_battle_mvl/mxv
 BYTE   W02
 BYTE   VOL   3*elegy_of_battle_mvl/mxv
 BYTE   W01
 BYTE   VOL   6*elegy_of_battle_mvl/mxv
 BYTE   W02
 BYTE   VOL   7*elegy_of_battle_mvl/mxv
 BYTE   W01
 BYTE   VOL   10*elegy_of_battle_mvl/mxv
 BYTE   W02
 BYTE   VOL   13*elegy_of_battle_mvl/mxv
 BYTE   W01
 BYTE   VOL   16*elegy_of_battle_mvl/mxv
 BYTE   W02
 BYTE   VOL   19*elegy_of_battle_mvl/mxv
 BYTE   W01
 BYTE   VOL   24*elegy_of_battle_mvl/mxv
 BYTE   W02
 BYTE   VOL   36*elegy_of_battle_mvl/mxv
 BYTE   W01
 BYTE   VOL   54*elegy_of_battle_mvl/mxv
 BYTE   W02
 BYTE   VOL   76*elegy_of_battle_mvl/mxv
 BYTE   W01
 BYTE   VOL   96*elegy_of_battle_mvl/mxv
 BYTE   W02
 BYTE   VOL   100*elegy_of_battle_mvl/mxv
 BYTE   W01
 BYTE   VOL   100*elegy_of_battle_mvl/mxv
 BYTE   W03
 BYTE   VOL   100*elegy_of_battle_mvl/mxv
 BYTE   W02
 BYTE   VOL   100*elegy_of_battle_mvl/mxv
 BYTE   W01
 BYTE   VOL   100*elegy_of_battle_mvl/mxv
 BYTE   W02
 BYTE   VOL   100*elegy_of_battle_mvl/mxv
 BYTE   W01
 BYTE   VOL   100*elegy_of_battle_mvl/mxv
 BYTE   W02
 BYTE   VOL   100*elegy_of_battle_mvl/mxv
 BYTE   W03
 BYTE   VOL   100*elegy_of_battle_mvl/mxv
 BYTE   W03
 BYTE   VOL   100*elegy_of_battle_mvl/mxv
 BYTE   W03
 BYTE   VOL   100*elegy_of_battle_mvl/mxv
 BYTE   W01
 BYTE   VOL   100*elegy_of_battle_mvl/mxv
 BYTE   W02
 BYTE   VOL   100*elegy_of_battle_mvl/mxv
 BYTE   W01
 BYTE   VOL   100*elegy_of_battle_mvl/mxv
 BYTE   W02
 BYTE   VOL   100*elegy_of_battle_mvl/mxv
 BYTE   W03
 BYTE   VOL   100*elegy_of_battle_mvl/mxv
 BYTE   W03
 BYTE   VOL   98*elegy_of_battle_mvl/mxv
 BYTE   W01
 BYTE   VOL   100*elegy_of_battle_mvl/mxv
 BYTE   W02
 BYTE   VOL   100*elegy_of_battle_mvl/mxv
 BYTE   N36  Fs3
 BYTE   W01
 BYTE   VOL   94*elegy_of_battle_mvl/mxv
 BYTE   W02
 BYTE   VOL   87*elegy_of_battle_mvl/mxv
 BYTE   W01
 BYTE   VOL   69*elegy_of_battle_mvl/mxv
 BYTE   W02
 BYTE   VOL   69*elegy_of_battle_mvl/mxv
 BYTE   W01
 BYTE   VOL   58*elegy_of_battle_mvl/mxv
 BYTE   W03
 BYTE   VOL   48*elegy_of_battle_mvl/mxv
 BYTE   W02
 BYTE   VOL   44*elegy_of_battle_mvl/mxv
 BYTE   W01
 BYTE   VOL   43*elegy_of_battle_mvl/mxv
 BYTE   W03
 BYTE   VOL   30*elegy_of_battle_mvl/mxv
 BYTE   W02
 BYTE   VOL   24*elegy_of_battle_mvl/mxv
 BYTE   W01
 BYTE   VOL   23*elegy_of_battle_mvl/mxv
 BYTE   W02
 BYTE   VOL   17*elegy_of_battle_mvl/mxv
 BYTE   W01
 BYTE   VOL   14*elegy_of_battle_mvl/mxv
 BYTE   W02
 BYTE   VOL   11*elegy_of_battle_mvl/mxv
 BYTE   W01
 BYTE   VOL   7*elegy_of_battle_mvl/mxv
 BYTE   W02
 BYTE   VOL   5*elegy_of_battle_mvl/mxv
 BYTE   W01
 BYTE   VOL   2*elegy_of_battle_mvl/mxv
 BYTE   W02
 BYTE   VOL   0*elegy_of_battle_mvl/mxv
 BYTE   W01
 BYTE   VOL   0*elegy_of_battle_mvl/mxv
 BYTE   W02
 BYTE   VOL   0*elegy_of_battle_mvl/mxv
 BYTE   W01
 BYTE   VOL   0*elegy_of_battle_mvl/mxv
 BYTE   W02
 BYTE   PEND 
//  #04 //010   ----------------------------------------
Label_010202E0:
 BYTE   VOL   0*elegy_of_battle_mvl/mxv
 BYTE   N96  Gn2  v044
 BYTE   W01
 BYTE   VOL   0*elegy_of_battle_mvl/mxv
 BYTE   W02
 BYTE   VOL   1*elegy_of_battle_mvl/mxv
 BYTE   W01
 BYTE   VOL   2*elegy_of_battle_mvl/mxv
 BYTE   W02
 BYTE   VOL   3*elegy_of_battle_mvl/mxv
 BYTE   W01
 BYTE   VOL   6*elegy_of_battle_mvl/mxv
 BYTE   W02
 BYTE   VOL   7*elegy_of_battle_mvl/mxv
 BYTE   W01
 BYTE   VOL   10*elegy_of_battle_mvl/mxv
 BYTE   W02
 BYTE   VOL   13*elegy_of_battle_mvl/mxv
 BYTE   W01
 BYTE   VOL   16*elegy_of_battle_mvl/mxv
 BYTE   W02
 BYTE   VOL   19*elegy_of_battle_mvl/mxv
 BYTE   W01
 BYTE   VOL   24*elegy_of_battle_mvl/mxv
 BYTE   W02
 BYTE   VOL   36*elegy_of_battle_mvl/mxv
 BYTE   W01
 BYTE   VOL   54*elegy_of_battle_mvl/mxv
 BYTE   W02
 BYTE   VOL   76*elegy_of_battle_mvl/mxv
 BYTE   W01
 BYTE   VOL   96*elegy_of_battle_mvl/mxv
 BYTE   W02
 BYTE   VOL   100*elegy_of_battle_mvl/mxv
 BYTE   W01
 BYTE   VOL   100*elegy_of_battle_mvl/mxv
 BYTE   W03
 BYTE   VOL   100*elegy_of_battle_mvl/mxv
 BYTE   W02
 BYTE   VOL   100*elegy_of_battle_mvl/mxv
 BYTE   W01
 BYTE   VOL   100*elegy_of_battle_mvl/mxv
 BYTE   W02
 BYTE   VOL   100*elegy_of_battle_mvl/mxv
 BYTE   W01
 BYTE   VOL   100*elegy_of_battle_mvl/mxv
 BYTE   W02
 BYTE   VOL   100*elegy_of_battle_mvl/mxv
 BYTE   W03
 BYTE   VOL   100*elegy_of_battle_mvl/mxv
 BYTE   W03
 BYTE   VOL   100*elegy_of_battle_mvl/mxv
 BYTE   W03
 BYTE   VOL   100*elegy_of_battle_mvl/mxv
 BYTE   W01
 BYTE   VOL   100*elegy_of_battle_mvl/mxv
 BYTE   W02
 BYTE   VOL   100*elegy_of_battle_mvl/mxv
 BYTE   W01
 BYTE   VOL   100*elegy_of_battle_mvl/mxv
 BYTE   W02
 BYTE   VOL   100*elegy_of_battle_mvl/mxv
 BYTE   W03
 BYTE   VOL   100*elegy_of_battle_mvl/mxv
 BYTE   W03
 BYTE   VOL   98*elegy_of_battle_mvl/mxv
 BYTE   W01
 BYTE   VOL   100*elegy_of_battle_mvl/mxv
 BYTE   W02
 BYTE   VOL   94*elegy_of_battle_mvl/mxv
 BYTE   W01
 BYTE   VOL   91*elegy_of_battle_mvl/mxv
 BYTE   W02
 BYTE   VOL   83*elegy_of_battle_mvl/mxv
 BYTE   W01
 BYTE   VOL   76*elegy_of_battle_mvl/mxv
 BYTE   W02
 BYTE   VOL   59*elegy_of_battle_mvl/mxv
 BYTE   W01
 BYTE   VOL   59*elegy_of_battle_mvl/mxv
 BYTE   W02
 BYTE   VOL   49*elegy_of_battle_mvl/mxv
 BYTE   W03
 BYTE   VOL   39*elegy_of_battle_mvl/mxv
 BYTE   W01
 BYTE   VOL   36*elegy_of_battle_mvl/mxv
 BYTE   W02
 BYTE   VOL   35*elegy_of_battle_mvl/mxv
 BYTE   W01
 BYTE   VOL   30*elegy_of_battle_mvl/mxv
 BYTE   W02
 BYTE   VOL   24*elegy_of_battle_mvl/mxv
 BYTE   W01
 BYTE   VOL   23*elegy_of_battle_mvl/mxv
 BYTE   W02
 BYTE   VOL   17*elegy_of_battle_mvl/mxv
 BYTE   W01
 BYTE   VOL   14*elegy_of_battle_mvl/mxv
 BYTE   W02
 BYTE   VOL   11*elegy_of_battle_mvl/mxv
 BYTE   W01
 BYTE   VOL   7*elegy_of_battle_mvl/mxv
 BYTE   W02
 BYTE   VOL   5*elegy_of_battle_mvl/mxv
 BYTE   W01
 BYTE   VOL   2*elegy_of_battle_mvl/mxv
 BYTE   W02
 BYTE   VOL   0*elegy_of_battle_mvl/mxv
 BYTE   W01
 BYTE   VOL   0*elegy_of_battle_mvl/mxv
 BYTE   W02
 BYTE   VOL   0*elegy_of_battle_mvl/mxv
 BYTE   W01
 BYTE   VOL   0*elegy_of_battle_mvl/mxv
 BYTE   W02
 BYTE   PEND 
//  #04 //011   ----------------------------------------
 BYTE   PATT
  POIN2 Label_010202E0
//  #04 //012   ----------------------------------------
Label_0102035D:
 BYTE   VOL   0*elegy_of_battle_mvl/mxv
 BYTE   N96  Cn3  v044
 BYTE   W01
 BYTE   VOL   0*elegy_of_battle_mvl/mxv
 BYTE   W02
 BYTE   VOL   1*elegy_of_battle_mvl/mxv
 BYTE   W01
 BYTE   VOL   2*elegy_of_battle_mvl/mxv
 BYTE   W02
 BYTE   VOL   3*elegy_of_battle_mvl/mxv
 BYTE   W01
 BYTE   VOL   6*elegy_of_battle_mvl/mxv
 BYTE   W02
 BYTE   VOL   7*elegy_of_battle_mvl/mxv
 BYTE   W01
 BYTE   VOL   10*elegy_of_battle_mvl/mxv
 BYTE   W02
 BYTE   VOL   13*elegy_of_battle_mvl/mxv
 BYTE   W01
 BYTE   VOL   16*elegy_of_battle_mvl/mxv
 BYTE   W02
 BYTE   VOL   19*elegy_of_battle_mvl/mxv
 BYTE   W01
 BYTE   VOL   24*elegy_of_battle_mvl/mxv
 BYTE   W02
 BYTE   VOL   36*elegy_of_battle_mvl/mxv
 BYTE   W01
 BYTE   VOL   54*elegy_of_battle_mvl/mxv
 BYTE   W02
 BYTE   VOL   76*elegy_of_battle_mvl/mxv
 BYTE   W01
 BYTE   VOL   96*elegy_of_battle_mvl/mxv
 BYTE   W02
 BYTE   VOL   100*elegy_of_battle_mvl/mxv
 BYTE   W01
 BYTE   VOL   100*elegy_of_battle_mvl/mxv
 BYTE   W03
 BYTE   VOL   100*elegy_of_battle_mvl/mxv
 BYTE   W02
 BYTE   VOL   100*elegy_of_battle_mvl/mxv
 BYTE   W01
 BYTE   VOL   100*elegy_of_battle_mvl/mxv
 BYTE   W02
 BYTE   VOL   100*elegy_of_battle_mvl/mxv
 BYTE   W01
 BYTE   VOL   100*elegy_of_battle_mvl/mxv
 BYTE   W02
 BYTE   VOL   100*elegy_of_battle_mvl/mxv
 BYTE   W03
 BYTE   VOL   100*elegy_of_battle_mvl/mxv
 BYTE   W03
 BYTE   VOL   100*elegy_of_battle_mvl/mxv
 BYTE   W03
 BYTE   VOL   100*elegy_of_battle_mvl/mxv
 BYTE   W01
 BYTE   VOL   100*elegy_of_battle_mvl/mxv
 BYTE   W02
 BYTE   VOL   100*elegy_of_battle_mvl/mxv
 BYTE   W01
 BYTE   VOL   100*elegy_of_battle_mvl/mxv
 BYTE   W02
 BYTE   VOL   100*elegy_of_battle_mvl/mxv
 BYTE   W03
 BYTE   VOL   100*elegy_of_battle_mvl/mxv
 BYTE   W03
 BYTE   VOL   98*elegy_of_battle_mvl/mxv
 BYTE   W01
 BYTE   VOL   100*elegy_of_battle_mvl/mxv
 BYTE   W02
 BYTE   VOL   94*elegy_of_battle_mvl/mxv
 BYTE   W01
 BYTE   VOL   91*elegy_of_battle_mvl/mxv
 BYTE   W02
 BYTE   VOL   83*elegy_of_battle_mvl/mxv
 BYTE   W01
 BYTE   VOL   76*elegy_of_battle_mvl/mxv
 BYTE   W02
 BYTE   VOL   59*elegy_of_battle_mvl/mxv
 BYTE   W01
 BYTE   VOL   59*elegy_of_battle_mvl/mxv
 BYTE   W02
 BYTE   VOL   49*elegy_of_battle_mvl/mxv
 BYTE   W03
 BYTE   VOL   39*elegy_of_battle_mvl/mxv
 BYTE   W01
 BYTE   VOL   36*elegy_of_battle_mvl/mxv
 BYTE   W02
 BYTE   VOL   35*elegy_of_battle_mvl/mxv
 BYTE   W01
 BYTE   VOL   30*elegy_of_battle_mvl/mxv
 BYTE   W02
 BYTE   VOL   24*elegy_of_battle_mvl/mxv
 BYTE   W01
 BYTE   VOL   23*elegy_of_battle_mvl/mxv
 BYTE   W02
 BYTE   VOL   17*elegy_of_battle_mvl/mxv
 BYTE   W01
 BYTE   VOL   14*elegy_of_battle_mvl/mxv
 BYTE   W02
 BYTE   VOL   11*elegy_of_battle_mvl/mxv
 BYTE   W01
 BYTE   VOL   7*elegy_of_battle_mvl/mxv
 BYTE   W02
 BYTE   VOL   5*elegy_of_battle_mvl/mxv
 BYTE   W01
 BYTE   VOL   2*elegy_of_battle_mvl/mxv
 BYTE   W02
 BYTE   VOL   0*elegy_of_battle_mvl/mxv
 BYTE   W01
 BYTE   VOL   0*elegy_of_battle_mvl/mxv
 BYTE   W02
 BYTE   VOL   0*elegy_of_battle_mvl/mxv
 BYTE   W01
 BYTE   VOL   0*elegy_of_battle_mvl/mxv
 BYTE   W02
 BYTE   PEND 
//  #04 //013   ----------------------------------------
 BYTE   PATT
  POIN2 Label_0102035D
//  #04 //014   ----------------------------------------
 BYTE   PATT
  POIN2 Label_010202E0
//  #04 //015   ----------------------------------------
Label_010203DF:
 BYTE   VOL   0*elegy_of_battle_mvl/mxv
 BYTE   N96  An2  v044
 BYTE   W01
 BYTE   VOL   0*elegy_of_battle_mvl/mxv
 BYTE   W02
 BYTE   VOL   1*elegy_of_battle_mvl/mxv
 BYTE   W01
 BYTE   VOL   2*elegy_of_battle_mvl/mxv
 BYTE   W02
 BYTE   VOL   3*elegy_of_battle_mvl/mxv
 BYTE   W01
 BYTE   VOL   6*elegy_of_battle_mvl/mxv
 BYTE   W02
 BYTE   VOL   7*elegy_of_battle_mvl/mxv
 BYTE   W01
 BYTE   VOL   10*elegy_of_battle_mvl/mxv
 BYTE   W02
 BYTE   VOL   13*elegy_of_battle_mvl/mxv
 BYTE   W01
 BYTE   VOL   16*elegy_of_battle_mvl/mxv
 BYTE   W02
 BYTE   VOL   19*elegy_of_battle_mvl/mxv
 BYTE   W01
 BYTE   VOL   24*elegy_of_battle_mvl/mxv
 BYTE   W02
 BYTE   VOL   36*elegy_of_battle_mvl/mxv
 BYTE   W01
 BYTE   VOL   54*elegy_of_battle_mvl/mxv
 BYTE   W02
 BYTE   VOL   76*elegy_of_battle_mvl/mxv
 BYTE   W01
 BYTE   VOL   96*elegy_of_battle_mvl/mxv
 BYTE   W02
 BYTE   VOL   100*elegy_of_battle_mvl/mxv
 BYTE   W01
 BYTE   VOL   100*elegy_of_battle_mvl/mxv
 BYTE   W03
 BYTE   VOL   100*elegy_of_battle_mvl/mxv
 BYTE   W02
 BYTE   VOL   100*elegy_of_battle_mvl/mxv
 BYTE   W01
 BYTE   VOL   100*elegy_of_battle_mvl/mxv
 BYTE   W02
 BYTE   VOL   100*elegy_of_battle_mvl/mxv
 BYTE   W01
 BYTE   VOL   100*elegy_of_battle_mvl/mxv
 BYTE   W02
 BYTE   VOL   100*elegy_of_battle_mvl/mxv
 BYTE   W03
 BYTE   VOL   100*elegy_of_battle_mvl/mxv
 BYTE   W03
 BYTE   VOL   100*elegy_of_battle_mvl/mxv
 BYTE   W03
 BYTE   VOL   100*elegy_of_battle_mvl/mxv
 BYTE   W01
 BYTE   VOL   100*elegy_of_battle_mvl/mxv
 BYTE   W02
 BYTE   VOL   100*elegy_of_battle_mvl/mxv
 BYTE   W01
 BYTE   VOL   100*elegy_of_battle_mvl/mxv
 BYTE   W02
 BYTE   VOL   100*elegy_of_battle_mvl/mxv
 BYTE   W03
 BYTE   VOL   100*elegy_of_battle_mvl/mxv
 BYTE   W03
 BYTE   VOL   98*elegy_of_battle_mvl/mxv
 BYTE   W01
 BYTE   VOL   100*elegy_of_battle_mvl/mxv
 BYTE   W02
 BYTE   VOL   94*elegy_of_battle_mvl/mxv
 BYTE   W01
 BYTE   VOL   91*elegy_of_battle_mvl/mxv
 BYTE   W02
 BYTE   VOL   83*elegy_of_battle_mvl/mxv
 BYTE   W01
 BYTE   VOL   76*elegy_of_battle_mvl/mxv
 BYTE   W02
 BYTE   VOL   59*elegy_of_battle_mvl/mxv
 BYTE   W01
 BYTE   VOL   59*elegy_of_battle_mvl/mxv
 BYTE   W02
 BYTE   VOL   49*elegy_of_battle_mvl/mxv
 BYTE   W03
 BYTE   VOL   39*elegy_of_battle_mvl/mxv
 BYTE   W01
 BYTE   VOL   36*elegy_of_battle_mvl/mxv
 BYTE   W02
 BYTE   VOL   35*elegy_of_battle_mvl/mxv
 BYTE   W01
 BYTE   VOL   30*elegy_of_battle_mvl/mxv
 BYTE   W02
 BYTE   VOL   24*elegy_of_battle_mvl/mxv
 BYTE   W01
 BYTE   VOL   23*elegy_of_battle_mvl/mxv
 BYTE   W02
 BYTE   VOL   17*elegy_of_battle_mvl/mxv
 BYTE   W01
 BYTE   VOL   14*elegy_of_battle_mvl/mxv
 BYTE   W02
 BYTE   VOL   11*elegy_of_battle_mvl/mxv
 BYTE   W01
 BYTE   VOL   7*elegy_of_battle_mvl/mxv
 BYTE   W02
 BYTE   VOL   5*elegy_of_battle_mvl/mxv
 BYTE   W01
 BYTE   VOL   2*elegy_of_battle_mvl/mxv
 BYTE   W02
 BYTE   VOL   0*elegy_of_battle_mvl/mxv
 BYTE   W01
 BYTE   VOL   0*elegy_of_battle_mvl/mxv
 BYTE   W02
 BYTE   VOL   0*elegy_of_battle_mvl/mxv
 BYTE   W01
 BYTE   VOL   0*elegy_of_battle_mvl/mxv
 BYTE   W02
 BYTE   PEND 
//  #04 //016   ----------------------------------------
 BYTE   PATT
  POIN2 Label_0101FFEF
//  #04 //017   ----------------------------------------
 BYTE   PATT
  POIN2 Label_0101FFEF
//  #04 //018   ----------------------------------------
 BYTE   PATT
  POIN2 Label_010202E0
//  #04 //019   ----------------------------------------
Label_01020466:
 BYTE   VOL   0*elegy_of_battle_mvl/mxv
 BYTE   N96  Cn3  v044
 BYTE   W01
 BYTE   VOL   0*elegy_of_battle_mvl/mxv
 BYTE   W02
 BYTE   VOL   1*elegy_of_battle_mvl/mxv
 BYTE   W01
 BYTE   VOL   2*elegy_of_battle_mvl/mxv
 BYTE   W02
 BYTE   VOL   3*elegy_of_battle_mvl/mxv
 BYTE   W01
 BYTE   VOL   6*elegy_of_battle_mvl/mxv
 BYTE   W02
 BYTE   VOL   7*elegy_of_battle_mvl/mxv
 BYTE   W01
 BYTE   VOL   10*elegy_of_battle_mvl/mxv
 BYTE   W02
 BYTE   VOL   13*elegy_of_battle_mvl/mxv
 BYTE   W01
 BYTE   VOL   16*elegy_of_battle_mvl/mxv
 BYTE   W02
 BYTE   VOL   19*elegy_of_battle_mvl/mxv
 BYTE   W01
 BYTE   VOL   24*elegy_of_battle_mvl/mxv
 BYTE   W02
 BYTE   VOL   36*elegy_of_battle_mvl/mxv
 BYTE   W01
 BYTE   VOL   54*elegy_of_battle_mvl/mxv
 BYTE   W02
 BYTE   VOL   76*elegy_of_battle_mvl/mxv
 BYTE   W01
 BYTE   VOL   96*elegy_of_battle_mvl/mxv
 BYTE   W02
 BYTE   VOL   100*elegy_of_battle_mvl/mxv
 BYTE   W01
 BYTE   VOL   100*elegy_of_battle_mvl/mxv
 BYTE   W03
 BYTE   VOL   100*elegy_of_battle_mvl/mxv
 BYTE   W02
 BYTE   VOL   100*elegy_of_battle_mvl/mxv
 BYTE   W01
 BYTE   VOL   100*elegy_of_battle_mvl/mxv
 BYTE   W02
 BYTE   VOL   100*elegy_of_battle_mvl/mxv
 BYTE   W01
 BYTE   VOL   100*elegy_of_battle_mvl/mxv
 BYTE   W02
 BYTE   VOL   100*elegy_of_battle_mvl/mxv
 BYTE   W03
 BYTE   VOL   100*elegy_of_battle_mvl/mxv
 BYTE   W03
 BYTE   VOL   100*elegy_of_battle_mvl/mxv
 BYTE   W03
 BYTE   VOL   100*elegy_of_battle_mvl/mxv
 BYTE   W01
 BYTE   VOL   100*elegy_of_battle_mvl/mxv
 BYTE   W02
 BYTE   VOL   100*elegy_of_battle_mvl/mxv
 BYTE   W01
 BYTE   VOL   100*elegy_of_battle_mvl/mxv
 BYTE   W02
 BYTE   VOL   100*elegy_of_battle_mvl/mxv
 BYTE   W03
 BYTE   VOL   100*elegy_of_battle_mvl/mxv
 BYTE   W03
 BYTE   VOL   98*elegy_of_battle_mvl/mxv
 BYTE   W01
 BYTE   VOL   100*elegy_of_battle_mvl/mxv
 BYTE   W02
 BYTE   VOL   94*elegy_of_battle_mvl/mxv
 BYTE   W01
 BYTE   VOL   91*elegy_of_battle_mvl/mxv
 BYTE   W02
 BYTE   VOL   83*elegy_of_battle_mvl/mxv
 BYTE   W01
 BYTE   VOL   76*elegy_of_battle_mvl/mxv
 BYTE   W02
 BYTE   VOL   59*elegy_of_battle_mvl/mxv
 BYTE   W01
 BYTE   VOL   59*elegy_of_battle_mvl/mxv
 BYTE   W02
 BYTE   VOL   49*elegy_of_battle_mvl/mxv
 BYTE   W03
 BYTE   VOL   39*elegy_of_battle_mvl/mxv
 BYTE   W01
 BYTE   VOL   36*elegy_of_battle_mvl/mxv
 BYTE   W02
 BYTE   VOL   35*elegy_of_battle_mvl/mxv
 BYTE   W01
 BYTE   VOL   30*elegy_of_battle_mvl/mxv
 BYTE   W02
 BYTE   VOL   24*elegy_of_battle_mvl/mxv
 BYTE   W01
 BYTE   VOL   23*elegy_of_battle_mvl/mxv
 BYTE   W02
 BYTE   VOL   17*elegy_of_battle_mvl/mxv
 BYTE   W01
 BYTE   VOL   14*elegy_of_battle_mvl/mxv
 BYTE   W02
 BYTE   VOL   11*elegy_of_battle_mvl/mxv
 BYTE   W01
 BYTE   VOL   7*elegy_of_battle_mvl/mxv
 BYTE   W02
 BYTE   VOL   5*elegy_of_battle_mvl/mxv
 BYTE   W01
 BYTE   VOL   2*elegy_of_battle_mvl/mxv
 BYTE   W02
 BYTE   VOL   0*elegy_of_battle_mvl/mxv
 BYTE   W06
 BYTE   PEND 
//  #04 //020   ----------------------------------------
 BYTE   PATT
  POIN2 Label_01020466
//  #04 //021   ----------------------------------------
Label_010204DD:
 BYTE   VOL   0*elegy_of_battle_mvl/mxv
 BYTE   N96  As2  v044
 BYTE   W01
 BYTE   VOL   0*elegy_of_battle_mvl/mxv
 BYTE   W02
 BYTE   VOL   1*elegy_of_battle_mvl/mxv
 BYTE   W01
 BYTE   VOL   2*elegy_of_battle_mvl/mxv
 BYTE   W02
 BYTE   VOL   3*elegy_of_battle_mvl/mxv
 BYTE   W01
 BYTE   VOL   6*elegy_of_battle_mvl/mxv
 BYTE   W02
 BYTE   VOL   7*elegy_of_battle_mvl/mxv
 BYTE   W01
 BYTE   VOL   10*elegy_of_battle_mvl/mxv
 BYTE   W02
 BYTE   VOL   13*elegy_of_battle_mvl/mxv
 BYTE   W01
 BYTE   VOL   16*elegy_of_battle_mvl/mxv
 BYTE   W02
 BYTE   VOL   19*elegy_of_battle_mvl/mxv
 BYTE   W01
 BYTE   VOL   24*elegy_of_battle_mvl/mxv
 BYTE   W02
 BYTE   VOL   36*elegy_of_battle_mvl/mxv
 BYTE   W01
 BYTE   VOL   54*elegy_of_battle_mvl/mxv
 BYTE   W02
 BYTE   VOL   76*elegy_of_battle_mvl/mxv
 BYTE   W01
 BYTE   VOL   96*elegy_of_battle_mvl/mxv
 BYTE   W02
 BYTE   VOL   100*elegy_of_battle_mvl/mxv
 BYTE   W01
 BYTE   VOL   100*elegy_of_battle_mvl/mxv
 BYTE   W03
 BYTE   VOL   100*elegy_of_battle_mvl/mxv
 BYTE   W02
 BYTE   VOL   100*elegy_of_battle_mvl/mxv
 BYTE   W01
 BYTE   VOL   100*elegy_of_battle_mvl/mxv
 BYTE   W02
 BYTE   VOL   100*elegy_of_battle_mvl/mxv
 BYTE   W01
 BYTE   VOL   100*elegy_of_battle_mvl/mxv
 BYTE   W02
 BYTE   VOL   100*elegy_of_battle_mvl/mxv
 BYTE   W03
 BYTE   VOL   100*elegy_of_battle_mvl/mxv
 BYTE   W03
 BYTE   VOL   100*elegy_of_battle_mvl/mxv
 BYTE   W03
 BYTE   VOL   100*elegy_of_battle_mvl/mxv
 BYTE   W01
 BYTE   VOL   100*elegy_of_battle_mvl/mxv
 BYTE   W02
 BYTE   VOL   100*elegy_of_battle_mvl/mxv
 BYTE   W01
 BYTE   VOL   100*elegy_of_battle_mvl/mxv
 BYTE   W02
 BYTE   VOL   100*elegy_of_battle_mvl/mxv
 BYTE   W03
 BYTE   VOL   100*elegy_of_battle_mvl/mxv
 BYTE   W03
 BYTE   VOL   98*elegy_of_battle_mvl/mxv
 BYTE   W01
 BYTE   VOL   100*elegy_of_battle_mvl/mxv
 BYTE   W02
 BYTE   VOL   94*elegy_of_battle_mvl/mxv
 BYTE   W01
 BYTE   VOL   91*elegy_of_battle_mvl/mxv
 BYTE   W02
 BYTE   VOL   83*elegy_of_battle_mvl/mxv
 BYTE   W01
 BYTE   VOL   76*elegy_of_battle_mvl/mxv
 BYTE   W02
 BYTE   VOL   59*elegy_of_battle_mvl/mxv
 BYTE   W01
 BYTE   VOL   59*elegy_of_battle_mvl/mxv
 BYTE   W02
 BYTE   VOL   49*elegy_of_battle_mvl/mxv
 BYTE   W03
 BYTE   VOL   39*elegy_of_battle_mvl/mxv
 BYTE   W01
 BYTE   VOL   36*elegy_of_battle_mvl/mxv
 BYTE   W02
 BYTE   VOL   35*elegy_of_battle_mvl/mxv
 BYTE   W01
 BYTE   VOL   30*elegy_of_battle_mvl/mxv
 BYTE   W02
 BYTE   VOL   24*elegy_of_battle_mvl/mxv
 BYTE   W01
 BYTE   VOL   23*elegy_of_battle_mvl/mxv
 BYTE   W02
 BYTE   VOL   17*elegy_of_battle_mvl/mxv
 BYTE   W01
 BYTE   VOL   14*elegy_of_battle_mvl/mxv
 BYTE   W02
 BYTE   VOL   11*elegy_of_battle_mvl/mxv
 BYTE   W01
 BYTE   VOL   7*elegy_of_battle_mvl/mxv
 BYTE   W02
 BYTE   VOL   5*elegy_of_battle_mvl/mxv
 BYTE   W01
 BYTE   VOL   2*elegy_of_battle_mvl/mxv
 BYTE   W02
 BYTE   VOL   0*elegy_of_battle_mvl/mxv
 BYTE   W06
 BYTE   PEND 
//  #04 //022   ----------------------------------------
 BYTE   VOICE   41
 BYTE   VOL   0*elegy_of_battle_mvl/mxv
 BYTE   N96
 BYTE   W01
 BYTE   VOL   0*elegy_of_battle_mvl/mxv
 BYTE   W02
 BYTE   VOL   1*elegy_of_battle_mvl/mxv
 BYTE   W01
 BYTE   VOL   2*elegy_of_battle_mvl/mxv
 BYTE   W02
 BYTE   VOL   3*elegy_of_battle_mvl/mxv
 BYTE   W01
 BYTE   VOL   6*elegy_of_battle_mvl/mxv
 BYTE   W02
 BYTE   VOL   7*elegy_of_battle_mvl/mxv
 BYTE   W01
 BYTE   VOL   10*elegy_of_battle_mvl/mxv
 BYTE   W02
 BYTE   VOL   13*elegy_of_battle_mvl/mxv
 BYTE   W01
 BYTE   VOL   16*elegy_of_battle_mvl/mxv
 BYTE   W02
 BYTE   VOL   19*elegy_of_battle_mvl/mxv
 BYTE   W01
 BYTE   VOL   24*elegy_of_battle_mvl/mxv
 BYTE   W02
 BYTE   VOL   36*elegy_of_battle_mvl/mxv
 BYTE   W01
 BYTE   VOL   54*elegy_of_battle_mvl/mxv
 BYTE   W02
 BYTE   VOL   76*elegy_of_battle_mvl/mxv
 BYTE   W01
 BYTE   VOL   96*elegy_of_battle_mvl/mxv
 BYTE   W02
 BYTE   VOL   100*elegy_of_battle_mvl/mxv
 BYTE   W01
 BYTE   VOL   100*elegy_of_battle_mvl/mxv
 BYTE   W03
 BYTE   VOL   100*elegy_of_battle_mvl/mxv
 BYTE   W02
 BYTE   VOL   100*elegy_of_battle_mvl/mxv
 BYTE   W01
 BYTE   VOL   100*elegy_of_battle_mvl/mxv
 BYTE   W02
 BYTE   VOL   100*elegy_of_battle_mvl/mxv
 BYTE   W01
 BYTE   VOL   100*elegy_of_battle_mvl/mxv
 BYTE   W02
 BYTE   VOL   100*elegy_of_battle_mvl/mxv
 BYTE   W03
 BYTE   VOL   100*elegy_of_battle_mvl/mxv
 BYTE   W03
 BYTE   VOL   100*elegy_of_battle_mvl/mxv
 BYTE   W03
 BYTE   VOL   100*elegy_of_battle_mvl/mxv
 BYTE   W01
 BYTE   VOL   100*elegy_of_battle_mvl/mxv
 BYTE   W02
 BYTE   VOL   100*elegy_of_battle_mvl/mxv
 BYTE   W01
 BYTE   VOL   100*elegy_of_battle_mvl/mxv
 BYTE   W02
 BYTE   VOL   100*elegy_of_battle_mvl/mxv
 BYTE   W03
 BYTE   VOL   100*elegy_of_battle_mvl/mxv
 BYTE   W03
 BYTE   VOL   98*elegy_of_battle_mvl/mxv
 BYTE   W01
 BYTE   VOL   100*elegy_of_battle_mvl/mxv
 BYTE   W02
 BYTE   VOL   94*elegy_of_battle_mvl/mxv
 BYTE   W01
 BYTE   VOL   91*elegy_of_battle_mvl/mxv
 BYTE   W02
 BYTE   VOL   83*elegy_of_battle_mvl/mxv
 BYTE   W01
 BYTE   VOL   76*elegy_of_battle_mvl/mxv
 BYTE   W02
 BYTE   VOL   59*elegy_of_battle_mvl/mxv
 BYTE   W01
 BYTE   VOL   59*elegy_of_battle_mvl/mxv
 BYTE   W02
 BYTE   VOL   49*elegy_of_battle_mvl/mxv
 BYTE   W03
 BYTE   VOL   39*elegy_of_battle_mvl/mxv
 BYTE   W01
 BYTE   VOL   36*elegy_of_battle_mvl/mxv
 BYTE   W02
 BYTE   VOL   35*elegy_of_battle_mvl/mxv
 BYTE   W01
 BYTE   VOL   30*elegy_of_battle_mvl/mxv
 BYTE   W02
 BYTE   VOL   24*elegy_of_battle_mvl/mxv
 BYTE   W01
 BYTE   VOL   23*elegy_of_battle_mvl/mxv
 BYTE   W02
 BYTE   VOL   17*elegy_of_battle_mvl/mxv
 BYTE   W01
 BYTE   VOL   14*elegy_of_battle_mvl/mxv
 BYTE   W02
 BYTE   VOL   11*elegy_of_battle_mvl/mxv
 BYTE   W01
 BYTE   VOL   7*elegy_of_battle_mvl/mxv
 BYTE   W02
 BYTE   VOL   5*elegy_of_battle_mvl/mxv
 BYTE   W01
 BYTE   VOL   2*elegy_of_battle_mvl/mxv
 BYTE   W02
 BYTE   VOL   0*elegy_of_battle_mvl/mxv
 BYTE   W01
 BYTE   VOL   0*elegy_of_battle_mvl/mxv
 BYTE   W02
 BYTE   VOL   0*elegy_of_battle_mvl/mxv
 BYTE   W01
 BYTE   VOL   0*elegy_of_battle_mvl/mxv
 BYTE   W02
//  #04 //023   ----------------------------------------
 BYTE   PATT
  POIN2 Label_0101FF77
//  #04 //024   ----------------------------------------
 BYTE   PATT
  POIN2 Label_0101FFEF
//  #04 //025   ----------------------------------------
 BYTE   PATT
  POIN2 Label_0101FFEF
//  #04 //026   ----------------------------------------
 BYTE   PATT
  POIN2 Label_0102006C
//  #04 //027   ----------------------------------------
 BYTE   PATT
  POIN2 Label_010200E8
//  #04 //028   ----------------------------------------
 BYTE   PATT
  POIN2 Label_01020172
//  #04 //029   ----------------------------------------
 BYTE   PATT
  POIN2 Label_010201EA
//  #04 //030   ----------------------------------------
 BYTE   PATT
  POIN2 Label_010201EA
//  #04 //031   ----------------------------------------
 BYTE   PATT
  POIN2 Label_01020267
//  #04 //032   ----------------------------------------
 BYTE   PATT
  POIN2 Label_010202E0
//  #04 //033   ----------------------------------------
 BYTE   PATT
  POIN2 Label_010202E0
//  #04 //034   ----------------------------------------
 BYTE   PATT
  POIN2 Label_0102035D
//  #04 //035   ----------------------------------------
 BYTE   PATT
  POIN2 Label_0102035D
//  #04 //036   ----------------------------------------
 BYTE   PATT
  POIN2 Label_010202E0
//  #04 //037   ----------------------------------------
 BYTE   PATT
  POIN2 Label_010203DF
//  #04 //038   ----------------------------------------
 BYTE   PATT
  POIN2 Label_0101FFEF
//  #04 //039   ----------------------------------------
 BYTE   PATT
  POIN2 Label_0101FFEF
//  #04 //040   ----------------------------------------
 BYTE   PATT
  POIN2 Label_010202E0
//  #04 //041   ----------------------------------------
 BYTE   PATT
  POIN2 Label_01020466
//  #04 //042   ----------------------------------------
 BYTE   PATT
  POIN2 Label_01020466
//  #04 //043   ----------------------------------------
 BYTE   PATT
  POIN2 Label_010204DD
//  #04 //044   ----------------------------------------
 BYTE   VOL   12*elegy_of_battle_mvl/mxv
 BYTE   TIE  Gn2  v044
 BYTE   W01
 BYTE   VOL   12*elegy_of_battle_mvl/mxv
 BYTE   W02
 BYTE   VOL   14*elegy_of_battle_mvl/mxv
 BYTE   W01
 BYTE   VOL   14*elegy_of_battle_mvl/mxv
 BYTE   W02
 BYTE   VOL   14*elegy_of_battle_mvl/mxv
 BYTE   W01
 BYTE   VOL   18*elegy_of_battle_mvl/mxv
 BYTE   W02
 BYTE   VOL   20*elegy_of_battle_mvl/mxv
 BYTE   W01
 BYTE   VOL   20*elegy_of_battle_mvl/mxv
 BYTE   W02
 BYTE   VOL   24*elegy_of_battle_mvl/mxv
 BYTE   W01
 BYTE   VOL   27*elegy_of_battle_mvl/mxv
 BYTE   W02
 BYTE   VOL   29*elegy_of_battle_mvl/mxv
 BYTE   W01
 BYTE   VOL   32*elegy_of_battle_mvl/mxv
 BYTE   W02
 BYTE   VOL   33*elegy_of_battle_mvl/mxv
 BYTE   W01
 BYTE   VOL   37*elegy_of_battle_mvl/mxv
 BYTE   W02
 BYTE   VOL   42*elegy_of_battle_mvl/mxv
 BYTE   W01
 BYTE   VOL   45*elegy_of_battle_mvl/mxv
 BYTE   W02
 BYTE   VOL   47*elegy_of_battle_mvl/mxv
 BYTE   W01
 BYTE   VOL   50*elegy_of_battle_mvl/mxv
 BYTE   W03
 BYTE   VOL   55*elegy_of_battle_mvl/mxv
 BYTE   W02
 BYTE   VOL   55*elegy_of_battle_mvl/mxv
 BYTE   W01
 BYTE   VOL   57*elegy_of_battle_mvl/mxv
 BYTE   W02
 BYTE   VOL   57*elegy_of_battle_mvl/mxv
 BYTE   W01
 BYTE   VOL   57*elegy_of_battle_mvl/mxv
 BYTE   W02
 BYTE   VOL   57*elegy_of_battle_mvl/mxv
 BYTE   W03
 BYTE   VOL   57*elegy_of_battle_mvl/mxv
 BYTE   W03
 BYTE   VOL   60*elegy_of_battle_mvl/mxv
 BYTE   W03
 BYTE   VOL   62*elegy_of_battle_mvl/mxv
 BYTE   W01
 BYTE   VOL   62*elegy_of_battle_mvl/mxv
 BYTE   W02
 BYTE   VOL   66*elegy_of_battle_mvl/mxv
 BYTE   W01
 BYTE   VOL   66*elegy_of_battle_mvl/mxv
 BYTE   W02
 BYTE   VOL   66*elegy_of_battle_mvl/mxv
 BYTE   W03
 BYTE   VOL   68*elegy_of_battle_mvl/mxv
 BYTE   W03
 BYTE   VOL   68*elegy_of_battle_mvl/mxv
 BYTE   W01
 BYTE   VOL   68*elegy_of_battle_mvl/mxv
 BYTE   W02
 BYTE   VOL   68*elegy_of_battle_mvl/mxv
 BYTE   W01
 BYTE   VOL   68*elegy_of_battle_mvl/mxv
 BYTE   W02
 BYTE   VOL   68*elegy_of_battle_mvl/mxv
 BYTE   W01
 BYTE   VOL   71*elegy_of_battle_mvl/mxv
 BYTE   W02
 BYTE   VOL   71*elegy_of_battle_mvl/mxv
 BYTE   W01
 BYTE   VOL   71*elegy_of_battle_mvl/mxv
 BYTE   W02
 BYTE   VOL   71*elegy_of_battle_mvl/mxv
 BYTE   W03
 BYTE   VOL   71*elegy_of_battle_mvl/mxv
 BYTE   W01
 BYTE   VOL   71*elegy_of_battle_mvl/mxv
 BYTE   W02
 BYTE   VOL   74*elegy_of_battle_mvl/mxv
 BYTE   W01
 BYTE   VOL   74*elegy_of_battle_mvl/mxv
 BYTE   W02
 BYTE   VOL   74*elegy_of_battle_mvl/mxv
 BYTE   W01
 BYTE   VOL   74*elegy_of_battle_mvl/mxv
 BYTE   W02
 BYTE   VOL   74*elegy_of_battle_mvl/mxv
 BYTE   W01
 BYTE   VOL   74*elegy_of_battle_mvl/mxv
 BYTE   W02
 BYTE   VOL   74*elegy_of_battle_mvl/mxv
 BYTE   W01
 BYTE   VOL   74*elegy_of_battle_mvl/mxv
 BYTE   W02
 BYTE   VOL   74*elegy_of_battle_mvl/mxv
 BYTE   W01
 BYTE   VOL   74*elegy_of_battle_mvl/mxv
 BYTE   W02
 BYTE   VOL   74*elegy_of_battle_mvl/mxv
 BYTE   W01
 BYTE   VOL   74*elegy_of_battle_mvl/mxv
 BYTE   W02
 BYTE   VOL   71*elegy_of_battle_mvl/mxv
 BYTE   W01
 BYTE   VOL   71*elegy_of_battle_mvl/mxv
 BYTE   W01
 BYTE   VOL   70*elegy_of_battle_mvl/mxv
 BYTE   W01
//  #04 //045   ----------------------------------------
 BYTE   VOL   70*elegy_of_battle_mvl/mxv
 BYTE   W01
 BYTE   VOL   66*elegy_of_battle_mvl/mxv
 BYTE   W01
 BYTE   VOL   66*elegy_of_battle_mvl/mxv
 BYTE   W01
 BYTE   VOL   64*elegy_of_battle_mvl/mxv
 BYTE   W01
 BYTE   VOL   60*elegy_of_battle_mvl/mxv
 BYTE   W01
 BYTE   VOL   60*elegy_of_battle_mvl/mxv
 BYTE   W01
 BYTE   VOL   59*elegy_of_battle_mvl/mxv
 BYTE   W01
 BYTE   VOL   59*elegy_of_battle_mvl/mxv
 BYTE   W01
 BYTE   VOL   55*elegy_of_battle_mvl/mxv
 BYTE   W01
 BYTE   VOL   54*elegy_of_battle_mvl/mxv
 BYTE   W01
 BYTE   VOL   54*elegy_of_battle_mvl/mxv
 BYTE   W01
 BYTE   VOL   50*elegy_of_battle_mvl/mxv
 BYTE   W01
 BYTE   VOL   50*elegy_of_battle_mvl/mxv
 BYTE   W01
 BYTE   VOL   49*elegy_of_battle_mvl/mxv
 BYTE   W01
 BYTE   VOL   49*elegy_of_battle_mvl/mxv
 BYTE   W01
 BYTE   VOL   45*elegy_of_battle_mvl/mxv
 BYTE   W01
 BYTE   VOL   45*elegy_of_battle_mvl/mxv
 BYTE   W01
 BYTE   VOL   45*elegy_of_battle_mvl/mxv
 BYTE   W01
 BYTE   VOL   44*elegy_of_battle_mvl/mxv
 BYTE   W01
 BYTE   VOL   44*elegy_of_battle_mvl/mxv
 BYTE   W01
 BYTE   VOL   40*elegy_of_battle_mvl/mxv
 BYTE   W01
 BYTE   VOL   40*elegy_of_battle_mvl/mxv
 BYTE   W01
 BYTE   VOL   40*elegy_of_battle_mvl/mxv
 BYTE   W01
 BYTE   VOL   40*elegy_of_battle_mvl/mxv
 BYTE   W01
 BYTE   VOL   39*elegy_of_battle_mvl/mxv
 BYTE   W01
 BYTE   VOL   36*elegy_of_battle_mvl/mxv
 BYTE   W01
 BYTE   VOL   36*elegy_of_battle_mvl/mxv
 BYTE   W01
 BYTE   VOL   36*elegy_of_battle_mvl/mxv
 BYTE   W01
 BYTE   VOL   35*elegy_of_battle_mvl/mxv
 BYTE   W01
 BYTE   VOL   35*elegy_of_battle_mvl/mxv
 BYTE   W01
 BYTE   VOL   32*elegy_of_battle_mvl/mxv
 BYTE   W01
 BYTE   VOL   30*elegy_of_battle_mvl/mxv
 BYTE   W01
 BYTE   VOL   27*elegy_of_battle_mvl/mxv
 BYTE   W01
 BYTE   VOL   26*elegy_of_battle_mvl/mxv
 BYTE   W01
 BYTE   VOL   26*elegy_of_battle_mvl/mxv
 BYTE   W01
 BYTE   VOL   26*elegy_of_battle_mvl/mxv
 BYTE   W01
 BYTE   VOL   24*elegy_of_battle_mvl/mxv
 BYTE   W01
 BYTE   VOL   24*elegy_of_battle_mvl/mxv
 BYTE   W01
 BYTE   VOL   23*elegy_of_battle_mvl/mxv
 BYTE   W01
 BYTE   VOL   20*elegy_of_battle_mvl/mxv
 BYTE   W01
 BYTE   VOL   20*elegy_of_battle_mvl/mxv
 BYTE   W01
 BYTE   VOL   19*elegy_of_battle_mvl/mxv
 BYTE   W01
 BYTE   VOL   19*elegy_of_battle_mvl/mxv
 BYTE   W01
 BYTE   VOL   17*elegy_of_battle_mvl/mxv
 BYTE   W01
 BYTE   VOL   17*elegy_of_battle_mvl/mxv
 BYTE   W01
 BYTE   VOL   16*elegy_of_battle_mvl/mxv
 BYTE   W01
 BYTE   VOL   16*elegy_of_battle_mvl/mxv
 BYTE   W02
 BYTE   VOL   13*elegy_of_battle_mvl/mxv
 BYTE   W01
 BYTE   VOL   13*elegy_of_battle_mvl/mxv
 BYTE   W01
 BYTE   VOL   11*elegy_of_battle_mvl/mxv
 BYTE   W01
 BYTE   VOL   11*elegy_of_battle_mvl/mxv
 BYTE   W01
 BYTE   VOL   10*elegy_of_battle_mvl/mxv
 BYTE   W01
 BYTE   VOL   10*elegy_of_battle_mvl/mxv
 BYTE   W01
 BYTE   VOL   8*elegy_of_battle_mvl/mxv
 BYTE   W01
 BYTE   VOL   8*elegy_of_battle_mvl/mxv
 BYTE   W01
 BYTE   VOL   7*elegy_of_battle_mvl/mxv
 BYTE   W01
 BYTE   VOL   6*elegy_of_battle_mvl/mxv
 BYTE   W01
 BYTE   VOL   6*elegy_of_battle_mvl/mxv
 BYTE   W01
 BYTE   VOL   5*elegy_of_battle_mvl/mxv
 BYTE   W01
 BYTE   VOL   3*elegy_of_battle_mvl/mxv
 BYTE   W05
 BYTE   VOL   2*elegy_of_battle_mvl/mxv
 BYTE   W01
 BYTE   VOL   1*elegy_of_battle_mvl/mxv
 BYTE   W03
 BYTE   VOL   0*elegy_of_battle_mvl/mxv
 BYTE   W03
 BYTE   VOL   0*elegy_of_battle_mvl/mxv
 BYTE   W05
 BYTE   VOL   0*elegy_of_battle_mvl/mxv
 BYTE   W04
 BYTE   VOL   0*elegy_of_battle_mvl/mxv
 BYTE   W06
 BYTE   VOL   0*elegy_of_battle_mvl/mxv
 BYTE   W03
 BYTE   VOL   0*elegy_of_battle_mvl/mxv
 BYTE   W03
 BYTE   VOL   0*elegy_of_battle_mvl/mxv
 BYTE   W01
 BYTE   VOL   0*elegy_of_battle_mvl/mxv
 BYTE   W02
//  #04 //046   ----------------------------------------
 BYTE   EOT
 BYTE   GoTo
  POIN2 Label_0101FEFA
 BYTE   FINE

//**************** Track 5 (Midi-Chn.4) ****************//

elegy_of_battle_005:
//  #05 //000   ----------------------------------------
 BYTE   KEYSH   elegy_of_battle_key+0
Label_0101EC0E:
 BYTE   VOICE   42
 BYTE   MODT 0
 BYTE   LFOS 44
 BYTE   VOL   0*elegy_of_battle_mvl/mxv
 BYTE   N96  Gn1  v044
 BYTE   W01
 BYTE   VOL   0*elegy_of_battle_mvl/mxv
 BYTE   W02
 BYTE   VOL   1*elegy_of_battle_mvl/mxv
 BYTE   W01
 BYTE   VOL   2*elegy_of_battle_mvl/mxv
 BYTE   W02
 BYTE   VOL   3*elegy_of_battle_mvl/mxv
 BYTE   W01
 BYTE   VOL   6*elegy_of_battle_mvl/mxv
 BYTE   W02
 BYTE   VOL   7*elegy_of_battle_mvl/mxv
 BYTE   W01
 BYTE   VOL   10*elegy_of_battle_mvl/mxv
 BYTE   W02
 BYTE   VOL   13*elegy_of_battle_mvl/mxv
 BYTE   W01
 BYTE   VOL   16*elegy_of_battle_mvl/mxv
 BYTE   W02
 BYTE   VOL   19*elegy_of_battle_mvl/mxv
 BYTE   W01
 BYTE   VOL   24*elegy_of_battle_mvl/mxv
 BYTE   W02
 BYTE   VOL   36*elegy_of_battle_mvl/mxv
 BYTE   W01
 BYTE   VOL   54*elegy_of_battle_mvl/mxv
 BYTE   W02
 BYTE   VOL   76*elegy_of_battle_mvl/mxv
 BYTE   W01
 BYTE   VOL   96*elegy_of_battle_mvl/mxv
 BYTE   W02
 BYTE   VOL   100*elegy_of_battle_mvl/mxv
 BYTE   W01
 BYTE   VOL   100*elegy_of_battle_mvl/mxv
 BYTE   W03
 BYTE   VOL   100*elegy_of_battle_mvl/mxv
 BYTE   W02
 BYTE   VOL   100*elegy_of_battle_mvl/mxv
 BYTE   W01
 BYTE   VOL   100*elegy_of_battle_mvl/mxv
 BYTE   W02
 BYTE   VOL   100*elegy_of_battle_mvl/mxv
 BYTE   W01
 BYTE   VOL   100*elegy_of_battle_mvl/mxv
 BYTE   W02
 BYTE   VOL   100*elegy_of_battle_mvl/mxv
 BYTE   W03
 BYTE   VOL   100*elegy_of_battle_mvl/mxv
 BYTE   W03
 BYTE   VOL   100*elegy_of_battle_mvl/mxv
 BYTE   W03
 BYTE   VOL   100*elegy_of_battle_mvl/mxv
 BYTE   W01
 BYTE   VOL   100*elegy_of_battle_mvl/mxv
 BYTE   W02
 BYTE   VOL   100*elegy_of_battle_mvl/mxv
 BYTE   W01
 BYTE   VOL   100*elegy_of_battle_mvl/mxv
 BYTE   W02
 BYTE   VOL   100*elegy_of_battle_mvl/mxv
 BYTE   W03
 BYTE   VOL   100*elegy_of_battle_mvl/mxv
 BYTE   W03
 BYTE   VOL   98*elegy_of_battle_mvl/mxv
 BYTE   W01
 BYTE   VOL   100*elegy_of_battle_mvl/mxv
 BYTE   W02
 BYTE   VOL   94*elegy_of_battle_mvl/mxv
 BYTE   W01
 BYTE   VOL   91*elegy_of_battle_mvl/mxv
 BYTE   W02
 BYTE   VOL   83*elegy_of_battle_mvl/mxv
 BYTE   W01
 BYTE   VOL   76*elegy_of_battle_mvl/mxv
 BYTE   W02
 BYTE   VOL   59*elegy_of_battle_mvl/mxv
 BYTE   W01
 BYTE   VOL   59*elegy_of_battle_mvl/mxv
 BYTE   W02
 BYTE   VOL   49*elegy_of_battle_mvl/mxv
 BYTE   W03
 BYTE   VOL   39*elegy_of_battle_mvl/mxv
 BYTE   W01
 BYTE   VOL   36*elegy_of_battle_mvl/mxv
 BYTE   W02
 BYTE   VOL   35*elegy_of_battle_mvl/mxv
 BYTE   W01
 BYTE   VOL   30*elegy_of_battle_mvl/mxv
 BYTE   W02
 BYTE   VOL   24*elegy_of_battle_mvl/mxv
 BYTE   W01
 BYTE   VOL   23*elegy_of_battle_mvl/mxv
 BYTE   W02
 BYTE   VOL   17*elegy_of_battle_mvl/mxv
 BYTE   W01
 BYTE   VOL   14*elegy_of_battle_mvl/mxv
 BYTE   W02
 BYTE   VOL   11*elegy_of_battle_mvl/mxv
 BYTE   W01
 BYTE   VOL   7*elegy_of_battle_mvl/mxv
 BYTE   W02
 BYTE   VOL   5*elegy_of_battle_mvl/mxv
 BYTE   W01
 BYTE   VOL   2*elegy_of_battle_mvl/mxv
 BYTE   W02
 BYTE   VOL   0*elegy_of_battle_mvl/mxv
 BYTE   W01
 BYTE   VOL   0*elegy_of_battle_mvl/mxv
 BYTE   W02
 BYTE   VOL   0*elegy_of_battle_mvl/mxv
 BYTE   W01
 BYTE   VOL   0*elegy_of_battle_mvl/mxv
 BYTE   W02
//  #05 //001   ----------------------------------------
Label_0101EC8B:
 BYTE   VOL   0*elegy_of_battle_mvl/mxv
 BYTE   N96  Fn1  v044
 BYTE   W01
 BYTE   VOL   0*elegy_of_battle_mvl/mxv
 BYTE   W02
 BYTE   VOL   1*elegy_of_battle_mvl/mxv
 BYTE   W01
 BYTE   VOL   2*elegy_of_battle_mvl/mxv
 BYTE   W02
 BYTE   VOL   3*elegy_of_battle_mvl/mxv
 BYTE   W01
 BYTE   VOL   6*elegy_of_battle_mvl/mxv
 BYTE   W02
 BYTE   VOL   7*elegy_of_battle_mvl/mxv
 BYTE   W01
 BYTE   VOL   10*elegy_of_battle_mvl/mxv
 BYTE   W02
 BYTE   VOL   13*elegy_of_battle_mvl/mxv
 BYTE   W01
 BYTE   VOL   16*elegy_of_battle_mvl/mxv
 BYTE   W02
 BYTE   VOL   19*elegy_of_battle_mvl/mxv
 BYTE   W01
 BYTE   VOL   24*elegy_of_battle_mvl/mxv
 BYTE   W02
 BYTE   VOL   36*elegy_of_battle_mvl/mxv
 BYTE   W01
 BYTE   VOL   54*elegy_of_battle_mvl/mxv
 BYTE   W02
 BYTE   VOL   76*elegy_of_battle_mvl/mxv
 BYTE   W01
 BYTE   VOL   96*elegy_of_battle_mvl/mxv
 BYTE   W02
 BYTE   VOL   100*elegy_of_battle_mvl/mxv
 BYTE   W01
 BYTE   VOL   100*elegy_of_battle_mvl/mxv
 BYTE   W03
 BYTE   VOL   100*elegy_of_battle_mvl/mxv
 BYTE   W02
 BYTE   VOL   100*elegy_of_battle_mvl/mxv
 BYTE   W01
 BYTE   VOL   100*elegy_of_battle_mvl/mxv
 BYTE   W02
 BYTE   VOL   100*elegy_of_battle_mvl/mxv
 BYTE   W01
 BYTE   VOL   100*elegy_of_battle_mvl/mxv
 BYTE   W02
 BYTE   VOL   100*elegy_of_battle_mvl/mxv
 BYTE   W03
 BYTE   VOL   100*elegy_of_battle_mvl/mxv
 BYTE   W03
 BYTE   VOL   100*elegy_of_battle_mvl/mxv
 BYTE   W03
 BYTE   VOL   100*elegy_of_battle_mvl/mxv
 BYTE   W01
 BYTE   VOL   100*elegy_of_battle_mvl/mxv
 BYTE   W02
 BYTE   VOL   100*elegy_of_battle_mvl/mxv
 BYTE   W01
 BYTE   VOL   100*elegy_of_battle_mvl/mxv
 BYTE   W02
 BYTE   VOL   100*elegy_of_battle_mvl/mxv
 BYTE   W03
 BYTE   VOL   100*elegy_of_battle_mvl/mxv
 BYTE   W03
 BYTE   VOL   98*elegy_of_battle_mvl/mxv
 BYTE   W01
 BYTE   VOL   100*elegy_of_battle_mvl/mxv
 BYTE   W02
 BYTE   VOL   94*elegy_of_battle_mvl/mxv
 BYTE   W01
 BYTE   VOL   91*elegy_of_battle_mvl/mxv
 BYTE   W02
 BYTE   VOL   83*elegy_of_battle_mvl/mxv
 BYTE   W01
 BYTE   VOL   76*elegy_of_battle_mvl/mxv
 BYTE   W02
 BYTE   VOL   59*elegy_of_battle_mvl/mxv
 BYTE   W01
 BYTE   VOL   59*elegy_of_battle_mvl/mxv
 BYTE   W02
 BYTE   VOL   49*elegy_of_battle_mvl/mxv
 BYTE   W03
 BYTE   VOL   39*elegy_of_battle_mvl/mxv
 BYTE   W01
 BYTE   VOL   36*elegy_of_battle_mvl/mxv
 BYTE   W02
 BYTE   VOL   35*elegy_of_battle_mvl/mxv
 BYTE   W01
 BYTE   VOL   30*elegy_of_battle_mvl/mxv
 BYTE   W02
 BYTE   VOL   24*elegy_of_battle_mvl/mxv
 BYTE   W01
 BYTE   VOL   23*elegy_of_battle_mvl/mxv
 BYTE   W02
 BYTE   VOL   17*elegy_of_battle_mvl/mxv
 BYTE   W01
 BYTE   VOL   14*elegy_of_battle_mvl/mxv
 BYTE   W02
 BYTE   VOL   11*elegy_of_battle_mvl/mxv
 BYTE   W01
 BYTE   VOL   7*elegy_of_battle_mvl/mxv
 BYTE   W02
 BYTE   VOL   5*elegy_of_battle_mvl/mxv
 BYTE   W01
 BYTE   VOL   2*elegy_of_battle_mvl/mxv
 BYTE   W02
 BYTE   VOL   0*elegy_of_battle_mvl/mxv
 BYTE   W01
 BYTE   VOL   0*elegy_of_battle_mvl/mxv
 BYTE   W02
 BYTE   VOL   0*elegy_of_battle_mvl/mxv
 BYTE   W01
 BYTE   VOL   0*elegy_of_battle_mvl/mxv
 BYTE   W02
 BYTE   PEND 
//  #05 //002   ----------------------------------------
Label_0101ED03:
 BYTE   VOL   0*elegy_of_battle_mvl/mxv
 BYTE   N96  Ds1  v044
 BYTE   W01
 BYTE   VOL   0*elegy_of_battle_mvl/mxv
 BYTE   W02
 BYTE   VOL   1*elegy_of_battle_mvl/mxv
 BYTE   W01
 BYTE   VOL   2*elegy_of_battle_mvl/mxv
 BYTE   W02
 BYTE   VOL   3*elegy_of_battle_mvl/mxv
 BYTE   W01
 BYTE   VOL   6*elegy_of_battle_mvl/mxv
 BYTE   W02
 BYTE   VOL   7*elegy_of_battle_mvl/mxv
 BYTE   W01
 BYTE   VOL   10*elegy_of_battle_mvl/mxv
 BYTE   W02
 BYTE   VOL   13*elegy_of_battle_mvl/mxv
 BYTE   W01
 BYTE   VOL   16*elegy_of_battle_mvl/mxv
 BYTE   W02
 BYTE   VOL   19*elegy_of_battle_mvl/mxv
 BYTE   W01
 BYTE   VOL   24*elegy_of_battle_mvl/mxv
 BYTE   W02
 BYTE   VOL   36*elegy_of_battle_mvl/mxv
 BYTE   W01
 BYTE   VOL   54*elegy_of_battle_mvl/mxv
 BYTE   W02
 BYTE   VOL   76*elegy_of_battle_mvl/mxv
 BYTE   W01
 BYTE   VOL   96*elegy_of_battle_mvl/mxv
 BYTE   W02
 BYTE   VOL   100*elegy_of_battle_mvl/mxv
 BYTE   W01
 BYTE   VOL   100*elegy_of_battle_mvl/mxv
 BYTE   W03
 BYTE   VOL   100*elegy_of_battle_mvl/mxv
 BYTE   W02
 BYTE   VOL   100*elegy_of_battle_mvl/mxv
 BYTE   W01
 BYTE   VOL   100*elegy_of_battle_mvl/mxv
 BYTE   W02
 BYTE   VOL   100*elegy_of_battle_mvl/mxv
 BYTE   W01
 BYTE   VOL   100*elegy_of_battle_mvl/mxv
 BYTE   W02
 BYTE   VOL   100*elegy_of_battle_mvl/mxv
 BYTE   W03
 BYTE   VOL   100*elegy_of_battle_mvl/mxv
 BYTE   W03
 BYTE   VOL   100*elegy_of_battle_mvl/mxv
 BYTE   W03
 BYTE   VOL   100*elegy_of_battle_mvl/mxv
 BYTE   W01
 BYTE   VOL   100*elegy_of_battle_mvl/mxv
 BYTE   W02
 BYTE   VOL   100*elegy_of_battle_mvl/mxv
 BYTE   W01
 BYTE   VOL   100*elegy_of_battle_mvl/mxv
 BYTE   W02
 BYTE   VOL   100*elegy_of_battle_mvl/mxv
 BYTE   W03
 BYTE   VOL   100*elegy_of_battle_mvl/mxv
 BYTE   W03
 BYTE   VOL   98*elegy_of_battle_mvl/mxv
 BYTE   W01
 BYTE   VOL   100*elegy_of_battle_mvl/mxv
 BYTE   W02
 BYTE   VOL   94*elegy_of_battle_mvl/mxv
 BYTE   W01
 BYTE   VOL   91*elegy_of_battle_mvl/mxv
 BYTE   W02
 BYTE   VOL   83*elegy_of_battle_mvl/mxv
 BYTE   W01
 BYTE   VOL   76*elegy_of_battle_mvl/mxv
 BYTE   W02
 BYTE   VOL   59*elegy_of_battle_mvl/mxv
 BYTE   W01
 BYTE   VOL   59*elegy_of_battle_mvl/mxv
 BYTE   W02
 BYTE   VOL   49*elegy_of_battle_mvl/mxv
 BYTE   W03
 BYTE   VOL   39*elegy_of_battle_mvl/mxv
 BYTE   W01
 BYTE   VOL   36*elegy_of_battle_mvl/mxv
 BYTE   W02
 BYTE   VOL   35*elegy_of_battle_mvl/mxv
 BYTE   W01
 BYTE   VOL   30*elegy_of_battle_mvl/mxv
 BYTE   W02
 BYTE   VOL   24*elegy_of_battle_mvl/mxv
 BYTE   W01
 BYTE   VOL   23*elegy_of_battle_mvl/mxv
 BYTE   W02
 BYTE   VOL   17*elegy_of_battle_mvl/mxv
 BYTE   W01
 BYTE   VOL   14*elegy_of_battle_mvl/mxv
 BYTE   W02
 BYTE   VOL   11*elegy_of_battle_mvl/mxv
 BYTE   W01
 BYTE   VOL   7*elegy_of_battle_mvl/mxv
 BYTE   W02
 BYTE   VOL   5*elegy_of_battle_mvl/mxv
 BYTE   W01
 BYTE   VOL   2*elegy_of_battle_mvl/mxv
 BYTE   W02
 BYTE   VOL   0*elegy_of_battle_mvl/mxv
 BYTE   W01
 BYTE   VOL   0*elegy_of_battle_mvl/mxv
 BYTE   W02
 BYTE   VOL   0*elegy_of_battle_mvl/mxv
 BYTE   W01
 BYTE   VOL   0*elegy_of_battle_mvl/mxv
 BYTE   W02
 BYTE   PEND 
//  #05 //003   ----------------------------------------
Label_0101ED7B:
 BYTE   VOL   0*elegy_of_battle_mvl/mxv
 BYTE   N96  Dn1  v044
 BYTE   W01
 BYTE   VOL   0*elegy_of_battle_mvl/mxv
 BYTE   W02
 BYTE   VOL   1*elegy_of_battle_mvl/mxv
 BYTE   W01
 BYTE   VOL   2*elegy_of_battle_mvl/mxv
 BYTE   W02
 BYTE   VOL   3*elegy_of_battle_mvl/mxv
 BYTE   W01
 BYTE   VOL   6*elegy_of_battle_mvl/mxv
 BYTE   W02
 BYTE   VOL   7*elegy_of_battle_mvl/mxv
 BYTE   W01
 BYTE   VOL   10*elegy_of_battle_mvl/mxv
 BYTE   W02
 BYTE   VOL   13*elegy_of_battle_mvl/mxv
 BYTE   W01
 BYTE   VOL   16*elegy_of_battle_mvl/mxv
 BYTE   W02
 BYTE   VOL   19*elegy_of_battle_mvl/mxv
 BYTE   W01
 BYTE   VOL   24*elegy_of_battle_mvl/mxv
 BYTE   W02
 BYTE   VOL   36*elegy_of_battle_mvl/mxv
 BYTE   W01
 BYTE   VOL   54*elegy_of_battle_mvl/mxv
 BYTE   W02
 BYTE   VOL   76*elegy_of_battle_mvl/mxv
 BYTE   W01
 BYTE   VOL   96*elegy_of_battle_mvl/mxv
 BYTE   W02
 BYTE   VOL   100*elegy_of_battle_mvl/mxv
 BYTE   W01
 BYTE   VOL   100*elegy_of_battle_mvl/mxv
 BYTE   W03
 BYTE   VOL   100*elegy_of_battle_mvl/mxv
 BYTE   W02
 BYTE   VOL   100*elegy_of_battle_mvl/mxv
 BYTE   W01
 BYTE   VOL   100*elegy_of_battle_mvl/mxv
 BYTE   W02
 BYTE   VOL   100*elegy_of_battle_mvl/mxv
 BYTE   W01
 BYTE   VOL   100*elegy_of_battle_mvl/mxv
 BYTE   W02
 BYTE   VOL   100*elegy_of_battle_mvl/mxv
 BYTE   W03
 BYTE   VOL   100*elegy_of_battle_mvl/mxv
 BYTE   W03
 BYTE   VOL   100*elegy_of_battle_mvl/mxv
 BYTE   W03
 BYTE   VOL   100*elegy_of_battle_mvl/mxv
 BYTE   W01
 BYTE   VOL   100*elegy_of_battle_mvl/mxv
 BYTE   W02
 BYTE   VOL   100*elegy_of_battle_mvl/mxv
 BYTE   W01
 BYTE   VOL   100*elegy_of_battle_mvl/mxv
 BYTE   W02
 BYTE   VOL   100*elegy_of_battle_mvl/mxv
 BYTE   W03
 BYTE   VOL   100*elegy_of_battle_mvl/mxv
 BYTE   W03
 BYTE   VOL   98*elegy_of_battle_mvl/mxv
 BYTE   W01
 BYTE   VOL   100*elegy_of_battle_mvl/mxv
 BYTE   W02
 BYTE   VOL   94*elegy_of_battle_mvl/mxv
 BYTE   W01
 BYTE   VOL   91*elegy_of_battle_mvl/mxv
 BYTE   W02
 BYTE   VOL   83*elegy_of_battle_mvl/mxv
 BYTE   W01
 BYTE   VOL   76*elegy_of_battle_mvl/mxv
 BYTE   W02
 BYTE   VOL   59*elegy_of_battle_mvl/mxv
 BYTE   W01
 BYTE   VOL   59*elegy_of_battle_mvl/mxv
 BYTE   W02
 BYTE   VOL   49*elegy_of_battle_mvl/mxv
 BYTE   W03
 BYTE   VOL   39*elegy_of_battle_mvl/mxv
 BYTE   W01
 BYTE   VOL   36*elegy_of_battle_mvl/mxv
 BYTE   W02
 BYTE   VOL   35*elegy_of_battle_mvl/mxv
 BYTE   W01
 BYTE   VOL   30*elegy_of_battle_mvl/mxv
 BYTE   W02
 BYTE   VOL   24*elegy_of_battle_mvl/mxv
 BYTE   W01
 BYTE   VOL   23*elegy_of_battle_mvl/mxv
 BYTE   W02
 BYTE   VOL   17*elegy_of_battle_mvl/mxv
 BYTE   W01
 BYTE   VOL   14*elegy_of_battle_mvl/mxv
 BYTE   W02
 BYTE   VOL   11*elegy_of_battle_mvl/mxv
 BYTE   W01
 BYTE   VOL   7*elegy_of_battle_mvl/mxv
 BYTE   W02
 BYTE   VOL   5*elegy_of_battle_mvl/mxv
 BYTE   W01
 BYTE   VOL   2*elegy_of_battle_mvl/mxv
 BYTE   W02
 BYTE   VOL   0*elegy_of_battle_mvl/mxv
 BYTE   W01
 BYTE   VOL   0*elegy_of_battle_mvl/mxv
 BYTE   W02
 BYTE   VOL   0*elegy_of_battle_mvl/mxv
 BYTE   W01
 BYTE   VOL   0*elegy_of_battle_mvl/mxv
 BYTE   W02
 BYTE   PEND 
//  #05 //004   ----------------------------------------
Label_0101EDF3:
 BYTE   VOL   0*elegy_of_battle_mvl/mxv
 BYTE   N48  Ds1  v044
 BYTE   W01
 BYTE   VOL   0*elegy_of_battle_mvl/mxv
 BYTE   W02
 BYTE   VOL   1*elegy_of_battle_mvl/mxv
 BYTE   W01
 BYTE   VOL   2*elegy_of_battle_mvl/mxv
 BYTE   W02
 BYTE   VOL   3*elegy_of_battle_mvl/mxv
 BYTE   W01
 BYTE   VOL   6*elegy_of_battle_mvl/mxv
 BYTE   W02
 BYTE   VOL   7*elegy_of_battle_mvl/mxv
 BYTE   W01
 BYTE   VOL   10*elegy_of_battle_mvl/mxv
 BYTE   W02
 BYTE   VOL   13*elegy_of_battle_mvl/mxv
 BYTE   W01
 BYTE   VOL   16*elegy_of_battle_mvl/mxv
 BYTE   W02
 BYTE   VOL   24*elegy_of_battle_mvl/mxv
 BYTE   W01
 BYTE   VOL   29*elegy_of_battle_mvl/mxv
 BYTE   W02
 BYTE   VOL   39*elegy_of_battle_mvl/mxv
 BYTE   W01
 BYTE   VOL   44*elegy_of_battle_mvl/mxv
 BYTE   W02
 BYTE   VOL   49*elegy_of_battle_mvl/mxv
 BYTE   W01
 BYTE   VOL   51*elegy_of_battle_mvl/mxv
 BYTE   W02
 BYTE   VOL   54*elegy_of_battle_mvl/mxv
 BYTE   W01
 BYTE   VOL   62*elegy_of_battle_mvl/mxv
 BYTE   W03
 BYTE   VOL   64*elegy_of_battle_mvl/mxv
 BYTE   W02
 BYTE   VOL   64*elegy_of_battle_mvl/mxv
 BYTE   W01
 BYTE   VOL   64*elegy_of_battle_mvl/mxv
 BYTE   W02
 BYTE   VOL   68*elegy_of_battle_mvl/mxv
 BYTE   W01
 BYTE   VOL   68*elegy_of_battle_mvl/mxv
 BYTE   W02
 BYTE   VOL   68*elegy_of_battle_mvl/mxv
 BYTE   W01
 BYTE   VOL   66*elegy_of_battle_mvl/mxv
 BYTE   W02
 BYTE   VOL   66*elegy_of_battle_mvl/mxv
 BYTE   W01
 BYTE   VOL   62*elegy_of_battle_mvl/mxv
 BYTE   W02
 BYTE   VOL   60*elegy_of_battle_mvl/mxv
 BYTE   W01
 BYTE   VOL   36*elegy_of_battle_mvl/mxv
 BYTE   W02
 BYTE   VOL   24*elegy_of_battle_mvl/mxv
 BYTE   W01
 BYTE   VOL   14*elegy_of_battle_mvl/mxv
 BYTE   W02
 BYTE   VOL   8*elegy_of_battle_mvl/mxv
 BYTE   N48  Gn1
 BYTE   W01
 BYTE   VOL   6*elegy_of_battle_mvl/mxv
 BYTE   W02
 BYTE   VOL   6*elegy_of_battle_mvl/mxv
 BYTE   W01
 BYTE   VOL   10*elegy_of_battle_mvl/mxv
 BYTE   W02
 BYTE   VOL   22*elegy_of_battle_mvl/mxv
 BYTE   W01
 BYTE   VOL   30*elegy_of_battle_mvl/mxv
 BYTE   W03
 BYTE   VOL   27*elegy_of_battle_mvl/mxv
 BYTE   W02
 BYTE   VOL   27*elegy_of_battle_mvl/mxv
 BYTE   W01
 BYTE   VOL   30*elegy_of_battle_mvl/mxv
 BYTE   W02
 BYTE   VOL   33*elegy_of_battle_mvl/mxv
 BYTE   W01
 BYTE   VOL   39*elegy_of_battle_mvl/mxv
 BYTE   W02
 BYTE   VOL   42*elegy_of_battle_mvl/mxv
 BYTE   W01
 BYTE   VOL   51*elegy_of_battle_mvl/mxv
 BYTE   W02
 BYTE   VOL   57*elegy_of_battle_mvl/mxv
 BYTE   W01
 BYTE   VOL   57*elegy_of_battle_mvl/mxv
 BYTE   W02
 BYTE   VOL   59*elegy_of_battle_mvl/mxv
 BYTE   W01
 BYTE   VOL   62*elegy_of_battle_mvl/mxv
 BYTE   W02
 BYTE   VOL   62*elegy_of_battle_mvl/mxv
 BYTE   W07
 BYTE   VOL   62*elegy_of_battle_mvl/mxv
 BYTE   W03
 BYTE   VOL   62*elegy_of_battle_mvl/mxv
 BYTE   W02
 BYTE   VOL   62*elegy_of_battle_mvl/mxv
 BYTE   W01
 BYTE   VOL   62*elegy_of_battle_mvl/mxv
 BYTE   W02
 BYTE   VOL   60*elegy_of_battle_mvl/mxv
 BYTE   W01
 BYTE   VOL   55*elegy_of_battle_mvl/mxv
 BYTE   W02
 BYTE   VOL   47*elegy_of_battle_mvl/mxv
 BYTE   W01
 BYTE   VOL   42*elegy_of_battle_mvl/mxv
 BYTE   W02
 BYTE   PEND 
//  #05 //005   ----------------------------------------
Label_0101EE6E:
 BYTE   VOL   36*elegy_of_battle_mvl/mxv
 BYTE   W01
 BYTE   VOL   22*elegy_of_battle_mvl/mxv
 BYTE   N44  As1  v044
 BYTE   W02
 BYTE   VOL   26*elegy_of_battle_mvl/mxv
 BYTE   W01
 BYTE   VOL   24*elegy_of_battle_mvl/mxv
 BYTE   W02
 BYTE   VOL   25*elegy_of_battle_mvl/mxv
 BYTE   W01
 BYTE   VOL   33*elegy_of_battle_mvl/mxv
 BYTE   W02
 BYTE   VOL   42*elegy_of_battle_mvl/mxv
 BYTE   W01
 BYTE   VOL   51*elegy_of_battle_mvl/mxv
 BYTE   W02
 BYTE   VOL   55*elegy_of_battle_mvl/mxv
 BYTE   W01
 BYTE   VOL   55*elegy_of_battle_mvl/mxv
 BYTE   W02
 BYTE   VOL   57*elegy_of_battle_mvl/mxv
 BYTE   W01
 BYTE   VOL   57*elegy_of_battle_mvl/mxv
 BYTE   W02
 BYTE   VOL   57*elegy_of_battle_mvl/mxv
 BYTE   W01
 BYTE   VOL   57*elegy_of_battle_mvl/mxv
 BYTE   W02
 BYTE   VOL   57*elegy_of_battle_mvl/mxv
 BYTE   W01
 BYTE   VOL   57*elegy_of_battle_mvl/mxv
 BYTE   W02
 BYTE   VOL   57*elegy_of_battle_mvl/mxv
 BYTE   W01
 BYTE   VOL   57*elegy_of_battle_mvl/mxv
 BYTE   W02
 BYTE   VOL   57*elegy_of_battle_mvl/mxv
 BYTE   W01
 BYTE   VOL   55*elegy_of_battle_mvl/mxv
 BYTE   W02
 BYTE   VOL   54*elegy_of_battle_mvl/mxv
 BYTE   W01
 BYTE   VOL   54*elegy_of_battle_mvl/mxv
 BYTE   W02
 BYTE   VOL   50*elegy_of_battle_mvl/mxv
 BYTE   W01
 BYTE   VOL   49*elegy_of_battle_mvl/mxv
 BYTE   W02
 BYTE   VOL   45*elegy_of_battle_mvl/mxv
 BYTE   W01
 BYTE   VOL   44*elegy_of_battle_mvl/mxv
 BYTE   W02
 BYTE   VOL   40*elegy_of_battle_mvl/mxv
 BYTE   W07
 BYTE   VOL   39*elegy_of_battle_mvl/mxv
 BYTE   W02
 BYTE   VOL   16*elegy_of_battle_mvl/mxv
 BYTE   N48  An1
 BYTE   W01
 BYTE   VOL   26*elegy_of_battle_mvl/mxv
 BYTE   W02
 BYTE   VOL   24*elegy_of_battle_mvl/mxv
 BYTE   W01
 BYTE   VOL   25*elegy_of_battle_mvl/mxv
 BYTE   W02
 BYTE   VOL   33*elegy_of_battle_mvl/mxv
 BYTE   W01
 BYTE   VOL   42*elegy_of_battle_mvl/mxv
 BYTE   W02
 BYTE   VOL   51*elegy_of_battle_mvl/mxv
 BYTE   W01
 BYTE   VOL   55*elegy_of_battle_mvl/mxv
 BYTE   W02
 BYTE   VOL   55*elegy_of_battle_mvl/mxv
 BYTE   W01
 BYTE   VOL   57*elegy_of_battle_mvl/mxv
 BYTE   W02
 BYTE   VOL   57*elegy_of_battle_mvl/mxv
 BYTE   W01
 BYTE   VOL   57*elegy_of_battle_mvl/mxv
 BYTE   W02
 BYTE   VOL   57*elegy_of_battle_mvl/mxv
 BYTE   W01
 BYTE   VOL   57*elegy_of_battle_mvl/mxv
 BYTE   W02
 BYTE   VOL   57*elegy_of_battle_mvl/mxv
 BYTE   W01
 BYTE   VOL   57*elegy_of_battle_mvl/mxv
 BYTE   W02
 BYTE   VOL   57*elegy_of_battle_mvl/mxv
 BYTE   W01
 BYTE   VOL   57*elegy_of_battle_mvl/mxv
 BYTE   W02
 BYTE   VOL   55*elegy_of_battle_mvl/mxv
 BYTE   W01
 BYTE   VOL   54*elegy_of_battle_mvl/mxv
 BYTE   W02
 BYTE   VOL   54*elegy_of_battle_mvl/mxv
 BYTE   W01
 BYTE   VOL   50*elegy_of_battle_mvl/mxv
 BYTE   W02
 BYTE   VOL   49*elegy_of_battle_mvl/mxv
 BYTE   W01
 BYTE   VOL   45*elegy_of_battle_mvl/mxv
 BYTE   W02
 BYTE   VOL   44*elegy_of_battle_mvl/mxv
 BYTE   W01
 BYTE   VOL   40*elegy_of_battle_mvl/mxv
 BYTE   W02
 BYTE   VOL   35*elegy_of_battle_mvl/mxv
 BYTE   W01
 BYTE   VOL   14*elegy_of_battle_mvl/mxv
 BYTE   W02
 BYTE   VOL   9*elegy_of_battle_mvl/mxv
 BYTE   W01
 BYTE   VOL   4*elegy_of_battle_mvl/mxv
 BYTE   W02
 BYTE   VOL   3*elegy_of_battle_mvl/mxv
 BYTE   W01
 BYTE   VOL   2*elegy_of_battle_mvl/mxv
 BYTE   W02
 BYTE   PEND 
//  #05 //006   ----------------------------------------
Label_0101EEEF:
 BYTE   N96  Gn1  v044
 BYTE   W06
 BYTE   VOL   3*elegy_of_battle_mvl/mxv
 BYTE   W01
 BYTE   VOL   6*elegy_of_battle_mvl/mxv
 BYTE   W02
 BYTE   VOL   7*elegy_of_battle_mvl/mxv
 BYTE   W01
 BYTE   VOL   10*elegy_of_battle_mvl/mxv
 BYTE   W02
 BYTE   VOL   13*elegy_of_battle_mvl/mxv
 BYTE   W01
 BYTE   VOL   16*elegy_of_battle_mvl/mxv
 BYTE   W02
 BYTE   VOL   19*elegy_of_battle_mvl/mxv
 BYTE   W01
 BYTE   VOL   24*elegy_of_battle_mvl/mxv
 BYTE   W02
 BYTE   VOL   36*elegy_of_battle_mvl/mxv
 BYTE   W01
 BYTE   VOL   54*elegy_of_battle_mvl/mxv
 BYTE   W02
 BYTE   VOL   76*elegy_of_battle_mvl/mxv
 BYTE   W01
 BYTE   VOL   96*elegy_of_battle_mvl/mxv
 BYTE   W02
 BYTE   VOL   100*elegy_of_battle_mvl/mxv
 BYTE   W01
 BYTE   VOL   100*elegy_of_battle_mvl/mxv
 BYTE   W03
 BYTE   VOL   100*elegy_of_battle_mvl/mxv
 BYTE   W02
 BYTE   VOL   100*elegy_of_battle_mvl/mxv
 BYTE   W01
 BYTE   VOL   100*elegy_of_battle_mvl/mxv
 BYTE   W02
 BYTE   VOL   100*elegy_of_battle_mvl/mxv
 BYTE   W01
 BYTE   VOL   100*elegy_of_battle_mvl/mxv
 BYTE   W02
 BYTE   VOL   100*elegy_of_battle_mvl/mxv
 BYTE   W03
 BYTE   VOL   100*elegy_of_battle_mvl/mxv
 BYTE   W03
 BYTE   VOL   100*elegy_of_battle_mvl/mxv
 BYTE   W03
 BYTE   VOL   100*elegy_of_battle_mvl/mxv
 BYTE   W01
 BYTE   VOL   100*elegy_of_battle_mvl/mxv
 BYTE   W02
 BYTE   VOL   100*elegy_of_battle_mvl/mxv
 BYTE   W01
 BYTE   VOL   100*elegy_of_battle_mvl/mxv
 BYTE   W02
 BYTE   VOL   100*elegy_of_battle_mvl/mxv
 BYTE   W03
 BYTE   VOL   100*elegy_of_battle_mvl/mxv
 BYTE   W03
 BYTE   VOL   98*elegy_of_battle_mvl/mxv
 BYTE   W01
 BYTE   VOL   100*elegy_of_battle_mvl/mxv
 BYTE   W02
 BYTE   VOL   94*elegy_of_battle_mvl/mxv
 BYTE   W01
 BYTE   VOL   91*elegy_of_battle_mvl/mxv
 BYTE   W02
 BYTE   VOL   83*elegy_of_battle_mvl/mxv
 BYTE   W01
 BYTE   VOL   76*elegy_of_battle_mvl/mxv
 BYTE   W02
 BYTE   VOL   59*elegy_of_battle_mvl/mxv
 BYTE   W01
 BYTE   VOL   59*elegy_of_battle_mvl/mxv
 BYTE   W02
 BYTE   VOL   49*elegy_of_battle_mvl/mxv
 BYTE   W03
 BYTE   VOL   39*elegy_of_battle_mvl/mxv
 BYTE   W01
 BYTE   VOL   36*elegy_of_battle_mvl/mxv
 BYTE   W02
 BYTE   VOL   35*elegy_of_battle_mvl/mxv
 BYTE   W01
 BYTE   VOL   30*elegy_of_battle_mvl/mxv
 BYTE   W02
 BYTE   VOL   24*elegy_of_battle_mvl/mxv
 BYTE   W01
 BYTE   VOL   23*elegy_of_battle_mvl/mxv
 BYTE   W02
 BYTE   VOL   17*elegy_of_battle_mvl/mxv
 BYTE   W01
 BYTE   VOL   14*elegy_of_battle_mvl/mxv
 BYTE   W02
 BYTE   VOL   11*elegy_of_battle_mvl/mxv
 BYTE   W01
 BYTE   VOL   7*elegy_of_battle_mvl/mxv
 BYTE   W02
 BYTE   VOL   5*elegy_of_battle_mvl/mxv
 BYTE   W01
 BYTE   VOL   2*elegy_of_battle_mvl/mxv
 BYTE   W02
 BYTE   VOL   0*elegy_of_battle_mvl/mxv
 BYTE   W01
 BYTE   VOL   0*elegy_of_battle_mvl/mxv
 BYTE   W02
 BYTE   VOL   0*elegy_of_battle_mvl/mxv
 BYTE   W01
 BYTE   VOL   0*elegy_of_battle_mvl/mxv
 BYTE   W02
 BYTE   PEND 
//  #05 //007   ----------------------------------------
 BYTE   PATT
  POIN2 Label_0101EC8B
//  #05 //008   ----------------------------------------
Label_0101EF64:
 BYTE   VOL   0*elegy_of_battle_mvl/mxv
 BYTE   N96  Gn1  v044
 BYTE   W01
 BYTE   VOL   0*elegy_of_battle_mvl/mxv
 BYTE   W02
 BYTE   VOL   1*elegy_of_battle_mvl/mxv
 BYTE   W01
 BYTE   VOL   2*elegy_of_battle_mvl/mxv
 BYTE   W02
 BYTE   VOL   3*elegy_of_battle_mvl/mxv
 BYTE   W01
 BYTE   VOL   6*elegy_of_battle_mvl/mxv
 BYTE   W02
 BYTE   VOL   7*elegy_of_battle_mvl/mxv
 BYTE   W01
 BYTE   VOL   10*elegy_of_battle_mvl/mxv
 BYTE   W02
 BYTE   VOL   13*elegy_of_battle_mvl/mxv
 BYTE   W01
 BYTE   VOL   16*elegy_of_battle_mvl/mxv
 BYTE   W02
 BYTE   VOL   19*elegy_of_battle_mvl/mxv
 BYTE   W01
 BYTE   VOL   24*elegy_of_battle_mvl/mxv
 BYTE   W02
 BYTE   VOL   36*elegy_of_battle_mvl/mxv
 BYTE   W01
 BYTE   VOL   54*elegy_of_battle_mvl/mxv
 BYTE   W02
 BYTE   VOL   76*elegy_of_battle_mvl/mxv
 BYTE   W01
 BYTE   VOL   96*elegy_of_battle_mvl/mxv
 BYTE   W02
 BYTE   VOL   100*elegy_of_battle_mvl/mxv
 BYTE   W01
 BYTE   VOL   100*elegy_of_battle_mvl/mxv
 BYTE   W03
 BYTE   VOL   100*elegy_of_battle_mvl/mxv
 BYTE   W02
 BYTE   VOL   100*elegy_of_battle_mvl/mxv
 BYTE   W01
 BYTE   VOL   100*elegy_of_battle_mvl/mxv
 BYTE   W02
 BYTE   VOL   100*elegy_of_battle_mvl/mxv
 BYTE   W01
 BYTE   VOL   100*elegy_of_battle_mvl/mxv
 BYTE   W02
 BYTE   VOL   100*elegy_of_battle_mvl/mxv
 BYTE   W03
 BYTE   VOL   100*elegy_of_battle_mvl/mxv
 BYTE   W03
 BYTE   VOL   100*elegy_of_battle_mvl/mxv
 BYTE   W03
 BYTE   VOL   100*elegy_of_battle_mvl/mxv
 BYTE   W01
 BYTE   VOL   100*elegy_of_battle_mvl/mxv
 BYTE   W02
 BYTE   VOL   100*elegy_of_battle_mvl/mxv
 BYTE   W01
 BYTE   VOL   100*elegy_of_battle_mvl/mxv
 BYTE   W02
 BYTE   VOL   100*elegy_of_battle_mvl/mxv
 BYTE   W03
 BYTE   VOL   100*elegy_of_battle_mvl/mxv
 BYTE   W03
 BYTE   VOL   98*elegy_of_battle_mvl/mxv
 BYTE   W01
 BYTE   VOL   100*elegy_of_battle_mvl/mxv
 BYTE   W02
 BYTE   VOL   94*elegy_of_battle_mvl/mxv
 BYTE   W01
 BYTE   VOL   91*elegy_of_battle_mvl/mxv
 BYTE   W02
 BYTE   VOL   83*elegy_of_battle_mvl/mxv
 BYTE   W01
 BYTE   VOL   76*elegy_of_battle_mvl/mxv
 BYTE   W02
 BYTE   VOL   59*elegy_of_battle_mvl/mxv
 BYTE   W01
 BYTE   VOL   59*elegy_of_battle_mvl/mxv
 BYTE   W02
 BYTE   VOL   49*elegy_of_battle_mvl/mxv
 BYTE   W03
 BYTE   VOL   39*elegy_of_battle_mvl/mxv
 BYTE   W01
 BYTE   VOL   36*elegy_of_battle_mvl/mxv
 BYTE   W02
 BYTE   VOL   35*elegy_of_battle_mvl/mxv
 BYTE   W01
 BYTE   VOL   30*elegy_of_battle_mvl/mxv
 BYTE   W02
 BYTE   VOL   24*elegy_of_battle_mvl/mxv
 BYTE   W01
 BYTE   VOL   23*elegy_of_battle_mvl/mxv
 BYTE   W02
 BYTE   VOL   17*elegy_of_battle_mvl/mxv
 BYTE   W01
 BYTE   VOL   14*elegy_of_battle_mvl/mxv
 BYTE   W02
 BYTE   VOL   11*elegy_of_battle_mvl/mxv
 BYTE   W01
 BYTE   VOL   7*elegy_of_battle_mvl/mxv
 BYTE   W02
 BYTE   VOL   5*elegy_of_battle_mvl/mxv
 BYTE   W01
 BYTE   VOL   2*elegy_of_battle_mvl/mxv
 BYTE   W02
 BYTE   VOL   0*elegy_of_battle_mvl/mxv
 BYTE   W01
 BYTE   VOL   0*elegy_of_battle_mvl/mxv
 BYTE   W02
 BYTE   VOL   0*elegy_of_battle_mvl/mxv
 BYTE   W01
 BYTE   VOL   0*elegy_of_battle_mvl/mxv
 BYTE   W02
 BYTE   PEND 
//  #05 //009   ----------------------------------------
Label_0101EFDC:
 BYTE   VOL   0*elegy_of_battle_mvl/mxv
 BYTE   N96  Gn1  v044
 BYTE   W01
 BYTE   VOL   0*elegy_of_battle_mvl/mxv
 BYTE   W02
 BYTE   VOL   1*elegy_of_battle_mvl/mxv
 BYTE   W01
 BYTE   VOL   2*elegy_of_battle_mvl/mxv
 BYTE   W02
 BYTE   VOL   3*elegy_of_battle_mvl/mxv
 BYTE   W01
 BYTE   VOL   6*elegy_of_battle_mvl/mxv
 BYTE   W02
 BYTE   VOL   7*elegy_of_battle_mvl/mxv
 BYTE   W01
 BYTE   VOL   10*elegy_of_battle_mvl/mxv
 BYTE   W02
 BYTE   VOL   13*elegy_of_battle_mvl/mxv
 BYTE   W01
 BYTE   VOL   16*elegy_of_battle_mvl/mxv
 BYTE   W02
 BYTE   VOL   19*elegy_of_battle_mvl/mxv
 BYTE   W01
 BYTE   VOL   24*elegy_of_battle_mvl/mxv
 BYTE   W02
 BYTE   VOL   36*elegy_of_battle_mvl/mxv
 BYTE   W01
 BYTE   VOL   54*elegy_of_battle_mvl/mxv
 BYTE   W02
 BYTE   VOL   76*elegy_of_battle_mvl/mxv
 BYTE   W01
 BYTE   VOL   96*elegy_of_battle_mvl/mxv
 BYTE   W02
 BYTE   VOL   100*elegy_of_battle_mvl/mxv
 BYTE   W01
 BYTE   VOL   100*elegy_of_battle_mvl/mxv
 BYTE   W03
 BYTE   VOL   100*elegy_of_battle_mvl/mxv
 BYTE   W02
 BYTE   VOL   100*elegy_of_battle_mvl/mxv
 BYTE   W01
 BYTE   VOL   100*elegy_of_battle_mvl/mxv
 BYTE   W02
 BYTE   VOL   100*elegy_of_battle_mvl/mxv
 BYTE   W01
 BYTE   VOL   100*elegy_of_battle_mvl/mxv
 BYTE   W02
 BYTE   VOL   100*elegy_of_battle_mvl/mxv
 BYTE   W03
 BYTE   VOL   100*elegy_of_battle_mvl/mxv
 BYTE   W03
 BYTE   VOL   100*elegy_of_battle_mvl/mxv
 BYTE   W03
 BYTE   VOL   100*elegy_of_battle_mvl/mxv
 BYTE   W01
 BYTE   VOL   100*elegy_of_battle_mvl/mxv
 BYTE   W02
 BYTE   VOL   100*elegy_of_battle_mvl/mxv
 BYTE   W01
 BYTE   VOL   100*elegy_of_battle_mvl/mxv
 BYTE   W02
 BYTE   VOL   100*elegy_of_battle_mvl/mxv
 BYTE   W03
 BYTE   VOL   100*elegy_of_battle_mvl/mxv
 BYTE   W03
 BYTE   VOL   98*elegy_of_battle_mvl/mxv
 BYTE   W01
 BYTE   VOL   100*elegy_of_battle_mvl/mxv
 BYTE   W02
 BYTE   VOL   100*elegy_of_battle_mvl/mxv
 BYTE   W01
 BYTE   VOL   94*elegy_of_battle_mvl/mxv
 BYTE   W02
 BYTE   VOL   87*elegy_of_battle_mvl/mxv
 BYTE   W01
 BYTE   VOL   69*elegy_of_battle_mvl/mxv
 BYTE   W02
 BYTE   VOL   69*elegy_of_battle_mvl/mxv
 BYTE   W01
 BYTE   VOL   58*elegy_of_battle_mvl/mxv
 BYTE   W03
 BYTE   VOL   48*elegy_of_battle_mvl/mxv
 BYTE   W02
 BYTE   VOL   44*elegy_of_battle_mvl/mxv
 BYTE   W01
 BYTE   VOL   43*elegy_of_battle_mvl/mxv
 BYTE   W03
 BYTE   VOL   30*elegy_of_battle_mvl/mxv
 BYTE   W02
 BYTE   VOL   24*elegy_of_battle_mvl/mxv
 BYTE   W01
 BYTE   VOL   23*elegy_of_battle_mvl/mxv
 BYTE   W02
 BYTE   VOL   17*elegy_of_battle_mvl/mxv
 BYTE   W01
 BYTE   VOL   14*elegy_of_battle_mvl/mxv
 BYTE   W02
 BYTE   VOL   11*elegy_of_battle_mvl/mxv
 BYTE   W01
 BYTE   VOL   7*elegy_of_battle_mvl/mxv
 BYTE   W02
 BYTE   VOL   5*elegy_of_battle_mvl/mxv
 BYTE   W01
 BYTE   VOL   2*elegy_of_battle_mvl/mxv
 BYTE   W02
 BYTE   VOL   0*elegy_of_battle_mvl/mxv
 BYTE   W01
 BYTE   VOL   0*elegy_of_battle_mvl/mxv
 BYTE   W02
 BYTE   VOL   0*elegy_of_battle_mvl/mxv
 BYTE   W01
 BYTE   VOL   0*elegy_of_battle_mvl/mxv
 BYTE   W02
 BYTE   PEND 
//  #05 //010   ----------------------------------------
Label_0101F052:
 BYTE   VOL   0*elegy_of_battle_mvl/mxv
 BYTE   N96  Cn1  v044
 BYTE   W01
 BYTE   VOL   0*elegy_of_battle_mvl/mxv
 BYTE   W02
 BYTE   VOL   1*elegy_of_battle_mvl/mxv
 BYTE   W01
 BYTE   VOL   2*elegy_of_battle_mvl/mxv
 BYTE   W02
 BYTE   VOL   3*elegy_of_battle_mvl/mxv
 BYTE   W01
 BYTE   VOL   6*elegy_of_battle_mvl/mxv
 BYTE   W02
 BYTE   VOL   7*elegy_of_battle_mvl/mxv
 BYTE   W01
 BYTE   VOL   10*elegy_of_battle_mvl/mxv
 BYTE   W02
 BYTE   VOL   13*elegy_of_battle_mvl/mxv
 BYTE   W01
 BYTE   VOL   16*elegy_of_battle_mvl/mxv
 BYTE   W02
 BYTE   VOL   19*elegy_of_battle_mvl/mxv
 BYTE   W01
 BYTE   VOL   24*elegy_of_battle_mvl/mxv
 BYTE   W02
 BYTE   VOL   36*elegy_of_battle_mvl/mxv
 BYTE   W01
 BYTE   VOL   54*elegy_of_battle_mvl/mxv
 BYTE   W02
 BYTE   VOL   76*elegy_of_battle_mvl/mxv
 BYTE   W01
 BYTE   VOL   96*elegy_of_battle_mvl/mxv
 BYTE   W02
 BYTE   VOL   100*elegy_of_battle_mvl/mxv
 BYTE   W01
 BYTE   VOL   100*elegy_of_battle_mvl/mxv
 BYTE   W03
 BYTE   VOL   100*elegy_of_battle_mvl/mxv
 BYTE   W02
 BYTE   VOL   100*elegy_of_battle_mvl/mxv
 BYTE   W01
 BYTE   VOL   100*elegy_of_battle_mvl/mxv
 BYTE   W02
 BYTE   VOL   100*elegy_of_battle_mvl/mxv
 BYTE   W01
 BYTE   VOL   100*elegy_of_battle_mvl/mxv
 BYTE   W02
 BYTE   VOL   100*elegy_of_battle_mvl/mxv
 BYTE   W03
 BYTE   VOL   100*elegy_of_battle_mvl/mxv
 BYTE   W03
 BYTE   VOL   100*elegy_of_battle_mvl/mxv
 BYTE   W03
 BYTE   VOL   100*elegy_of_battle_mvl/mxv
 BYTE   W01
 BYTE   VOL   100*elegy_of_battle_mvl/mxv
 BYTE   W02
 BYTE   VOL   100*elegy_of_battle_mvl/mxv
 BYTE   W01
 BYTE   VOL   100*elegy_of_battle_mvl/mxv
 BYTE   W02
 BYTE   VOL   100*elegy_of_battle_mvl/mxv
 BYTE   W03
 BYTE   VOL   100*elegy_of_battle_mvl/mxv
 BYTE   W03
 BYTE   VOL   98*elegy_of_battle_mvl/mxv
 BYTE   W01
 BYTE   VOL   100*elegy_of_battle_mvl/mxv
 BYTE   W02
 BYTE   VOL   94*elegy_of_battle_mvl/mxv
 BYTE   W01
 BYTE   VOL   91*elegy_of_battle_mvl/mxv
 BYTE   W02
 BYTE   VOL   83*elegy_of_battle_mvl/mxv
 BYTE   W01
 BYTE   VOL   76*elegy_of_battle_mvl/mxv
 BYTE   W02
 BYTE   VOL   59*elegy_of_battle_mvl/mxv
 BYTE   W01
 BYTE   VOL   59*elegy_of_battle_mvl/mxv
 BYTE   W02
 BYTE   VOL   49*elegy_of_battle_mvl/mxv
 BYTE   W03
 BYTE   VOL   39*elegy_of_battle_mvl/mxv
 BYTE   W01
 BYTE   VOL   36*elegy_of_battle_mvl/mxv
 BYTE   W02
 BYTE   VOL   35*elegy_of_battle_mvl/mxv
 BYTE   W01
 BYTE   VOL   30*elegy_of_battle_mvl/mxv
 BYTE   W02
 BYTE   VOL   24*elegy_of_battle_mvl/mxv
 BYTE   W01
 BYTE   VOL   23*elegy_of_battle_mvl/mxv
 BYTE   W02
 BYTE   VOL   17*elegy_of_battle_mvl/mxv
 BYTE   W01
 BYTE   VOL   14*elegy_of_battle_mvl/mxv
 BYTE   W02
 BYTE   VOL   11*elegy_of_battle_mvl/mxv
 BYTE   W01
 BYTE   VOL   7*elegy_of_battle_mvl/mxv
 BYTE   W02
 BYTE   VOL   5*elegy_of_battle_mvl/mxv
 BYTE   W01
 BYTE   VOL   2*elegy_of_battle_mvl/mxv
 BYTE   W02
 BYTE   VOL   0*elegy_of_battle_mvl/mxv
 BYTE   W01
 BYTE   VOL   0*elegy_of_battle_mvl/mxv
 BYTE   W02
 BYTE   VOL   0*elegy_of_battle_mvl/mxv
 BYTE   W01
 BYTE   VOL   0*elegy_of_battle_mvl/mxv
 BYTE   W02
 BYTE   PEND 
//  #05 //011   ----------------------------------------
Label_0101F0CA:
 BYTE   VOL   0*elegy_of_battle_mvl/mxv
 BYTE   N96  An1  v044
 BYTE   W01
 BYTE   VOL   0*elegy_of_battle_mvl/mxv
 BYTE   W02
 BYTE   VOL   1*elegy_of_battle_mvl/mxv
 BYTE   W01
 BYTE   VOL   2*elegy_of_battle_mvl/mxv
 BYTE   W02
 BYTE   VOL   3*elegy_of_battle_mvl/mxv
 BYTE   W01
 BYTE   VOL   6*elegy_of_battle_mvl/mxv
 BYTE   W02
 BYTE   VOL   7*elegy_of_battle_mvl/mxv
 BYTE   W01
 BYTE   VOL   10*elegy_of_battle_mvl/mxv
 BYTE   W02
 BYTE   VOL   13*elegy_of_battle_mvl/mxv
 BYTE   W01
 BYTE   VOL   16*elegy_of_battle_mvl/mxv
 BYTE   W02
 BYTE   VOL   19*elegy_of_battle_mvl/mxv
 BYTE   W01
 BYTE   VOL   24*elegy_of_battle_mvl/mxv
 BYTE   W02
 BYTE   VOL   36*elegy_of_battle_mvl/mxv
 BYTE   W01
 BYTE   VOL   54*elegy_of_battle_mvl/mxv
 BYTE   W02
 BYTE   VOL   76*elegy_of_battle_mvl/mxv
 BYTE   W01
 BYTE   VOL   96*elegy_of_battle_mvl/mxv
 BYTE   W02
 BYTE   VOL   100*elegy_of_battle_mvl/mxv
 BYTE   W01
 BYTE   VOL   100*elegy_of_battle_mvl/mxv
 BYTE   W03
 BYTE   VOL   100*elegy_of_battle_mvl/mxv
 BYTE   W02
 BYTE   VOL   100*elegy_of_battle_mvl/mxv
 BYTE   W01
 BYTE   VOL   100*elegy_of_battle_mvl/mxv
 BYTE   W02
 BYTE   VOL   100*elegy_of_battle_mvl/mxv
 BYTE   W01
 BYTE   VOL   100*elegy_of_battle_mvl/mxv
 BYTE   W02
 BYTE   VOL   100*elegy_of_battle_mvl/mxv
 BYTE   W03
 BYTE   VOL   100*elegy_of_battle_mvl/mxv
 BYTE   W03
 BYTE   VOL   100*elegy_of_battle_mvl/mxv
 BYTE   W03
 BYTE   VOL   100*elegy_of_battle_mvl/mxv
 BYTE   W01
 BYTE   VOL   100*elegy_of_battle_mvl/mxv
 BYTE   W02
 BYTE   VOL   100*elegy_of_battle_mvl/mxv
 BYTE   W01
 BYTE   VOL   100*elegy_of_battle_mvl/mxv
 BYTE   W02
 BYTE   VOL   100*elegy_of_battle_mvl/mxv
 BYTE   W03
 BYTE   VOL   100*elegy_of_battle_mvl/mxv
 BYTE   W03
 BYTE   VOL   98*elegy_of_battle_mvl/mxv
 BYTE   W01
 BYTE   VOL   100*elegy_of_battle_mvl/mxv
 BYTE   W02
 BYTE   VOL   94*elegy_of_battle_mvl/mxv
 BYTE   W01
 BYTE   VOL   91*elegy_of_battle_mvl/mxv
 BYTE   W02
 BYTE   VOL   83*elegy_of_battle_mvl/mxv
 BYTE   W01
 BYTE   VOL   76*elegy_of_battle_mvl/mxv
 BYTE   W02
 BYTE   VOL   59*elegy_of_battle_mvl/mxv
 BYTE   W01
 BYTE   VOL   59*elegy_of_battle_mvl/mxv
 BYTE   W02
 BYTE   VOL   49*elegy_of_battle_mvl/mxv
 BYTE   W03
 BYTE   VOL   39*elegy_of_battle_mvl/mxv
 BYTE   W01
 BYTE   VOL   36*elegy_of_battle_mvl/mxv
 BYTE   W02
 BYTE   VOL   35*elegy_of_battle_mvl/mxv
 BYTE   W01
 BYTE   VOL   30*elegy_of_battle_mvl/mxv
 BYTE   W02
 BYTE   VOL   24*elegy_of_battle_mvl/mxv
 BYTE   W01
 BYTE   VOL   23*elegy_of_battle_mvl/mxv
 BYTE   W02
 BYTE   VOL   17*elegy_of_battle_mvl/mxv
 BYTE   W01
 BYTE   VOL   14*elegy_of_battle_mvl/mxv
 BYTE   W02
 BYTE   VOL   11*elegy_of_battle_mvl/mxv
 BYTE   W01
 BYTE   VOL   7*elegy_of_battle_mvl/mxv
 BYTE   W02
 BYTE   VOL   5*elegy_of_battle_mvl/mxv
 BYTE   W01
 BYTE   VOL   2*elegy_of_battle_mvl/mxv
 BYTE   W02
 BYTE   VOL   0*elegy_of_battle_mvl/mxv
 BYTE   W01
 BYTE   VOL   0*elegy_of_battle_mvl/mxv
 BYTE   W02
 BYTE   VOL   0*elegy_of_battle_mvl/mxv
 BYTE   W01
 BYTE   VOL   0*elegy_of_battle_mvl/mxv
 BYTE   W02
 BYTE   PEND 
//  #05 //012   ----------------------------------------
 BYTE   PATT
  POIN2 Label_0101ED7B
//  #05 //013   ----------------------------------------
 BYTE   PATT
  POIN2 Label_0101ED7B
//  #05 //014   ----------------------------------------
 BYTE   PATT
  POIN2 Label_0101EF64
//  #05 //015   ----------------------------------------
 BYTE   PATT
  POIN2 Label_0101EC8B
//  #05 //016   ----------------------------------------
 BYTE   PATT
  POIN2 Label_0101ED03
//  #05 //017   ----------------------------------------
Label_0101F15B:
 BYTE   VOL   0*elegy_of_battle_mvl/mxv
 BYTE   N48  Dn1  v044
 BYTE   W01
 BYTE   VOL   0*elegy_of_battle_mvl/mxv
 BYTE   W02
 BYTE   VOL   1*elegy_of_battle_mvl/mxv
 BYTE   W01
 BYTE   VOL   2*elegy_of_battle_mvl/mxv
 BYTE   W02
 BYTE   VOL   3*elegy_of_battle_mvl/mxv
 BYTE   W01
 BYTE   VOL   6*elegy_of_battle_mvl/mxv
 BYTE   W02
 BYTE   VOL   7*elegy_of_battle_mvl/mxv
 BYTE   W01
 BYTE   VOL   10*elegy_of_battle_mvl/mxv
 BYTE   W02
 BYTE   VOL   13*elegy_of_battle_mvl/mxv
 BYTE   W01
 BYTE   VOL   16*elegy_of_battle_mvl/mxv
 BYTE   W02
 BYTE   VOL   19*elegy_of_battle_mvl/mxv
 BYTE   W01
 BYTE   VOL   24*elegy_of_battle_mvl/mxv
 BYTE   W02
 BYTE   VOL   36*elegy_of_battle_mvl/mxv
 BYTE   W01
 BYTE   VOL   54*elegy_of_battle_mvl/mxv
 BYTE   W02
 BYTE   VOL   76*elegy_of_battle_mvl/mxv
 BYTE   W01
 BYTE   VOL   96*elegy_of_battle_mvl/mxv
 BYTE   W02
 BYTE   VOL   100*elegy_of_battle_mvl/mxv
 BYTE   W01
 BYTE   VOL   100*elegy_of_battle_mvl/mxv
 BYTE   W03
 BYTE   VOL   100*elegy_of_battle_mvl/mxv
 BYTE   W02
 BYTE   VOL   100*elegy_of_battle_mvl/mxv
 BYTE   W01
 BYTE   VOL   100*elegy_of_battle_mvl/mxv
 BYTE   W02
 BYTE   VOL   100*elegy_of_battle_mvl/mxv
 BYTE   W01
 BYTE   VOL   100*elegy_of_battle_mvl/mxv
 BYTE   W02
 BYTE   VOL   100*elegy_of_battle_mvl/mxv
 BYTE   W03
 BYTE   VOL   100*elegy_of_battle_mvl/mxv
 BYTE   W03
 BYTE   VOL   100*elegy_of_battle_mvl/mxv
 BYTE   W03
 BYTE   VOL   100*elegy_of_battle_mvl/mxv
 BYTE   W01
 BYTE   VOL   100*elegy_of_battle_mvl/mxv
 BYTE   W02
 BYTE   VOL   100*elegy_of_battle_mvl/mxv
 BYTE   N48  Gn1
 BYTE   W01
 BYTE   VOL   100*elegy_of_battle_mvl/mxv
 BYTE   W02
 BYTE   VOL   100*elegy_of_battle_mvl/mxv
 BYTE   W03
 BYTE   VOL   100*elegy_of_battle_mvl/mxv
 BYTE   W03
 BYTE   VOL   98*elegy_of_battle_mvl/mxv
 BYTE   W01
 BYTE   VOL   100*elegy_of_battle_mvl/mxv
 BYTE   W02
 BYTE   VOL   94*elegy_of_battle_mvl/mxv
 BYTE   W01
 BYTE   VOL   91*elegy_of_battle_mvl/mxv
 BYTE   W02
 BYTE   VOL   83*elegy_of_battle_mvl/mxv
 BYTE   W01
 BYTE   VOL   76*elegy_of_battle_mvl/mxv
 BYTE   W02
 BYTE   VOL   59*elegy_of_battle_mvl/mxv
 BYTE   W01
 BYTE   VOL   59*elegy_of_battle_mvl/mxv
 BYTE   W02
 BYTE   VOL   49*elegy_of_battle_mvl/mxv
 BYTE   W03
 BYTE   VOL   39*elegy_of_battle_mvl/mxv
 BYTE   W01
 BYTE   VOL   36*elegy_of_battle_mvl/mxv
 BYTE   W02
 BYTE   VOL   35*elegy_of_battle_mvl/mxv
 BYTE   W01
 BYTE   VOL   30*elegy_of_battle_mvl/mxv
 BYTE   W02
 BYTE   VOL   24*elegy_of_battle_mvl/mxv
 BYTE   W01
 BYTE   VOL   23*elegy_of_battle_mvl/mxv
 BYTE   W02
 BYTE   VOL   17*elegy_of_battle_mvl/mxv
 BYTE   W01
 BYTE   VOL   14*elegy_of_battle_mvl/mxv
 BYTE   W02
 BYTE   VOL   11*elegy_of_battle_mvl/mxv
 BYTE   W01
 BYTE   VOL   7*elegy_of_battle_mvl/mxv
 BYTE   W02
 BYTE   VOL   5*elegy_of_battle_mvl/mxv
 BYTE   W01
 BYTE   VOL   2*elegy_of_battle_mvl/mxv
 BYTE   W02
 BYTE   VOL   0*elegy_of_battle_mvl/mxv
 BYTE   W01
 BYTE   VOL   0*elegy_of_battle_mvl/mxv
 BYTE   W02
 BYTE   VOL   0*elegy_of_battle_mvl/mxv
 BYTE   W01
 BYTE   VOL   0*elegy_of_battle_mvl/mxv
 BYTE   W02
 BYTE   PEND 
//  #05 //018   ----------------------------------------
 BYTE   PATT
  POIN2 Label_0101ED03
//  #05 //019   ----------------------------------------
Label_0101F1DB:
 BYTE   VOL   0*elegy_of_battle_mvl/mxv
 BYTE   N96  Dn1  v044
 BYTE   W01
 BYTE   VOL   0*elegy_of_battle_mvl/mxv
 BYTE   W02
 BYTE   VOL   1*elegy_of_battle_mvl/mxv
 BYTE   W01
 BYTE   VOL   2*elegy_of_battle_mvl/mxv
 BYTE   W02
 BYTE   VOL   3*elegy_of_battle_mvl/mxv
 BYTE   W01
 BYTE   VOL   6*elegy_of_battle_mvl/mxv
 BYTE   W02
 BYTE   VOL   7*elegy_of_battle_mvl/mxv
 BYTE   W01
 BYTE   VOL   10*elegy_of_battle_mvl/mxv
 BYTE   W02
 BYTE   VOL   13*elegy_of_battle_mvl/mxv
 BYTE   W01
 BYTE   VOL   16*elegy_of_battle_mvl/mxv
 BYTE   W02
 BYTE   VOL   19*elegy_of_battle_mvl/mxv
 BYTE   W01
 BYTE   VOL   24*elegy_of_battle_mvl/mxv
 BYTE   W02
 BYTE   VOL   36*elegy_of_battle_mvl/mxv
 BYTE   W01
 BYTE   VOL   54*elegy_of_battle_mvl/mxv
 BYTE   W02
 BYTE   VOL   76*elegy_of_battle_mvl/mxv
 BYTE   W01
 BYTE   VOL   96*elegy_of_battle_mvl/mxv
 BYTE   W02
 BYTE   VOL   100*elegy_of_battle_mvl/mxv
 BYTE   W01
 BYTE   VOL   100*elegy_of_battle_mvl/mxv
 BYTE   W03
 BYTE   VOL   100*elegy_of_battle_mvl/mxv
 BYTE   W02
 BYTE   VOL   100*elegy_of_battle_mvl/mxv
 BYTE   W01
 BYTE   VOL   100*elegy_of_battle_mvl/mxv
 BYTE   W02
 BYTE   VOL   100*elegy_of_battle_mvl/mxv
 BYTE   W01
 BYTE   VOL   100*elegy_of_battle_mvl/mxv
 BYTE   W02
 BYTE   VOL   100*elegy_of_battle_mvl/mxv
 BYTE   W03
 BYTE   VOL   100*elegy_of_battle_mvl/mxv
 BYTE   W03
 BYTE   VOL   100*elegy_of_battle_mvl/mxv
 BYTE   W03
 BYTE   VOL   100*elegy_of_battle_mvl/mxv
 BYTE   W01
 BYTE   VOL   100*elegy_of_battle_mvl/mxv
 BYTE   W02
 BYTE   VOL   100*elegy_of_battle_mvl/mxv
 BYTE   W01
 BYTE   VOL   100*elegy_of_battle_mvl/mxv
 BYTE   W02
 BYTE   VOL   100*elegy_of_battle_mvl/mxv
 BYTE   W03
 BYTE   VOL   100*elegy_of_battle_mvl/mxv
 BYTE   W03
 BYTE   VOL   98*elegy_of_battle_mvl/mxv
 BYTE   W01
 BYTE   VOL   100*elegy_of_battle_mvl/mxv
 BYTE   W02
 BYTE   VOL   94*elegy_of_battle_mvl/mxv
 BYTE   W01
 BYTE   VOL   91*elegy_of_battle_mvl/mxv
 BYTE   W02
 BYTE   VOL   83*elegy_of_battle_mvl/mxv
 BYTE   W01
 BYTE   VOL   76*elegy_of_battle_mvl/mxv
 BYTE   W02
 BYTE   VOL   59*elegy_of_battle_mvl/mxv
 BYTE   W01
 BYTE   VOL   59*elegy_of_battle_mvl/mxv
 BYTE   W02
 BYTE   VOL   49*elegy_of_battle_mvl/mxv
 BYTE   W03
 BYTE   VOL   39*elegy_of_battle_mvl/mxv
 BYTE   W01
 BYTE   VOL   36*elegy_of_battle_mvl/mxv
 BYTE   W02
 BYTE   VOL   35*elegy_of_battle_mvl/mxv
 BYTE   W01
 BYTE   VOL   30*elegy_of_battle_mvl/mxv
 BYTE   W02
 BYTE   VOL   24*elegy_of_battle_mvl/mxv
 BYTE   W01
 BYTE   VOL   23*elegy_of_battle_mvl/mxv
 BYTE   W02
 BYTE   VOL   17*elegy_of_battle_mvl/mxv
 BYTE   W01
 BYTE   VOL   14*elegy_of_battle_mvl/mxv
 BYTE   W02
 BYTE   VOL   11*elegy_of_battle_mvl/mxv
 BYTE   W01
 BYTE   VOL   7*elegy_of_battle_mvl/mxv
 BYTE   W02
 BYTE   VOL   5*elegy_of_battle_mvl/mxv
 BYTE   W01
 BYTE   VOL   2*elegy_of_battle_mvl/mxv
 BYTE   W02
 BYTE   VOL   0*elegy_of_battle_mvl/mxv
 BYTE   W06
 BYTE   PEND 
//  #05 //020   ----------------------------------------
Label_0101F24D:
 BYTE   VOL   0*elegy_of_battle_mvl/mxv
 BYTE   N96  Gn1  v044
 BYTE   W01
 BYTE   VOL   0*elegy_of_battle_mvl/mxv
 BYTE   W02
 BYTE   VOL   1*elegy_of_battle_mvl/mxv
 BYTE   W01
 BYTE   VOL   2*elegy_of_battle_mvl/mxv
 BYTE   W02
 BYTE   VOL   3*elegy_of_battle_mvl/mxv
 BYTE   W01
 BYTE   VOL   6*elegy_of_battle_mvl/mxv
 BYTE   W02
 BYTE   VOL   7*elegy_of_battle_mvl/mxv
 BYTE   W01
 BYTE   VOL   10*elegy_of_battle_mvl/mxv
 BYTE   W02
 BYTE   VOL   13*elegy_of_battle_mvl/mxv
 BYTE   W01
 BYTE   VOL   16*elegy_of_battle_mvl/mxv
 BYTE   W02
 BYTE   VOL   19*elegy_of_battle_mvl/mxv
 BYTE   W01
 BYTE   VOL   24*elegy_of_battle_mvl/mxv
 BYTE   W02
 BYTE   VOL   36*elegy_of_battle_mvl/mxv
 BYTE   W01
 BYTE   VOL   54*elegy_of_battle_mvl/mxv
 BYTE   W02
 BYTE   VOL   76*elegy_of_battle_mvl/mxv
 BYTE   W01
 BYTE   VOL   96*elegy_of_battle_mvl/mxv
 BYTE   W02
 BYTE   VOL   100*elegy_of_battle_mvl/mxv
 BYTE   W01
 BYTE   VOL   100*elegy_of_battle_mvl/mxv
 BYTE   W03
 BYTE   VOL   100*elegy_of_battle_mvl/mxv
 BYTE   W02
 BYTE   VOL   100*elegy_of_battle_mvl/mxv
 BYTE   W01
 BYTE   VOL   100*elegy_of_battle_mvl/mxv
 BYTE   W02
 BYTE   VOL   100*elegy_of_battle_mvl/mxv
 BYTE   W01
 BYTE   VOL   100*elegy_of_battle_mvl/mxv
 BYTE   W02
 BYTE   VOL   100*elegy_of_battle_mvl/mxv
 BYTE   W03
 BYTE   VOL   100*elegy_of_battle_mvl/mxv
 BYTE   W03
 BYTE   VOL   100*elegy_of_battle_mvl/mxv
 BYTE   W03
 BYTE   VOL   100*elegy_of_battle_mvl/mxv
 BYTE   W01
 BYTE   VOL   100*elegy_of_battle_mvl/mxv
 BYTE   W02
 BYTE   VOL   100*elegy_of_battle_mvl/mxv
 BYTE   W01
 BYTE   VOL   100*elegy_of_battle_mvl/mxv
 BYTE   W02
 BYTE   VOL   100*elegy_of_battle_mvl/mxv
 BYTE   W03
 BYTE   VOL   100*elegy_of_battle_mvl/mxv
 BYTE   W03
 BYTE   VOL   98*elegy_of_battle_mvl/mxv
 BYTE   W01
 BYTE   VOL   100*elegy_of_battle_mvl/mxv
 BYTE   W02
 BYTE   VOL   94*elegy_of_battle_mvl/mxv
 BYTE   W01
 BYTE   VOL   91*elegy_of_battle_mvl/mxv
 BYTE   W02
 BYTE   VOL   83*elegy_of_battle_mvl/mxv
 BYTE   W01
 BYTE   VOL   76*elegy_of_battle_mvl/mxv
 BYTE   W02
 BYTE   VOL   59*elegy_of_battle_mvl/mxv
 BYTE   W01
 BYTE   VOL   59*elegy_of_battle_mvl/mxv
 BYTE   W02
 BYTE   VOL   49*elegy_of_battle_mvl/mxv
 BYTE   W03
 BYTE   VOL   39*elegy_of_battle_mvl/mxv
 BYTE   W01
 BYTE   VOL   36*elegy_of_battle_mvl/mxv
 BYTE   W02
 BYTE   VOL   35*elegy_of_battle_mvl/mxv
 BYTE   W01
 BYTE   VOL   30*elegy_of_battle_mvl/mxv
 BYTE   W02
 BYTE   VOL   24*elegy_of_battle_mvl/mxv
 BYTE   W01
 BYTE   VOL   23*elegy_of_battle_mvl/mxv
 BYTE   W02
 BYTE   VOL   17*elegy_of_battle_mvl/mxv
 BYTE   W01
 BYTE   VOL   14*elegy_of_battle_mvl/mxv
 BYTE   W02
 BYTE   VOL   11*elegy_of_battle_mvl/mxv
 BYTE   W01
 BYTE   VOL   7*elegy_of_battle_mvl/mxv
 BYTE   W02
 BYTE   VOL   5*elegy_of_battle_mvl/mxv
 BYTE   W01
 BYTE   VOL   2*elegy_of_battle_mvl/mxv
 BYTE   W02
 BYTE   VOL   0*elegy_of_battle_mvl/mxv
 BYTE   W06
 BYTE   PEND 
//  #05 //021   ----------------------------------------
 BYTE   PATT
  POIN2 Label_0101F24D
//  #05 //022   ----------------------------------------
 BYTE   VOICE   42
 BYTE   VOL   0*elegy_of_battle_mvl/mxv
 BYTE   N96  Gn1  v044
 BYTE   W01
 BYTE   VOL   0*elegy_of_battle_mvl/mxv
 BYTE   W02
 BYTE   VOL   1*elegy_of_battle_mvl/mxv
 BYTE   W01
 BYTE   VOL   2*elegy_of_battle_mvl/mxv
 BYTE   W02
 BYTE   VOL   3*elegy_of_battle_mvl/mxv
 BYTE   W01
 BYTE   VOL   6*elegy_of_battle_mvl/mxv
 BYTE   W02
 BYTE   VOL   7*elegy_of_battle_mvl/mxv
 BYTE   W01
 BYTE   VOL   10*elegy_of_battle_mvl/mxv
 BYTE   W02
 BYTE   VOL   13*elegy_of_battle_mvl/mxv
 BYTE   W01
 BYTE   VOL   16*elegy_of_battle_mvl/mxv
 BYTE   W02
 BYTE   VOL   19*elegy_of_battle_mvl/mxv
 BYTE   W01
 BYTE   VOL   24*elegy_of_battle_mvl/mxv
 BYTE   W02
 BYTE   VOL   36*elegy_of_battle_mvl/mxv
 BYTE   W01
 BYTE   VOL   54*elegy_of_battle_mvl/mxv
 BYTE   W02
 BYTE   VOL   76*elegy_of_battle_mvl/mxv
 BYTE   W01
 BYTE   VOL   96*elegy_of_battle_mvl/mxv
 BYTE   W02
 BYTE   VOL   100*elegy_of_battle_mvl/mxv
 BYTE   W01
 BYTE   VOL   100*elegy_of_battle_mvl/mxv
 BYTE   W03
 BYTE   VOL   100*elegy_of_battle_mvl/mxv
 BYTE   W02
 BYTE   VOL   100*elegy_of_battle_mvl/mxv
 BYTE   W01
 BYTE   VOL   100*elegy_of_battle_mvl/mxv
 BYTE   W02
 BYTE   VOL   100*elegy_of_battle_mvl/mxv
 BYTE   W01
 BYTE   VOL   100*elegy_of_battle_mvl/mxv
 BYTE   W02
 BYTE   VOL   100*elegy_of_battle_mvl/mxv
 BYTE   W03
 BYTE   VOL   100*elegy_of_battle_mvl/mxv
 BYTE   W03
 BYTE   VOL   100*elegy_of_battle_mvl/mxv
 BYTE   W03
 BYTE   VOL   100*elegy_of_battle_mvl/mxv
 BYTE   W01
 BYTE   VOL   100*elegy_of_battle_mvl/mxv
 BYTE   W02
 BYTE   VOL   100*elegy_of_battle_mvl/mxv
 BYTE   W01
 BYTE   VOL   100*elegy_of_battle_mvl/mxv
 BYTE   W02
 BYTE   VOL   100*elegy_of_battle_mvl/mxv
 BYTE   W03
 BYTE   VOL   100*elegy_of_battle_mvl/mxv
 BYTE   W03
 BYTE   VOL   98*elegy_of_battle_mvl/mxv
 BYTE   W01
 BYTE   VOL   100*elegy_of_battle_mvl/mxv
 BYTE   W02
 BYTE   VOL   94*elegy_of_battle_mvl/mxv
 BYTE   W01
 BYTE   VOL   91*elegy_of_battle_mvl/mxv
 BYTE   W02
 BYTE   VOL   83*elegy_of_battle_mvl/mxv
 BYTE   W01
 BYTE   VOL   76*elegy_of_battle_mvl/mxv
 BYTE   W02
 BYTE   VOL   59*elegy_of_battle_mvl/mxv
 BYTE   W01
 BYTE   VOL   59*elegy_of_battle_mvl/mxv
 BYTE   W02
 BYTE   VOL   49*elegy_of_battle_mvl/mxv
 BYTE   W03
 BYTE   VOL   39*elegy_of_battle_mvl/mxv
 BYTE   W01
 BYTE   VOL   36*elegy_of_battle_mvl/mxv
 BYTE   W02
 BYTE   VOL   35*elegy_of_battle_mvl/mxv
 BYTE   W01
 BYTE   VOL   30*elegy_of_battle_mvl/mxv
 BYTE   W02
 BYTE   VOL   24*elegy_of_battle_mvl/mxv
 BYTE   W01
 BYTE   VOL   23*elegy_of_battle_mvl/mxv
 BYTE   W02
 BYTE   VOL   17*elegy_of_battle_mvl/mxv
 BYTE   W01
 BYTE   VOL   14*elegy_of_battle_mvl/mxv
 BYTE   W02
 BYTE   VOL   11*elegy_of_battle_mvl/mxv
 BYTE   W01
 BYTE   VOL   7*elegy_of_battle_mvl/mxv
 BYTE   W02
 BYTE   VOL   5*elegy_of_battle_mvl/mxv
 BYTE   W01
 BYTE   VOL   2*elegy_of_battle_mvl/mxv
 BYTE   W02
 BYTE   VOL   0*elegy_of_battle_mvl/mxv
 BYTE   W01
 BYTE   VOL   0*elegy_of_battle_mvl/mxv
 BYTE   W02
 BYTE   VOL   0*elegy_of_battle_mvl/mxv
 BYTE   W01
 BYTE   VOL   0*elegy_of_battle_mvl/mxv
 BYTE   W02
//  #05 //023   ----------------------------------------
 BYTE   PATT
  POIN2 Label_0101EC8B
//  #05 //024   ----------------------------------------
 BYTE   PATT
  POIN2 Label_0101ED03
//  #05 //025   ----------------------------------------
 BYTE   PATT
  POIN2 Label_0101ED7B
//  #05 //026   ----------------------------------------
 BYTE   PATT
  POIN2 Label_0101EDF3
//  #05 //027   ----------------------------------------
 BYTE   PATT
  POIN2 Label_0101EE6E
//  #05 //028   ----------------------------------------
 BYTE   PATT
  POIN2 Label_0101EEEF
//  #05 //029   ----------------------------------------
 BYTE   PATT
  POIN2 Label_0101EC8B
//  #05 //030   ----------------------------------------
 BYTE   PATT
  POIN2 Label_0101EF64
//  #05 //031   ----------------------------------------
 BYTE   PATT
  POIN2 Label_0101EFDC
//  #05 //032   ----------------------------------------
 BYTE   PATT
  POIN2 Label_0101F052
//  #05 //033   ----------------------------------------
 BYTE   PATT
  POIN2 Label_0101F0CA
//  #05 //034   ----------------------------------------
 BYTE   PATT
  POIN2 Label_0101ED7B
//  #05 //035   ----------------------------------------
 BYTE   PATT
  POIN2 Label_0101ED7B
//  #05 //036   ----------------------------------------
 BYTE   PATT
  POIN2 Label_0101EF64
//  #05 //037   ----------------------------------------
 BYTE   PATT
  POIN2 Label_0101EC8B
//  #05 //038   ----------------------------------------
 BYTE   PATT
  POIN2 Label_0101ED03
//  #05 //039   ----------------------------------------
 BYTE   PATT
  POIN2 Label_0101F15B
//  #05 //040   ----------------------------------------
 BYTE   PATT
  POIN2 Label_0101ED03
//  #05 //041   ----------------------------------------
 BYTE   PATT
  POIN2 Label_0101F1DB
//  #05 //042   ----------------------------------------
 BYTE   PATT
  POIN2 Label_0101F24D
//  #05 //043   ----------------------------------------
 BYTE   PATT
  POIN2 Label_0101F24D
//  #05 //044   ----------------------------------------
 BYTE   VOL   12*elegy_of_battle_mvl/mxv
 BYTE   TIE  Gn1  v044
 BYTE   W01
 BYTE   VOL   12*elegy_of_battle_mvl/mxv
 BYTE   W02
 BYTE   VOL   14*elegy_of_battle_mvl/mxv
 BYTE   W01
 BYTE   VOL   14*elegy_of_battle_mvl/mxv
 BYTE   W02
 BYTE   VOL   14*elegy_of_battle_mvl/mxv
 BYTE   W01
 BYTE   VOL   18*elegy_of_battle_mvl/mxv
 BYTE   W02
 BYTE   VOL   20*elegy_of_battle_mvl/mxv
 BYTE   W01
 BYTE   VOL   20*elegy_of_battle_mvl/mxv
 BYTE   W02
 BYTE   VOL   24*elegy_of_battle_mvl/mxv
 BYTE   W01
 BYTE   VOL   27*elegy_of_battle_mvl/mxv
 BYTE   W02
 BYTE   VOL   29*elegy_of_battle_mvl/mxv
 BYTE   W01
 BYTE   VOL   32*elegy_of_battle_mvl/mxv
 BYTE   W02
 BYTE   VOL   33*elegy_of_battle_mvl/mxv
 BYTE   W01
 BYTE   VOL   37*elegy_of_battle_mvl/mxv
 BYTE   W02
 BYTE   VOL   42*elegy_of_battle_mvl/mxv
 BYTE   W01
 BYTE   VOL   45*elegy_of_battle_mvl/mxv
 BYTE   W02
 BYTE   VOL   47*elegy_of_battle_mvl/mxv
 BYTE   W01
 BYTE   VOL   50*elegy_of_battle_mvl/mxv
 BYTE   W03
 BYTE   VOL   55*elegy_of_battle_mvl/mxv
 BYTE   W02
 BYTE   VOL   55*elegy_of_battle_mvl/mxv
 BYTE   W01
 BYTE   VOL   57*elegy_of_battle_mvl/mxv
 BYTE   W02
 BYTE   VOL   57*elegy_of_battle_mvl/mxv
 BYTE   W01
 BYTE   VOL   57*elegy_of_battle_mvl/mxv
 BYTE   W02
 BYTE   VOL   57*elegy_of_battle_mvl/mxv
 BYTE   W03
 BYTE   VOL   57*elegy_of_battle_mvl/mxv
 BYTE   W03
 BYTE   VOL   60*elegy_of_battle_mvl/mxv
 BYTE   W03
 BYTE   VOL   62*elegy_of_battle_mvl/mxv
 BYTE   W01
 BYTE   VOL   62*elegy_of_battle_mvl/mxv
 BYTE   W02
 BYTE   VOL   66*elegy_of_battle_mvl/mxv
 BYTE   W01
 BYTE   VOL   66*elegy_of_battle_mvl/mxv
 BYTE   W02
 BYTE   VOL   66*elegy_of_battle_mvl/mxv
 BYTE   W03
 BYTE   VOL   68*elegy_of_battle_mvl/mxv
 BYTE   W03
 BYTE   VOL   68*elegy_of_battle_mvl/mxv
 BYTE   W01
 BYTE   VOL   68*elegy_of_battle_mvl/mxv
 BYTE   W02
 BYTE   VOL   68*elegy_of_battle_mvl/mxv
 BYTE   W01
 BYTE   VOL   68*elegy_of_battle_mvl/mxv
 BYTE   W02
 BYTE   VOL   68*elegy_of_battle_mvl/mxv
 BYTE   W01
 BYTE   VOL   71*elegy_of_battle_mvl/mxv
 BYTE   W02
 BYTE   VOL   71*elegy_of_battle_mvl/mxv
 BYTE   W01
 BYTE   VOL   71*elegy_of_battle_mvl/mxv
 BYTE   W02
 BYTE   VOL   71*elegy_of_battle_mvl/mxv
 BYTE   W03
 BYTE   VOL   71*elegy_of_battle_mvl/mxv
 BYTE   W01
 BYTE   VOL   71*elegy_of_battle_mvl/mxv
 BYTE   W02
 BYTE   VOL   74*elegy_of_battle_mvl/mxv
 BYTE   W01
 BYTE   VOL   74*elegy_of_battle_mvl/mxv
 BYTE   W02
 BYTE   VOL   74*elegy_of_battle_mvl/mxv
 BYTE   W01
 BYTE   VOL   74*elegy_of_battle_mvl/mxv
 BYTE   W02
 BYTE   VOL   74*elegy_of_battle_mvl/mxv
 BYTE   W01
 BYTE   VOL   74*elegy_of_battle_mvl/mxv
 BYTE   W02
 BYTE   VOL   74*elegy_of_battle_mvl/mxv
 BYTE   W01
 BYTE   VOL   74*elegy_of_battle_mvl/mxv
 BYTE   W02
 BYTE   VOL   74*elegy_of_battle_mvl/mxv
 BYTE   W01
 BYTE   VOL   74*elegy_of_battle_mvl/mxv
 BYTE   W02
 BYTE   VOL   74*elegy_of_battle_mvl/mxv
 BYTE   W01
 BYTE   VOL   74*elegy_of_battle_mvl/mxv
 BYTE   W02
 BYTE   VOL   71*elegy_of_battle_mvl/mxv
 BYTE   W01
 BYTE   VOL   71*elegy_of_battle_mvl/mxv
 BYTE   W01
 BYTE   VOL   70*elegy_of_battle_mvl/mxv
 BYTE   W01
//  #05 //045   ----------------------------------------
 BYTE   VOL   70*elegy_of_battle_mvl/mxv
 BYTE   W01
 BYTE   VOL   66*elegy_of_battle_mvl/mxv
 BYTE   W01
 BYTE   VOL   66*elegy_of_battle_mvl/mxv
 BYTE   W01
 BYTE   VOL   64*elegy_of_battle_mvl/mxv
 BYTE   W01
 BYTE   VOL   60*elegy_of_battle_mvl/mxv
 BYTE   W01
 BYTE   VOL   60*elegy_of_battle_mvl/mxv
 BYTE   W01
 BYTE   VOL   59*elegy_of_battle_mvl/mxv
 BYTE   W01
 BYTE   VOL   59*elegy_of_battle_mvl/mxv
 BYTE   W01
 BYTE   VOL   55*elegy_of_battle_mvl/mxv
 BYTE   W01
 BYTE   VOL   54*elegy_of_battle_mvl/mxv
 BYTE   W01
 BYTE   VOL   54*elegy_of_battle_mvl/mxv
 BYTE   W01
 BYTE   VOL   50*elegy_of_battle_mvl/mxv
 BYTE   W01
 BYTE   VOL   50*elegy_of_battle_mvl/mxv
 BYTE   W01
 BYTE   VOL   49*elegy_of_battle_mvl/mxv
 BYTE   W01
 BYTE   VOL   49*elegy_of_battle_mvl/mxv
 BYTE   W01
 BYTE   VOL   45*elegy_of_battle_mvl/mxv
 BYTE   W01
 BYTE   VOL   45*elegy_of_battle_mvl/mxv
 BYTE   W01
 BYTE   VOL   45*elegy_of_battle_mvl/mxv
 BYTE   W01
 BYTE   VOL   44*elegy_of_battle_mvl/mxv
 BYTE   W01
 BYTE   VOL   44*elegy_of_battle_mvl/mxv
 BYTE   W01
 BYTE   VOL   40*elegy_of_battle_mvl/mxv
 BYTE   W01
 BYTE   VOL   40*elegy_of_battle_mvl/mxv
 BYTE   W01
 BYTE   VOL   40*elegy_of_battle_mvl/mxv
 BYTE   W01
 BYTE   VOL   40*elegy_of_battle_mvl/mxv
 BYTE   W01
 BYTE   VOL   39*elegy_of_battle_mvl/mxv
 BYTE   W01
 BYTE   VOL   36*elegy_of_battle_mvl/mxv
 BYTE   W01
 BYTE   VOL   36*elegy_of_battle_mvl/mxv
 BYTE   W01
 BYTE   VOL   36*elegy_of_battle_mvl/mxv
 BYTE   W01
 BYTE   VOL   35*elegy_of_battle_mvl/mxv
 BYTE   W01
 BYTE   VOL   35*elegy_of_battle_mvl/mxv
 BYTE   W01
 BYTE   VOL   32*elegy_of_battle_mvl/mxv
 BYTE   W01
 BYTE   VOL   30*elegy_of_battle_mvl/mxv
 BYTE   W01
 BYTE   VOL   27*elegy_of_battle_mvl/mxv
 BYTE   W01
 BYTE   VOL   26*elegy_of_battle_mvl/mxv
 BYTE   W01
 BYTE   VOL   26*elegy_of_battle_mvl/mxv
 BYTE   W01
 BYTE   VOL   26*elegy_of_battle_mvl/mxv
 BYTE   W01
 BYTE   VOL   24*elegy_of_battle_mvl/mxv
 BYTE   W01
 BYTE   VOL   24*elegy_of_battle_mvl/mxv
 BYTE   W01
 BYTE   VOL   23*elegy_of_battle_mvl/mxv
 BYTE   W01
 BYTE   VOL   20*elegy_of_battle_mvl/mxv
 BYTE   W01
 BYTE   VOL   20*elegy_of_battle_mvl/mxv
 BYTE   W01
 BYTE   VOL   19*elegy_of_battle_mvl/mxv
 BYTE   W01
 BYTE   VOL   19*elegy_of_battle_mvl/mxv
 BYTE   W01
 BYTE   VOL   17*elegy_of_battle_mvl/mxv
 BYTE   W01
 BYTE   VOL   17*elegy_of_battle_mvl/mxv
 BYTE   W01
 BYTE   VOL   16*elegy_of_battle_mvl/mxv
 BYTE   W01
 BYTE   VOL   16*elegy_of_battle_mvl/mxv
 BYTE   W02
 BYTE   VOL   13*elegy_of_battle_mvl/mxv
 BYTE   W01
 BYTE   VOL   13*elegy_of_battle_mvl/mxv
 BYTE   W01
 BYTE   VOL   11*elegy_of_battle_mvl/mxv
 BYTE   W01
 BYTE   VOL   11*elegy_of_battle_mvl/mxv
 BYTE   W01
 BYTE   VOL   10*elegy_of_battle_mvl/mxv
 BYTE   W01
 BYTE   VOL   10*elegy_of_battle_mvl/mxv
 BYTE   W01
 BYTE   VOL   8*elegy_of_battle_mvl/mxv
 BYTE   W01
 BYTE   VOL   8*elegy_of_battle_mvl/mxv
 BYTE   W01
 BYTE   VOL   7*elegy_of_battle_mvl/mxv
 BYTE   W01
 BYTE   VOL   6*elegy_of_battle_mvl/mxv
 BYTE   W01
 BYTE   VOL   6*elegy_of_battle_mvl/mxv
 BYTE   W01
 BYTE   VOL   5*elegy_of_battle_mvl/mxv
 BYTE   W01
 BYTE   VOL   3*elegy_of_battle_mvl/mxv
 BYTE   W05
 BYTE   VOL   2*elegy_of_battle_mvl/mxv
 BYTE   W01
 BYTE   VOL   1*elegy_of_battle_mvl/mxv
 BYTE   W03
 BYTE   VOL   0*elegy_of_battle_mvl/mxv
 BYTE   W03
 BYTE   VOL   0*elegy_of_battle_mvl/mxv
 BYTE   W05
 BYTE   VOL   0*elegy_of_battle_mvl/mxv
 BYTE   W04
 BYTE   VOL   0*elegy_of_battle_mvl/mxv
 BYTE   W06
 BYTE   VOL   0*elegy_of_battle_mvl/mxv
 BYTE   W03
 BYTE   VOL   0*elegy_of_battle_mvl/mxv
 BYTE   W03
 BYTE   VOL   0*elegy_of_battle_mvl/mxv
 BYTE   W01
 BYTE   VOL   0*elegy_of_battle_mvl/mxv
 BYTE   W02
//  #05 //046   ----------------------------------------
 BYTE   EOT
 BYTE   GoTo
  POIN2 Label_0101EC0E
 BYTE   FINE

//**************** Track 6 (Midi-Chn.5) ****************//

elegy_of_battle_006:
//  #06 //000   ----------------------------------------
 BYTE   KEYSH   elegy_of_battle_key+0
Label_0101E9E2:
 BYTE   VOICE   71
 BYTE   MODT 0
 BYTE   LFOS 44
 BYTE   PAN   c_v+0
 BYTE   VOL   100*elegy_of_battle_mvl/mxv
 BYTE   W03
 BYTE   PAN   c_v+24
 BYTE   W92
 BYTE   W01
//  #06 //001   ----------------------------------------
 BYTE   W96
//  #06 //002   ----------------------------------------
 BYTE   W96
//  #06 //003   ----------------------------------------
 BYTE   W96
//  #06 //004   ----------------------------------------
 BYTE   W96
//  #06 //005   ----------------------------------------
 BYTE   W96
//  #06 //006   ----------------------------------------
 BYTE   W96
//  #06 //007   ----------------------------------------
 BYTE   W96
//  #06 //008   ----------------------------------------
 BYTE   W96
//  #06 //009   ----------------------------------------
 BYTE   W96
//  #06 //010   ----------------------------------------
 BYTE   W96
//  #06 //011   ----------------------------------------
 BYTE   W96
//  #06 //012   ----------------------------------------
 BYTE   W96
//  #06 //013   ----------------------------------------
 BYTE   W96
//  #06 //014   ----------------------------------------
Label_0101E9FE:
 BYTE   W36
 BYTE   VOL   0*elegy_of_battle_mvl/mxv
 BYTE   W03
 BYTE   VOL   0*elegy_of_battle_mvl/mxv
 BYTE   W03
 BYTE   VOL   2*elegy_of_battle_mvl/mxv
 BYTE   W03
 BYTE   VOL   3*elegy_of_battle_mvl/mxv
 BYTE   W03
 BYTE   VOL   14*elegy_of_battle_mvl/mxv
 BYTE   N48  As4  v072
 BYTE   W03
 BYTE   VOL   17*elegy_of_battle_mvl/mxv
 BYTE   W03
 BYTE   VOL   29*elegy_of_battle_mvl/mxv
 BYTE   W03
 BYTE   VOL   42*elegy_of_battle_mvl/mxv
 BYTE   W03
 BYTE   VOL   51*elegy_of_battle_mvl/mxv
 BYTE   W03
 BYTE   VOL   62*elegy_of_battle_mvl/mxv
 BYTE   W03
 BYTE   VOL   71*elegy_of_battle_mvl/mxv
 BYTE   W03
 BYTE   VOL   79*elegy_of_battle_mvl/mxv
 BYTE   W15
 BYTE   VOL   71*elegy_of_battle_mvl/mxv
 BYTE   W03
 BYTE   VOL   39*elegy_of_battle_mvl/mxv
 BYTE   W03
 BYTE   VOL   27*elegy_of_battle_mvl/mxv
 BYTE   W03
 BYTE   VOL   23*elegy_of_battle_mvl/mxv
 BYTE   W03
 BYTE   PEND 
//  #06 //015   ----------------------------------------
Label_0101EA25:
 BYTE   VOL   66*elegy_of_battle_mvl/mxv
 BYTE   N96  Dn4  v072
 BYTE   W84
 BYTE   W03
 BYTE   VOL   60*elegy_of_battle_mvl/mxv
 BYTE   W03
 BYTE   VOL   29*elegy_of_battle_mvl/mxv
 BYTE   W03
 BYTE   VOL   14*elegy_of_battle_mvl/mxv
 BYTE   W03
 BYTE   PEND 
//  #06 //016   ----------------------------------------
Label_0101EA34:
 BYTE   VOL   9*elegy_of_battle_mvl/mxv
 BYTE   N72  Gn4  v072
 BYTE   W03
 BYTE   VOL   6*elegy_of_battle_mvl/mxv
 BYTE   W03
 BYTE   VOL   9*elegy_of_battle_mvl/mxv
 BYTE   W03
 BYTE   VOL   22*elegy_of_battle_mvl/mxv
 BYTE   W03
 BYTE   VOL   51*elegy_of_battle_mvl/mxv
 BYTE   W03
 BYTE   VOL   64*elegy_of_battle_mvl/mxv
 BYTE   W44
 BYTE   W01
 BYTE   VOL   54*elegy_of_battle_mvl/mxv
 BYTE   W02
 BYTE   VOL   49*elegy_of_battle_mvl/mxv
 BYTE   W01
 BYTE   VOL   44*elegy_of_battle_mvl/mxv
 BYTE   W01
 BYTE   VOL   37*elegy_of_battle_mvl/mxv
 BYTE   W02
 BYTE   VOL   29*elegy_of_battle_mvl/mxv
 BYTE   W01
 BYTE   VOL   25*elegy_of_battle_mvl/mxv
 BYTE   W02
 BYTE   VOL   23*elegy_of_battle_mvl/mxv
 BYTE   W01
 BYTE   VOL   24*elegy_of_battle_mvl/mxv
 BYTE   W02
 BYTE   VOL   49*elegy_of_battle_mvl/mxv
 BYTE   N24  An4
 BYTE   W01
 BYTE   VOL   64*elegy_of_battle_mvl/mxv
 BYTE   W02
 BYTE   VOL   70*elegy_of_battle_mvl/mxv
 BYTE   W01
 BYTE   VOL   70*elegy_of_battle_mvl/mxv
 BYTE   W02
 BYTE   VOL   70*elegy_of_battle_mvl/mxv
 BYTE   W01
 BYTE   VOL   70*elegy_of_battle_mvl/mxv
 BYTE   W02
 BYTE   VOL   74*elegy_of_battle_mvl/mxv
 BYTE   W08
 BYTE   VOL   74*elegy_of_battle_mvl/mxv
 BYTE   W01
 BYTE   VOL   59*elegy_of_battle_mvl/mxv
 BYTE   W02
 BYTE   VOL   51*elegy_of_battle_mvl/mxv
 BYTE   W01
 BYTE   VOL   44*elegy_of_battle_mvl/mxv
 BYTE   W01
 BYTE   VOL   44*elegy_of_battle_mvl/mxv
 BYTE   W01
 BYTE   VOL   44*elegy_of_battle_mvl/mxv
 BYTE   W01
 BYTE   PEND 
//  #06 //017   ----------------------------------------
Label_0101EA74:
 BYTE   VOL   40*elegy_of_battle_mvl/mxv
 BYTE   N72  Fn4  v072
 BYTE   W01
 BYTE   VOL   49*elegy_of_battle_mvl/mxv
 BYTE   W01
 BYTE   VOL   54*elegy_of_battle_mvl/mxv
 BYTE   W01
 BYTE   VOL   64*elegy_of_battle_mvl/mxv
 BYTE   W60
 BYTE   W03
 BYTE   VOL   51*elegy_of_battle_mvl/mxv
 BYTE   W01
 BYTE   VOL   42*elegy_of_battle_mvl/mxv
 BYTE   W02
 BYTE   VOL   25*elegy_of_battle_mvl/mxv
 BYTE   W01
 BYTE   VOL   25*elegy_of_battle_mvl/mxv
 BYTE   W02
 BYTE   VOL   36*elegy_of_battle_mvl/mxv
 BYTE   N24  Dn4
 BYTE   W01
 BYTE   VOL   49*elegy_of_battle_mvl/mxv
 BYTE   W02
 BYTE   VOL   64*elegy_of_battle_mvl/mxv
 BYTE   W01
 BYTE   VOL   64*elegy_of_battle_mvl/mxv
 BYTE   W02
 BYTE   VOL   66*elegy_of_battle_mvl/mxv
 BYTE   W03
 BYTE   VOL   60*elegy_of_battle_mvl/mxv
 BYTE   W03
 BYTE   VOL   70*elegy_of_battle_mvl/mxv
 BYTE   W03
 BYTE   VOL   64*elegy_of_battle_mvl/mxv
 BYTE   W03
 BYTE   VOL   37*elegy_of_battle_mvl/mxv
 BYTE   W01
 BYTE   VOL   30*elegy_of_battle_mvl/mxv
 BYTE   W02
 BYTE   VOL   19*elegy_of_battle_mvl/mxv
 BYTE   W01
 BYTE   VOL   18*elegy_of_battle_mvl/mxv
 BYTE   W02
 BYTE   PEND 
//  #06 //018   ----------------------------------------
Label_0101EAA6:
 BYTE   VOL   26*elegy_of_battle_mvl/mxv
 BYTE   N92  Gn4  v072
 BYTE   W01
 BYTE   VOL   35*elegy_of_battle_mvl/mxv
 BYTE   W02
 BYTE   VOL   59*elegy_of_battle_mvl/mxv
 BYTE   W01
 BYTE   VOL   64*elegy_of_battle_mvl/mxv
 BYTE   W02
 BYTE   VOL   70*elegy_of_battle_mvl/mxv
 BYTE   W80
 BYTE   W01
 BYTE   VOL   42*elegy_of_battle_mvl/mxv
 BYTE   W03
 BYTE   VOL   19*elegy_of_battle_mvl/mxv
 BYTE   W03
 BYTE   VOL   13*elegy_of_battle_mvl/mxv
 BYTE   W03
 BYTE   PEND 
//  #06 //019   ----------------------------------------
Label_0101EABD:
 BYTE   VOL   14*elegy_of_battle_mvl/mxv
 BYTE   N48  Gn4  v072
 BYTE   W03
 BYTE   VOL   20*elegy_of_battle_mvl/mxv
 BYTE   W03
 BYTE   VOL   39*elegy_of_battle_mvl/mxv
 BYTE   W03
 BYTE   VOL   77*elegy_of_battle_mvl/mxv
 BYTE   W30
 BYTE   VOL   60*elegy_of_battle_mvl/mxv
 BYTE   W03
 BYTE   VOL   35*elegy_of_battle_mvl/mxv
 BYTE   W03
 BYTE   VOL   25*elegy_of_battle_mvl/mxv
 BYTE   W03
 BYTE   VOL   35*elegy_of_battle_mvl/mxv
 BYTE   N48  Fs4
 BYTE   W03
 BYTE   VOL   54*elegy_of_battle_mvl/mxv
 BYTE   W03
 BYTE   VOL   77*elegy_of_battle_mvl/mxv
 BYTE   W03
 BYTE   VOL   88*elegy_of_battle_mvl/mxv
 BYTE   W32
 BYTE   W01
 BYTE   VOL   70*elegy_of_battle_mvl/mxv
 BYTE   W03
 BYTE   VOL   51*elegy_of_battle_mvl/mxv
 BYTE   W03
 BYTE   PEND 
//  #06 //020   ----------------------------------------
Label_0101EAE1:
 BYTE   VOL   39*elegy_of_battle_mvl/mxv
 BYTE   N96  Gn4  v072
 BYTE   W03
 BYTE   VOL   29*elegy_of_battle_mvl/mxv
 BYTE   W03
 BYTE   VOL   26*elegy_of_battle_mvl/mxv
 BYTE   W03
 BYTE   VOL   30*elegy_of_battle_mvl/mxv
 BYTE   W03
 BYTE   VOL   36*elegy_of_battle_mvl/mxv
 BYTE   W03
 BYTE   VOL   45*elegy_of_battle_mvl/mxv
 BYTE   W03
 BYTE   VOL   70*elegy_of_battle_mvl/mxv
 BYTE   W03
 BYTE   VOL   88*elegy_of_battle_mvl/mxv
 BYTE   W03
 BYTE   VOL   88*elegy_of_battle_mvl/mxv
 BYTE   W56
 BYTE   W01
 BYTE   VOL   76*elegy_of_battle_mvl/mxv
 BYTE   W03
 BYTE   VOL   44*elegy_of_battle_mvl/mxv
 BYTE   W03
 BYTE   VOL   32*elegy_of_battle_mvl/mxv
 BYTE   W03
 BYTE   VOL   24*elegy_of_battle_mvl/mxv
 BYTE   W03
 BYTE   VOL   19*elegy_of_battle_mvl/mxv
 BYTE   W03
 BYTE   PEND 
//  #06 //021   ----------------------------------------
Label_0101EB04:
 BYTE   VOL   17*elegy_of_battle_mvl/mxv
 BYTE   N84  Gn4  v072
 BYTE   W03
 BYTE   VOL   17*elegy_of_battle_mvl/mxv
 BYTE   W03
 BYTE   VOL   18*elegy_of_battle_mvl/mxv
 BYTE   W03
 BYTE   VOL   22*elegy_of_battle_mvl/mxv
 BYTE   W03
 BYTE   VOL   21*elegy_of_battle_mvl/mxv
 BYTE   W03
 BYTE   VOL   24*elegy_of_battle_mvl/mxv
 BYTE   W03
 BYTE   VOL   29*elegy_of_battle_mvl/mxv
 BYTE   W03
 BYTE   VOL   32*elegy_of_battle_mvl/mxv
 BYTE   W03
 BYTE   VOL   36*elegy_of_battle_mvl/mxv
 BYTE   W03
 BYTE   VOL   36*elegy_of_battle_mvl/mxv
 BYTE   W03
 BYTE   VOL   36*elegy_of_battle_mvl/mxv
 BYTE   W03
 BYTE   VOL   37*elegy_of_battle_mvl/mxv
 BYTE   W03
 BYTE   VOL   40*elegy_of_battle_mvl/mxv
 BYTE   W03
 BYTE   VOL   45*elegy_of_battle_mvl/mxv
 BYTE   W03
 BYTE   VOL   47*elegy_of_battle_mvl/mxv
 BYTE   W03
 BYTE   VOL   51*elegy_of_battle_mvl/mxv
 BYTE   W03
 BYTE   VOL   55*elegy_of_battle_mvl/mxv
 BYTE   W06
 BYTE   VOL   55*elegy_of_battle_mvl/mxv
 BYTE   W03
 BYTE   VOL   50*elegy_of_battle_mvl/mxv
 BYTE   W03
 BYTE   VOL   45*elegy_of_battle_mvl/mxv
 BYTE   W03
 BYTE   VOL   40*elegy_of_battle_mvl/mxv
 BYTE   W03
 BYTE   VOL   39*elegy_of_battle_mvl/mxv
 BYTE   W03
 BYTE   VOL   35*elegy_of_battle_mvl/mxv
 BYTE   W03
 BYTE   VOL   27*elegy_of_battle_mvl/mxv
 BYTE   W03
 BYTE   VOL   24*elegy_of_battle_mvl/mxv
 BYTE   W03
 BYTE   VOL   19*elegy_of_battle_mvl/mxv
 BYTE   W03
 BYTE   VOL   16*elegy_of_battle_mvl/mxv
 BYTE   W03
 BYTE   VOL   10*elegy_of_battle_mvl/mxv
 BYTE   W03
 BYTE   VOL   6*elegy_of_battle_mvl/mxv
 BYTE   W03
 BYTE   VOL   3*elegy_of_battle_mvl/mxv
 BYTE   W03
 BYTE   VOL   1*elegy_of_battle_mvl/mxv
 BYTE   W03
 BYTE   PEND 
//  #06 //022   ----------------------------------------
 BYTE   VOICE   71
 BYTE   W03
 BYTE   PAN   c_v+24
 BYTE   W92
 BYTE   W01
//  #06 //023   ----------------------------------------
 BYTE   W96
//  #06 //024   ----------------------------------------
 BYTE   W96
//  #06 //025   ----------------------------------------
 BYTE   W96
//  #06 //026   ----------------------------------------
 BYTE   W96
//  #06 //027   ----------------------------------------
 BYTE   W96
//  #06 //028   ----------------------------------------
 BYTE   W96
//  #06 //029   ----------------------------------------
 BYTE   W96
//  #06 //030   ----------------------------------------
 BYTE   W96
//  #06 //031   ----------------------------------------
 BYTE   W96
//  #06 //032   ----------------------------------------
 BYTE   W96
//  #06 //033   ----------------------------------------
 BYTE   W96
//  #06 //034   ----------------------------------------
 BYTE   W96
//  #06 //035   ----------------------------------------
 BYTE   W96
//  #06 //036   ----------------------------------------
 BYTE   PATT
  POIN2 Label_0101E9FE
//  #06 //037   ----------------------------------------
 BYTE   PATT
  POIN2 Label_0101EA25
//  #06 //038   ----------------------------------------
 BYTE   PATT
  POIN2 Label_0101EA34
//  #06 //039   ----------------------------------------
 BYTE   PATT
  POIN2 Label_0101EA74
//  #06 //040   ----------------------------------------
 BYTE   PATT
  POIN2 Label_0101EAA6
//  #06 //041   ----------------------------------------
 BYTE   PATT
  POIN2 Label_0101EABD
//  #06 //042   ----------------------------------------
 BYTE   PATT
  POIN2 Label_0101EAE1
//  #06 //043   ----------------------------------------
 BYTE   PATT
  POIN2 Label_0101EB04
//  #06 //044   ----------------------------------------
 BYTE   VOICE   71
 BYTE   VOL   23*elegy_of_battle_mvl/mxv
 BYTE   PAN   c_v+24
 BYTE   VOL   88*elegy_of_battle_mvl/mxv
 BYTE   TIE  Gn2  v016
 BYTE   W15
 BYTE   VOL   88*elegy_of_battle_mvl/mxv
 BYTE   W03
 BYTE   VOL   85*elegy_of_battle_mvl/mxv
 BYTE   W12
 BYTE   VOL   85*elegy_of_battle_mvl/mxv
 BYTE   W03
 BYTE   VOL   85*elegy_of_battle_mvl/mxv
 BYTE   W06
 BYTE   VOL   79*elegy_of_battle_mvl/mxv
 BYTE   W03
 BYTE   VOL   76*elegy_of_battle_mvl/mxv
 BYTE   W03
 BYTE   VOL   64*elegy_of_battle_mvl/mxv
 BYTE   W03
 BYTE   VOL   57*elegy_of_battle_mvl/mxv
 BYTE   W03
 BYTE   VOL   51*elegy_of_battle_mvl/mxv
 BYTE   W03
 BYTE   VOL   44*elegy_of_battle_mvl/mxv
 BYTE   W03
 BYTE   VOL   42*elegy_of_battle_mvl/mxv
 BYTE   W03
 BYTE   VOL   37*elegy_of_battle_mvl/mxv
 BYTE   W03
 BYTE   VOL   33*elegy_of_battle_mvl/mxv
 BYTE   W03
 BYTE   VOL   29*elegy_of_battle_mvl/mxv
 BYTE   W03
 BYTE   VOL   25*elegy_of_battle_mvl/mxv
 BYTE   W03
 BYTE   VOL   23*elegy_of_battle_mvl/mxv
 BYTE   W03
 BYTE   VOL   22*elegy_of_battle_mvl/mxv
 BYTE   W03
 BYTE   VOL   19*elegy_of_battle_mvl/mxv
 BYTE   W03
 BYTE   VOL   18*elegy_of_battle_mvl/mxv
 BYTE   W03
 BYTE   VOL   16*elegy_of_battle_mvl/mxv
 BYTE   W06
 BYTE   VOL   13*elegy_of_battle_mvl/mxv
 BYTE   W03
 BYTE   VOL   12*elegy_of_battle_mvl/mxv
 BYTE   W03
//  #06 //045   ----------------------------------------
 BYTE   VOL   7*elegy_of_battle_mvl/mxv
 BYTE   W03
 BYTE   VOL   5*elegy_of_battle_mvl/mxv
 BYTE   W03
 BYTE   VOL   4*elegy_of_battle_mvl/mxv
 BYTE   W03
 BYTE   VOL   3*elegy_of_battle_mvl/mxv
 BYTE   W03
 BYTE   VOL   1*elegy_of_battle_mvl/mxv
 BYTE   W03
 BYTE   VOL   0*elegy_of_battle_mvl/mxv
 BYTE   W03
 BYTE   VOL   0*elegy_of_battle_mvl/mxv
 BYTE   W09
 BYTE   VOL   0*elegy_of_battle_mvl/mxv
 BYTE   W09
 BYTE   VOL   0*elegy_of_battle_mvl/mxv
 BYTE   W03
 BYTE   VOL   0*elegy_of_battle_mvl/mxv
 BYTE   W03
 BYTE   VOL   0*elegy_of_battle_mvl/mxv
 BYTE   W09
 BYTE   VOL   0*elegy_of_battle_mvl/mxv
 BYTE   W06
 BYTE   VOL   0*elegy_of_battle_mvl/mxv
 BYTE   W09
 BYTE   VOL   0*elegy_of_battle_mvl/mxv
 BYTE   W06
 BYTE   VOL   0*elegy_of_battle_mvl/mxv
 BYTE   W18
 BYTE   EOT
 BYTE   W06
//  #06 //046   ----------------------------------------
 BYTE   GoTo
  POIN2 Label_0101E9E2
 BYTE   FINE

//******************************************************//
	ALIGN 4

elegy_of_battle:
	BYTE	6	// NumTrks
	BYTE	0	// NumBlks
	BYTE	elegy_of_battle_pri	// Priority
	BYTE	elegy_of_battle_rev	// Reverb.
    
	POIN2	elegy_of_battle_grp
    
	POIN2	elegy_of_battle_001
	POIN2	elegy_of_battle_002
	POIN2	elegy_of_battle_003
	POIN2	elegy_of_battle_004
	POIN2	elegy_of_battle_005
	POIN2	elegy_of_battle_006

	
